<svg version="1.1" id="Layer_1" xmlns="http://www.w3.org/2000/svg" xmlns:xlink="http://www.w3.org/1999/xlink" x="0px" y="0px"	 width="100%" viewBox="0 0 1080 1080" xml:space="preserve"> <path fill="#F4E8DC" opacity="1.000000" stroke="none" d=" M272.818909,246.907623 C272.818909,246.907623 272.359222,246.995865 271.988464,246.634384 C257.243561,230.864243 245.058136,213.813217 234.246841,195.788010 C229.298019,187.537079 224.976730,178.909775 220.323227,170.102356 C218.731415,165.166885 217.187210,160.582199 215.658112,155.642502 C215.100525,153.531082 214.527847,151.774673 213.979462,149.609299 C213.833023,148.127380 213.662292,147.054398 213.585297,145.575790 C213.178528,142.920746 212.678040,140.671356 212.334320,138.132233 C212.613297,136.545746 212.735519,135.248962 213.077713,133.642670 C213.383194,131.226364 213.468704,129.119583 213.670105,126.597565 C215.420181,121.166176 216.444580,115.841133 218.800568,111.190674 C226.503189,95.986488 238.527557,85.595078 255.277176,80.660049 C256.020599,80.427673 256.488373,80.163010 257.304993,79.901367 C258.095367,79.766945 258.536865,79.629494 259.340485,79.532990 C261.142029,79.272011 262.581482,78.970085 264.481354,78.742622 C270.286865,78.773842 275.631989,78.730591 281.335815,78.795792 C282.434875,79.012016 283.175262,79.119789 284.175385,79.426468 C285.294495,79.739807 286.153870,79.854233 287.204956,80.175110 C287.930511,80.500542 288.464325,80.619522 289.350647,80.879044 C309.492767,87.697411 322.259033,101.193413 328.456665,121.273972 C328.649689,122.004929 328.906281,122.466347 329.149902,123.284470 C329.260742,124.098389 329.384613,124.555618 329.427246,125.354919 C329.651489,126.756264 329.956940,127.815544 330.213257,129.347656 C330.201721,135.254349 330.239319,140.688187 330.042175,146.335022 C329.754425,147.358704 329.701355,148.169403 329.509003,149.299240 C329.365509,150.078629 329.361328,150.538895 329.166443,151.329224 C326.102173,159.426071 323.632416,167.372208 320.277527,174.925186 C311.046509,195.707489 297.851196,214.023514 283.976105,231.885666 C280.150665,236.810349 276.532288,241.895889 272.818909,246.907623 M260.023834,119.741623 C259.272583,120.422798 258.521332,121.103981 257.157532,122.060043 C249.512894,129.100113 248.124344,140.162155 253.805038,148.767761 C259.817108,157.875290 270.400757,161.176437 280.490112,156.653763 C288.055450,153.262497 292.374054,147.204941 292.891296,138.799500 C293.462860,129.511520 289.272736,122.651337 281.232208,118.430931 C274.327087,114.806511 267.243011,114.672943 260.023834,119.741623 z"/> <path fill="#BC57F4" opacity="1.000000" stroke="none" d=" M705.109436,559.160217 C717.273499,558.538879 723.813171,564.448608 723.962524,576.399353 C724.075012,585.401428 724.444275,594.438110 723.819092,603.397949 C723.418030,609.144958 721.435730,614.784485 720.130981,620.465027 C718.452576,627.772644 716.940063,635.126648 714.973328,642.356628 C713.769165,646.782898 711.951782,651.056274 710.224121,655.323120 C707.200623,662.790466 704.370239,670.364441 700.835754,677.588806 C697.089539,685.245972 692.867554,692.702820 688.380310,699.954346 C684.992371,705.429321 684.818176,708.940735 689.622009,713.499512 C697.464783,720.942322 706.231689,725.671936 716.801819,728.237610 C725.629578,730.380493 733.442444,727.845642 741.667603,726.176758 C752.107788,724.058350 760.015015,717.623840 768.754211,712.175476 C782.065735,703.876587 791.404907,692.092529 801.130432,680.458923 C805.414673,675.334229 809.951538,670.323486 813.500305,664.709045 C816.912720,659.310364 819.152161,653.176575 821.992676,647.408020 C824.011536,643.308105 826.152527,639.267700 828.274109,635.219238 C833.195129,625.828735 837.701294,616.180725 843.247925,607.174377 C846.192322,602.393494 851.052612,598.819397 854.877686,594.548035 C861.388123,587.278076 870.160400,583.711121 879.049194,581.342346 C884.963806,579.766052 891.668335,581.442505 897.953918,580.902527 C907.505127,580.082031 916.047180,583.486755 923.873840,587.734070 C931.495605,591.870056 938.022705,598.044556 944.950562,603.426819 C947.495483,605.403992 948.054932,604.324890 949.139709,601.825500 C952.272827,594.605957 957.097107,589.324097 964.380005,589.047668 C969.364807,588.858398 975.899963,594.934021 975.964417,599.879639 C976.049988,606.434326 977.158569,613.271790 971.425659,618.499084 C971.178223,618.724670 972.208435,620.806519 973.041931,621.610474 C973.646606,622.193665 975.346436,622.610718 975.813049,622.217590 C980.388123,618.363892 986.884888,616.711243 989.395386,610.426819 C989.689331,609.691040 990.918701,609.050110 991.810120,608.886230 C994.159119,608.454529 997.666565,607.253662 998.672852,608.307312 C1000.055298,609.754883 1000.546631,613.446350 999.666870,615.377686 C997.710083,619.673096 995.357788,624.301514 991.857666,627.229004 C988.671204,629.894165 983.839844,630.833313 979.573059,631.878174 C976.904114,632.531799 973.747437,631.341858 971.156372,632.125549 C968.246521,633.005737 964.591003,634.536621 963.253906,636.908508 C959.438416,643.676636 956.800842,651.096008 953.387207,658.106934 C949.951477,665.163147 945.990967,671.963257 942.535889,679.010681 C939.172058,685.871826 936.221008,692.933899 932.972961,699.853516 C928.710815,708.933594 924.342773,717.964172 920.007019,727.009644 C913.027161,741.571350 906.074951,756.146545 899.031433,770.677490 C896.131836,776.659302 892.852478,782.460388 890.049744,788.485046 C884.268250,800.913025 878.815979,813.494812 872.977722,825.895386 C869.992310,832.236389 866.163635,838.185364 863.266663,844.561584 C860.172302,851.372192 857.928772,858.565796 854.933472,865.426147 C852.567383,870.845337 850.076904,876.322449 846.757019,881.167664 C844.978882,883.762756 841.517456,886.275574 838.493896,886.742432 C829.917114,888.066833 821.183899,888.619202 812.494263,888.882751 C807.083191,889.046875 803.230835,883.741272 803.046387,876.577454 C802.921997,871.747925 805.929993,866.772278 810.946716,864.648132 C818.193909,861.579590 825.331909,862.364624 832.578674,861.962463 C833.739929,861.898010 834.919556,861.883484 836.073181,862.008057 C845.649475,863.041565 847.734741,861.195190 849.053345,851.210876 C849.282227,849.477966 851.093018,848.012268 851.843018,846.280212 C855.533386,837.757690 859.305786,829.262451 862.683899,820.614807 C867.408020,808.521240 871.605408,796.220215 876.416504,784.162781 C879.855530,775.544128 884.214661,767.292236 887.644897,758.670471 C891.106934,749.969299 893.725159,740.934875 897.098694,732.195251 C899.669434,725.535400 903.017029,719.178589 905.695740,712.556152 C908.012817,706.827698 909.671814,700.833252 911.984436,695.102722 C915.659973,685.995422 919.757996,677.058777 923.444214,667.955444 C925.832581,662.057617 927.704834,655.952820 929.990051,650.010559 C933.111511,641.893921 936.574585,633.905396 939.554138,625.739014 C941.031616,621.689575 941.756348,617.365479 942.667969,613.771179 C938.002502,610.782776 934.116699,608.566467 930.529785,605.941772 C922.070129,599.751160 912.675110,594.730286 902.766541,592.484863 C895.501343,590.838562 887.358032,591.016357 879.335205,593.477844 C871.379456,595.918640 864.787842,600.132568 859.448608,605.587585 C851.460571,613.748840 845.992371,623.944153 840.914062,634.265930 C833.064941,650.219360 826.026428,666.631592 814.355225,680.456970 C807.497986,688.579834 802.069580,698.029114 794.607178,705.490234 C785.527588,714.568298 775.717346,723.166260 763.400452,728.113098 C760.858643,729.133972 758.971436,731.716125 756.461792,732.896973 C743.820190,738.845032 730.368835,741.604980 716.562683,739.792969 C706.012512,738.408264 696.205200,734.191101 688.005310,726.928528 C685.250244,724.488464 682.584351,721.382996 679.299133,720.229431 C673.362183,718.144775 671.049866,724.123779 668.490479,727.453003 C660.107910,738.356934 649.144287,745.440247 636.781311,750.605225 C633.257385,752.077454 629.185852,752.936462 625.378357,752.894714 C615.913757,752.790955 607.504578,749.254761 600.700806,742.682495 C599.741760,741.756104 600.258179,737.252258 601.234741,736.782837 C603.536743,735.676575 606.710144,735.282776 609.203064,735.908081 C614.113892,737.140015 618.721130,740.427002 623.599548,740.765564 C633.294983,741.438416 641.838196,737.239929 649.265808,731.180359 C654.040955,727.284668 658.679565,723.146301 662.884583,718.653503 C665.662842,715.685181 667.738342,711.992493 669.732605,708.404175 C670.228455,707.512024 669.457153,705.622681 668.814148,704.438171 C664.716919,696.890930 659.950867,689.651978 656.495911,681.829651 C654.095337,676.394531 653.129150,670.243042 652.091614,664.311951 C651.033630,658.263611 650.884644,652.059631 649.919861,645.990234 C649.403687,642.743591 647.338989,639.665833 647.200256,636.458679 C647.068115,633.405457 648.661377,630.307678 649.251709,627.183350 C649.702881,624.795715 649.772644,622.336060 650.343384,619.600830 C651.160217,619.544434 651.645630,619.795715 652.138245,620.492676 C651.808899,624.913330 651.225830,628.885376 651.175903,632.864075 C650.855347,658.397705 658.169495,681.764404 671.794067,703.187012 C674.008728,706.669250 674.555176,709.158997 671.508362,712.337402 C665.193970,718.924500 659.576416,726.239929 652.866211,732.373962 C640.990845,743.229614 623.680237,749.486816 607.293579,737.855347 C606.493225,737.287170 604.784058,737.999390 603.498047,738.115356 C603.946350,739.203552 604.083069,740.699463 604.891052,741.317078 C613.171753,747.645813 622.558350,749.649353 632.706665,747.622742 C647.564697,744.655457 658.080139,734.989563 667.782288,724.247925 C671.104980,720.569336 674.080750,716.577393 678.499756,711.150940 C680.909424,714.263306 682.754089,717.278259 685.192993,719.692932 C700.726440,735.071960 719.460266,739.470032 740.377075,734.664124 C757.348572,730.764648 771.547791,721.413391 784.325317,709.973816 C808.080261,688.706238 824.353210,662.198425 837.770203,633.580444 C842.033325,624.487244 847.489563,615.732178 853.653931,607.796509 C867.652466,589.775269 887.823242,584.291870 909.439636,591.295166 C922.037476,595.376709 932.664551,602.695374 942.945312,610.717529 C944.260925,611.744141 946.070190,612.138062 947.421692,613.183594 C940.518066,630.769592 933.936890,648.033997 927.152283,665.217957 C901.535767,730.099182 875.848145,794.952332 850.210876,859.825256 C848.984131,862.929443 847.985229,866.123596 846.880249,869.275879 C847.254822,869.428772 847.629333,869.581726 848.003906,869.734619 C848.893738,868.017700 849.830139,866.323120 850.666321,864.580444 C865.074829,834.551636 879.444824,804.504272 893.876099,774.486511 C916.821350,726.759094 939.839661,679.066772 962.695862,631.296936 C964.184143,628.186523 965.652893,627.697571 968.840576,628.515015 C982.921753,632.125854 991.149658,623.423950 996.370850,613.343567 C996.730957,612.648499 996.003601,611.390198 995.781982,610.393921 C994.799072,610.683899 993.457581,610.668457 992.901001,611.321716 C991.290833,613.211304 990.146729,615.496338 988.547729,617.397339 C984.808899,621.842224 980.018616,624.222473 974.113892,624.022278 C967.829956,623.809265 966.740540,622.313965 969.745789,616.973572 C972.908875,611.352539 974.531250,605.878296 972.049011,599.501587 C969.362000,592.598755 965.194336,591.035889 958.838196,594.934265 C953.331116,598.311951 950.963318,603.730225 948.725830,609.428467 C937.668823,600.255981 926.481018,591.908569 913.142578,587.018860 C893.544922,579.834656 875.232849,581.415161 858.857605,595.361694 C848.657349,604.049072 841.104980,614.795837 835.703674,626.901001 C824.785828,651.369446 811.884644,674.525146 793.666321,694.423645 C780.944885,708.318176 766.852173,720.348755 749.057068,727.316162 C724.554321,736.909912 701.572693,731.723511 684.495117,712.728760 C682.421875,710.422852 679.441284,708.346924 682.234680,704.214111 C694.063293,686.713928 702.520325,667.513123 709.482056,647.676758 C716.774780,626.897034 722.745911,605.788574 722.260498,583.417542 C721.931458,568.254150 718.967957,563.977539 705.109436,559.160217 M845.342407,871.869934 C842.636536,868.947998 840.887146,864.658752 835.882507,864.950623 C828.777283,865.364990 821.638977,865.563232 814.587708,866.440247 C808.806702,867.159180 805.165039,872.177246 805.899902,877.252930 C806.710022,882.848389 811.390076,886.252991 817.458252,885.680969 C822.733521,885.183716 828.006531,884.653015 833.288147,884.232483 C841.732544,883.560242 844.797791,880.636963 846.383545,871.963196 C846.380127,871.756714 846.376709,871.550232 846.373291,871.343750 C846.255127,871.570068 846.137024,871.796326 845.342407,871.869934 z"/> <path fill="#EFDBDE" opacity="1.000000" stroke="none" d=" M704.687622,559.110229 C718.967957,563.977539 721.931458,568.254150 722.260498,583.417542 C722.745911,605.788574 716.774780,626.897034 709.482056,647.676758 C702.520325,667.513123 694.063293,686.713928 682.234680,704.214111 C679.441284,708.346924 682.421875,710.422852 684.495117,712.728760 C701.572693,731.723511 724.554321,736.909912 749.057068,727.316162 C766.852173,720.348755 780.944885,708.318176 793.666321,694.423645 C811.884644,674.525146 824.785828,651.369446 835.703674,626.901001 C841.104980,614.795837 848.657349,604.049072 858.857605,595.361694 C875.232849,581.415161 893.544922,579.834656 913.142578,587.018860 C926.481018,591.908569 937.668823,600.255981 948.701538,609.724731 C948.576843,611.007935 948.113831,611.916565 947.650757,612.825134 C946.070190,612.138062 944.260925,611.744141 942.945312,610.717529 C932.664551,602.695374 922.037476,595.376709 909.439636,591.295166 C887.823242,584.291870 867.652466,589.775269 853.653931,607.796509 C847.489563,615.732178 842.033325,624.487244 837.770203,633.580444 C824.353210,662.198425 808.080261,688.706238 784.325317,709.973816 C771.547791,721.413391 757.348572,730.764648 740.377075,734.664124 C719.460266,739.470032 700.726440,735.071960 685.192993,719.692932 C682.754089,717.278259 680.909424,714.263306 678.499756,711.150940 C674.080750,716.577393 671.104980,720.569336 667.782288,724.247925 C658.080139,734.989563 647.564697,744.655457 632.706665,747.622742 C622.558350,749.649353 613.171753,747.645813 604.891052,741.317078 C604.083069,740.699463 603.946350,739.203552 603.498047,738.115356 C604.784058,737.999390 606.493225,737.287170 607.293579,737.855347 C623.680237,749.486816 640.990845,743.229614 652.866211,732.373962 C659.576416,726.239929 665.193970,718.924500 671.508362,712.337402 C674.555176,709.158997 674.008728,706.669250 671.794067,703.187012 C658.169495,681.764404 650.855347,658.397705 651.175903,632.864075 C651.225830,628.885376 651.808899,624.913330 652.347534,620.181152 C654.347778,613.052124 655.572998,606.447571 658.049194,600.351135 C666.173767,580.347839 678.131042,564.055725 700.898804,559.159912 C702.021118,559.126709 703.143433,559.093506 704.687622,559.110229 M718.211975,581.281738 C717.231140,566.987000 708.653503,561.021118 695.068726,565.474609 C691.645874,566.596741 688.283569,568.308105 685.325073,570.368469 C675.344238,577.319458 668.442078,586.894775 663.753296,597.947449 C651.009705,627.987610 654.354431,657.498413 667.506470,686.449463 C670.122314,692.207764 673.688721,697.534119 677.158936,703.664001 C678.425720,701.839966 679.017090,701.051636 679.543091,700.221863 C695.657837,674.798523 706.826416,647.219849 713.752563,618.063293 C716.525818,606.388916 716.869812,594.137512 718.211975,581.281738 z"/> <path fill="#E9CDE1" opacity="1.000000" stroke="none" d=" M309.682495,906.952515 C299.222992,906.257141 288.744659,905.760925 278.312866,904.772888 C273.851807,904.350342 269.487366,902.904785 265.079803,901.920349 C261.507721,901.122559 259.735046,899.006897 260.132294,895.244568 C260.490387,891.853577 260.057434,888.159851 261.281219,885.127563 C263.469940,879.704529 271.736298,877.694946 279.393188,880.543396 C284.295044,881.468567 288.631561,882.258179 292.998169,882.495972 C310.729767,883.461792 328.470551,884.258240 346.655426,885.137817 C355.157318,885.113342 363.211731,885.068054 371.266174,885.022827 C376.043121,885.387512 381.134094,889.730835 381.777771,893.990601 C382.610229,899.500122 379.539398,904.600403 373.191650,906.798584 C351.466736,906.803711 330.574615,906.878113 309.682495,906.952515 z"/> <path fill="#BB5AF3" opacity="1.000000" stroke="none" d=" M93.003212,804.949036 C95.715080,797.798218 97.418152,790.407593 101.362885,784.518555 C108.148582,774.388184 116.173988,765.062378 124.005165,755.670837 C127.136902,751.915100 130.965179,748.673584 134.781616,745.573853 C138.766129,742.337585 147.173416,742.097778 151.087830,744.649475 C156.056793,747.888611 155.863724,757.080688 151.107162,762.462280 C143.032272,771.598267 134.677551,780.567078 127.482101,790.370667 C123.044357,796.416931 119.444237,803.584229 117.490929,810.796204 C115.759048,817.190552 116.660454,824.131836 119.635887,830.833740 C121.418823,834.849670 121.401955,840.344238 120.391029,844.761597 C118.877708,851.374390 107.696579,854.129211 101.057137,848.068787 C97.218056,844.564636 95.050713,838.799866 93.212090,833.665344 C91.665909,829.347534 91.149345,824.469360 91.154793,819.840393 C91.160461,815.021179 92.337967,810.203308 93.003212,804.949036 M114.832504,809.353516 C117.738907,803.221924 119.760056,796.428345 123.742867,791.101624 C131.180710,781.153931 139.732925,772.036621 147.871170,762.616699 C152.006927,757.829590 152.425247,752.014404 148.765030,748.273193 C144.725479,744.144226 139.027969,744.402100 134.171066,749.108215 C121.207626,761.669128 109.376160,775.165161 101.292091,791.472473 C92.961082,808.277893 90.621704,825.333496 100.602036,842.443909 C103.858475,848.026733 109.192360,849.760193 114.086258,847.005798 C119.147064,844.157471 120.454140,839.129395 117.313789,833.233398 C113.376877,825.841797 112.034576,818.242615 114.832504,809.353516 z"/> <path fill="#BB5AF3" opacity="1.000000" stroke="none" d=" M144.367249,851.593201 C149.277969,853.576050 153.847534,855.388428 158.518509,856.884033 C164.245377,858.717773 170.080429,860.211670 175.821579,862.003479 C178.415222,862.812927 180.816055,864.342651 183.442017,864.926208 C190.348785,866.460876 197.357468,867.532898 204.275757,869.020752 C211.279114,870.526978 218.220856,873.541382 225.193298,873.552490 C230.071701,873.560242 234.210419,874.735535 238.561783,875.994507 C244.114548,877.601074 246.544937,882.596985 246.582153,887.220642 C246.609711,890.644958 243.066223,894.174744 240.839447,897.472412 C240.420334,898.093201 238.710266,897.964050 237.594376,897.972229 C231.768188,898.014832 225.892593,898.455688 220.129562,897.850098 C214.974106,897.308411 209.955017,895.529968 204.848999,894.420410 C203.256638,894.074402 201.554428,894.258301 199.942215,893.974182 C196.678040,893.398926 192.523041,895.899414 190.355225,891.252136 C190.209488,890.939697 189.112915,891.089172 188.463654,890.990479 C180.494614,889.779114 172.628433,888.530701 165.059631,885.245239 C159.762970,882.946045 153.389862,883.104614 148.126740,880.755676 C140.976715,877.564575 132.604111,876.140137 127.920143,868.519653 C124.996040,863.762329 128.031250,853.181641 133.479065,852.224365 C136.895203,851.624084 140.220047,847.220093 144.367249,851.593201 M227.015869,895.668579 C232.377258,896.539917 237.844299,897.427307 241.404022,891.885071 C245.523590,885.471252 241.313446,878.549194 232.530228,877.106628 C224.662842,875.814453 216.749619,874.771484 208.920105,873.284302 C186.659180,869.055725 164.685074,863.848877 143.990051,854.198303 C138.168060,851.483459 132.744156,853.953430 130.546158,859.616150 C128.583847,864.671814 130.860321,869.337952 137.205917,872.212097 C165.516434,885.034546 195.584686,891.201172 227.015869,895.668579 z"/> <path fill="#BB5AF3" opacity="1.000000" stroke="none" d=" M710.130432,871.065918 C724.600098,870.383972 738.591858,869.811829 752.568665,868.986511 C760.084229,868.542664 767.562134,867.319763 775.078186,867.059814 C787.672974,866.624268 789.757568,873.132812 788.984375,883.336792 C788.695374,887.150208 783.824463,890.553833 779.910217,891.060974 C766.921204,892.743835 753.870544,893.529358 740.854126,894.596558 C732.040771,895.319153 723.213623,895.413635 714.409973,895.964661 C701.295715,896.785400 688.158264,897.236877 675.043579,898.052246 C671.843933,898.251221 670.433655,897.228577 669.478577,894.165100 C667.559021,888.008179 665.420044,881.957947 671.992432,877.253967 C675.062927,875.056335 677.836548,872.737122 682.526978,873.555603 C687.234802,874.377197 692.297363,873.408875 697.176086,872.933533 C701.353699,872.526489 705.491089,871.707214 710.130432,871.065918 M684.334656,895.985352 C701.731812,894.667603 719.129089,893.350586 736.526184,892.031921 C749.948914,891.014404 763.385681,890.149353 776.788635,888.916382 C784.393799,888.216797 788.243591,881.248718 784.887146,874.830444 C782.655884,870.564026 778.800598,869.529236 774.315857,869.861877 C750.281799,871.644836 726.245117,873.392639 702.211243,875.178345 C694.922119,875.719910 687.634827,876.296570 680.354736,876.946838 C675.692566,877.363281 671.366394,879.286438 670.897644,884.182617 C670.597107,887.321533 671.986206,891.572327 674.185486,893.717346 C676.149902,895.633179 680.264526,895.344360 684.334656,895.985352 z"/> <path fill="#BC57F4" opacity="1.000000" stroke="none" d=" M630.672485,508.803467 C626.762634,510.295593 617.591309,508.598450 616.454651,506.515137 C612.590454,499.432495 613.533936,492.507629 620.004700,488.711395 C628.592224,483.673279 637.690125,479.500610 646.597900,475.013977 C654.423035,471.072693 662.265625,467.164673 670.141174,463.325531 C681.248779,457.910858 692.341736,452.460754 703.547852,447.256073 C708.280029,445.058197 718.000549,447.444519 719.969727,450.835571 C724.190613,458.104279 721.592468,465.510803 713.785828,469.070068 C707.076721,472.128967 700.512695,475.504761 693.829651,478.622925 C688.356079,481.176758 682.754578,483.458862 677.307251,486.065277 C675.224731,487.061707 673.541138,488.896790 671.453918,489.877533 C665.657288,492.601135 659.680603,494.942719 653.894409,497.686890 C647.696289,500.626465 641.651611,503.888275 635.499512,506.927399 C634.078857,507.629150 632.493225,507.996887 630.672485,508.803467 M669.673279,487.215942 C683.905396,480.296631 698.182312,473.467346 712.348083,466.414703 C718.232178,463.485229 720.206299,458.460693 717.870605,453.756104 C715.469910,448.920776 709.806946,447.358490 704.006348,450.056885 C700.838806,451.530365 697.791199,453.259399 694.647522,454.786682 C671.275391,466.141205 647.868103,477.423615 624.531616,488.850708 C619.041504,491.539062 616.925232,497.170471 619.244141,501.666016 C621.652222,506.334534 626.481140,507.877411 632.057861,505.268951 C644.428589,499.482758 656.696899,493.477448 669.673279,487.215942 z"/> <path fill="#BC57F4" opacity="1.000000" stroke="none" d=" M399.408722,598.198975 C408.041992,593.950439 416.337128,589.894653 424.623901,585.821960 C433.995087,581.216370 443.420105,576.714783 452.703949,571.939026 C458.794861,568.805847 464.600372,565.119629 470.676758,561.955933 C475.611450,559.386597 480.442780,557.397705 486.266785,560.818787 C492.090515,564.239807 494.294647,573.726379 489.056915,577.877930 C484.322845,581.630249 479.194092,584.982361 473.911163,587.921021 C466.390747,592.104309 458.618134,595.847351 450.861694,599.588684 C445.386475,602.229675 439.652039,604.343872 434.233002,607.087708 C429.685150,609.390442 425.569489,612.552490 421.006226,614.817932 C413.737000,618.426880 406.495239,622.514038 398.755890,624.565369 C395.168671,625.516235 389.642639,623.108704 386.452087,620.465454 C383.378021,617.918762 386.633911,607.085449 390.606659,603.999695 C393.272369,601.929199 396.236359,600.242676 399.408722,598.198975 M468.474457,566.912170 C460.615753,570.934082 452.746826,574.936218 444.900421,578.981995 C428.170197,587.608521 411.438141,596.231628 394.736084,604.912415 C389.243927,607.766907 387.397858,612.383545 389.598206,617.231018 C391.731659,621.931152 396.636597,623.420349 402.397614,621.098877 C403.322998,620.725952 404.236389,620.312988 405.123291,619.856323 C422.303406,611.010559 439.479950,602.157837 456.654480,593.301147 C465.681854,588.645813 474.797028,584.149292 483.689880,579.249390 C488.275299,576.722900 489.559387,571.324890 487.241760,567.157410 C485.041290,563.200623 480.137939,561.661743 475.480347,563.589233 C473.329071,564.479492 471.275787,565.606384 468.474457,566.912170 z"/> <path fill="#BC57F4" opacity="1.000000" stroke="none" d=" M501.995667,562.038208 C500.358459,558.304016 497.648346,555.032166 501.013062,551.296326 C503.535858,548.495361 505.689880,544.896790 508.841400,543.213074 C519.103027,537.730713 529.801758,533.074097 540.225586,527.885315 C547.658386,524.185303 554.903198,520.109375 562.261719,516.258057 C570.037170,512.188538 577.553467,507.330139 585.764343,504.507294 C590.027954,503.041473 594.895996,499.955109 600.617004,503.508972 C604.658020,506.019226 606.140747,509.253143 606.852417,512.979126 C607.668213,517.250244 605.366089,520.945129 601.620178,522.998047 C592.789062,527.837891 583.814697,532.423950 574.813232,536.943115 C564.971863,541.883911 554.988098,546.541199 545.154114,551.496155 C537.281982,555.462585 529.532166,559.672729 521.744873,563.806274 C514.883179,567.448425 508.257355,568.071289 501.995667,562.038208 M513.235535,563.973206 C514.482300,563.528320 515.790344,563.206360 516.966858,562.620422 C543.655640,549.328552 570.337280,536.022339 597.000977,522.680237 C602.382080,519.987549 604.688843,514.858826 602.660217,510.491699 C600.319885,505.453552 594.801270,503.592438 589.014160,506.455353 C562.290222,519.675659 535.627869,533.020752 508.980042,546.394165 C504.957336,548.412964 502.324005,551.739075 503.201569,556.448914 C504.104401,561.294495 507.586365,563.653687 513.235535,563.973206 z"/> <path fill="#BB5AF3" opacity="1.000000" stroke="none" d=" M820.039917,417.961670 C812.566528,421.625336 805.540527,425.361420 798.389771,428.841095 C791.221008,432.329559 783.858582,435.421906 776.706299,438.942261 C767.605103,443.421783 758.894836,448.845032 749.480652,452.471893 C745.219910,454.113373 739.417969,454.532471 734.844666,451.012726 C733.211182,449.755524 731.596741,441.275726 731.965088,439.439362 C733.749390,430.543610 741.719971,428.881958 748.076172,425.476746 C756.114746,421.170227 764.315369,417.154633 772.542847,413.215698 C780.559387,409.377716 788.741577,405.886383 796.769531,402.071228 C803.404175,398.918152 810.005554,395.673035 816.462463,392.174805 C822.152039,389.092346 833.340271,391.120453 836.349060,396.107574 C839.289551,400.981537 838.146179,407.809723 833.442261,410.819336 C829.290466,413.475586 824.783081,415.575897 820.039917,417.961670 M788.341125,409.814728 C773.326660,416.981537 758.301941,424.127014 743.309570,431.339813 C741.229370,432.340637 739.077087,433.407654 737.358704,434.903931 C732.362183,439.254547 732.743652,446.075287 738.685913,448.922699 C741.347351,450.198029 745.609436,449.882080 748.468506,448.679596 C758.426208,444.491516 768.101929,439.629181 777.859192,434.969513 C794.816895,426.871338 811.786987,418.797943 828.683777,410.574219 C834.154358,407.911682 836.146362,403.052551 833.999023,398.801575 C831.307556,393.473724 826.238281,391.860901 820.588196,394.533569 C810.061584,399.513031 799.534607,404.491821 788.341125,409.814728 z"/> <path fill="#BB5AF3" opacity="1.000000" stroke="none" d=" M613.094727,243.925797 C619.238647,245.100739 624.513123,251.789917 623.964539,257.711029 C623.631470,261.305756 617.419983,265.998138 612.894714,265.999390 C587.731201,266.006317 562.566406,266.128418 537.404968,265.895935 C530.761292,265.834534 523.949097,265.380951 517.539124,263.794861 C510.823212,262.133179 508.854767,253.013016 513.554321,248.029755 C519.830872,241.374344 527.752014,240.023407 536.430847,241.191635 C538.579895,241.480881 540.777222,241.413696 542.952637,241.503387 C555.346741,242.014420 567.740906,242.523315 580.910706,243.345093 C592.155823,243.746765 602.625305,243.836273 613.094727,243.925797 M554.501587,262.948792 C573.148071,263.064056 591.794373,263.214111 610.441040,263.271057 C615.351257,263.286072 619.019287,260.167267 619.577698,255.854385 C620.112976,251.720230 616.991150,247.794907 612.103088,246.774368 C610.007812,246.336914 607.818726,246.205505 605.670227,246.188217 C583.194885,246.007370 560.718994,245.884018 538.243469,245.729523 C533.435181,245.696472 528.582153,245.166199 523.831909,245.658203 C519.040222,246.154510 515.832458,250.454590 516.180847,254.619888 C516.561646,259.173004 519.885437,262.095947 525.067444,262.246948 C534.544495,262.523102 544.024109,262.716064 554.501587,262.948792 z"/> <path fill="#BC57F4" opacity="1.000000" stroke="none" d=" M276.335327,665.379333 C284.386322,657.663696 294.710846,654.512695 303.732300,649.160217 C314.037964,643.045837 324.766632,637.631531 335.412445,632.107605 C343.895844,627.705688 352.337372,623.105591 361.198486,619.609985 C364.513672,618.302246 368.850830,616.031799 373.000122,620.166016 C377.872253,625.020569 378.252228,636.051086 372.460358,639.736389 C367.069183,643.166748 361.174622,645.803711 355.514984,648.814941 C349.219604,652.164429 342.959564,655.580750 336.647583,658.898438 C327.643341,663.630981 318.542694,668.184082 309.604828,673.037781 C303.727570,676.229309 298.210907,680.106750 292.244171,683.102356 C289.239563,684.610779 285.419159,685.941956 282.267365,685.446472 C271.489197,683.752258 268.646423,674.045044 276.335327,665.379333 M341.329102,632.801758 C321.500732,643.361572 301.662689,653.903320 281.862366,664.515442 C280.280701,665.363220 278.774933,666.524780 277.551483,667.836670 C273.673340,671.995117 274.407898,677.573730 279.150696,680.682251 C282.739624,683.034485 286.327637,682.657104 290.001648,680.696350 C302.921204,673.801147 315.893890,667.005615 328.818359,660.119507 C341.889771,653.155151 354.965179,646.196655 367.963776,639.098083 C373.947021,635.830566 375.744110,630.751221 373.020538,625.898071 C370.380585,621.193848 365.518921,620.090942 359.624817,623.091858 C353.693481,626.111694 347.861328,629.326355 341.329102,632.801758 z"/> <path fill="#BC57F4" opacity="1.000000" stroke="none" d=" M540.944458,881.931885 C544.090820,881.539124 546.828003,881.107971 549.581543,880.853088 C550.887512,880.732178 552.224548,880.998657 553.547668,881.002502 C559.704041,881.020386 565.883545,881.346436 572.011841,880.930359 C582.464478,880.220703 592.884766,879.035522 603.319580,878.060242 C603.981018,877.998413 604.652161,878.047546 605.316040,878.003540 C615.964722,877.298035 626.607849,876.201416 637.263733,876.060059 C641.658569,876.001709 646.157593,877.756165 650.455383,879.157959 C652.395020,879.790710 653.909790,890.063538 653.418701,892.232300 C651.119995,902.383789 642.689392,901.349060 635.561218,901.796326 C624.537476,902.488098 613.421509,901.843872 602.419312,902.712402 C587.284851,903.907043 572.213013,905.709351 556.980896,905.057800 C550.992676,904.801636 544.970398,905.252625 538.990723,904.909607 C533.454529,904.592102 529.727173,897.038696 531.451050,890.888733 C532.805115,886.057678 535.428101,882.819885 540.944458,881.931885 M622.856262,880.180786 C621.207153,880.384827 619.563293,880.697510 617.908203,880.776489 C594.333862,881.901306 570.754639,882.930603 547.186646,884.174011 C544.151001,884.334229 540.720947,884.872314 538.274048,886.465027 C534.755310,888.755493 533.200317,892.504395 534.956482,896.948608 C536.700378,901.361816 540.707397,903.956360 546.050964,903.760010 C549.201294,903.644287 552.338623,903.202148 555.488708,903.050049 C577.897888,901.968079 600.311768,900.979919 622.717529,899.831787 C629.339783,899.492493 636.026428,899.208313 642.525757,898.029358 C648.332458,896.976013 650.900940,892.667969 650.047546,887.537964 C649.168701,882.254395 645.016235,879.107544 639.234558,879.375488 C634.088257,879.613892 628.943420,879.881592 622.856262,880.180786 z"/> <path fill="#BC57F4" opacity="1.000000" stroke="none" d=" M176.013245,746.507080 C173.891983,746.865051 172.067947,746.962830 170.243683,746.967407 C161.816010,746.988464 158.685562,742.565613 160.149414,734.315674 C161.575317,726.279541 167.879562,723.492798 173.716934,720.122742 C181.618591,715.560852 189.714111,711.336060 197.690979,706.902771 C213.464478,698.136353 229.195923,689.294189 244.985733,680.557373 C248.753922,678.472473 257.681213,679.710999 260.546448,681.967407 C264.351074,684.963623 264.447876,692.259460 262.834747,697.394836 C262.566986,698.247314 261.680573,699.053772 260.878845,699.567505 C251.520325,705.564514 241.643433,710.512634 231.536896,715.182556 C222.512970,719.352112 214.262619,725.173889 205.569351,730.086914 C195.876144,735.565063 186.068329,740.840454 176.013245,746.507080 M181.971436,740.555481 C195.602615,732.908081 209.231934,725.257324 222.865540,717.614258 C233.598816,711.597046 244.367813,705.642761 255.061920,699.556763 C261.158966,696.086975 262.625488,690.134155 258.751648,685.398438 C255.571381,681.510559 251.173584,681.085510 245.207977,684.355591 C231.938599,691.629517 218.705841,698.970581 205.485718,706.333740 C192.992813,713.291687 180.515625,720.278503 168.071701,727.323547 C163.102814,730.136536 161.459534,735.005676 163.730423,739.548950 C166.081512,744.252747 171.221252,745.860962 176.458817,743.461792 C178.119263,742.701172 179.695938,741.757568 181.971436,740.555481 z"/> <path fill="#BC57F4" opacity="1.000000" stroke="none" d=" M914.747498,285.366272 C920.150208,289.051514 925.873962,291.848328 930.246216,296.051086 C934.987488,300.608704 939.112183,306.115326 942.339111,311.863037 C946.380737,319.061829 949.524780,326.522308 944.606079,335.296509 C941.971802,339.995667 941.892334,346.034363 938.158997,350.595367 C933.432983,356.369202 923.538452,356.580505 920.293518,350.768890 C917.444458,345.666229 918.392334,340.558960 920.773804,335.853973 C924.818481,327.862854 922.471985,318.294373 915.611877,312.744171 C908.192810,306.741760 899.518372,303.740784 891.107605,299.892883 C885.868164,297.495850 879.743042,296.850861 875.805176,291.511627 C872.884155,287.551086 873.459106,283.590302 874.797913,279.981537 C876.523865,275.329071 882.759399,271.768860 886.486389,273.145752 C895.716675,276.555969 904.725586,280.565765 913.813782,284.357880 C914.088562,284.472534 914.255859,284.844910 914.747498,285.366272 M942.897766,323.839386 C941.607910,312.780548 935.971619,304.186615 927.558594,297.287323 C916.442444,288.171265 903.476318,282.562378 890.052856,277.845642 C884.137573,275.767151 879.352234,277.275909 877.384949,282.037201 C875.314392,287.048462 877.826111,291.505493 884.101379,293.930389 C885.033203,294.290466 886.036316,294.495087 886.923218,294.938110 C896.117859,299.530670 905.706055,303.503204 914.372498,308.942352 C924.897034,315.547607 929.375854,325.819550 922.279663,338.615662 C919.450134,343.717834 921.336487,349.080597 926.038208,351.423950 C930.081238,353.439056 934.663879,351.406891 937.480408,346.220947 C941.114441,339.529755 943.424194,332.478119 942.897766,323.839386 z"/> <path fill="#BB5AF3" opacity="1.000000" stroke="none" d=" M755.910278,270.745728 C753.177551,263.522430 755.599976,257.973846 760.166931,252.969162 C760.468384,252.638763 760.859131,252.119934 761.194580,252.130310 C767.931824,252.338303 774.671631,252.530396 781.399963,252.916534 C783.642395,253.045227 785.849365,253.733643 788.081299,254.115082 C793.154907,254.982147 798.225769,255.872009 803.315186,256.636658 C805.135315,256.910095 807.020081,256.732849 808.850586,256.960754 C819.419250,258.276581 830.016479,259.426575 840.528625,261.105255 C845.572205,261.910645 850.629272,263.310211 855.364563,265.222382 C864.456299,268.893738 864.655090,277.030243 860.841431,284.157257 C860.317078,285.137115 858.419495,285.834717 857.132263,285.876373 C851.144653,286.070129 845.098511,286.463745 839.170593,285.848602 C834.635437,285.377960 830.249207,283.494049 825.789368,282.265228 C824.108826,281.802155 822.428711,281.276855 820.712524,281.013824 C811.781250,279.644775 802.843079,278.317566 793.895264,277.061981 C792.260071,276.832520 790.562744,277.089600 788.904724,276.972168 C780.132996,276.350983 771.337463,275.910919 762.613281,274.875854 C760.297058,274.601105 758.203796,272.447174 755.910278,270.745728 M849.285095,266.979828 C835.052734,264.493225 820.859253,261.747925 806.576172,259.598114 C794.106323,257.721222 781.548584,256.391632 769.004089,255.061737 C762.168213,254.337036 757.977417,257.722290 757.902283,263.432465 C757.834595,268.576447 760.740906,271.230560 766.803040,272.112122 C793.408691,275.981293 820.011169,279.875977 846.591370,283.915344 C854.446167,285.109070 858.884277,283.271729 860.026550,277.663452 C861.095520,272.415161 858.028137,269.161346 849.285095,266.979828 z"/> <path fill="#BB5AF3" opacity="1.000000" stroke="none" d=" M465.968811,243.095703 C476.233856,240.673187 486.305023,239.234055 496.588623,243.854477 C502.348663,246.442474 500.808655,251.413010 501.875488,255.461777 C502.880096,259.274536 500.407928,262.335724 497.131683,263.781250 C494.148865,265.097351 490.677216,265.881805 487.415588,265.899475 C458.603943,266.055634 429.791077,265.989990 400.978577,265.985657 C394.797028,265.984741 390.711853,260.110077 392.356842,254.032669 C393.939453,248.185593 397.924957,245.039429 404.017181,243.432922 C424.543701,243.755051 444.386383,243.857895 464.229248,243.910156 C464.808380,243.911682 465.388916,243.379181 465.968811,243.095703 M476.497803,245.924103 C461.331818,246.008575 446.165070,246.027679 431.000122,246.202209 C422.009216,246.305679 413.017212,246.558655 404.033417,246.931458 C399.227753,247.130844 395.341125,250.802521 395.167511,254.843658 C394.974091,259.345886 398.457214,263.158569 403.500763,263.845642 C404.812073,264.024261 406.163208,263.966583 407.494141,263.935547 C416.482941,263.726105 425.470093,263.388611 434.459930,263.292999 C451.624908,263.110535 468.791595,263.095154 485.956665,262.917969 C488.256134,262.894257 490.665710,262.676025 492.821869,261.948120 C496.983124,260.543274 498.867279,257.414337 498.172943,252.985809 C497.491333,248.638474 494.968628,246.076675 490.493591,245.928970 C486.165771,245.786118 481.829163,245.910034 476.497803,245.924103 z"/> <path fill="#BB5AF3" opacity="1.000000" stroke="none" d=" M722.995544,269.995178 C715.997009,269.995209 709.320068,270.964691 703.030884,269.814178 C683.935120,266.320831 664.729065,269.146423 645.655640,267.751587 C641.627991,267.457001 637.345459,264.604279 634.050720,261.878357 C630.026062,258.548523 632.148804,254.308853 634.822693,251.062347 C640.819458,243.781372 645.950684,242.609711 655.237610,245.666763 C656.457581,246.068344 657.860474,246.002411 659.178711,246.003693 C670.010498,246.014206 680.850403,245.721039 691.671997,246.046539 C703.837341,246.412445 715.993958,247.215744 728.136780,248.078033 C731.331177,248.304871 734.520935,249.259872 737.602905,250.229752 C740.950439,251.283188 744.745850,259.129761 743.970337,262.824219 C742.997070,267.460785 739.512634,269.972015 733.993774,269.992645 C730.494080,270.005707 726.994202,269.995148 722.995544,269.995178 M716.502563,250.893188 C709.196777,250.380737 701.896973,249.752060 694.584045,249.379715 C678.788269,248.575470 662.990051,247.772034 647.183655,247.245285 C641.453674,247.054352 637.320984,250.892914 637.137268,255.657578 C636.951050,260.486084 640.824097,263.983734 646.769592,264.277649 C656.246582,264.746124 665.730469,265.089203 675.202698,265.636230 C693.647095,266.701324 712.080872,267.956879 730.529114,268.946503 C736.292297,269.255707 739.944092,266.060028 740.246948,261.191437 C740.578186,255.868179 737.359192,252.432068 731.392334,251.910538 C726.751404,251.504868 722.097595,251.246811 716.502563,250.893188 z"/> <path fill="#BB5AF3" opacity="1.000000" stroke="none" d=" M277.973389,269.480804 C273.374054,266.956909 270.473236,261.005463 272.156860,256.244843 C273.797058,251.607147 276.118622,248.503464 282.847382,247.816971 C311.965759,244.846237 341.137360,246.587128 370.274475,245.940536 C377.141693,245.788147 379.410706,248.579361 380.909454,253.849152 C381.801819,256.986786 379.666107,262.019135 377.248627,264.739594 C375.293121,266.940094 370.926178,267.570435 367.550781,267.813782 C361.095062,268.279236 354.579926,267.835785 348.096130,268.013214 C325.973785,268.618561 303.854431,269.334412 281.733337,269.987671 C280.582367,270.021667 279.425812,269.865997 277.973389,269.480804 M285.675873,267.209747 C312.267120,266.449280 338.858612,265.697235 365.449005,264.907990 C367.099152,264.859039 368.770477,264.650208 370.380524,264.287567 C375.029114,263.240448 377.997070,259.582336 377.630737,255.525681 C377.247986,251.287033 373.460632,247.737000 368.722504,247.832794 C349.771027,248.216003 330.822845,248.765335 311.874146,249.279388 C302.734406,249.527344 293.591675,249.733185 284.458893,250.147568 C278.112244,250.435516 274.015808,254.018967 274.119629,258.778564 C274.238770,264.241028 277.841064,267.107727 285.675873,267.209747 z"/> <path fill="#BC57F4" opacity="1.000000" stroke="none" d=" M852.015686,379.040894 C854.967163,376.550446 857.578125,373.387024 860.931274,371.690430 C873.070251,365.548279 885.229858,359.320953 897.856445,354.325592 C903.519775,352.084991 910.315979,352.079773 916.579834,352.181702 C921.675964,352.264618 924.631836,362.323578 920.660889,367.368561 C917.856079,370.932129 913.732971,373.917114 909.591736,375.881866 C898.166260,381.302399 886.383057,385.963776 874.826721,391.116852 C871.100891,392.778229 867.812439,395.491486 864.020935,396.918884 C857.178894,399.494751 852.642090,398.312134 849.235107,393.388519 C845.807800,388.435608 845.474854,384.039307 851.763306,379.393127 C849.851074,384.109314 848.408264,388.618378 852.560364,392.559845 C856.854980,396.636597 861.561768,395.376373 866.397888,392.990723 C875.491760,388.504761 884.747375,384.347107 893.928162,380.036896 C900.250000,377.068878 906.610474,374.176788 912.858093,371.059235 C918.068665,368.459167 919.960815,363.698761 917.916626,359.121521 C915.895813,354.596802 910.917297,352.594788 905.692627,354.272919 C904.593018,354.626099 903.563354,355.205505 902.514954,355.708893 C890.222595,361.611084 877.963745,367.584351 865.625977,373.390015 C861.185974,375.479279 856.557922,377.168884 852.015686,379.040894 z"/> <path fill="#BC57F4" opacity="1.000000" stroke="none" d=" M510.014435,884.847595 C514.959412,885.535400 517.190674,888.198425 517.057068,893.356934 C516.820312,902.503174 515.253357,904.820435 505.909729,907.007324 C488.101288,907.005920 471.142120,906.983521 454.183197,907.037415 C452.792480,907.041809 451.403381,907.565674 450.013550,907.848145 C436.142334,908.233765 422.266571,909.026245 408.401398,908.871521 C397.963135,908.755005 394.758850,904.199402 395.190430,895.109375 C395.428802,890.088867 398.776642,886.235107 405.054077,884.999268 C416.888824,884.998108 427.859314,884.996521 438.829712,885.029053 C457.602509,885.084778 476.375275,885.161865 494.783386,885.442871 C492.595551,885.750854 490.773193,885.908020 488.949036,885.931763 C462.334290,886.278809 435.719025,886.585999 409.104614,886.956909 C402.421967,887.050049 398.081299,890.948303 398.096863,896.602661 C398.113159,902.520569 402.113586,906.099182 408.965790,906.121948 C420.946686,906.161743 432.929535,906.229614 444.908569,906.064514 C464.532745,905.794128 484.154449,905.345825 503.777252,904.974609 C508.070435,904.893433 511.661804,903.518311 513.517700,899.331482 C515.140503,895.670349 514.788635,891.979614 512.085693,889.095520 C510.471893,887.373413 507.977600,886.476440 506.282501,885.101379 C507.795410,884.945312 508.904907,884.896484 510.014435,884.847595 z"/> <path fill="#BB5AF3" opacity="1.000000" stroke="none" d=" M220.370834,170.453156 C224.976730,178.909775 229.298019,187.537079 234.246841,195.788010 C245.058136,213.813217 257.243561,230.864243 271.768188,246.555359 C265.068634,248.570129 263.414917,242.564392 260.528961,238.849518 C254.026215,230.479019 247.829620,221.866440 241.642670,213.255905 C233.976685,202.586960 225.886658,192.153442 221.944565,179.302246 C221.259933,177.070343 220.149323,174.969101 219.366699,172.236053 C219.788895,171.260773 220.079865,170.856964 220.370834,170.453156 z"/> <path fill="#BB5AF3" opacity="1.000000" stroke="none" d=" M273.183502,246.915283 C276.532288,241.895889 280.150665,236.810349 283.976105,231.885666 C297.851196,214.023514 311.046509,195.707489 320.277527,174.925186 C323.632416,167.372208 326.102173,159.426071 329.414856,151.327332 C330.187439,150.994812 330.520844,150.994263 330.854279,150.993713 C329.918549,154.683914 329.171509,158.435303 327.999878,162.049042 C326.491974,166.700073 324.855988,171.334457 322.883942,175.803345 C320.793121,180.541321 318.615082,185.316360 315.818939,189.652023 C309.600769,199.293991 304.362396,209.519501 296.637207,218.272369 C289.684845,226.149612 284.046173,235.179672 277.696564,243.602112 C276.663330,244.972626 274.948090,245.828949 273.183502,246.915283 z"/> <path fill="#BC57F4" opacity="1.000000" stroke="none" d=" M331.031433,150.635284 C330.520844,150.994263 330.187439,150.994812 329.605560,150.997253 C329.361328,150.538895 329.365509,150.078629 329.744385,149.205994 C330.171692,147.903091 330.224304,147.012558 330.276886,146.122040 C330.239319,140.688187 330.201721,135.254349 330.407440,129.117462 C330.269989,127.280579 329.889221,126.146713 329.508484,125.012848 C329.384613,124.555618 329.260742,124.098389 329.324463,123.126205 C329.181458,122.075645 328.850861,121.540047 328.520294,121.004440 C322.259033,101.193413 309.492767,87.697411 289.300751,80.621422 C288.269928,80.138397 287.641571,80.053528 287.013214,79.968658 C286.153870,79.854233 285.294495,79.739807 284.200256,79.042671 C283.975220,77.695206 283.985077,76.930450 283.994934,76.165695 C292.421173,76.890099 299.766174,80.782295 306.444824,85.321053 C314.922821,91.082672 321.820984,98.780533 326.525299,108.028221 C333.360321,121.464355 335.383270,135.558655 331.031433,150.635284 z"/> <path fill="#BB5AF3" opacity="1.000000" stroke="none" d=" M700.455933,559.074463 C678.131042,564.055725 666.173767,580.347839 658.049194,600.351135 C655.572998,606.447571 654.347778,613.052124 652.340332,619.735535 C651.645630,619.795715 651.160217,619.544434 650.430542,619.171143 C650.793823,615.726440 650.946777,612.236084 652.098389,609.114197 C654.963745,601.347046 657.940186,593.583252 661.508728,586.122620 C665.988525,576.756592 673.621948,569.791016 681.492493,563.393311 C686.659119,559.193604 693.310791,558.263794 700.455933,559.074463 z"/> <path fill="#BC57F4" opacity="1.000000" stroke="none" d=" M255.001526,80.627754 C238.527557,85.595078 226.503189,95.986488 218.800568,111.190674 C216.444580,115.841133 215.420181,121.166176 213.382721,126.701920 C212.065933,128.484055 211.152435,129.746582 210.238937,131.009125 C209.298386,123.347183 212.596664,116.559929 215.695679,110.146767 C220.023880,101.189919 226.633484,93.566055 234.441391,87.334633 C241.413544,81.770210 249.433563,77.977859 258.609283,76.415825 C258.994476,77.721329 258.986420,78.606689 258.978394,79.492050 C258.536865,79.629494 258.095367,79.766945 257.141510,79.714188 C256.086639,79.891914 255.544083,80.259834 255.001526,80.627754 z"/> <path fill="#BC57F4" opacity="1.000000" stroke="none" d=" M346.207977,885.117065 C328.470551,884.258240 310.729767,883.461792 292.998169,882.495972 C288.631561,882.258179 284.295044,881.468567 279.798157,880.529053 C296.878021,880.742798 314.109192,881.256165 331.327667,882.046143 C335.973175,882.259338 340.580200,883.311890 345.664551,884.308472 C346.124176,884.637817 346.207977,885.117065 346.207977,885.117065 z"/> <path fill="#0000FF" opacity="1.000000" stroke="none" d=" M495.148041,885.229919 C476.375275,885.161865 457.602509,885.084778 438.829712,885.029053 C427.859314,884.996521 416.888824,884.998108 405.453552,884.919189 C405.700439,884.571289 406.412262,884.041016 407.123901,884.041260 C441.250916,884.052368 475.377930,884.109314 509.759705,884.504395 C508.904907,884.896484 507.795410,884.945312 505.837250,885.075256 C501.708435,885.180847 498.428223,885.205383 495.148041,885.229919 z"/> <path fill="#0000FF" opacity="1.000000" stroke="none" d=" M309.965088,907.306396 C330.574615,906.878113 351.466736,906.803711 372.841553,906.839844 C372.791199,907.284607 372.257477,907.911743 371.725159,907.910461 C351.232574,907.862854 330.740143,907.757812 309.965088,907.306396 z"/> <path fill="#BC57F4" opacity="1.000000" stroke="none" d=" M465.506653,243.037598 C465.388916,243.379181 464.808380,243.911682 464.229248,243.910156 C444.386383,243.857895 424.543701,243.755051 404.384216,243.403748 C424.393158,243.091858 444.718842,243.035690 465.506653,243.037598 z"/> <path fill="#0000FF" opacity="1.000000" stroke="none" d=" M450.477234,907.911438 C451.403381,907.565674 452.792480,907.041809 454.183197,907.037415 C471.142120,906.983521 488.101288,907.005920 505.523376,907.075684 C504.612915,907.428528 503.240234,907.958862 501.866028,907.962769 C484.891113,908.011353 467.916016,907.983154 450.477234,907.911438 z"/> <path fill="#BC57F4" opacity="1.000000" stroke="none" d=" M213.491562,145.981430 C213.662292,147.054398 213.833023,148.127380 213.745819,149.782089 C212.965485,150.926498 212.443069,151.489151 211.920654,152.051819 C211.294434,147.986588 210.668198,143.921371 210.302826,139.204956 C210.427597,137.717346 210.291519,136.880905 210.155441,136.044464 C210.121689,135.276108 210.087921,134.507736 210.430084,133.402802 C211.489929,133.361557 212.173843,133.656876 212.857742,133.952194 C212.735519,135.248962 212.613297,136.545746 212.291214,138.589752 C212.558105,141.551819 213.024841,143.766617 213.491562,145.981430 z"/> <path fill="#BC57F4" opacity="1.000000" stroke="none" d=" M220.323227,170.102356 C220.079865,170.856964 219.788895,171.260773 219.204712,171.892334 C216.937820,166.400757 214.964127,160.681427 213.203888,154.662262 C214.159225,154.907455 214.901123,155.452484 215.643021,155.997513 C217.187210,160.582199 218.731415,165.166885 220.323227,170.102356 z"/> <path fill="#BB5AF3" opacity="1.000000" stroke="none" d=" M259.340454,79.532990 C258.986420,78.606689 258.994476,77.721329 259.003815,76.500832 C267.026642,76.115295 275.048126,76.064903 283.532288,76.090103 C283.985077,76.930450 283.975220,77.695206 283.940491,78.843765 C283.175262,79.119789 282.434875,79.012016 281.200348,78.441483 C276.691528,77.651611 272.679077,77.139809 268.661072,77.091110 C267.120941,77.072449 265.568024,78.111229 264.020935,78.668159 C262.581482,78.970085 261.142029,79.272011 259.340454,79.532990 z"/> <path fill="#BC57F4" opacity="1.000000" stroke="none" d=" M612.872070,243.547424 C602.625305,243.836273 592.155823,243.746765 581.361328,243.406479 C591.574036,243.160156 602.111694,243.164597 612.872070,243.547424 z"/> <path fill="#0000FF" opacity="1.000000" stroke="none" d=" M346.655426,885.137817 C346.207977,885.117065 346.124176,884.637817 346.085266,884.397766 C354.269989,884.209045 362.493591,884.260376 370.991699,884.667297 C363.211731,885.068054 355.157318,885.113342 346.655426,885.137817 z"/> <path fill="#BB5AF3" opacity="1.000000" stroke="none" d=" M213.077713,133.642670 C212.173843,133.656876 211.489929,133.361557 210.527008,133.029572 C210.204651,132.550995 210.161301,132.109116 210.178452,131.338165 C211.152435,129.746582 212.065933,128.484055 213.266846,127.117172 C213.468704,129.119583 213.383194,131.226364 213.077713,133.642670 z"/> <path fill="#BB5AF3" opacity="1.000000" stroke="none" d=" M215.658112,155.642502 C214.901123,155.452484 214.159225,154.907455 213.164917,154.235321 C212.605103,153.631363 212.297714,153.154526 211.955475,152.364746 C212.443069,151.489151 212.965485,150.926498 213.721527,150.191040 C214.527847,151.774673 215.100525,153.531082 215.658112,155.642502 z"/> <path fill="#BB5AF3" opacity="1.000000" stroke="none" d=" M210.071899,136.402252 C210.291519,136.880905 210.427597,137.717346 210.359192,138.749268 C210.099258,138.216507 210.043808,137.488281 210.071899,136.402252 z"/> <path fill="#BB5AF3" opacity="1.000000" stroke="none" d=" M260.612091,119.537071 C267.243011,114.672943 274.327087,114.806511 281.232208,118.430931 C289.272736,122.651337 293.462860,129.511520 292.891296,138.799500 C292.374054,147.204941 288.055450,153.262497 280.490112,156.653763 C270.400757,161.176437 259.817108,157.875290 253.805038,148.767761 C248.124344,140.162155 249.512894,129.100113 257.548584,122.003387 C257.939636,121.946739 258.107452,122.110100 258.012085,122.451492 C255.937653,127.016075 252.453873,131.170593 252.257401,135.475143 C251.630219,149.216187 264.800110,158.787415 277.922821,154.972672 C290.346344,151.361176 295.445831,134.424362 286.609375,125.382233 C279.419373,118.024872 270.933685,115.340546 260.957031,119.947189 C260.841614,119.810852 260.612091,119.537071 260.612091,119.537071 z"/> <path fill="#BC57F4" opacity="1.000000" stroke="none" d=" M264.481354,78.742622 C265.568024,78.111229 267.120941,77.072449 268.661072,77.091110 C272.679077,77.139809 276.691528,77.651611 280.841614,78.333038 C275.631989,78.730591 270.286865,78.773842 264.481354,78.742622 z"/> <path fill="#BB5AF3" opacity="1.000000" stroke="none" d=" M213.585297,145.575790 C213.024841,143.766617 212.558105,141.551819 212.134460,138.879486 C212.678040,140.671356 213.178528,142.920746 213.585297,145.575790 z"/> <path fill="#BB5AF3" opacity="1.000000" stroke="none" d=" M329.427246,125.354919 C329.889221,126.146713 330.269989,127.280579 330.456543,128.644623 C329.956940,127.815544 329.651489,126.756264 329.427246,125.354919 z"/> <path fill="#BB5AF3" opacity="1.000000" stroke="none" d=" M330.042175,146.335022 C330.224304,147.012558 330.171692,147.903091 329.883667,148.886871 C329.701355,148.169403 329.754425,147.358704 330.042175,146.335022 z"/> <path fill="#BB5AF3" opacity="1.000000" stroke="none" d=" M257.854858,121.865952 C258.521332,121.103981 259.272583,120.422798 260.317963,119.639343 C260.612091,119.537071 260.841614,119.810852 260.835022,120.245148 C259.921417,121.156319 259.014435,121.633202 258.107452,122.110092 C258.107452,122.110100 257.939636,121.946739 257.854858,121.865952 z"/> <path fill="#BB5AF3" opacity="1.000000" stroke="none" d=" M287.204956,80.175110 C287.641571,80.053528 288.269928,80.138397 288.948181,80.480881 C288.464325,80.619522 287.930511,80.500542 287.204956,80.175110 z"/> <path fill="#BB5AF3" opacity="1.000000" stroke="none" d=" M255.277176,80.660049 C255.544083,80.259834 256.086639,79.891914 256.792664,79.711166 C256.488373,80.163010 256.020599,80.427673 255.277176,80.660049 z"/> <path fill="#BB5AF3" opacity="1.000000" stroke="none" d=" M328.456665,121.273979 C328.850861,121.540047 329.181458,122.075645 329.337463,122.769508 C328.906281,122.466347 328.649689,122.004929 328.456665,121.273979 z"/> <path fill="#F2E3DD" opacity="1.000000" stroke="none" d=" M947.421753,613.183594 C948.113831,611.916565 948.576843,611.007935 949.064209,609.803101 C950.963318,603.730225 953.331116,598.311951 958.838196,594.934265 C965.194336,591.035889 969.362000,592.598755 972.049011,599.501587 C974.531250,605.878296 972.908875,611.352539 969.745789,616.973572 C966.740540,622.313965 967.829956,623.809265 974.113892,624.022278 C980.018616,624.222473 984.808899,621.842224 988.547729,617.397339 C990.146729,615.496338 991.290833,613.211304 992.901001,611.321716 C993.457581,610.668457 994.799072,610.683899 995.781982,610.393921 C996.003601,611.390198 996.730957,612.648499 996.370850,613.343567 C991.149658,623.423950 982.921753,632.125854 968.840576,628.515015 C965.652893,627.697571 964.184143,628.186523 962.695862,631.296936 C939.839661,679.066772 916.821350,726.759094 893.876099,774.486511 C879.444824,804.504272 865.074829,834.551636 850.666321,864.580444 C849.830139,866.323120 848.893738,868.017700 848.003906,869.734619 C847.629333,869.581726 847.254822,869.428772 846.880249,869.275879 C847.985229,866.123596 848.984131,862.929443 850.210876,859.825256 C875.848145,794.952332 901.535767,730.099182 927.152283,665.217957 C933.936890,648.033997 940.518066,630.769592 947.421753,613.183594 M948.102844,628.582397 C946.274170,635.135437 944.445496,641.688477 942.616882,648.241455 C943.187744,648.475281 943.758606,648.709167 944.329529,648.942993 C945.348755,647.558044 946.523926,646.260681 947.359436,644.772522 C950.455261,639.258484 953.360535,633.636536 956.497864,628.146851 C958.093323,625.354980 958.473572,623.192078 955.624146,620.773621 C954.439941,619.768555 954.416687,617.395813 953.865479,615.645020 C954.280823,615.478577 954.696228,615.312134 955.111633,615.145691 C956.914673,616.184692 958.717712,617.223755 960.993103,618.534973 C962.486877,615.670105 963.725830,612.983154 965.242004,610.462830 C967.257080,607.113220 966.912354,604.072266 963.386963,602.548523 C959.723145,600.964905 957.059326,602.759644 955.749146,606.618286 C953.342346,613.706482 950.802917,620.749512 948.102844,628.582397 z"/> <path fill="#F2E3DD" opacity="1.000000" stroke="none" d=" M845.971863,871.974609 C844.797791,880.636963 841.732544,883.560242 833.288147,884.232483 C828.006531,884.653015 822.733521,885.183716 817.458252,885.680969 C811.390076,886.252991 806.710022,882.848389 805.899902,877.252930 C805.165039,872.177246 808.806702,867.159180 814.587708,866.440247 C821.638977,865.563232 828.777283,865.364990 835.882507,864.950623 C840.887146,864.658752 842.636536,868.947998 845.669678,871.933716 C845.996887,871.997437 845.971863,871.974609 845.971863,871.974609 z"/> <path fill="#F2E3DD" opacity="1.000000" stroke="none" d=" M846.007874,872.010010 C846.137024,871.796326 846.255127,871.570068 846.373291,871.343750 C846.376709,871.550232 846.380127,871.756714 846.177734,871.968872 C845.971863,871.974609 845.996887,871.997437 846.007874,872.010010 z"/> <path fill="#BB5AF3" opacity="1.000000" stroke="none" d=" M718.265747,581.715210 C716.869812,594.137512 716.525818,606.388916 713.752563,618.063293 C706.826416,647.219849 695.657837,674.798523 679.543091,700.221863 C679.017090,701.051636 678.425720,701.839966 677.158936,703.664001 C673.688721,697.534119 670.122314,692.207764 667.506470,686.449463 C654.354431,657.498413 651.009705,627.987610 663.753296,597.947449 C668.442078,586.894775 675.344238,577.319458 685.325073,570.368469 C688.283569,568.308105 691.645874,566.596741 695.068726,565.474609 C708.653503,561.021118 717.231140,566.987000 718.265747,581.715210 M669.942444,593.238586 C664.313232,602.922302 660.037170,613.386902 659.273560,624.398560 C658.230469,639.440247 657.573486,654.735168 663.927063,669.201782 C667.080872,676.382812 669.628723,683.827759 672.640808,691.074402 C673.689087,693.596619 675.308533,695.881531 676.667175,698.274780 C677.240417,698.261658 677.813660,698.248535 678.386963,698.235413 C680.095642,694.161133 681.627747,690.001465 683.548523,686.029724 C688.023010,676.777832 693.051453,667.776672 697.157898,658.369324 C700.631348,650.412109 703.309814,642.087097 705.989197,633.811218 C707.864929,628.017334 709.163391,622.035645 710.693848,616.131104 C711.818848,611.790588 713.583862,607.481506 713.856628,603.083557 C714.370667,594.795349 714.300354,586.439209 713.895630,578.139465 C713.700378,574.136475 712.639526,569.516724 707.822754,568.527405 C702.003784,567.332214 695.729675,566.364868 690.479736,570.048279 C686.272095,573.000427 682.498901,576.710205 679.026489,580.532288 C675.687866,584.207275 672.983093,588.458252 669.942444,593.238586 z"/> <path fill="#F4E6DD" opacity="1.000000" stroke="none" d=" M114.708710,809.743286 C112.034576,818.242615 113.376877,825.841797 117.313789,833.233398 C120.454140,839.129395 119.147064,844.157471 114.086258,847.005798 C109.192360,849.760193 103.858475,848.026733 100.602036,842.443909 C90.621704,825.333496 92.961082,808.277893 101.292091,791.472473 C109.376160,775.165161 121.207626,761.669128 134.171066,749.108215 C139.027969,744.402100 144.725479,744.144226 148.765030,748.273193 C152.425247,752.014404 152.006927,757.829590 147.871170,762.616699 C139.732925,772.036621 131.180710,781.153931 123.742867,791.101624 C119.760056,796.428345 117.738907,803.221924 114.708710,809.743286 z"/> <path fill="#F4E6DD" opacity="1.000000" stroke="none" d=" M226.581345,895.556274 C195.584686,891.201172 165.516434,885.034546 137.205917,872.212097 C130.860321,869.337952 128.583847,864.671814 130.546158,859.616150 C132.744156,853.953430 138.168060,851.483459 143.990051,854.198303 C164.685074,863.848877 186.659180,869.055725 208.920105,873.284302 C216.749619,874.771484 224.662842,875.814453 232.530228,877.106628 C241.313446,878.549194 245.523590,885.471252 241.404022,891.885071 C237.844299,897.427307 232.377258,896.539917 226.581345,895.556274 z"/> <path fill="#F4E6DD" opacity="1.000000" stroke="none" d=" M683.882507,896.006836 C680.264526,895.344360 676.149902,895.633179 674.185486,893.717346 C671.986206,891.572327 670.597107,887.321533 670.897644,884.182617 C671.366394,879.286438 675.692566,877.363281 680.354736,876.946838 C687.634827,876.296570 694.922119,875.719910 702.211243,875.178345 C726.245117,873.392639 750.281799,871.644836 774.315857,869.861877 C778.800598,869.529236 782.655884,870.564026 784.887146,874.830444 C788.243591,881.248718 784.393799,888.216797 776.788635,888.916382 C763.385681,890.149353 749.948914,891.014404 736.526184,892.031921 C719.129089,893.350586 701.731812,894.667603 683.882507,896.006836 z"/> <path fill="#F3E5DD" opacity="1.000000" stroke="none" d=" M669.340088,487.388702 C656.696899,493.477448 644.428589,499.482758 632.057861,505.268951 C626.481140,507.877411 621.652222,506.334534 619.244141,501.666016 C616.925232,497.170471 619.041504,491.539062 624.531616,488.850708 C647.868103,477.423615 671.275391,466.141205 694.647522,454.786682 C697.791199,453.259399 700.838806,451.530365 704.006348,450.056885 C709.806946,447.358490 715.469910,448.920776 717.870605,453.756104 C720.206299,458.460693 718.232178,463.485229 712.348083,466.414703 C698.182312,473.467346 683.905396,480.296631 669.340088,487.388702 z"/> <path fill="#F4E6DD" opacity="1.000000" stroke="none" d=" M468.826263,566.769043 C471.275787,565.606384 473.329071,564.479492 475.480347,563.589233 C480.137939,561.661743 485.041290,563.200623 487.241760,567.157410 C489.559387,571.324890 488.275299,576.722900 483.689880,579.249390 C474.797028,584.149292 465.681854,588.645813 456.654480,593.301147 C439.479950,602.157837 422.303406,611.010559 405.123291,619.856323 C404.236389,620.312988 403.322998,620.725952 402.397614,621.098877 C396.636597,623.420349 391.731659,621.931152 389.598206,617.231018 C387.397858,612.383545 389.243927,607.766907 394.736084,604.912415 C411.438141,596.231628 428.170197,587.608521 444.900421,578.981995 C452.746826,574.936218 460.615753,570.934082 468.826263,566.769043 z"/> <path fill="#F3E5DD" opacity="1.000000" stroke="none" d=" M512.837769,563.993408 C507.586365,563.653687 504.104401,561.294495 503.201569,556.448914 C502.324005,551.739075 504.957336,548.412964 508.980042,546.394165 C535.627869,533.020752 562.290222,519.675659 589.014160,506.455353 C594.801270,503.592438 600.319885,505.453552 602.660217,510.491699 C604.688843,514.858826 602.382080,519.987549 597.000977,522.680237 C570.337280,536.022339 543.655640,549.328552 516.966858,562.620422 C515.790344,563.206360 514.482300,563.528320 512.837769,563.993408 z"/> <path fill="#F3E5DD" opacity="1.000000" stroke="none" d=" M788.674438,409.642822 C799.534607,404.491821 810.061584,399.513031 820.588196,394.533569 C826.238281,391.860901 831.307556,393.473724 833.999023,398.801575 C836.146362,403.052551 834.154358,407.911682 828.683777,410.574219 C811.786987,418.797943 794.816895,426.871338 777.859192,434.969513 C768.101929,439.629181 758.426208,444.491516 748.468506,448.679596 C745.609436,449.882080 741.347351,450.198029 738.685913,448.922699 C732.743652,446.075287 732.362183,439.254547 737.358704,434.903931 C739.077087,433.407654 741.229370,432.340637 743.309570,431.339813 C758.301941,424.127014 773.326660,416.981537 788.674438,409.642822 z"/> <path fill="#F3E4DD" opacity="1.000000" stroke="none" d=" M554.002075,262.946259 C544.024109,262.716064 534.544495,262.523102 525.067444,262.246948 C519.885437,262.095947 516.561646,259.173004 516.180847,254.619888 C515.832458,250.454590 519.040222,246.154510 523.831909,245.658203 C528.582153,245.166199 533.435181,245.696472 538.243469,245.729523 C560.718994,245.884018 583.194885,246.007370 605.670227,246.188217 C607.818726,246.205505 610.007812,246.336914 612.103088,246.774368 C616.991150,247.794907 620.112976,251.720230 619.577698,255.854385 C619.019287,260.167267 615.351257,263.286072 610.441040,263.271057 C591.794373,263.214111 573.148071,263.064056 554.002075,262.946259 z"/> <path fill="#F3E5DD" opacity="1.000000" stroke="none" d=" M341.657410,632.628723 C347.861328,629.326355 353.693481,626.111694 359.624817,623.091858 C365.518921,620.090942 370.380585,621.193848 373.020538,625.898071 C375.744110,630.751221 373.947021,635.830566 367.963776,639.098083 C354.965179,646.196655 341.889771,653.155151 328.818359,660.119507 C315.893890,667.005615 302.921204,673.801147 290.001648,680.696350 C286.327637,682.657104 282.739624,683.034485 279.150696,680.682251 C274.407898,677.573730 273.673340,671.995117 277.551483,667.836670 C278.774933,666.524780 280.280701,665.363220 281.862366,664.515442 C301.662689,653.903320 321.500732,643.361572 341.657410,632.628723 z"/> <path fill="#F3E4DD" opacity="1.000000" stroke="none" d=" M623.327087,880.158569 C628.943420,879.881592 634.088257,879.613892 639.234558,879.375488 C645.016235,879.107544 649.168701,882.254395 650.047546,887.537964 C650.900940,892.667969 648.332458,896.976013 642.525757,898.029358 C636.026428,899.208313 629.339783,899.492493 622.717529,899.831787 C600.311768,900.979919 577.897888,901.968079 555.488708,903.050049 C552.338623,903.202148 549.201294,903.644287 546.050964,903.760010 C540.707397,903.956360 536.700378,901.361816 534.956482,896.948608 C533.200317,892.504395 534.755310,888.755493 538.274048,886.465027 C540.720947,884.872314 544.151001,884.334229 547.186646,884.174011 C570.754639,882.930603 594.333862,881.901306 617.908203,880.776489 C619.563293,880.697510 621.207153,880.384827 623.327087,880.158569 z"/> <path fill="#F3E5DD" opacity="1.000000" stroke="none" d=" M181.641190,740.726562 C179.695938,741.757568 178.119263,742.701172 176.458817,743.461792 C171.221252,745.860962 166.081512,744.252747 163.730423,739.548950 C161.459534,735.005676 163.102814,730.136536 168.071701,727.323547 C180.515625,720.278503 192.992813,713.291687 205.485718,706.333740 C218.705841,698.970581 231.938599,691.629517 245.207977,684.355591 C251.173584,681.085510 255.571381,681.510559 258.751648,685.398438 C262.625488,690.134155 261.158966,696.086975 255.061920,699.556763 C244.367813,705.642761 233.598816,711.597046 222.865540,717.614258 C209.231934,725.257324 195.602615,732.908081 181.641190,740.726562 z"/> <path fill="#F3E5DD" opacity="1.000000" stroke="none" d=" M942.920898,324.284485 C943.424194,332.478119 941.114441,339.529755 937.480408,346.220947 C934.663879,351.406891 930.081238,353.439056 926.038208,351.423950 C921.336487,349.080597 919.450134,343.717834 922.279663,338.615662 C929.375854,325.819550 924.897034,315.547607 914.372498,308.942352 C905.706055,303.503204 896.117859,299.530670 886.923218,294.938110 C886.036316,294.495087 885.033203,294.290466 884.101379,293.930389 C877.826111,291.505493 875.314392,287.048462 877.384949,282.037201 C879.352234,277.275909 884.137573,275.767151 890.052856,277.845642 C903.476318,282.562378 916.442444,288.171265 927.558594,297.287323 C935.971619,304.186615 941.607910,312.780548 942.920898,324.284485 z"/> <path fill="#F3E5DD" opacity="1.000000" stroke="none" d=" M849.691772,267.055786 C858.028137,269.161346 861.095520,272.415161 860.026550,277.663452 C858.884277,283.271729 854.446167,285.109070 846.591370,283.915344 C820.011169,279.875977 793.408691,275.981293 766.803040,272.112122 C760.740906,271.230560 757.834595,268.576447 757.902283,263.432465 C757.977417,257.722290 762.168213,254.337036 769.004089,255.061737 C781.548584,256.391632 794.106323,257.721222 806.576172,259.598114 C820.859253,261.747925 835.052734,264.493225 849.691772,267.055786 z"/> <path fill="#F3E4DD" opacity="1.000000" stroke="none" d=" M476.997101,245.920441 C481.829163,245.910034 486.165771,245.786118 490.493591,245.928970 C494.968628,246.076675 497.491333,248.638474 498.172943,252.985809 C498.867279,257.414337 496.983124,260.543274 492.821869,261.948120 C490.665710,262.676025 488.256134,262.894257 485.956665,262.917969 C468.791595,263.095154 451.624908,263.110535 434.459930,263.292999 C425.470093,263.388611 416.482941,263.726105 407.494141,263.935547 C406.163208,263.966583 404.812073,264.024261 403.500763,263.845642 C398.457214,263.158569 394.974091,259.345886 395.167511,254.843658 C395.341125,250.802521 399.227753,247.130844 404.033417,246.931458 C413.017212,246.558655 422.009216,246.305679 431.000122,246.202209 C446.165070,246.027679 461.331818,246.008575 476.997101,245.920441 z"/> <path fill="#F3E4DD" opacity="1.000000" stroke="none" d=" M716.976013,250.908173 C722.097595,251.246811 726.751404,251.504868 731.392334,251.910538 C737.359192,252.432068 740.578186,255.868179 740.246948,261.191437 C739.944092,266.060028 736.292297,269.255707 730.529114,268.946503 C712.080872,267.956879 693.647095,266.701324 675.202698,265.636230 C665.730469,265.089203 656.246582,264.746124 646.769592,264.277649 C640.824097,263.983734 636.951050,260.486084 637.137268,255.657578 C637.320984,250.892914 641.453674,247.054352 647.183655,247.245285 C662.990051,247.772034 678.788269,248.575470 694.584045,249.379715 C701.896973,249.752060 709.196777,250.380737 716.976013,250.908173 z"/> <path fill="#F3E4DD" opacity="1.000000" stroke="none" d=" M285.203613,267.216583 C277.841064,267.107727 274.238770,264.241028 274.119629,258.778564 C274.015808,254.018967 278.112244,250.435516 284.458893,250.147568 C293.591675,249.733185 302.734406,249.527344 311.874146,249.279388 C330.822845,248.765335 349.771027,248.216003 368.722504,247.832794 C373.460632,247.737000 377.247986,251.287033 377.630737,255.525681 C377.997070,259.582336 375.029114,263.240448 370.380524,264.287567 C368.770477,264.650208 367.099152,264.859039 365.449005,264.907990 C338.858612,265.697235 312.267120,266.449280 285.203613,267.216583 z"/> <path fill="#F3E5DD" opacity="1.000000" stroke="none" d=" M852.012207,379.025085 C856.557922,377.168884 861.185974,375.479279 865.625977,373.390015 C877.963745,367.584351 890.222595,361.611084 902.514954,355.708893 C903.563354,355.205505 904.593018,354.626099 905.692627,354.272919 C910.917297,352.594788 915.895813,354.596802 917.916626,359.121521 C919.960815,363.698761 918.068665,368.459167 912.858093,371.059235 C906.610474,374.176788 900.250000,377.068878 893.928162,380.036896 C884.747375,384.347107 875.491760,388.504761 866.397888,392.990723 C861.561768,395.376373 856.854980,396.636597 852.560364,392.559845 C848.408264,388.618378 849.851074,384.109314 852.145264,379.398926 C852.040039,379.016418 852.008728,379.009308 852.012207,379.025085 z"/> <path fill="#F2E3DD" opacity="1.000000" stroke="none" d=" M494.783386,885.442810 C498.428223,885.205383 501.708435,885.180847 505.433868,885.182434 C507.977600,886.476440 510.471893,887.373413 512.085693,889.095520 C514.788635,891.979614 515.140503,895.670349 513.517700,899.331482 C511.661804,903.518311 508.070435,904.893433 503.777252,904.974609 C484.154449,905.345825 464.532745,905.794128 444.908569,906.064514 C432.929535,906.229614 420.946686,906.161743 408.965790,906.121948 C402.113586,906.099182 398.113159,902.520569 398.096863,896.602661 C398.081299,890.948303 402.421967,887.050049 409.104614,886.956909 C435.719025,886.585999 462.334290,886.278809 488.949036,885.931763 C490.773193,885.908020 492.595551,885.750854 494.783386,885.442810 z"/>  </svg>