<svg version="1.1" id="Layer_1" xmlns="http://www.w3.org/2000/svg" xmlns:xlink="http://www.w3.org/1999/xlink" x="0px" y="0px"
	 width="100%" viewBox="0 0 1000 1000" enable-background="new 0 0 1000 1000" xml:space="preserve">
<path fill="#B450F5" opacity="1.000000" stroke="none" 
	d="
M556.000000,1001.000000 
	C370.666656,1001.000000 185.833328,1001.000000 1.000000,1001.000000 
	C1.000000,667.666687 1.000000,334.333344 1.000000,1.000000 
	C334.333344,1.000000 667.666687,1.000000 1001.000000,1.000000 
	C1001.000000,334.333344 1001.000000,667.666687 1001.000000,1001.000000 
	C852.833313,1001.000000 704.666687,1001.000000 556.000000,1001.000000 
M812.744934,822.657043 
	C834.778931,776.907410 856.820435,731.161499 878.843994,685.406921 
	C892.564087,656.903198 906.253052,628.384399 919.970703,599.879517 
	C921.015564,597.708313 921.482483,595.296570 925.272461,596.532959 
	C937.814941,600.625000 946.826965,591.793213 951.342041,582.697083 
	C951.705872,581.964233 951.103149,580.751526 950.949585,579.761841 
	C949.889954,580.115234 948.484070,580.158142 947.836243,580.880798 
	C945.958191,582.975708 944.612854,585.568909 942.646973,587.560425 
	C937.485718,592.789001 930.595459,593.702148 924.852722,589.966431 
	C926.019104,587.483948 927.039001,584.850586 928.435059,582.434448 
	C931.728882,576.733643 929.937378,571.443604 927.153809,566.369751 
	C925.519348,563.390442 922.721924,562.517456 919.421814,563.924133 
	C913.126953,566.607544 909.278076,571.257385 907.282288,578.267334 
	C905.912964,577.444153 904.532166,576.639282 903.176147,575.794739 
	C893.889282,570.010803 885.073608,563.214905 875.225464,558.641541 
	C855.818604,549.629211 835.833374,553.931763 820.532349,568.935852 
	C812.449585,576.861633 806.373047,586.184692 801.851196,596.480347 
	C794.319580,613.629028 785.428467,629.979431 774.008301,644.861023 
	C761.206055,661.543640 746.625183,676.312439 727.356567,685.521240 
	C701.996948,697.640808 679.353577,693.320801 661.656677,673.450500 
	C659.524597,671.056519 658.877625,669.268372 660.873718,666.157532 
	C676.310547,642.099976 686.747009,615.865540 693.537903,588.196960 
	C696.834717,574.764526 699.512939,561.132080 696.956482,547.167664 
	C695.070312,536.864380 686.947998,531.190369 676.554504,532.745117 
	C668.159058,534.001038 661.098206,537.995361 655.226868,543.911133 
	C635.250305,564.038635 629.625610,588.856201 632.578247,616.118835 
	C634.566345,634.475525 641.421387,651.205322 651.176575,666.822449 
	C652.033386,668.194092 652.563660,670.872620 651.815918,671.971069 
	C645.120178,681.808838 637.315125,690.682922 627.210083,697.201965 
	C615.540894,704.730225 603.687683,705.819397 591.606628,697.928467 
	C590.630737,697.290955 588.891174,697.822510 587.506470,697.810791 
	C588.050232,698.981934 588.273804,700.606018 589.188416,701.252380 
	C596.378540,706.333618 604.205505,708.783630 613.188782,707.270142 
	C622.428467,705.713440 630.242371,701.374207 636.873962,695.170471 
	C643.761108,688.727783 649.981628,681.572510 656.995850,674.201233 
	C657.666992,675.068481 658.503662,676.273560 659.469177,677.364502 
	C660.571960,678.610413 661.733887,679.816040 662.965637,680.933960 
	C677.497498,694.122620 694.249023,699.496216 713.669189,695.084473 
	C727.633240,691.912354 739.670105,684.812317 750.530884,675.811707 
	C773.837952,656.496582 790.109741,631.901428 802.673767,604.679138 
	C808.150085,592.813721 814.205872,581.392273 823.796509,572.229858 
	C833.611023,562.853821 845.179382,558.341003 858.805542,559.652954 
	C875.462830,561.256775 888.844421,569.788818 901.479126,579.914795 
	C902.819397,580.988953 904.522949,581.609802 905.661255,583.230103 
	C891.428345,619.297485 877.189697,655.362610 862.963989,691.432800 
	C846.479553,733.230042 830.023621,775.038452 813.459412,816.804077 
	C812.859497,818.316650 811.242126,819.425720 809.984619,820.057983 
	C808.063538,816.341187 804.770325,814.997803 800.869690,815.231750 
	C795.065613,815.579712 789.250793,816.001343 783.491638,816.773254 
	C777.660767,817.554749 774.375427,821.429260 774.765076,826.378418 
	C775.179749,831.645874 779.218811,835.010010 785.210571,834.765503 
	C789.857544,834.575928 794.489685,833.785339 799.131287,833.758545 
	C806.516052,833.715942 811.027222,830.530701 812.744934,822.657043 
M306.665833,209.182251 
	C314.201202,195.505692 322.300201,182.102356 329.101807,168.070129 
	C335.033600,155.832336 336.525330,142.501450 333.508514,129.050476 
	C327.924988,104.155312 305.467804,86.737846 279.638336,87.002373 
	C254.404495,87.260796 232.121964,105.455200 226.986237,130.057098 
	C223.731857,145.646637 227.847244,160.097198 234.106812,174.143005 
	C244.019394,196.385696 258.147369,215.931152 273.270355,234.819031 
	C275.411499,237.493210 277.748352,240.010696 280.741913,243.462341 
	C289.609924,231.741974 297.925018,220.752365 306.665833,209.182251 
M412.817993,835.687134 
	C410.160828,835.807129 407.471191,835.708313 404.853821,836.096558 
	C400.550659,836.734741 397.421478,840.546265 397.343903,844.811340 
	C397.269287,848.916809 400.501068,852.845398 404.765076,853.574097 
	C406.551849,853.879517 408.409302,853.872192 410.232544,853.848328 
	C437.840424,853.486816 465.448029,853.105713 493.055298,852.699768 
	C494.709015,852.675415 496.391937,852.557068 498.004517,852.214966 
	C502.478302,851.265686 505.163513,847.796326 505.084778,843.291687 
	C505.009003,838.953247 502.038177,835.459961 497.547668,834.741150 
	C495.597931,834.429077 493.575592,834.478027 491.588348,834.507019 
	C465.643951,834.885254 439.699951,835.289246 412.817993,835.687134 
M164.373764,826.062927 
	C175.488220,829.492920 186.453552,833.563660 197.754242,836.193481 
	C212.476974,839.619690 227.447739,842.004944 242.348862,844.627380 
	C248.255035,845.666748 252.793213,842.267578 253.672302,836.753601 
	C254.423157,832.043823 251.086945,828.145020 245.233307,826.920715 
	C243.768051,826.614197 242.294739,826.338135 240.816254,826.104126 
	C213.828201,821.833557 187.031921,816.881531 161.944550,805.335571 
	C156.806458,802.970886 152.065201,804.898865 149.795044,809.651184 
	C147.707474,814.021240 149.317856,818.811768 154.116180,821.478333 
	C157.158234,823.168945 160.460205,824.391907 164.373764,826.062927 
M271.692383,841.786987 
	C273.273468,847.122070 277.293213,848.756409 282.372589,849.018372 
	C308.458344,850.363403 334.540436,851.779846 360.626221,853.124512 
	C364.270477,853.312378 367.963196,853.580139 371.570587,853.205444 
	C376.039337,852.741150 379.053436,849.037720 379.018799,844.620361 
	C378.983215,840.075012 376.731720,837.026855 372.251709,835.979614 
	C370.166107,835.492126 367.978668,835.329468 365.828735,835.248352 
	C358.511414,834.972229 351.181244,834.960144 343.872253,834.554077 
	C323.438171,833.418884 303.016235,832.062195 282.580872,830.952148 
	C275.128540,830.547302 271.851288,833.746948 271.692383,841.786987 
M565.035095,831.743042 
	C554.718079,832.187439 544.399780,832.603088 534.084595,833.086487 
	C527.246704,833.406982 523.028992,837.084167 523.308899,842.354858 
	C523.603210,847.896179 527.770081,851.263977 534.535950,851.071594 
	C543.858582,850.806519 553.178345,850.393555 562.493774,849.931824 
	C582.122253,848.958740 601.748413,847.935181 621.372681,846.880432 
	C626.179321,846.622131 629.684387,844.397827 630.805847,839.480957 
	C632.133057,833.661987 627.594299,828.654968 620.864197,828.938782 
	C602.560547,829.710571 584.267517,830.736206 565.035095,831.743042 
M723.323792,839.707947 
	C731.449524,839.099670 739.586060,838.606873 747.697815,837.849182 
	C755.131897,837.154846 759.219910,830.057007 755.631653,824.350220 
	C753.343079,820.710388 749.955505,819.576904 745.777161,819.894592 
	C730.853760,821.029114 715.921143,822.041565 700.994568,823.135071 
	C687.062744,824.155701 673.124695,825.111694 659.208191,826.313721 
	C652.644531,826.880615 648.814636,830.835571 649.218567,835.924988 
	C649.651978,841.385742 654.042664,844.540649 660.673157,844.081848 
	C681.245483,842.658630 701.816223,841.212341 723.323792,839.707947 
M131.681824,732.165833 
	C127.285873,740.345703 121.996696,748.183533 118.702507,756.785339 
	C113.713882,769.811584 114.592911,782.987061 122.099815,795.182922 
	C125.091438,800.043152 129.698792,801.391418 134.046844,799.101685 
	C138.534195,796.738525 140.689377,791.722900 138.126770,787.243103 
	C131.221542,775.171753 133.116379,763.323303 140.167694,752.763245 
	C147.602386,741.629089 156.684906,731.574829 165.292892,721.253357 
	C169.471054,716.243530 170.267990,711.280396 166.684418,707.453613 
	C162.907333,703.420166 157.172791,703.510986 152.589066,708.399109 
	C145.536575,715.919983 138.895294,723.826416 131.681824,732.165833 
M613.336487,483.001923 
	C621.125122,479.241119 628.917419,475.487854 636.701721,471.718018 
	C653.917786,463.380524 671.156128,455.088257 688.328003,446.660614 
	C693.676636,444.035614 695.752502,439.107666 693.721008,434.852783 
	C691.486511,430.172394 686.396729,428.673828 680.863525,431.178986 
	C677.530762,432.687866 674.270203,434.356506 670.980652,435.960358 
	C649.749634,446.311493 628.498840,456.622345 607.303711,467.046478 
	C601.951843,469.678619 599.977661,473.955963 601.644714,478.299011 
	C603.375244,482.807434 607.016235,484.467560 613.336487,483.001923 
M495.722534,532.722290 
	C498.806702,537.039978 502.735413,538.041260 507.483154,535.670654 
	C532.333862,523.262268 557.203125,510.890411 582.009399,498.393677 
	C587.270325,495.743378 588.907227,491.272369 586.750854,486.915070 
	C584.429321,482.223999 579.751343,480.572266 574.418823,483.207458 
	C549.515564,495.513977 524.666687,507.931458 499.862488,520.436523 
	C494.843475,522.966858 493.764038,526.346924 495.722534,532.722290 
M303.576721,622.134521 
	C298.033722,625.175171 292.136841,627.741028 287.116638,631.483032 
	C285.022034,633.044312 283.460602,637.439636 284.084259,639.941101 
	C284.725098,642.511414 288.010559,645.182678 290.741455,646.214539 
	C292.688690,646.950317 295.834717,645.436584 298.099518,644.260071 
	C313.760345,636.124634 329.332275,627.818176 344.928558,619.558533 
	C353.462219,615.039246 362.046417,610.610596 370.493317,605.934204 
	C375.132721,603.365540 376.570526,598.701355 374.481781,594.502136 
	C372.271729,590.059021 367.637543,588.683044 362.516785,590.982300 
	C361.455719,591.458740 360.444214,592.046509 359.414520,592.591736 
	C341.022095,602.331360 322.630432,612.072327 303.576721,622.134521 
M708.626953,425.694183 
	C712.235474,432.353943 715.197693,433.388336 721.925049,430.275909 
	C725.849854,428.460083 729.754150,426.599670 733.656982,424.736908 
	C754.523438,414.777710 775.408447,404.857056 796.235046,394.815216 
	C801.376587,392.336182 803.078857,387.733276 800.919006,383.333496 
	C798.751160,378.917419 794.212402,377.119720 789.609070,379.296600 
	C764.346252,391.243103 739.117493,403.262299 713.921021,415.348297 
	C710.035645,417.212006 707.680054,420.294556 708.626953,425.694183 
M200.376892,678.946655 
	C194.857330,682.036560 189.031082,684.705872 183.956528,688.406128 
	C181.658142,690.082153 179.453674,693.971985 179.762039,696.552185 
	C180.071228,699.139282 183.158340,702.251892 185.790176,703.426941 
	C187.820053,704.333252 191.361633,703.204468 193.662994,701.943665 
	C217.459091,688.906799 241.154968,675.686462 264.840546,662.448792 
	C270.104462,659.506836 271.781708,654.756653 269.391388,650.441833 
	C266.855255,645.863770 261.736908,644.777771 256.432526,647.731018 
	C237.960541,658.015381 219.495331,668.311890 200.376892,678.946655 
M448.297852,565.764648 
	C453.634583,563.030518 458.989624,560.331421 464.302368,557.551453 
	C468.725281,555.237122 473.231659,553.040100 477.451019,550.392517 
	C480.739288,548.329285 482.335510,544.596375 480.501129,541.287964 
	C479.086029,538.735901 475.961517,536.624329 473.129608,535.555054 
	C471.425110,534.911560 468.665192,536.326355 466.651703,537.350952 
	C444.235107,548.758545 421.869446,560.266296 399.497192,571.760864 
	C397.128998,572.977661 394.676270,574.092957 392.491058,575.588806 
	C388.631287,578.231018 387.558899,582.818604 389.642944,586.570129 
	C391.694458,590.263123 396.261993,591.805664 400.438965,590.140991 
	C401.826843,589.587830 403.147736,588.860840 404.481323,588.178223 
	C418.864075,580.816223 433.243286,573.447327 448.297852,565.764648 
M896.735779,299.813843 
	C894.500549,297.138153 892.532104,294.171234 889.984070,291.837006 
	C878.686096,281.486847 864.979980,275.522064 850.566284,271.070953 
	C848.767822,270.515564 845.851685,270.878906 844.553101,272.043091 
	C842.643066,273.755341 840.800415,276.494080 840.594604,278.935944 
	C840.275452,282.723389 843.111694,285.007874 846.615356,286.613525 
	C856.108521,290.964142 866.042664,294.709991 874.753723,300.322540 
	C886.613953,307.964020 888.031067,315.541443 882.416321,328.543304 
	C880.457397,333.079468 881.775024,337.682159 885.628479,339.764099 
	C889.668579,341.946899 893.815186,340.672363 896.527344,335.909546 
	C903.171082,324.242340 904.418030,312.383362 896.735779,299.813843 
M626.341248,259.484497 
	C634.157776,259.796143 641.980835,259.993805 649.789490,260.442383 
	C667.904724,261.482971 686.011169,262.676208 704.125122,263.739380 
	C710.069580,264.088287 713.875671,261.359192 714.400818,256.637115 
	C714.951233,251.687866 711.653564,248.244370 705.407043,247.610657 
	C700.441345,247.106918 695.447754,246.849136 690.460938,246.590027 
	C669.845947,245.518997 649.231567,244.429260 628.610657,243.483948 
	C623.124023,243.232422 619.708679,245.858124 619.000305,250.221939 
	C618.303833,254.512680 620.396057,257.414001 626.341248,259.484497 
M395.745453,254.782471 
	C397.698608,258.325500 400.913544,259.079193 404.644897,259.024719 
	C430.094391,258.653290 455.545135,258.366638 480.994476,257.985596 
	C486.863281,257.897766 490.416229,254.731491 490.448730,249.903854 
	C490.480255,245.220978 486.724884,241.960632 480.907776,242.022598 
	C455.290710,242.295441 429.673920,242.614532 404.058746,243.025192 
	C396.943329,243.139267 394.078888,246.996338 395.745453,254.782471 
M770.515198,254.115616 
	C760.440002,252.949387 750.374084,251.693802 740.286255,250.649368 
	C733.906311,249.988815 729.121704,254.604675 730.494080,259.983398 
	C731.693420,264.683777 735.203003,266.445892 739.771118,266.879639 
	C747.880737,267.649658 756.020569,268.287567 764.064758,269.521759 
	C780.982483,272.117371 797.846619,275.062347 814.732483,277.865814 
	C820.011597,278.742279 823.780273,276.758026 825.067810,272.416870 
	C826.533691,267.474152 823.444824,263.218719 817.100769,262.081085 
	C801.887085,259.352936 786.638855,256.817810 770.515198,254.115616 
M315.358185,261.615570 
	C322.012299,261.387817 328.666016,261.147003 335.320648,260.935181 
	C346.800720,260.569733 358.286682,260.338989 369.759491,259.816986 
	C375.300232,259.564880 378.591827,256.168823 378.533234,251.489365 
	C378.480469,247.277267 374.716919,243.792099 369.720520,243.919266 
	C343.594574,244.584259 317.469879,245.316940 291.350006,246.185165 
	C285.828094,246.368713 282.551422,249.846283 282.630127,254.545090 
	C282.705566,259.047485 286.375763,262.142670 291.919098,262.099274 
	C299.409760,262.040649 306.899048,261.807220 315.358185,261.615570 
M558.500000,241.997406 
	C544.518799,241.950058 530.536743,241.815842 516.557068,241.940384 
	C514.211731,241.961258 510.810944,242.376953 509.779602,243.891556 
	C508.124268,246.322586 507.031281,250.004242 507.538055,252.827560 
	C508.223633,256.647003 512.042664,257.825317 515.802979,257.847198 
	C528.785339,257.922668 541.769043,257.869781 554.750183,258.031128 
	C567.396667,258.188293 580.039795,258.603851 592.686096,258.794373 
	C598.405151,258.880554 601.815186,256.258759 602.495056,251.626236 
	C603.183472,246.935516 599.778931,243.072678 593.937683,242.827103 
	C582.467224,242.344894 570.980164,242.256561 558.500000,241.997406 
M829.593994,379.123932 
	C844.064514,372.352051 858.558838,365.630280 872.993835,358.783539 
	C878.761963,356.047668 880.881836,351.288452 878.663086,346.779510 
	C876.300354,341.978027 871.577393,340.566315 865.814697,343.237183 
	C851.319336,349.955383 836.856995,356.745758 822.425049,363.599152 
	C816.545715,366.391083 814.411377,370.777771 816.321960,375.504333 
	C818.246704,380.265930 822.577271,381.627167 829.593994,379.123932 
z"/>
<path fill="#F5E8DC" opacity="1.000000" stroke="none" 
	d="
M306.452972,209.472504 
	C297.925018,220.752365 289.609924,231.741974 280.741913,243.462341 
	C277.748352,240.010696 275.411499,237.493210 273.270355,234.819031 
	C258.147369,215.931152 244.019394,196.385696 234.106812,174.143005 
	C227.847244,160.097198 223.731857,145.646637 226.986237,130.057098 
	C232.121964,105.455200 254.404495,87.260796 279.638336,87.002373 
	C305.467804,86.737846 327.924988,104.155312 333.508514,129.050476 
	C336.525330,142.501450 335.033600,155.832336 329.101807,168.070129 
	C322.300201,182.102356 314.201202,195.505692 306.452972,209.472504 
M287.754700,159.585068 
	C288.788330,159.054138 289.897552,158.632019 290.843414,157.974762 
	C297.386261,153.428207 300.820709,147.230652 299.716827,139.210846 
	C298.665558,131.573135 294.573639,125.881470 287.104767,123.257385 
	C279.108917,120.448151 272.019806,122.255020 266.121246,128.330582 
	C260.240417,134.387894 259.307831,143.732193 263.683624,151.436020 
	C268.214966,159.413727 276.714233,162.488831 287.754700,159.585068 
z"/>
<path fill="#F1E0DD" opacity="1.000000" stroke="none" 
	d="
M906.058044,582.440918 
	C904.522949,581.609802 902.819397,580.988953 901.479126,579.914795 
	C888.844421,569.788818 875.462830,561.256775 858.805542,559.652954 
	C845.179382,558.341003 833.611023,562.853821 823.796509,572.229858 
	C814.205872,581.392273 808.150085,592.813721 802.673767,604.679138 
	C790.109741,631.901428 773.837952,656.496582 750.530884,675.811707 
	C739.670105,684.812317 727.633240,691.912354 713.669189,695.084473 
	C694.249023,699.496216 677.497498,694.122620 662.965637,680.933960 
	C661.733887,679.816040 660.571960,678.610413 659.469177,677.364502 
	C658.503662,676.273560 657.666992,675.068481 656.995850,674.201233 
	C649.981628,681.572510 643.761108,688.727783 636.873962,695.170471 
	C630.242371,701.374207 622.428467,705.713440 613.188782,707.270142 
	C604.205505,708.783630 596.378540,706.333618 589.188416,701.252380 
	C588.273804,700.606018 588.050232,698.981934 587.506470,697.810791 
	C588.891174,697.822510 590.630737,697.290955 591.606628,697.928467 
	C603.687683,705.819397 615.540894,704.730225 627.210083,697.201965 
	C637.315125,690.682922 645.120178,681.808838 651.815918,671.971069 
	C652.563660,670.872620 652.033386,668.194092 651.176575,666.822449 
	C641.421387,651.205322 634.566345,634.475525 632.578247,616.118835 
	C629.625610,588.856201 635.250305,564.038635 655.226868,543.911133 
	C661.098206,537.995361 668.159058,534.001038 676.554504,532.745117 
	C686.947998,531.190369 695.070312,536.864380 696.956482,547.167664 
	C699.512939,561.132080 696.834717,574.764526 693.537903,588.196960 
	C686.747009,615.865540 676.310547,642.099976 660.873718,666.157532 
	C658.877625,669.268372 659.524597,671.056519 661.656677,673.450500 
	C679.353577,693.320801 701.996948,697.640808 727.356567,685.521240 
	C746.625183,676.312439 761.206055,661.543640 774.008301,644.861023 
	C785.428467,629.979431 794.319580,613.629028 801.851196,596.480347 
	C806.373047,586.184692 812.449585,576.861633 820.532349,568.935852 
	C835.833374,553.931763 855.818604,549.629211 875.225464,558.641541 
	C885.073608,563.214905 893.889282,570.010803 903.176147,575.794739 
	C904.532166,576.639282 905.912964,577.444153 907.598145,578.426880 
	C907.295288,579.871216 906.676636,581.156067 906.058044,582.440918 
M673.757812,633.148010 
	C677.967712,621.771423 682.594116,610.527954 686.282654,598.984802 
	C690.945251,584.393250 694.571472,569.499390 693.977295,553.970459 
	C693.420837,539.428589 684.128723,533.403748 670.578491,538.782227 
	C660.173645,542.912231 653.040955,550.828796 647.664978,560.186707 
	C632.360291,586.827148 632.949341,614.489136 643.696472,642.384949 
	C646.754761,650.323059 651.095337,657.767090 654.847961,665.437622 
	C655.610352,665.456421 656.372681,665.475159 657.135071,665.493958 
	C662.572449,654.944763 668.009766,644.395569 673.757812,633.148010 
z"/>
<path fill="#F3E5DD" opacity="1.000000" stroke="none" 
	d="
M905.859619,582.835510 
	C906.676636,581.156067 907.295288,579.871216 907.957153,578.294312 
	C909.278076,571.257385 913.126953,566.607544 919.421814,563.924133 
	C922.721924,562.517456 925.519348,563.390442 927.153809,566.369751 
	C929.937378,571.443604 931.728882,576.733643 928.435059,582.434448 
	C927.039001,584.850586 926.019104,587.483948 924.852722,589.966431 
	C930.595459,593.702148 937.485718,592.789001 942.646973,587.560425 
	C944.612854,585.568909 945.958191,582.975708 947.836243,580.880798 
	C948.484070,580.158142 949.889954,580.115234 950.949585,579.761841 
	C951.103149,580.751526 951.705872,581.964233 951.342041,582.697083 
	C946.826965,591.793213 937.814941,600.625000 925.272461,596.532959 
	C921.482483,595.296570 921.015564,597.708313 919.970703,599.879517 
	C906.253052,628.384399 892.564087,656.903198 878.843994,685.406921 
	C856.820435,731.161499 834.778931,776.907410 812.160706,822.766479 
	C811.083923,822.158264 810.591431,821.440552 810.098877,820.722900 
	C811.242126,819.425720 812.859497,818.316650 813.459412,816.804077 
	C830.023621,775.038452 846.479553,733.230042 862.963989,691.432800 
	C877.189697,655.362610 891.428345,619.297485 905.859619,582.835510 
M911.346985,584.165039 
	C907.934937,594.353699 904.522827,604.542419 901.110779,614.731079 
	C901.747314,615.003052 902.383911,615.274963 903.020508,615.546936 
	C904.060974,614.166809 905.265930,612.879944 906.111206,611.389221 
	C908.640869,606.928223 911.006897,602.374756 913.481506,597.882080 
	C915.255005,594.662231 917.475708,591.614258 912.907104,588.583008 
	C911.983582,587.970337 912.253723,585.558716 912.700989,583.916382 
	C914.533630,584.958252 916.366272,586.000122 918.659607,587.303894 
	C920.235657,584.166199 922.227112,581.367737 922.962952,578.270996 
	C923.363037,576.587036 922.109131,573.351929 920.727600,572.716797 
	C919.238037,572.031921 915.610596,572.951599 914.890930,574.258728 
	C913.291992,577.162598 912.926819,580.745728 911.346985,584.165039 
z"/>
<path fill="#F4E6DC" opacity="1.000000" stroke="none" 
	d="
M413.286926,835.686890 
	C439.699951,835.289246 465.643951,834.885254 491.588348,834.507019 
	C493.575592,834.478027 495.597931,834.429077 497.547668,834.741150 
	C502.038177,835.459961 505.009003,838.953247 505.084778,843.291687 
	C505.163513,847.796326 502.478302,851.265686 498.004517,852.214966 
	C496.391937,852.557068 494.709015,852.675415 493.055298,852.699768 
	C465.448029,853.105713 437.840424,853.486816 410.232544,853.848328 
	C408.409302,853.872192 406.551849,853.879517 404.765076,853.574097 
	C400.501068,852.845398 397.269287,848.916809 397.343903,844.811340 
	C397.421478,840.546265 400.550659,836.734741 404.853821,836.096558 
	C407.471191,835.708313 410.160828,835.807129 413.286926,835.686890 
z"/>
<path fill="#F4E6DC" opacity="1.000000" stroke="none" 
	d="
M164.009705,825.943726 
	C160.460205,824.391907 157.158234,823.168945 154.116180,821.478333 
	C149.317856,818.811768 147.707474,814.021240 149.795044,809.651184 
	C152.065201,804.898865 156.806458,802.970886 161.944550,805.335571 
	C187.031921,816.881531 213.828201,821.833557 240.816254,826.104126 
	C242.294739,826.338135 243.768051,826.614197 245.233307,826.920715 
	C251.086945,828.145020 254.423157,832.043823 253.672302,836.753601 
	C252.793213,842.267578 248.255035,845.666748 242.348862,844.627380 
	C227.447739,842.004944 212.476974,839.619690 197.754242,836.193481 
	C186.453552,833.563660 175.488220,829.492920 164.009705,825.943726 
z"/>
<path fill="#F4E7DC" opacity="1.000000" stroke="none" 
	d="
M271.603394,841.424194 
	C271.851288,833.746948 275.128540,830.547302 282.580872,830.952148 
	C303.016235,832.062195 323.438171,833.418884 343.872253,834.554077 
	C351.181244,834.960144 358.511414,834.972229 365.828735,835.248352 
	C367.978668,835.329468 370.166107,835.492126 372.251709,835.979614 
	C376.731720,837.026855 378.983215,840.075012 379.018799,844.620361 
	C379.053436,849.037720 376.039337,852.741150 371.570587,853.205444 
	C367.963196,853.580139 364.270477,853.312378 360.626221,853.124512 
	C334.540436,851.779846 308.458344,850.363403 282.372589,849.018372 
	C277.293213,848.756409 273.273468,847.122070 271.603394,841.424194 
z"/>
<path fill="#F4E7DC" opacity="1.000000" stroke="none" 
	d="
M565.502686,831.702148 
	C584.267517,830.736206 602.560547,829.710571 620.864197,828.938782 
	C627.594299,828.654968 632.133057,833.661987 630.805847,839.480957 
	C629.684387,844.397827 626.179321,846.622131 621.372681,846.880432 
	C601.748413,847.935181 582.122253,848.958740 562.493774,849.931824 
	C553.178345,850.393555 543.858582,850.806519 534.535950,851.071594 
	C527.770081,851.263977 523.603210,847.896179 523.308899,842.354858 
	C523.028992,837.084167 527.246704,833.406982 534.084595,833.086487 
	C544.399780,832.603088 554.718079,832.187439 565.502686,831.702148 
z"/>
<path fill="#F4E7DC" opacity="1.000000" stroke="none" 
	d="
M722.855713,839.741455 
	C701.816223,841.212341 681.245483,842.658630 660.673157,844.081848 
	C654.042664,844.540649 649.651978,841.385742 649.218567,835.924988 
	C648.814636,830.835571 652.644531,826.880615 659.208191,826.313721 
	C673.124695,825.111694 687.062744,824.155701 700.994568,823.135071 
	C715.921143,822.041565 730.853760,821.029114 745.777161,819.894592 
	C749.955505,819.576904 753.343079,820.710388 755.631653,824.350220 
	C759.219910,830.057007 755.131897,837.154846 747.697815,837.849182 
	C739.586060,838.606873 731.449524,839.099670 722.855713,839.741455 
z"/>
<path fill="#F4E7DC" opacity="1.000000" stroke="none" 
	d="
M131.880676,731.867554 
	C138.895294,723.826416 145.536575,715.919983 152.589066,708.399109 
	C157.172791,703.510986 162.907333,703.420166 166.684418,707.453613 
	C170.267990,711.280396 169.471054,716.243530 165.292892,721.253357 
	C156.684906,731.574829 147.602386,741.629089 140.167694,752.763245 
	C133.116379,763.323303 131.221542,775.171753 138.126770,787.243103 
	C140.689377,791.722900 138.534195,796.738525 134.046844,799.101685 
	C129.698792,801.391418 125.091438,800.043152 122.099815,795.182922 
	C114.592911,782.987061 113.713882,769.811584 118.702507,756.785339 
	C121.996696,748.183533 127.285873,740.345703 131.880676,731.867554 
z"/>
<path fill="#F4E7DC" opacity="1.000000" stroke="none" 
	d="
M612.968384,483.148071 
	C607.016235,484.467560 603.375244,482.807434 601.644714,478.299011 
	C599.977661,473.955963 601.951843,469.678619 607.303711,467.046478 
	C628.498840,456.622345 649.749634,446.311493 670.980652,435.960358 
	C674.270203,434.356506 677.530762,432.687866 680.863525,431.178986 
	C686.396729,428.673828 691.486511,430.172394 693.721008,434.852783 
	C695.752502,439.107666 693.676636,444.035614 688.328003,446.660614 
	C671.156128,455.088257 653.917786,463.380524 636.701721,471.718018 
	C628.917419,475.487854 621.125122,479.241119 612.968384,483.148071 
z"/>
<path fill="#F4E7DC" opacity="1.000000" stroke="none" 
	d="
M495.520874,532.411499 
	C493.764038,526.346924 494.843475,522.966858 499.862488,520.436523 
	C524.666687,507.931458 549.515564,495.513977 574.418823,483.207458 
	C579.751343,480.572266 584.429321,482.223999 586.750854,486.915070 
	C588.907227,491.272369 587.270325,495.743378 582.009399,498.393677 
	C557.203125,510.890411 532.333862,523.262268 507.483154,535.670654 
	C502.735413,538.041260 498.806702,537.039978 495.520874,532.411499 
z"/>
<path fill="#F4E7DC" opacity="1.000000" stroke="none" 
	d="
M303.907654,621.973755 
	C322.630432,612.072327 341.022095,602.331360 359.414520,592.591736 
	C360.444214,592.046509 361.455719,591.458740 362.516785,590.982300 
	C367.637543,588.683044 372.271729,590.059021 374.481781,594.502136 
	C376.570526,598.701355 375.132721,603.365540 370.493317,605.934204 
	C362.046417,610.610596 353.462219,615.039246 344.928558,619.558533 
	C329.332275,627.818176 313.760345,636.124634 298.099518,644.260071 
	C295.834717,645.436584 292.688690,646.950317 290.741455,646.214539 
	C288.010559,645.182678 284.725098,642.511414 284.084259,639.941101 
	C283.460602,637.439636 285.022034,633.044312 287.116638,631.483032 
	C292.136841,627.741028 298.033722,625.175171 303.907654,621.973755 
z"/>
<path fill="#F4E6DC" opacity="1.000000" stroke="none" 
	d="
M708.507263,425.330963 
	C707.680054,420.294556 710.035645,417.212006 713.921021,415.348297 
	C739.117493,403.262299 764.346252,391.243103 789.609070,379.296600 
	C794.212402,377.119720 798.751160,378.917419 800.919006,383.333496 
	C803.078857,387.733276 801.376587,392.336182 796.235046,394.815216 
	C775.408447,404.857056 754.523438,414.777710 733.656982,424.736908 
	C729.754150,426.599670 725.849854,428.460083 721.925049,430.275909 
	C715.197693,433.388336 712.235474,432.353943 708.507263,425.330963 
z"/>
<path fill="#F4E7DC" opacity="1.000000" stroke="none" 
	d="
M200.702225,678.775208 
	C219.495331,668.311890 237.960541,658.015381 256.432526,647.731018 
	C261.736908,644.777771 266.855255,645.863770 269.391388,650.441833 
	C271.781708,654.756653 270.104462,659.506836 264.840546,662.448792 
	C241.154968,675.686462 217.459091,688.906799 193.662994,701.943665 
	C191.361633,703.204468 187.820053,704.333252 185.790176,703.426941 
	C183.158340,702.251892 180.071228,699.139282 179.762039,696.552185 
	C179.453674,693.971985 181.658142,690.082153 183.956528,688.406128 
	C189.031082,684.705872 194.857330,682.036560 200.702225,678.775208 
z"/>
<path fill="#F4E7DC" opacity="1.000000" stroke="none" 
	d="
M447.960632,565.922485 
	C433.243286,573.447327 418.864075,580.816223 404.481323,588.178223 
	C403.147736,588.860840 401.826843,589.587830 400.438965,590.140991 
	C396.261993,591.805664 391.694458,590.263123 389.642944,586.570129 
	C387.558899,582.818604 388.631287,578.231018 392.491058,575.588806 
	C394.676270,574.092957 397.128998,572.977661 399.497192,571.760864 
	C421.869446,560.266296 444.235107,548.758545 466.651703,537.350952 
	C468.665192,536.326355 471.425110,534.911560 473.129608,535.555054 
	C475.961517,536.624329 479.086029,538.735901 480.501129,541.287964 
	C482.335510,544.596375 480.739288,548.329285 477.451019,550.392517 
	C473.231659,553.040100 468.725281,555.237122 464.302368,557.551453 
	C458.989624,560.331421 453.634583,563.030518 447.960632,565.922485 
z"/>
<path fill="#F4E6DC" opacity="1.000000" stroke="none" 
	d="
M896.922607,300.125549 
	C904.418030,312.383362 903.171082,324.242340 896.527344,335.909546 
	C893.815186,340.672363 889.668579,341.946899 885.628479,339.764099 
	C881.775024,337.682159 880.457397,333.079468 882.416321,328.543304 
	C888.031067,315.541443 886.613953,307.964020 874.753723,300.322540 
	C866.042664,294.709991 856.108521,290.964142 846.615356,286.613525 
	C843.111694,285.007874 840.275452,282.723389 840.594604,278.935944 
	C840.800415,276.494080 842.643066,273.755341 844.553101,272.043091 
	C845.851685,270.878906 848.767822,270.515564 850.566284,271.070953 
	C864.979980,275.522064 878.686096,281.486847 889.984070,291.837006 
	C892.532104,294.171234 894.500549,297.138153 896.922607,300.125549 
z"/>
<path fill="#F4E6DC" opacity="1.000000" stroke="none" 
	d="
M625.936584,259.381897 
	C620.396057,257.414001 618.303833,254.512680 619.000305,250.221939 
	C619.708679,245.858124 623.124023,243.232422 628.610657,243.483948 
	C649.231567,244.429260 669.845947,245.518997 690.460938,246.590027 
	C695.447754,246.849136 700.441345,247.106918 705.407043,247.610657 
	C711.653564,248.244370 714.951233,251.687866 714.400818,256.637115 
	C713.875671,261.359192 710.069580,264.088287 704.125122,263.739380 
	C686.011169,262.676208 667.904724,261.482971 649.789490,260.442383 
	C641.980835,259.993805 634.157776,259.796143 625.936584,259.381897 
z"/>
<path fill="#F4E6DC" opacity="1.000000" stroke="none" 
	d="
M395.562195,254.468048 
	C394.078888,246.996338 396.943329,243.139267 404.058746,243.025192 
	C429.673920,242.614532 455.290710,242.295441 480.907776,242.022598 
	C486.724884,241.960632 490.480255,245.220978 490.448730,249.903854 
	C490.416229,254.731491 486.863281,257.897766 480.994476,257.985596 
	C455.545135,258.366638 430.094391,258.653290 404.644897,259.024719 
	C400.913544,259.079193 397.698608,258.325500 395.562195,254.468048 
z"/>
<path fill="#F4E7DC" opacity="1.000000" stroke="none" 
	d="
M770.959839,254.160217 
	C786.638855,256.817810 801.887085,259.352936 817.100769,262.081085 
	C823.444824,263.218719 826.533691,267.474152 825.067810,272.416870 
	C823.780273,276.758026 820.011597,278.742279 814.732483,277.865814 
	C797.846619,275.062347 780.982483,272.117371 764.064758,269.521759 
	C756.020569,268.287567 747.880737,267.649658 739.771118,266.879639 
	C735.203003,266.445892 731.693420,264.683777 730.494080,259.983398 
	C729.121704,254.604675 733.906311,249.988815 740.286255,250.649368 
	C750.374084,251.693802 760.440002,252.949387 770.959839,254.160217 
z"/>
<path fill="#F4E7DC" opacity="1.000000" stroke="none" 
	d="
M314.873566,261.632172 
	C306.899048,261.807220 299.409760,262.040649 291.919098,262.099274 
	C286.375763,262.142670 282.705566,259.047485 282.630127,254.545090 
	C282.551422,249.846283 285.828094,246.368713 291.350006,246.185165 
	C317.469879,245.316940 343.594574,244.584259 369.720520,243.919266 
	C374.716919,243.792099 378.480469,247.277267 378.533234,251.489365 
	C378.591827,256.168823 375.300232,259.564880 369.759491,259.816986 
	C358.286682,260.338989 346.800720,260.569733 335.320648,260.935181 
	C328.666016,261.147003 322.012299,261.387817 314.873566,261.632172 
z"/>
<path fill="#F4E7DC" opacity="1.000000" stroke="none" 
	d="
M559.000000,242.001328 
	C570.980164,242.256561 582.467224,242.344894 593.937683,242.827103 
	C599.778931,243.072678 603.183472,246.935516 602.495056,251.626236 
	C601.815186,256.258759 598.405151,258.880554 592.686096,258.794373 
	C580.039795,258.603851 567.396667,258.188293 554.750183,258.031128 
	C541.769043,257.869781 528.785339,257.922668 515.802979,257.847198 
	C512.042664,257.825317 508.223633,256.647003 507.538055,252.827560 
	C507.031281,250.004242 508.124268,246.322586 509.779602,243.891556 
	C510.810944,242.376953 514.211731,241.961258 516.557068,241.940384 
	C530.536743,241.815842 544.518799,241.950058 559.000000,242.001328 
z"/>
<path fill="#F4E7DC" opacity="1.000000" stroke="none" 
	d="
M829.241943,379.289429 
	C822.577271,381.627167 818.246704,380.265930 816.321960,375.504333 
	C814.411377,370.777771 816.545715,366.391083 822.425049,363.599152 
	C836.856995,356.745758 851.319336,349.955383 865.814697,343.237183 
	C871.577393,340.566315 876.300354,341.978027 878.663086,346.779510 
	C880.881836,351.288452 878.761963,356.047668 872.993835,358.783539 
	C858.558838,365.630280 844.064514,372.352051 829.241943,379.289429 
z"/>
<path fill="#F3E5DD" opacity="1.000000" stroke="none" 
	d="
M810.041748,820.390381 
	C810.591431,821.440552 811.083923,822.158264 811.908081,822.984558 
	C811.027222,830.530701 806.516052,833.715942 799.131287,833.758545 
	C794.489685,833.785339 789.857544,834.575928 785.210571,834.765503 
	C779.218811,835.010010 775.179749,831.645874 774.765076,826.378418 
	C774.375427,821.429260 777.660767,817.554749 783.491638,816.773254 
	C789.250793,816.001343 795.065613,815.579712 800.869690,815.231750 
	C804.770325,814.997803 808.063538,816.341187 810.041748,820.390381 
z"/>
<path fill="#B552F5" opacity="1.000000" stroke="none" 
	d="
M287.386169,159.731781 
	C276.714233,162.488831 268.214966,159.413727 263.683624,151.436020 
	C259.307831,143.732193 260.240417,134.387894 266.121246,128.330582 
	C272.019806,122.255020 279.108917,120.448151 287.104767,123.257385 
	C294.573639,125.881470 298.665558,131.573135 299.716827,139.210846 
	C300.820709,147.230652 297.386261,153.428207 290.843414,157.974762 
	C289.897552,158.632019 288.788330,159.054138 287.386169,159.731781 
z"/>
<path fill="#B451F5" opacity="1.000000" stroke="none" 
	d="
M673.602478,633.497192 
	C668.009766,644.395569 662.572449,654.944763 657.135071,665.493958 
	C656.372681,665.475159 655.610352,665.456421 654.847961,665.437622 
	C651.095337,657.767090 646.754761,650.323059 643.696472,642.384949 
	C632.949341,614.489136 632.360291,586.827148 647.664978,560.186707 
	C653.040955,550.828796 660.173645,542.912231 670.578491,538.782227 
	C684.128723,533.403748 693.420837,539.428589 693.977295,553.970459 
	C694.571472,569.499390 690.945251,584.393250 686.282654,598.984802 
	C682.594116,610.527954 677.967712,621.771423 673.602478,633.497192 
z"/>
<path fill="#B859F4" opacity="1.000000" stroke="none" 
	d="
M911.973572,583.976440 
	C912.253723,585.558716 911.983582,587.970337 912.907104,588.583008 
	C917.475708,591.614258 915.255005,594.662231 913.481506,597.882080 
	C911.006897,602.374756 908.640869,606.928223 906.111206,611.389221 
	C905.265930,612.879944 904.060974,614.166809 903.020508,615.546936 
	C902.383911,615.274963 901.747314,615.003052 901.110779,614.731079 
	C904.522827,604.542419 907.934937,594.353699 911.680420,584.090820 
	C912.013855,584.016663 911.973572,583.976440 911.973572,583.976440 
z"/>
<path fill="#B757F4" opacity="1.000000" stroke="none" 
	d="
M912.036255,584.034302 
	C912.926819,580.745728 913.291992,577.162598 914.890930,574.258728 
	C915.610596,572.951599 919.238037,572.031921 920.727600,572.716797 
	C922.109131,573.351929 923.363037,576.587036 922.962952,578.270996 
	C922.227112,581.367737 920.235657,584.166199 918.659607,587.303894 
	C916.366272,586.000122 914.533630,584.958252 912.337280,583.946411 
	C911.973572,583.976440 912.013855,584.016663 912.036255,584.034302 
z"/>
</svg>