<?xml version="1.0" encoding="UTF-8"?>
<!DOCTYPE svg PUBLIC "-//W3C//DTD SVG 1.1//EN" "http://www.w3.org/Graphics/SVG/1.1/DTD/svg11.dtd">
<svg xmlns="http://www.w3.org/2000/svg" version="1.1" width="1000px" height="1000px" style="shape-rendering:geometricPrecision; text-rendering:geometricPrecision; image-rendering:optimizeQuality; fill-rule:evenodd; clip-rule:evenodd" xmlns:xlink="http://www.w3.org/1999/xlink">
<g><path style="opacity:1" fill="#f4e8dc" d="M 239.5,71.5 C 273.542,68.7302 295.042,83.7302 304,116.5C 305.537,130.817 303.204,144.484 297,157.5C 284.537,182.783 268.871,205.783 250,226.5C 227.723,202.972 210.723,175.972 199,145.5C 190.776,117.838 198.276,95.671 221.5,79C 227.328,75.7883 233.328,73.2883 239.5,71.5 Z M 248.5,105.5 C 264.424,106.93 271.258,115.597 269,131.5C 263.173,144.328 253.673,148.161 240.5,143C 227.635,132.067 227.302,120.734 239.5,109C 242.571,107.704 245.571,106.538 248.5,105.5 Z"/></g>
<g><path style="opacity:1" fill="#f4e8dc" d="M 374.5,226.5 C 401.835,226.333 429.169,226.5 456.5,227C 461.199,231.063 461.532,235.396 457.5,240C 454.956,241.092 452.289,241.759 449.5,242C 422.5,242.667 395.5,242.667 368.5,242C 363.167,237.333 363.167,232.667 368.5,228C 370.708,227.809 372.708,227.309 374.5,226.5 Z"/></g>
<g><path style="opacity:1" fill="#f4e8dc" d="M 483.5,225.5 C 510.831,226.041 538.164,226.541 565.5,227C 573.919,231.002 574.586,236.002 567.5,242C 538.824,242.624 510.157,242.291 481.5,241C 476.566,238.335 475.399,234.502 478,229.5C 479.5,227.531 481.333,226.198 483.5,225.5 Z"/></g>
<g><path style="opacity:1" fill="#f4e8dc" d="M 593.5,227.5 C 621.539,228.238 649.539,229.738 677.5,232C 684.529,235.083 685.862,239.749 681.5,246C 678.625,247.065 675.625,247.565 672.5,247.5C 646.519,245.668 620.519,244.168 594.5,243C 586.867,238.354 586.534,233.187 593.5,227.5 Z"/></g>
<g><path style="opacity:1" fill="#f4e8dc" d="M 333.5,227.5 C 338.715,226.702 343.215,228.036 347,231.5C 349.171,236.33 348.004,240.163 343.5,243C 316.508,244.354 289.508,245.521 262.5,246.5C 254.121,245.735 251.288,241.402 254,233.5C 254.903,232.299 256.069,231.465 257.5,231C 282.986,229.748 308.32,228.581 333.5,227.5 Z"/></g>
<g><path style="opacity:1" fill="#f4e8dc" d="M 705.5,234.5 C 734.879,236.72 763.879,241.22 792.5,248C 797.261,254.987 795.594,259.82 787.5,262.5C 760.363,257.076 733.029,252.909 705.5,250C 700.776,247.565 699.276,243.731 701,238.5C 702.397,236.93 703.897,235.596 705.5,234.5 Z"/></g>
<g><path style="opacity:1" fill="#f4e8dc" d="M 815.5,254.5 C 834.959,258.145 851.459,267.145 865,281.5C 871.971,291.763 873.304,302.763 869,314.5C 867.16,321.699 862.66,324.866 855.5,324C 851.965,321.293 850.798,317.793 852,313.5C 858.53,299.092 854.696,288.259 840.5,281C 833.184,276.841 825.517,273.508 817.5,271C 811.457,269.303 809.29,265.469 811,259.5C 812.193,257.503 813.693,255.836 815.5,254.5 Z"/></g>
<g><path style="opacity:1" fill="#f4e8dc" d="M 839.5,325.5 C 846.41,326.006 849.576,329.672 849,336.5C 848.293,338.081 847.46,339.581 846.5,341C 830.167,348.667 813.833,356.333 797.5,364C 790.697,365.773 786.697,363.273 785.5,356.5C 785.556,353.889 786.556,351.722 788.5,350C 805.56,341.802 822.56,333.635 839.5,325.5 Z"/></g>
<g><path style="opacity:1" fill="#f4e8dc" d="M 760.5,362.5 C 768.033,362.529 771.533,366.196 771,373.5C 770.215,375.286 769.049,376.786 767.5,378C 741.712,390.061 716.045,402.394 690.5,415C 681.28,416.447 677.447,412.614 679,403.5C 680.167,402.333 681.333,401.167 682.5,400C 708.713,387.725 734.713,375.225 760.5,362.5 Z"/></g>
<g><path style="opacity:1" fill="#f4e8dc" d="M 654.5,413.5 C 661.415,414.021 664.581,417.687 664,424.5C 662.878,426.624 661.378,428.457 659.5,430C 634.167,442.333 608.833,454.667 583.5,467C 576.611,468.947 572.278,466.447 570.5,459.5C 571.052,456.221 572.719,453.721 575.5,452C 601.925,439.12 628.258,426.286 654.5,413.5 Z"/></g>
<g><path style="opacity:1" fill="#f4e7dc" d="M 544.5,466.5 C 551.622,464.885 555.955,467.552 557.5,474.5C 556.905,476.857 555.905,479.023 554.5,481C 528.5,494 502.5,507 476.5,520C 467.833,521.663 464,518.163 465,509.5C 465.785,507.714 466.951,506.214 468.5,505C 494.05,492.392 519.383,479.559 544.5,466.5 Z"/></g>
<g><path style="opacity:1" fill="#f3e6de" d="M 876.5,563.5 C 875.596,564.209 875.263,565.209 875.5,566.5C 868.906,561.193 861.906,556.36 854.5,552C 827.309,536.796 804.142,541.296 785,565.5C 777.172,579.153 769.838,593.153 763,607.5C 749.451,632.386 730.951,652.886 707.5,669C 693.74,677.857 678.74,681.523 662.5,680C 647.387,677.197 635.22,669.697 626,657.5C 617.737,670.43 606.904,680.597 593.5,688C 580.041,693.966 567.708,692.299 556.5,683C 556.998,681.842 557.831,681.009 559,680.5C 568.641,687.749 579.141,689.249 590.5,685C 604.071,677.43 615.071,667.096 623.5,654C 603.933,626.23 597.767,595.73 605,562.5C 610.079,543.113 621.246,528.613 638.5,519C 648.115,514.595 656.615,516.095 664,523.5C 667.319,532.201 668.319,541.201 667,550.5C 661.751,587.757 648.918,622.09 628.5,653.5C 645.142,675.32 666.475,681.486 692.5,672C 710.895,663.614 726.395,651.448 739,635.5C 754.043,616.767 766.043,596.1 775,573.5C 794.571,537.422 822.405,529.256 858.5,549C 865.119,553.133 871.119,557.966 876.5,563.5 Z M 646.5,520.5 C 659.542,521.221 665.542,528.221 664.5,541.5C 660.19,580.772 647.19,616.772 625.5,649.5C 605.367,620.013 600.867,588.346 612,554.5C 618.182,537.483 629.682,526.15 646.5,520.5 Z"/></g>
<g><path style="opacity:1" fill="#f4e8dc" d="M 439.5,519.5 C 450.838,519.942 453.505,524.942 447.5,534.5C 421.833,547.667 396.167,560.833 370.5,574C 361.833,575.663 358,572.163 359,563.5C 360.167,561 362,559.167 364.5,558C 389.561,545.137 414.561,532.304 439.5,519.5 Z"/></g>
<g><path style="opacity:1" fill="#f4e7dd" d="M 785.5,799.5 C 785.5,798.5 785.5,797.5 785.5,796.5C 815.5,719.833 845.5,643.167 875.5,566.5C 876.404,565.791 876.737,564.791 876.5,563.5C 878.203,559.767 880.203,556.1 882.5,552.5C 885.809,549.006 889.809,547.506 894.5,548C 897.942,551.816 899.942,556.316 900.5,561.5C 897.931,565.967 895.931,570.633 894.5,575.5C 906.202,577.987 914.369,573.654 919,562.5C 920.255,563.211 921.421,564.044 922.5,565C 919.664,570.678 915.664,575.345 910.5,579C 904.577,582.084 898.577,582.251 892.5,579.5C 856.802,652.894 821.136,726.227 785.5,799.5 Z M 888.5,555.5 C 892.294,556.445 893.794,558.779 893,562.5C 891.587,565.661 889.92,568.661 888,571.5C 886.045,570.547 884.378,569.213 883,567.5C 880.709,571.592 881.876,574.425 886.5,576C 882.7,584.448 878.033,592.281 872.5,599.5C 872.167,599 871.833,598.5 871.5,598C 875.202,584.227 879.702,570.727 885,557.5C 886.302,556.915 887.469,556.249 888.5,555.5 Z"/></g>
<g><path style="opacity:1" fill="#f4e8dc" d="M 335.5,573.5 C 342.466,573.962 345.633,577.629 345,584.5C 343.878,586.624 342.378,588.457 340.5,590C 316.008,602.745 291.675,615.745 267.5,629C 262.928,631.375 258.762,630.875 255,627.5C 252.554,622.676 253.387,618.509 257.5,615C 283.435,600.868 309.435,587.035 335.5,573.5 Z"/></g>
<g><path style="opacity:1" fill="#f4e8dc" d="M 227.5,630.5 C 234.622,628.885 238.955,631.552 240.5,638.5C 239.85,641.655 238.183,644.155 235.5,646C 211.005,659.413 186.672,673.08 162.5,687C 157.361,689.506 153.194,688.339 150,683.5C 148.703,678.883 149.87,675.05 153.5,672C 178.391,658.392 203.057,644.559 227.5,630.5 Z"/></g>
<g><path style="opacity:1" fill="#f4e8dc" d="M 127.5,688.5 C 136.228,688.625 139.728,692.958 138,701.5C 133.033,707.469 127.699,713.135 122,718.5C 116.941,725.228 112.274,732.228 108,739.5C 102.157,750.207 102.157,760.873 108,771.5C 109.145,781.36 104.979,785.194 95.5,783C 85.3103,770.656 82.8103,756.822 88,741.5C 96.4461,720.233 109.613,702.567 127.5,688.5 Z"/></g>
<g><path style="opacity:1" fill="#f4e8dc" d="M 124.5,788.5 C 126.527,788.338 128.527,788.505 130.5,789C 158.83,800.416 188.163,808.083 218.5,812C 225.102,817.156 225.102,822.49 218.5,828C 190.388,826.311 163.055,820.644 136.5,811C 131.104,808.885 125.937,806.385 121,803.5C 117.337,797.33 118.504,792.33 124.5,788.5 Z"/></g>
<g><path style="opacity:1" fill="#f4e7dc" d="M 780.5,806.5 C 780.5,807.167 780.833,807.5 781.5,807.5C 780.908,810.691 779.741,813.691 778,816.5C 777.667,816.167 777.333,815.833 777,815.5C 768.038,818.01 758.871,818.844 749.5,818C 742.498,811.358 743.165,805.691 751.5,801C 759.48,799.899 767.48,799.565 775.5,800C 778.493,801.159 780.16,803.325 780.5,806.5 Z"/></g>
<g><path style="opacity:1" fill="#f1e1e1" d="M 785.5,796.5 C 785.5,797.5 785.5,798.5 785.5,799.5C 784.674,802.485 783.341,805.151 781.5,807.5C 780.833,807.5 780.5,807.167 780.5,806.5C 782.167,803.167 783.833,799.833 785.5,796.5 Z"/></g>
<g><path style="opacity:1" fill="#f4e8dc" d="M 714.5,803.5 C 725.087,803.744 728.42,808.744 724.5,818.5C 723.335,819.584 722.002,820.417 720.5,821C 688.875,824.151 657.209,826.484 625.5,828C 619.908,825.598 618.075,821.431 620,815.5C 621.109,813.185 622.943,811.685 625.5,811C 655.329,808.617 684.995,806.117 714.5,803.5 Z"/></g>
<g><path style="opacity:1" fill="#f4e8dc" d="M 587.5,812.5 C 597.008,811.84 601.175,816.173 600,825.5C 598.891,827.815 597.057,829.315 594.5,830C 564.354,832.182 534.187,834.015 504,835.5C 495.717,834.891 492.384,830.558 494,822.5C 495.167,820.667 496.667,819.167 498.5,818C 528.328,816.304 557.994,814.471 587.5,812.5 Z"/></g>
<g><path style="opacity:1" fill="#f4e8dc" d="M 248.5,814.5 C 279.78,817.095 311.113,818.928 342.5,820C 348.092,822.402 349.925,826.569 348,832.5C 344.516,836.987 339.849,838.654 334,837.5C 306.798,836.63 279.631,835.13 252.5,833C 243.836,833.012 240.336,828.845 242,820.5C 243.436,817.558 245.603,815.558 248.5,814.5 Z"/></g>
<g><path style="opacity:1" fill="#f4e8dc" d="M 445.5,818.5 C 453.507,818.334 461.507,818.5 469.5,819C 474.153,821.942 475.653,826.109 474,831.5C 472.891,833.815 471.057,835.315 468.5,836C 436.511,837.419 404.511,837.752 372.5,837C 367.391,833.634 366.224,829.134 369,823.5C 370.558,821.232 372.724,820.066 375.5,820C 399.004,819.832 422.337,819.332 445.5,818.5 Z"/></g>
</svg>
