<?xml version="1.0" encoding="UTF-8"?>
<!DOCTYPE svg PUBLIC "-//W3C//DTD SVG 1.1//EN" "http://www.w3.org/Graphics/SVG/1.1/DTD/svg11.dtd">
<svg xmlns="http://www.w3.org/2000/svg" version="1.1" width="1000px" height="1000px" style="shape-rendering:geometricPrecision; text-rendering:geometricPrecision; image-rendering:optimizeQuality; fill-rule:evenodd; clip-rule:evenodd" xmlns:xlink="http://www.w3.org/1999/xlink">
<g><path style="opacity:1" fill="#b450f5" d="M 276.5,85.5 C 302.188,85.9212 320.022,97.9212 330,121.5C 333.333,134.167 333.333,146.833 330,159.5C 317.852,189.822 300.685,216.822 278.5,240.5C 256.608,216.73 239.775,189.73 228,159.5C 219.191,125.284 231.025,101.451 263.5,88C 267.965,87.1259 272.298,86.2926 276.5,85.5 Z M 273.5,120.5 C 285.521,118.59 293.688,123.256 298,134.5C 299.747,149.263 293.247,157.93 278.5,160.5C 261.444,156.391 255.944,146.058 262,129.5C 265.134,125.524 268.967,122.524 273.5,120.5 Z"/></g>
<g><path style="opacity:1" fill="#b450f5" d="M 470.5,240.5 C 476.352,239.861 481.852,240.861 487,243.5C 490.18,249.968 488.347,254.134 481.5,256C 456.323,256.219 431.157,256.719 406,257.5C 399.632,258.3 395.466,255.8 393.5,250C 394.063,245.771 396.396,243.105 400.5,242C 424.004,241.832 447.337,241.332 470.5,240.5 Z"/></g>
<g><path style="opacity:1" fill="#b451f5" d="M 510.5,240.5 C 538.511,240.371 566.511,240.871 594.5,242C 600.059,243.458 601.892,246.958 600,252.5C 599.167,254 598,255.167 596.5,256C 567.488,256.746 538.488,256.413 509.5,255C 504.057,249.809 504.391,244.976 510.5,240.5 Z"/></g>
<g><path style="opacity:1" fill="#b450f5" d="M 356.5,242.5 C 361.511,242.334 366.511,242.501 371.5,243C 377.653,247.252 377.986,251.919 372.5,257C 346.359,258.51 320.193,259.676 294,260.5C 287.294,261.908 283.128,259.408 281.5,253C 282.606,246.901 286.273,244.235 292.5,245C 314.006,244.496 335.34,243.663 356.5,242.5 Z"/></g>
<g><path style="opacity:1" fill="#b450f5" d="M 622.5,242.5 C 650.882,243.042 679.216,244.542 707.5,247C 712.244,249.598 713.578,253.431 711.5,258.5C 710.5,259.333 709.5,260.167 708.5,261C 679.824,260.185 651.158,258.851 622.5,257C 616.064,252.217 616.064,247.384 622.5,242.5 Z"/></g>
<g><path style="opacity:1" fill="#b450f5" d="M 733.5,249.5 C 762.474,251.538 791.141,255.705 819.5,262C 824.436,265.958 824.769,270.291 820.5,275C 819.127,275.875 817.627,276.375 816,276.5C 788.685,271.122 761.185,266.955 733.5,264C 728.214,259.169 728.214,254.335 733.5,249.5 Z"/></g>
<g><path style="opacity:1" fill="#b450f5" d="M 844.5,269.5 C 863.447,273.056 879.614,281.723 893,295.5C 903.001,310.013 902.501,324.179 891.5,338C 882.667,339.833 879.167,336.333 881,327.5C 885.168,320.664 885.501,313.664 882,306.5C 877.782,301.615 872.948,297.448 867.5,294C 859.397,289.948 851.063,286.448 842.5,283.5C 838.177,278.106 838.844,273.439 844.5,269.5 Z"/></g>
<g><path style="opacity:1" fill="#b450f5" d="M 867.5,340.5 C 874.857,340.684 878.024,344.351 877,351.5C 876.215,353.286 875.049,354.786 873.5,356C 857.748,363.14 842.081,370.473 826.5,378C 818.381,379.875 814.548,376.708 815,368.5C 815.774,366.061 817.274,364.227 819.5,363C 835.711,355.725 851.711,348.225 867.5,340.5 Z"/></g>
<g><path style="opacity:1" fill="#b450f5" d="M 788.5,377.5 C 799.566,377.729 802.233,382.562 796.5,392C 769.394,404.97 742.227,417.803 715,430.5C 708.86,428.698 706.527,424.698 708,418.5C 708.93,416.448 710.43,414.948 712.5,414C 738.046,402.059 763.38,389.892 788.5,377.5 Z"/></g>
<g><path style="opacity:1" fill="#b451f5" d="M 682.5,428.5 C 689.857,428.684 693.024,432.351 692,439.5C 691.215,441.286 690.049,442.786 688.5,444C 661.955,457.106 635.289,469.939 608.5,482.5C 599.643,479.434 597.976,474.267 603.5,467C 629.925,454.12 656.258,441.286 682.5,428.5 Z"/></g>
<g><path style="opacity:1" fill="#b450f5" d="M 576.5,480.5 C 583.526,481.556 586.359,485.556 585,492.5C 584.167,494 583,495.167 581.5,496C 554.957,509.438 528.29,522.605 501.5,535.5C 495.043,533.891 492.543,529.891 494,523.5C 494.93,521.448 496.43,519.948 498.5,519C 524.715,506.392 550.715,493.559 576.5,480.5 Z"/></g>
<g><path style="opacity:1" fill="#b553f5" d="M 673.5,531.5 C 680.651,530.606 686.818,532.606 692,537.5C 693.562,539.957 694.562,542.624 695,545.5C 694.439,590.182 681.606,631.016 656.5,668C 673.895,690.517 695.895,696.517 722.5,686C 741.934,676.905 758.101,663.738 771,646.5C 775.246,641.009 779.246,635.342 783,629.5C 792.27,612.627 801.27,595.627 810,578.5C 830.36,551.126 855.527,545.959 885.5,563C 892.475,567.304 898.808,572.304 904.5,578C 904.37,579.059 903.87,579.892 903,580.5C 888.97,567.152 872.303,559.486 853,557.5C 835.983,558.678 822.649,566.344 813,580.5C 804.079,596.675 795.412,613.008 787,629.5C 773.969,650.866 757.135,668.7 736.5,683C 722.733,691.859 707.733,695.525 691.5,694C 676.387,691.197 664.22,683.697 655,671.5C 646.93,682.516 637.43,692.016 626.5,700C 612.165,708.07 598.498,707.237 585.5,697.5C 585.709,696.914 586.043,696.414 586.5,696C 591.73,698.76 597.397,700.76 603.5,702C 611.82,702.67 619.487,700.67 626.5,696C 637.067,688.601 645.734,679.434 652.5,668.5C 630.09,636.621 625.257,602.288 638,565.5C 644.896,548.766 656.729,537.432 673.5,531.5 Z M 677.5,534.5 C 683.801,534.894 688.301,537.894 691,543.5C 693.409,553.714 693.409,564.048 691,574.5C 684.194,606.768 672.028,636.768 654.5,664.5C 633.498,634.484 628.998,602.151 641,567.5C 645.938,556.565 653.105,547.399 662.5,540C 667.299,537.238 672.299,535.404 677.5,534.5 Z"/></g>
<g><path style="opacity:1" fill="#b450f5" d="M 467.5,534.5 C 474.283,533.213 478.283,535.88 479.5,542.5C 479.06,545.214 477.726,547.38 475.5,549C 448.958,562.771 422.291,576.271 395.5,589.5C 386.736,586.169 385.403,581.003 391.5,574C 417.052,561.059 442.385,547.892 467.5,534.5 Z"/></g>
<g><path style="opacity:1" fill="#b451f5" d="M 813.5,814.5 C 845.029,733.084 876.863,651.751 909,570.5C 912.275,564.873 917.108,562.373 923.5,563C 926.522,566.407 928.189,570.407 928.5,575C 926.774,579.786 924.774,584.452 922.5,589C 931.623,593.007 939.123,590.84 945,582.5C 945.748,580.668 946.748,579.001 948,577.5C 948.925,578.047 949.758,578.713 950.5,579.5C 946.581,588.952 939.581,594.285 929.5,595.5C 926.622,595.614 923.956,594.948 921.5,593.5C 920.914,593.709 920.414,594.043 920,594.5C 884.725,668.047 849.225,741.38 813.5,814.5 Z M 914.5,570.5 C 918.756,569.454 921.422,570.954 922.5,575C 920.803,578.894 918.97,582.727 917,586.5C 915.045,585.547 913.378,584.213 912,582.5C 910.635,583.593 910.301,584.926 911,586.5C 912.563,587.725 913.73,589.225 914.5,591C 911.076,599.349 906.743,607.182 901.5,614.5C 900.441,611.155 900.608,607.822 902,604.5C 905.1,592.693 909.267,581.36 914.5,570.5 Z"/></g>
<g><path style="opacity:1" fill="#b450f5" d="M 363.5,588.5 C 370.855,588.541 374.022,592.207 373,599.5C 372.215,601.286 371.049,602.786 369.5,604C 344.167,617.333 318.833,630.667 293.5,644C 287.074,645.459 283.408,642.959 282.5,636.5C 282.556,633.889 283.556,631.722 285.5,630C 311.435,615.868 337.435,602.035 363.5,588.5 Z"/></g>
<g><path style="opacity:1" fill="#b450f5" d="M 258.5,644.5 C 269.222,646.37 271.222,651.537 264.5,660C 238.525,674.57 212.359,688.737 186,702.5C 179.558,700.954 177.225,696.954 179,690.5C 180.167,689.333 181.333,688.167 182.5,687C 208.057,673.059 233.39,658.892 258.5,644.5 Z"/></g>
<g><path style="opacity:1" fill="#b450f5" d="M 155.5,703.5 C 164.846,703.332 168.346,707.665 166,716.5C 154.436,727.054 144.769,739.054 137,752.5C 130.842,764.947 131.009,777.281 137.5,789.5C 135.747,797.366 131.081,799.866 123.5,797C 114.387,784.692 112.221,771.192 117,756.5C 125.415,735.591 138.248,717.924 155.5,703.5 Z"/></g>
<g><path style="opacity:1" fill="#b450f5" d="M 152.5,803.5 C 154.857,803.337 157.19,803.503 159.5,804C 173.09,809.863 187.09,814.53 201.5,818C 216.8,821.216 232.133,824.216 247.5,827C 251.212,829.513 252.378,833.013 251,837.5C 250.215,839.286 249.049,840.786 247.5,842C 214.086,840.313 182.086,832.647 151.5,819C 145.995,813.501 146.328,808.334 152.5,803.5 Z"/></g>
<g><path style="opacity:1" fill="#b450f5" d="M 789.5,814.5 C 795.29,814.096 800.956,814.596 806.5,816C 811.771,822.518 810.437,827.518 802.5,831C 797.02,831.72 791.52,832.22 786,832.5C 775.702,833.546 772.036,829.213 775,819.5C 775.833,818.667 776.667,817.833 777.5,817C 781.609,816.056 785.609,815.222 789.5,814.5 Z"/></g>
<g><path style="opacity:1" fill="#b350f5" d="M 813.5,814.5 C 813.672,815.492 813.338,816.158 812.5,816.5C 812.328,815.508 812.662,814.842 813.5,814.5 Z"/></g>
<g><path style="opacity:1" fill="#b350f5" d="M 812.5,816.5 C 812.631,817.239 812.464,817.906 812,818.5C 811.308,817.563 811.475,816.897 812.5,816.5 Z"/></g>
<g><path style="opacity:1" fill="#b450f5" d="M 740.5,818.5 C 748.003,817.244 753.003,820.077 755.5,827C 755.094,830.415 753.428,833.082 750.5,835C 719.699,837.76 688.865,840.26 658,842.5C 650.18,842.212 647.18,838.212 649,830.5C 649.833,828.333 651.333,826.833 653.5,826C 682.651,823.515 711.651,821.015 740.5,818.5 Z"/></g>
<g><path style="opacity:1" fill="#b350f5" d="M 810.5,819.5 C 811.833,820.167 811.833,820.167 810.5,819.5 Z"/></g>
<g><path style="opacity:1" fill="#b450f5" d="M 613.5,827.5 C 621.671,825.414 627.004,828.248 629.5,836C 629.089,839.496 627.422,842.163 624.5,844C 594.537,846.298 564.537,848.132 534.5,849.5C 525.1,849.939 521.267,845.606 523,836.5C 524.167,835.333 525.333,834.167 526.5,833C 555.652,831.223 584.652,829.39 613.5,827.5 Z"/></g>
<g><path style="opacity:1" fill="#b450f5" d="M 276.5,829.5 C 308.133,831.85 339.799,833.683 371.5,835C 378.995,839.838 379.328,845.172 372.5,851C 339.728,851.327 307.061,849.661 274.5,846C 268.674,839.622 269.341,834.122 276.5,829.5 Z"/></g>
<g><path style="opacity:1" fill="#b450f5" d="M 467.5,833.5 C 477.839,833.334 488.172,833.5 498.5,834C 505.152,839.381 505.152,844.715 498.5,850C 465.847,851.496 433.18,851.829 400.5,851C 396.87,847.95 395.703,844.117 397,839.5C 398.637,837.19 400.804,835.69 403.5,835C 425.004,834.832 446.337,834.332 467.5,833.5 Z"/></g>
</svg>
