<svg version="1.1" id="Layer_1" xmlns="http://www.w3.org/2000/svg" xmlns:xlink="http://www.w3.org/1999/xlink" x="0px" y="0px"
	 width="100%" viewBox="0 0 512 512" xml:space="preserve">
<path fill="#030105" opacity="1.000000" stroke="none" 
	d="
M167.000000,1.000000 
	C223.354233,1.000000 279.708466,1.000000 336.651917,1.358659 
	C348.844543,3.802980 356.328552,13.116538 356.560577,26.020285 
	C356.700897,33.825653 356.586395,41.635609 356.586395,49.298161 
	C361.185699,51.169514 365.439880,52.900448 370.065125,54.782356 
	C379.749329,44.188656 389.572479,33.332047 399.518188,22.588879 
	C415.006409,5.858801 441.175201,5.312684 457.115875,21.301308 
	C473.225800,37.459709 472.791199,63.300323 456.131470,78.908707 
	C453.361145,81.504234 450.529053,84.033867 447.728241,86.591423 
	C448.240845,87.690651 448.591095,88.426926 448.929138,89.168747 
	C470.211853,135.874344 465.579926,179.688507 432.465759,219.101944 
	C420.539886,233.296494 405.823273,245.162659 392.208282,257.907654 
	C389.534210,260.410858 388.505219,262.892639 388.513184,266.533173 
	C388.626740,318.349060 388.605804,370.165344 388.581726,421.981506 
	C388.571777,443.357025 378.537415,457.194489 358.380951,463.819092 
	C357.793121,464.012299 357.245453,464.327637 356.587372,464.627838 
	C356.587372,472.464447 356.604279,480.119385 356.582886,487.774231 
	C356.559082,496.287201 353.609589,503.496368 346.467041,508.405304 
	C343.608795,510.369659 340.172943,511.493561 337.000000,513.000000 
	C280.645782,513.000000 224.291550,513.000000 167.320862,512.672546 
	C154.091278,507.873718 148.673599,500.293182 148.581512,486.863586 
	C148.530243,479.389130 148.572296,471.914093 148.572296,464.539154 
	C126.931480,458.376678 115.240028,441.935791 116.496132,419.170410 
	C116.963417,410.701447 116.581375,402.184906 116.554955,393.690155 
	C116.551208,392.484131 116.367256,391.278687 116.213135,389.430389 
	C114.405571,391.021912 113.156487,392.089874 111.942047,393.195892 
	C99.137131,404.857330 86.423988,416.622253 73.461761,428.106049 
	C70.958939,430.323456 67.656700,432.179840 64.428078,432.926331 
	C57.254013,434.585175 50.518368,431.124512 47.154644,424.938049 
	C43.623600,418.443878 44.477280,411.488800 49.833549,405.603363 
	C70.906105,382.449036 92.000595,359.314270 113.209656,336.285217 
	C115.646347,333.639435 116.652542,331.045074 116.647980,327.441864 
	C116.549278,249.489456 116.570625,171.536896 116.579704,93.584358 
	C116.580002,91.087669 116.562515,88.579399 116.779022,86.096207 
	C118.120415,70.711586 125.899101,59.681236 139.646622,52.851971 
	C142.431656,51.468472 145.463150,50.581142 148.655365,49.360134 
	C148.655365,40.890438 148.397797,32.393372 148.722672,23.918633 
	C149.101669,14.031642 154.202072,7.088385 163.172150,2.956766 
	C164.472641,2.357766 165.725235,1.654836 167.000000,1.000000 
M104.993607,369.944000 
	C104.993607,369.944000 104.622742,369.620605 104.131729,369.800415 
	C103.966194,370.096313 103.800659,370.392242 103.877754,370.887085 
	C103.877754,370.887085 103.671089,370.651031 103.169983,370.849792 
	C103.014839,371.163361 102.859688,371.476929 102.822411,371.811188 
	C102.822411,371.811188 102.777184,371.700409 102.288605,371.831085 
	C102.010368,372.240662 101.732140,372.650238 101.051598,373.283905 
	C101.051598,373.283905 100.875122,373.709290 100.335793,373.917236 
	C100.147987,374.244171 99.960182,374.571075 99.233673,375.170807 
	C98.480858,376.097961 97.728035,377.025085 96.442909,378.162506 
	C96.133980,378.631195 95.825050,379.099915 96.011177,379.785889 
	C95.845200,379.718719 95.679214,379.651520 95.066978,379.797943 
	C94.789932,380.016174 94.639214,380.301208 94.939987,380.945862 
	C94.939987,380.945862 94.637230,380.629944 94.144562,380.814514 
	C93.979980,381.113708 93.815399,381.412903 93.835068,381.838013 
	C93.835068,381.838013 93.697411,381.662354 93.191643,381.842621 
	C93.021797,382.146667 92.851944,382.450745 92.806725,382.814423 
	C92.806725,382.814423 92.744019,382.691315 92.226303,382.868103 
	C92.059074,383.180725 91.891853,383.493347 91.830818,383.837189 
	C91.830818,383.837189 91.801384,383.730530 91.271538,383.926483 
	C91.091347,384.248718 90.911148,384.570923 90.154396,385.180786 
	C88.446121,387.122253 86.737846,389.063751 84.399170,391.251617 
	C79.387901,396.718140 74.376633,402.184692 69.365372,407.651245 
	C69.703094,407.983521 70.040817,408.315826 70.378540,408.648102 
	C74.716774,404.854309 79.055000,401.060516 83.903191,397.088318 
	C84.251892,396.692963 84.600594,396.297638 85.542816,395.719055 
	C86.379097,394.819366 87.215370,393.919678 88.629601,392.784515 
	C89.792145,391.613464 90.954697,390.442383 92.657898,389.096863 
	C92.859116,388.790192 93.060326,388.483521 93.154022,388.154602 
	C93.154022,388.154602 93.187958,388.259003 93.717514,388.115692 
	C93.909821,387.819092 94.102135,387.522461 94.185745,387.192322 
	C94.185745,387.192322 94.227684,387.298065 94.747147,387.181244 
	C94.955185,386.907684 95.163223,386.634125 94.967979,386.149078 
	C94.967979,386.149078 95.361877,386.380035 95.857613,386.231750 
	C96.033577,385.946320 96.209549,385.660889 96.069977,385.182312 
	C96.069977,385.182312 96.358292,385.414185 96.905434,385.248871 
	C97.265762,384.830811 97.626083,384.412750 98.584145,383.751068 
	C100.089142,382.241486 101.594147,380.731903 103.632629,379.062408 
	C103.842697,378.772125 104.052773,378.481812 104.154205,378.157745 
	C104.154205,378.157745 104.200836,378.261505 104.721970,378.106445 
	C104.904633,377.805634 105.087296,377.504791 105.162659,377.162933 
	C105.162659,377.162933 105.203346,377.270386 105.726662,377.154205 
	C105.933334,376.878082 106.140007,376.601990 106.111885,376.192322 
	C106.111885,376.192322 106.311531,376.374298 106.847076,376.218140 
	C107.195137,375.798553 107.543198,375.378937 108.510284,374.694122 
	C136.522354,349.101135 164.534409,323.508118 193.397461,297.137634 
	C188.111969,297.137634 184.038864,297.137634 179.082138,296.988586 
	C175.883026,297.379181 171.412964,296.553497 169.688538,298.355408 
	C157.388962,311.207581 145.649567,324.595825 133.854416,337.899567 
	C133.854416,337.899567 133.909012,337.760254 133.332352,337.917847 
	C133.153915,338.259857 132.975479,338.601868 132.950348,338.951569 
	C132.950348,338.951569 132.940094,338.798401 132.365097,338.946747 
	C132.174728,339.281464 131.984375,339.616180 131.955429,339.962769 
	C131.955429,339.962769 131.952362,339.800964 131.392044,339.975128 
	C131.203781,340.307312 131.015503,340.639496 130.973618,340.974182 
	C130.973618,340.974182 130.966599,340.827942 130.422836,341.016815 
	C130.246780,341.343018 130.070724,341.669220 129.993927,342.000427 
	C129.993927,342.000427 129.997879,341.901123 129.474731,342.077332 
	C129.291580,342.387207 129.108429,342.697052 129.004837,343.005676 
	C129.004837,343.005676 129.005524,342.926117 128.437943,343.146515 
	C128.243179,343.500092 128.048431,343.853699 127.231110,344.378937 
	C123.827034,348.270050 120.422951,352.161194 116.542091,356.189178 
	C116.233467,356.382202 116.078323,356.660706 115.597321,357.244720 
	C115.413567,357.536255 115.229813,357.827789 114.521912,358.334320 
	C114.234428,358.806091 113.946938,359.277893 113.773132,359.792084 
	C113.773132,359.792084 113.736237,359.676514 113.137268,359.914429 
	C112.339783,360.909973 111.542297,361.905548 110.217842,363.176880 
	C109.465729,364.085114 108.713608,364.993347 107.449013,366.066467 
	C107.297783,366.377533 107.146553,366.688599 107.000305,367.000000 
	C107.000305,367.000000 106.998703,366.995422 106.459679,367.193451 
	C106.153282,367.664795 105.846886,368.136169 105.814636,369.032684 
	C105.731056,368.886414 105.647469,368.740173 105.098930,368.786041 
	C104.935608,369.069885 104.772293,369.353729 104.993607,369.944000 
M318.016663,216.963852 
	C322.956696,216.889053 327.896759,216.814255 333.777557,216.928802 
	C343.274109,216.951370 352.771667,217.069275 362.266998,216.972565 
	C374.269836,216.850342 372.599121,218.895096 372.922455,206.404007 
	C373.027832,202.333130 371.793915,200.853058 367.567230,200.921692 
	C353.741516,201.146194 339.909943,200.996735 326.080719,201.033096 
	C324.775604,201.036514 323.069397,200.862289 322.231750,201.573822 
	C316.771301,206.212128 311.499329,211.072296 305.061737,216.850891 
	C310.200012,216.850891 313.650848,216.850891 318.016663,216.963852 
M226.331253,297.086823 
	C213.494949,294.864624 209.153336,306.042786 201.869339,312.843872 
	C205.285675,312.843872 208.702026,312.843872 213.035721,312.946930 
	C245.147934,312.965912 277.260162,313.002350 309.372375,312.991333 
	C317.186829,312.988678 325.001251,312.829987 333.761169,312.938446 
	C343.071381,312.957764 352.381622,312.986755 361.691833,312.993988 
	C374.057709,313.003571 374.186768,312.947388 372.697632,300.543304 
	C372.541931,299.246338 370.430237,297.188049 369.201630,297.170288 
	C357.075317,296.994873 344.943878,297.176239 331.912506,297.096252 
	C299.338196,297.062378 266.763855,297.021210 234.189529,297.009949 
	C231.871399,297.009155 229.553207,297.227570 226.331253,297.086823 
M333.760590,344.938324 
	C343.070923,344.957672 352.381287,344.986725 361.691620,344.993988 
	C374.057648,345.003601 374.186890,344.947205 372.697662,332.543243 
	C372.541931,331.246277 370.430115,329.188080 369.201477,329.170319 
	C357.075043,328.995087 344.943420,329.176575 331.912018,329.096832 
	C286.343628,329.066803 240.775208,329.034241 195.206802,329.023407 
	C194.223251,329.023193 193.239624,329.271942 191.355530,329.120911 
	C186.065079,328.490204 181.085968,328.807983 177.300827,333.319427 
	C173.980881,337.276428 170.567261,341.154846 167.356720,344.880341 
	C170.163254,344.880341 173.624939,344.880341 178.010773,344.948517 
	C228.286118,344.966919 278.561462,344.987366 328.836823,344.992767 
	C330.162903,344.992889 331.488953,344.829620 333.760590,344.938324 
M409.256866,79.840599 
	C409.256866,79.840599 409.089386,79.970840 408.241150,80.002182 
	C403.994629,80.613998 400.696442,79.314133 398.938446,75.192711 
	C397.237610,71.205269 399.017151,68.206009 401.799103,65.456345 
	C408.043579,59.284431 414.170013,52.991867 420.475555,46.883728 
	C422.460785,44.960617 424.863281,43.468227 427.864929,41.869259 
	C431.745239,41.610836 434.694672,43.004349 436.264526,46.713291 
	C437.873871,50.515503 436.251404,53.463669 433.665405,56.130154 
	C432.096527,57.747860 430.535339,59.372993 428.916382,61.051071 
	C432.556580,65.207153 435.782288,68.889984 438.972412,72.532211 
	C452.794098,61.853001 456.447815,49.597435 449.727753,37.686886 
	C444.028900,27.586321 431.587036,23.100573 420.274994,27.333099 
	C416.821991,29.846582 412.824066,31.860888 409.996521,34.947357 
	C355.473633,94.463768 301.086823,154.104828 246.684219,213.731384 
	C245.898514,214.592560 245.268417,215.595718 244.423965,216.721542 
	C250.993179,216.721542 256.974182,216.721542 263.874359,216.944260 
	C267.367981,216.967422 270.886902,216.734222 274.349152,217.075623 
	C279.187653,217.552689 282.655396,215.777939 286.232788,212.492493 
	C326.049347,175.925064 366.033875,139.540573 405.961823,103.094383 
	C412.944336,96.720726 419.874878,90.290138 427.072906,83.661636 
	C423.757507,79.694984 420.740387,76.085190 417.445251,72.142792 
	C415.052521,74.726059 413.157074,76.772408 410.514465,78.994118 
	C410.146393,79.325157 409.778290,79.656197 409.256866,79.840599 
M331.911865,361.097046 
	C274.675629,361.061920 217.439377,361.024902 160.203140,361.007385 
	C159.215607,361.007080 158.228027,361.242279 156.332703,361.114105 
	C152.121323,361.232697 147.534195,359.703674 144.129272,363.565063 
	C140.456818,367.729797 135.238052,370.588470 132.303329,376.874512 
	C136.249420,376.874512 139.171616,376.874512 143.016083,376.956787 
	C205.122543,376.971405 267.229004,376.987396 329.335480,376.989807 
	C330.495300,376.989838 331.655121,376.828461 333.760437,376.938263 
	C343.070801,376.957642 352.381195,376.986694 361.691559,376.993958 
	C374.057617,377.003632 374.186951,376.947144 372.697662,364.543213 
	C372.541962,363.246277 370.430054,361.188080 369.201416,361.170319 
	C357.074951,360.995148 344.943298,361.176697 331.911865,361.097046 
M331.911530,233.097488 
	C266.627441,233.066360 201.343338,233.033798 136.059250,233.017975 
	C135.102692,233.017746 134.146072,233.225922 133.112518,233.345764 
	C133.112518,238.631012 133.112518,243.649200 133.112518,249.000305 
	C134.856705,249.000305 136.166367,249.000259 137.476044,249.000290 
	C201.095688,249.001801 264.715332,249.005112 328.334991,248.993820 
	C329.828156,248.993546 331.321350,248.829620 333.760071,248.938156 
	C343.070526,248.957565 352.380981,248.986694 361.691437,248.993958 
	C374.057526,249.003586 374.187042,248.946869 372.697571,236.543152 
	C372.541840,235.246201 370.429932,233.188095 369.201263,233.170349 
	C357.074707,232.995285 344.942993,233.176926 331.911530,233.097488 
M331.911530,393.097504 
	C266.627441,393.066376 201.343338,393.033813 136.059250,393.017975 
	C135.102692,393.017731 134.146072,393.225891 133.112518,393.345734 
	C133.112518,398.631012 133.112518,403.649200 133.112518,409.000275 
	C134.856705,409.000275 136.166382,409.000244 137.476044,409.000275 
	C201.095718,409.001740 264.715393,409.005035 328.335052,408.993744 
	C329.828217,408.993469 331.321381,408.829590 333.760071,408.938141 
	C343.070526,408.957550 352.381012,408.986694 361.691467,408.993988 
	C374.057587,409.003662 374.187012,408.946960 372.697662,396.543121 
	C372.541931,395.246185 370.429993,393.188049 369.201294,393.170319 
	C357.074707,392.995270 344.942993,393.176941 331.911530,393.097504 
M331.911530,265.097504 
	C266.627441,265.066376 201.343338,265.033783 136.059250,265.017944 
	C135.102692,265.017731 134.146072,265.225922 133.112518,265.345764 
	C133.112518,270.631012 133.112518,275.649200 133.112518,281.000275 
	C134.856705,281.000275 136.166382,281.000244 137.476044,281.000275 
	C201.095718,281.001740 264.715393,281.005035 328.335052,280.993744 
	C329.828217,280.993469 331.321381,280.829590 333.760071,280.938141 
	C343.070526,280.957550 352.381012,280.986694 361.691467,280.993988 
	C374.057587,281.003662 374.186981,280.946960 372.697632,268.543121 
	C372.541901,267.246185 370.429962,265.188080 369.201294,265.170319 
	C357.074707,264.995239 344.942993,265.176941 331.911530,265.097504 
M298.106384,17.038633 
	C270.795685,17.026646 243.484970,17.012440 216.174271,17.003586 
	C202.019211,16.998995 187.863983,16.964182 173.709183,17.025017 
	C168.423904,17.047733 165.059616,19.383305 164.876709,23.870707 
	C164.540787,32.111794 164.780914,40.376358 164.780914,48.997765 
	C167.011429,48.997765 168.814514,48.997772 170.617584,48.997765 
	C204.090134,48.997620 237.562714,49.013626 271.035248,48.987453 
	C281.021210,48.979641 291.007080,48.853695 301.912384,48.968517 
	C314.670410,48.968517 327.428436,48.968517 340.470825,48.968517 
	C340.470825,40.395683 340.737000,32.422161 340.367615,24.478184 
	C340.157440,19.957325 337.213013,17.097324 332.492554,17.071169 
	C321.339050,17.009373 310.184357,17.163239 298.106384,17.038633 
M300.070984,465.041290 
	C254.997192,465.041290 209.923386,465.041290 164.622910,465.041290 
	C164.622910,472.606720 164.584198,479.592926 164.633163,486.578552 
	C164.688507,494.473328 167.235016,496.988647 175.158768,496.992554 
	C203.634689,497.006531 232.110626,497.019165 260.586517,496.987701 
	C273.402924,496.973572 286.219177,496.854126 299.948242,496.957306 
	C310.442169,496.968872 320.936340,496.944000 331.429962,497.008820 
	C336.028076,497.037231 339.799316,495.121429 340.113159,490.555939 
	C340.689575,482.171143 340.277527,473.718414 340.277527,465.218109 
	C326.940735,465.218109 313.966614,465.218109 300.070984,465.041290 
M323.743317,448.923096 
	C331.545044,448.945435 339.355835,449.197998 347.144531,448.890259 
	C350.874481,448.742859 354.701263,447.938507 358.241608,446.724426 
	C366.390778,443.929810 373.611664,432.743805 371.443298,425.092133 
	C358.404083,425.092133 345.179779,425.092133 331.025146,425.038269 
	C265.086700,425.038269 199.148254,425.038269 132.298813,425.038269 
	C133.117798,428.563171 133.341232,431.599915 134.515091,434.209076 
	C139.004227,444.186768 146.936523,449.003540 157.873123,449.000854 
	C211.355698,448.987823 264.838287,448.999451 318.320862,448.986450 
	C319.813232,448.986115 321.305542,448.806366 323.743317,448.923096 
M321.899963,65.114540 
	C276.581177,65.076378 231.262375,65.035507 185.943573,65.002182 
	C175.946533,64.994827 165.946121,64.853699 155.953217,65.061142 
	C142.873520,65.332657 132.360199,76.235176 133.168137,88.627434 
	C134.255493,88.750397 135.384033,88.989853 136.512512,88.989609 
	C201.659668,88.975380 266.806824,88.941277 332.800018,89.046455 
	C334.912659,88.801216 337.808838,89.354431 339.007721,88.177994 
	C345.585876,81.722969 351.748138,74.844139 358.960968,67.141457 
	C346.176788,63.394341 334.412720,65.440063 321.899963,65.114540 
M433.976929,189.386215 
	C450.428406,158.613403 447.881470,121.054413 435.104034,98.469307 
	C434.562195,98.855560 433.988403,99.181664 433.513031,99.615547 
	C419.257935,112.626053 404.963135,125.594200 390.846313,138.753220 
	C389.515472,139.993744 388.689056,142.442657 388.680878,144.335098 
	C388.550934,174.458115 388.587860,204.581848 388.613739,234.705414 
	C388.614746,235.901932 388.884003,237.098236 389.111450,238.984299 
	C395.992371,232.569565 402.211761,226.615585 408.601685,220.850586 
	C418.553558,211.871902 427.317474,201.958923 433.976929,189.386215 
M143.521790,104.993256 
	C140.073715,104.993256 136.625656,104.993256 133.127228,104.993256 
	C133.127228,110.656708 133.127228,115.675026 133.127228,120.749825 
	C134.216675,120.859787 134.866501,120.982620 135.516373,120.982811 
	C192.492416,120.998993 249.468475,121.010712 306.444489,120.980927 
	C307.712250,120.980263 309.427277,120.936348 310.174133,120.171204 
	C314.732666,115.501244 319.071289,110.616646 324.224365,104.995178 
	C263.431244,104.995178 203.974243,104.995178 143.521790,104.993256 
M232.500000,153.003326 
	C247.149704,153.006821 261.799530,153.037857 276.448944,152.974014 
	C278.027283,152.967133 280.146637,152.953720 281.087860,152.014374 
	C285.595398,147.515854 289.783600,142.697372 294.684265,137.337448 
	C240.055420,137.337448 186.581284,137.337448 132.968689,137.337448 
	C132.968689,142.607651 132.968689,147.520111 132.968689,153.003357 
	C166.005981,153.003357 198.752991,153.003357 232.500000,153.003326 
M166.500000,168.996170 
	C155.397369,168.996170 144.294724,168.996170 133.115875,168.996170 
	C133.115875,174.642670 133.115875,179.659927 133.115875,184.642120 
	C134.028030,184.806259 134.508118,184.968063 134.988312,184.968338 
	C172.777359,184.989456 210.566422,185.003464 248.355453,184.980194 
	C249.472290,184.979507 250.995209,184.968079 251.640244,184.298431 
	C256.164764,179.601074 260.508118,174.729233 265.747467,168.996140 
	C232.012390,168.996140 199.756195,168.996140 166.500000,168.996170 
M169.500000,200.995697 
	C157.398895,200.995697 145.297791,200.995697 133.112885,200.995697 
	C133.112885,206.638870 133.112885,211.655991 133.112885,216.461975 
	C133.698166,216.726166 133.844788,216.850159 133.991684,216.850464 
	C162.454361,216.908752 190.917038,216.968231 219.379730,216.970139 
	C220.466324,216.970200 221.907608,216.754929 222.582169,216.057922 
	C227.035187,211.456787 231.323349,206.696075 236.579605,200.995728 
	C213.624817,200.995728 192.062408,200.995728 169.500000,200.995697 
M352.545380,185.001938 
	C355.707825,185.003891 358.870270,185.007370 362.032715,185.007538 
	C373.139252,185.008163 375.119690,182.580261 372.768158,171.691315 
	C372.581940,170.828949 371.833740,169.408020 371.328766,169.400162 
	C366.558960,169.325897 360.879822,167.899872 357.217743,169.969177 
	C351.223694,173.356201 346.541077,179.064056 341.305298,183.792999 
	C341.476685,184.195679 341.648102,184.598358 341.819489,185.001038 
	C345.068848,185.001038 348.318207,185.001038 352.545380,185.001938 
M134.949371,296.971466 
	C134.243042,297.294067 132.930573,297.600494 132.921478,297.941681 
	C132.788818,302.915588 132.830383,307.894135 132.830383,312.871582 
	C133.266373,312.984589 133.702362,313.097595 134.138336,313.210632 
	C138.795181,308.112000 143.452011,303.013367 148.981445,296.959351 
	C143.507965,296.959351 139.684052,296.959351 134.949371,296.971466 
z"/>
<path fill="#F6F6F6" opacity="1.000000" stroke="none" 
	d="
M166.531342,1.000000 
	C165.725235,1.654836 164.472641,2.357766 163.172150,2.956766 
	C154.202072,7.088385 149.101669,14.031642 148.722672,23.918633 
	C148.397797,32.393372 148.655365,40.890438 148.655365,49.360134 
	C145.463150,50.581142 142.431656,51.468472 139.646622,52.851971 
	C125.899101,59.681236 118.120415,70.711586 116.779022,86.096207 
	C116.562515,88.579399 116.580002,91.087669 116.579704,93.584358 
	C116.570625,171.536896 116.549278,249.489456 116.647980,327.441864 
	C116.652542,331.045074 115.646347,333.639435 113.209656,336.285217 
	C92.000595,359.314270 70.906105,382.449036 49.833549,405.603363 
	C44.477280,411.488800 43.623600,418.443878 47.154644,424.938049 
	C50.518368,431.124512 57.254013,434.585175 64.428078,432.926331 
	C67.656700,432.179840 70.958939,430.323456 73.461761,428.106049 
	C86.423988,416.622253 99.137131,404.857330 111.942047,393.195892 
	C113.156487,392.089874 114.405571,391.021912 116.213135,389.430389 
	C116.367256,391.278687 116.551208,392.484131 116.554955,393.690155 
	C116.581375,402.184906 116.963417,410.701447 116.496132,419.170410 
	C115.240028,441.935791 126.931480,458.376678 148.572296,464.539154 
	C148.572296,471.914093 148.530243,479.389130 148.581512,486.863586 
	C148.673599,500.293182 154.091278,507.873718 166.852203,512.672546 
	C111.695358,513.000000 56.390713,513.000000 1.043036,513.000000 
	C1.043036,342.450531 1.043036,171.901031 1.043036,1.000000 
	C56.020393,1.000000 111.041542,1.000000 166.531342,1.000000 
z"/>
<path fill="#F7F7F7" opacity="1.000000" stroke="none" 
	d="
M337.468689,513.000000 
	C340.172943,511.493561 343.608795,510.369659 346.467041,508.405304 
	C353.609589,503.496368 356.559082,496.287201 356.582886,487.774231 
	C356.604279,480.119385 356.587372,472.464447 356.587372,464.627838 
	C357.245453,464.327637 357.793121,464.012299 358.380951,463.819092 
	C378.537415,457.194489 388.571777,443.357025 388.581726,421.981506 
	C388.605804,370.165344 388.626740,318.349060 388.513184,266.533173 
	C388.505219,262.892639 389.534210,260.410858 392.208282,257.907654 
	C405.823273,245.162659 420.539886,233.296494 432.465759,219.101944 
	C465.579926,179.688507 470.211853,135.874344 448.929138,89.168747 
	C448.591095,88.426926 448.240845,87.690651 447.728241,86.591423 
	C450.529053,84.033867 453.361145,81.504234 456.131470,78.908707 
	C472.791199,63.300323 473.225800,37.459709 457.115875,21.301308 
	C441.175201,5.312684 415.006409,5.858801 399.518188,22.588879 
	C389.572479,33.332047 379.749329,44.188656 370.065125,54.782356 
	C365.439880,52.900448 361.185699,51.169514 356.586395,49.298161 
	C356.586395,41.635609 356.700897,33.825653 356.560577,26.020285 
	C356.328552,13.116538 348.844543,3.802980 337.120544,1.358659 
	C395.636963,1.000000 454.273926,1.000000 512.955444,1.000000 
	C512.955444,171.550522 512.955444,342.101074 512.955444,513.000000 
	C454.646240,513.000000 396.291779,513.000000 337.468689,513.000000 
z"/>
<path fill="#CF8CFA" opacity="1.000000" stroke="none" 
	d="
M262.955170,216.721542 
	C256.974182,216.721542 250.993179,216.721542 244.423965,216.721542 
	C245.268417,215.595718 245.898514,214.592560 246.684219,213.731384 
	C301.086823,154.104828 355.473633,94.463768 409.996521,34.947357 
	C412.824066,31.860888 416.821991,29.846582 420.661255,27.656908 
	C423.056641,32.580044 425.065735,37.179371 427.074799,41.778702 
	C424.863281,43.468227 422.460785,44.960617 420.475555,46.883728 
	C414.170013,52.991867 408.043579,59.284431 401.799103,65.456345 
	C399.017151,68.206009 397.237610,71.205269 398.938446,75.192711 
	C400.696442,79.314133 403.994629,80.613998 408.631348,80.338715 
	C404.451874,85.193306 399.973816,89.808884 395.293243,94.209007 
	C385.745270,103.184860 376.151154,112.113762 366.463135,120.938042 
	C345.381958,140.139694 324.220123,159.252808 303.110962,178.423782 
	C291.819458,188.678528 280.521118,198.926895 269.337952,209.298996 
	C266.960602,211.503891 265.070007,214.233612 262.955170,216.721542 
z"/>
<path fill="#F6F6F6" opacity="1.000000" stroke="none" 
	d="
M433.820251,189.723541 
	C427.317474,201.958923 418.553558,211.871902 408.601685,220.850586 
	C402.211761,226.615585 395.992371,232.569565 389.111450,238.984299 
	C388.884003,237.098236 388.614746,235.901932 388.613739,234.705414 
	C388.587860,204.581848 388.550934,174.458115 388.680878,144.335098 
	C388.689056,142.442657 389.515472,139.993744 390.846313,138.753220 
	C404.963135,125.594200 419.257935,112.626053 433.513031,99.615547 
	C433.988403,99.181664 434.562195,98.855560 435.104034,98.469307 
	C447.881470,121.054413 450.428406,158.613403 433.820251,189.723541 
z"/>
<path fill="#9A32DE" opacity="1.000000" stroke="none" 
	d="
M331.953979,88.909103 
	C266.806824,88.941277 201.659668,88.975380 136.512512,88.989609 
	C135.384033,88.989853 134.255493,88.750397 133.168137,88.627434 
	C132.360199,76.235176 142.873520,65.332657 155.953217,65.061142 
	C165.946121,64.853699 175.946533,64.994827 185.943573,65.002182 
	C231.262375,65.035507 276.581177,65.076378 322.437500,65.523148 
	C328.635406,72.548531 332.982361,79.678551 331.953979,88.909103 
z"/>
<path fill="#9A32DE" opacity="1.000000" stroke="none" 
	d="
M322.797882,448.710266 
	C321.305542,448.806366 319.813232,448.986115 318.320862,448.986450 
	C264.838287,448.999451 211.355698,448.987823 157.873123,449.000854 
	C146.936523,449.003540 139.004227,444.186768 134.515091,434.209076 
	C133.341232,431.599915 133.117798,428.563171 132.298813,425.038269 
	C199.148254,425.038269 265.086700,425.038269 331.552795,425.496613 
	C331.335480,429.799011 331.172546,433.886780 329.691742,437.422668 
	C328.008301,441.442535 325.147125,444.969208 322.797882,448.710266 
z"/>
<path fill="#D08DFC" opacity="1.000000" stroke="none" 
	d="
M299.035522,496.782471 
	C286.219177,496.854126 273.402924,496.973572 260.586517,496.987701 
	C232.110626,497.019165 203.634689,497.006531 175.158768,496.992554 
	C167.235016,496.988647 164.688507,494.473328 164.633163,486.578552 
	C164.584198,479.592926 164.622910,472.606720 164.622910,465.041290 
	C209.923386,465.041290 254.997192,465.041290 300.512634,465.583801 
	C300.314697,476.345032 299.675110,486.563721 299.035522,496.782471 
z"/>
<path fill="#D08DFC" opacity="1.000000" stroke="none" 
	d="
M300.993011,48.781876 
	C291.007080,48.853695 281.021210,48.979641 271.035248,48.987453 
	C237.562714,49.013626 204.090134,48.997620 170.617584,48.997765 
	C168.814514,48.997772 167.011429,48.997765 164.780914,48.997765 
	C164.780914,40.376358 164.540787,32.111794 164.876709,23.870707 
	C165.059616,19.383305 168.423904,17.047733 173.709183,17.025017 
	C187.863983,16.964182 202.019211,16.998995 216.174271,17.003586 
	C243.484970,17.012440 270.795685,17.026646 298.611725,17.520241 
	C299.742401,28.261856 300.367706,38.521866 300.993011,48.781876 
z"/>
<path fill="#9A33DD" opacity="1.000000" stroke="none" 
	d="
M332.814514,280.742004 
	C331.321381,280.829590 329.828217,280.993469 328.335052,280.993744 
	C264.715393,281.005035 201.095718,281.001740 137.476044,281.000275 
	C136.166382,281.000244 134.856705,281.000275 133.112518,281.000275 
	C133.112518,275.649200 133.112518,270.631012 133.112518,265.345764 
	C134.146072,265.225922 135.102692,265.017731 136.059250,265.017944 
	C201.343338,265.033783 266.627441,265.066376 332.365784,265.625214 
	C332.818237,271.015961 332.816376,275.878967 332.814514,280.742004 
z"/>
<path fill="#9A33DD" opacity="1.000000" stroke="none" 
	d="
M332.814545,408.742004 
	C331.321381,408.829590 329.828217,408.993469 328.335052,408.993744 
	C264.715393,409.005035 201.095718,409.001740 137.476044,409.000275 
	C136.166382,409.000244 134.856705,409.000275 133.112518,409.000275 
	C133.112518,403.649200 133.112518,398.631012 133.112518,393.345734 
	C134.146072,393.225891 135.102692,393.017731 136.059250,393.017975 
	C201.343338,393.033813 266.627441,393.066376 332.365814,393.625214 
	C332.818237,399.015961 332.816376,403.878967 332.814545,408.742004 
z"/>
<path fill="#9A33DD" opacity="1.000000" stroke="none" 
	d="
M332.814514,248.742035 
	C331.321350,248.829620 329.828156,248.993546 328.334991,248.993820 
	C264.715332,249.005112 201.095688,249.001801 137.476044,249.000290 
	C136.166367,249.000259 134.856705,249.000305 133.112518,249.000305 
	C133.112518,243.649200 133.112518,238.631012 133.112518,233.345764 
	C134.146072,233.225922 135.102692,233.017746 136.059250,233.017975 
	C201.343338,233.033798 266.627441,233.066360 332.365814,233.625214 
	C332.818237,239.015961 332.816376,243.879013 332.814514,248.742035 
z"/>
<path fill="#9933DD" opacity="1.000000" stroke="none" 
	d="
M144.019501,104.994217 
	C203.974243,104.995178 263.431244,104.995178 324.224365,104.995178 
	C319.071289,110.616646 314.732666,115.501244 310.174133,120.171204 
	C309.427277,120.936348 307.712250,120.980263 306.444489,120.980927 
	C249.468475,121.010712 192.492416,120.998993 135.516373,120.982811 
	C134.866501,120.982620 134.216675,120.859787 133.127228,120.749825 
	C133.127228,115.675026 133.127228,110.656708 133.127228,104.993256 
	C136.625656,104.993256 140.073715,104.993256 144.019501,104.994217 
z"/>
<path fill="#9933DD" opacity="1.000000" stroke="none" 
	d="
M332.814941,376.742401 
	C331.655121,376.828461 330.495300,376.989838 329.335480,376.989807 
	C267.229004,376.987396 205.122543,376.971405 142.674316,376.614624 
	C147.301865,371.304199 152.271164,366.335876 157.240463,361.367584 
	C158.228027,361.242279 159.215607,361.007080 160.203140,361.007385 
	C217.439377,361.024902 274.675629,361.061920 332.366364,361.624817 
	C332.818878,367.015869 332.816925,371.879150 332.814941,376.742401 
z"/>
<path fill="#B152F0" opacity="1.000000" stroke="none" 
	d="
M263.414764,216.832901 
	C265.070007,214.233612 266.960602,211.503891 269.337952,209.298996 
	C280.521118,198.926895 291.819458,188.678528 303.110962,178.423782 
	C324.220123,159.252808 345.381958,140.139694 366.463135,120.938042 
	C376.151154,112.113762 385.745270,103.184860 395.293243,94.209007 
	C399.973816,89.808884 404.451874,85.193306 409.055481,80.323044 
	C409.089386,79.970840 409.256866,79.840599 409.683350,79.794479 
	C410.493744,79.438492 410.877686,79.128632 411.261627,78.818771 
	C413.157074,76.772408 415.052521,74.726059 417.445251,72.142792 
	C420.740387,76.085190 423.757507,79.694984 427.072906,83.661636 
	C419.874878,90.290138 412.944336,96.720726 405.961823,103.094383 
	C366.033875,139.540573 326.049347,175.925064 286.232788,212.492493 
	C282.655396,215.777939 279.187653,217.552689 274.349152,217.075623 
	C270.886902,216.734222 267.367981,216.967422 263.414764,216.832901 
z"/>
<path fill="#9933DC" opacity="1.000000" stroke="none" 
	d="
M232.000000,153.003342 
	C198.752991,153.003357 166.005981,153.003357 132.968689,153.003357 
	C132.968689,147.520111 132.968689,142.607651 132.968689,137.337448 
	C186.581284,137.337448 240.055420,137.337448 294.684265,137.337448 
	C289.783600,142.697372 285.595398,147.515854 281.087860,152.014374 
	C280.146637,152.953720 278.027283,152.967133 276.448944,152.974014 
	C261.799530,153.037857 247.149704,153.006821 232.000000,153.003342 
z"/>
<path fill="#9933DD" opacity="1.000000" stroke="none" 
	d="
M192.256042,329.404541 
	C193.239624,329.271942 194.223251,329.023193 195.206802,329.023407 
	C240.775208,329.034241 286.343628,329.066803 332.366577,329.624664 
	C332.819092,335.015839 332.817047,339.879211 332.815002,344.742554 
	C331.488953,344.829620 330.162903,344.992889 328.836823,344.992767 
	C278.561462,344.987366 228.286118,344.966919 177.670227,344.613892 
	C182.305145,339.321045 187.280594,334.362793 192.256042,329.404541 
z"/>
<path fill="#9933DC" opacity="1.000000" stroke="none" 
	d="
M167.000000,168.996155 
	C199.756195,168.996140 232.012390,168.996140 265.747467,168.996140 
	C260.508118,174.729233 256.164764,179.601074 251.640244,184.298431 
	C250.995209,184.968079 249.472290,184.979507 248.355453,184.980194 
	C210.566422,185.003464 172.777359,184.989456 134.988312,184.968338 
	C134.508118,184.968063 134.028030,184.806259 133.115875,184.642120 
	C133.115875,179.659927 133.115875,174.642670 133.115875,168.996170 
	C144.294724,168.996170 155.397369,168.996170 167.000000,168.996155 
z"/>
<path fill="#9933DC" opacity="1.000000" stroke="none" 
	d="
M332.815674,312.743042 
	C325.001251,312.829987 317.186829,312.988678 309.372375,312.991333 
	C277.260162,313.002350 245.147934,312.965912 212.709778,312.604034 
	C217.334229,307.288757 222.284637,302.316376 227.235046,297.344025 
	C229.553207,297.227570 231.871399,297.009155 234.189529,297.009949 
	C266.763855,297.021210 299.338196,297.062378 332.367340,297.624146 
	C332.820007,303.015717 332.817841,307.879395 332.815674,312.743042 
z"/>
<path fill="#9933DC" opacity="1.000000" stroke="none" 
	d="
M170.000000,200.995712 
	C192.062408,200.995728 213.624817,200.995728 236.579605,200.995728 
	C231.323349,206.696075 227.035187,211.456787 222.582169,216.057922 
	C221.907608,216.754929 220.466324,216.970200 219.379730,216.970139 
	C190.917038,216.968231 162.454361,216.908752 133.991684,216.850464 
	C133.844788,216.850159 133.698166,216.726166 133.112885,216.461975 
	C133.112885,211.655991 133.112885,206.638870 133.112885,200.995697 
	C145.297791,200.995697 157.398895,200.995697 170.000000,200.995712 
z"/>
<path fill="#B250F1" opacity="1.000000" stroke="none" 
	d="
M301.452698,48.875198 
	C300.367706,38.521866 299.742401,28.261856 299.073608,17.615871 
	C310.184357,17.163239 321.339050,17.009373 332.492554,17.071169 
	C337.213013,17.097324 340.157440,19.957325 340.367615,24.478184 
	C340.737000,32.422161 340.470825,40.395683 340.470825,48.968517 
	C327.428436,48.968517 314.670410,48.968517 301.452698,48.875198 
z"/>
<path fill="#B250F1" opacity="1.000000" stroke="none" 
	d="
M299.491882,496.869873 
	C299.675110,486.563721 300.314697,476.345032 300.973389,465.672211 
	C313.966614,465.218109 326.940735,465.218109 340.277527,465.218109 
	C340.277527,473.718414 340.689575,482.171143 340.113159,490.555939 
	C339.799316,495.121429 336.028076,497.037231 331.429962,497.008820 
	C320.936340,496.944000 310.442169,496.968872 299.491882,496.869873 
z"/>
<path fill="#AF52EB" opacity="1.000000" stroke="none" 
	d="
M179.965759,297.137634 
	C184.038864,297.137634 188.111969,297.137634 193.397461,297.137634 
	C164.534409,323.508118 136.522354,349.101135 107.897354,374.862732 
	C106.960121,375.479004 106.635826,375.926636 106.311531,376.374298 
	C106.311531,376.374298 106.111885,376.192322 105.944260,376.273529 
	C105.585541,376.659943 105.394432,376.965149 105.203339,377.270386 
	C105.203346,377.270386 105.162659,377.162933 104.939194,377.237854 
	C104.544090,377.629028 104.372459,377.945282 104.200836,378.261505 
	C104.200836,378.261505 104.154205,378.157745 103.929825,378.232849 
	C103.503349,378.612762 103.301239,378.917542 103.099144,379.222351 
	C101.594147,380.731903 100.089142,382.241486 97.971329,383.900635 
	C97.025116,384.504852 96.691704,384.959503 96.358292,385.414185 
	C96.358292,385.414185 96.069977,385.182312 95.937111,385.289612 
	C95.656792,385.724609 95.509338,386.052338 95.361877,386.380035 
	C95.361877,386.380035 94.967979,386.149078 94.878067,386.253754 
	C94.601326,386.671631 94.414505,386.984863 94.227684,387.298065 
	C94.227684,387.298065 94.185745,387.192322 93.957695,387.253052 
	C93.549080,387.628845 93.368515,387.943939 93.187958,388.259003 
	C93.187958,388.259003 93.154022,388.154602 92.924911,388.233643 
	C92.502945,388.632233 92.310089,388.951752 92.117249,389.271301 
	C90.954697,390.442383 89.792145,391.613464 88.027390,392.853149 
	C86.626640,392.282959 85.828102,391.644104 85.029564,391.005249 
	C86.737846,389.063751 88.446121,387.122253 90.719879,384.951660 
	C91.457359,384.391876 91.629364,384.061218 91.801376,383.730530 
	C91.801384,383.730530 91.830818,383.837189 92.056580,383.757263 
	C92.436241,383.348663 92.590126,383.019989 92.744019,382.691315 
	C92.744019,382.691315 92.806725,382.814423 93.029816,382.736389 
	C93.401070,382.326355 93.549248,381.994354 93.697418,381.662354 
	C93.697411,381.662354 93.835068,381.838013 94.030991,381.736603 
	C94.363678,381.300110 94.500450,380.965027 94.637230,380.629944 
	C94.637230,380.629944 94.939987,380.945862 95.069061,380.776215 
	C95.303162,380.265839 95.408195,379.925079 95.513229,379.584351 
	C95.679214,379.651520 95.845200,379.718719 96.089920,379.683350 
	C96.437508,379.037903 96.706352,378.495056 96.975204,377.952209 
	C97.728035,377.025085 98.480858,376.097961 99.779388,374.937683 
	C100.508446,374.372833 100.691788,374.041046 100.875122,373.709290 
	C100.875122,373.709290 101.051598,373.283905 101.517899,373.123962 
	C102.248520,372.542847 102.512848,372.121613 102.777176,371.700409 
	C102.777184,371.700409 102.822411,371.811188 103.046219,371.738495 
	C103.403725,371.327545 103.537407,370.989288 103.671089,370.651031 
	C103.671089,370.651031 103.877754,370.887085 104.047379,370.758087 
	C104.352249,370.292938 104.487495,369.956757 104.622742,369.620605 
	C104.622742,369.620605 104.993607,369.944000 105.094757,369.776123 
	C105.318565,369.270142 105.441223,368.932037 105.563881,368.593903 
	C105.647469,368.740173 105.731056,368.886414 105.999771,368.817810 
	C106.456161,368.067108 106.727432,367.531281 106.998703,366.995422 
	C106.998703,366.995422 107.000305,367.000000 107.231178,366.889587 
	C107.628525,366.486664 107.794998,366.194122 107.961479,365.901611 
	C108.713608,364.993347 109.465729,364.085114 110.807037,362.956421 
	C112.176231,361.716125 112.956230,360.696320 113.736237,359.676514 
	C113.736237,359.676514 113.773132,359.792084 114.016983,359.725891 
	C114.522575,359.146240 114.784317,358.632782 115.046066,358.119324 
	C115.229813,357.827789 115.413567,357.536255 116.056122,357.041199 
	C116.790421,356.644897 116.958405,356.383118 117.018875,356.052338 
	C120.422951,352.161194 123.827034,348.270050 127.774666,344.108948 
	C128.547333,343.534698 128.776428,343.230408 129.005524,342.926117 
	C129.005524,342.926117 129.004837,343.005676 129.194336,342.875580 
	C129.588531,342.464050 129.793213,342.182587 129.997894,341.901123 
	C129.997879,341.901123 129.993927,342.000427 130.192413,341.875977 
	C130.582794,341.443665 130.774704,341.135803 130.966614,340.827942 
	C130.966599,340.827942 130.973618,340.974182 131.164093,340.860962 
	C131.553848,340.432129 131.753113,340.116547 131.952362,339.800964 
	C131.952362,339.800964 131.955429,339.962769 132.148621,339.858398 
	C132.541229,339.435455 132.740662,339.116943 132.940094,338.798401 
	C132.940094,338.798401 132.950348,338.951569 133.150940,338.851379 
	C133.537369,338.420898 133.723190,338.090576 133.909027,337.760254 
	C133.909012,337.760254 133.854416,337.899567 134.160675,337.915649 
	C135.435608,337.343018 136.518951,336.883850 137.354340,336.144501 
	C142.700867,331.412567 148.035889,326.665863 153.293274,321.835419 
	C162.215820,313.637360 171.078125,305.373688 179.965759,297.137634 
z"/>
<path fill="#4F1177" opacity="1.000000" stroke="none" 
	d="
M323.270599,448.816681 
	C325.147125,444.969208 328.008301,441.442535 329.691742,437.422668 
	C331.172546,433.886780 331.335480,429.799011 332.017944,425.523560 
	C345.179779,425.092133 358.404083,425.092133 371.443298,425.092133 
	C373.611664,432.743805 366.390778,443.929810 358.241608,446.724426 
	C354.701263,447.938507 350.874481,448.742859 347.144531,448.890259 
	C339.355835,449.197998 331.545044,448.945435 323.270599,448.816681 
z"/>
<path fill="#4E1176" opacity="1.000000" stroke="none" 
	d="
M317.101715,216.850891 
	C313.650848,216.850891 310.200012,216.850891 305.061737,216.850891 
	C311.499329,211.072296 316.771301,206.212128 322.231750,201.573822 
	C323.069397,200.862289 324.775604,201.036514 326.080719,201.033096 
	C339.909943,200.996735 353.741516,201.146194 367.567230,200.921692 
	C371.793915,200.853058 373.027832,202.333130 372.922455,206.404007 
	C372.599121,218.895096 374.269836,216.850342 362.266998,216.972565 
	C352.771667,217.069275 343.274109,216.951370 333.314270,216.388916 
	C332.851013,211.695953 332.851013,207.542862 332.851013,203.389755 
	C332.295624,203.142227 331.740234,202.894684 331.184845,202.647141 
	C326.490479,207.381729 321.796112,212.116318 317.101715,216.850891 
z"/>
<path fill="#AF51EB" opacity="1.000000" stroke="none" 
	d="
M427.469849,41.823982 
	C425.065735,37.179371 423.056641,32.580044 421.004028,27.647972 
	C431.587036,23.100573 444.028900,27.586321 449.727753,37.686886 
	C456.447815,49.597435 452.794098,61.853001 438.972412,72.532211 
	C435.782288,68.889984 432.556580,65.207153 428.916382,61.051071 
	C430.535339,59.372993 432.096527,57.747860 433.665405,56.130154 
	C436.251404,53.463669 437.873871,50.515503 436.264526,46.713291 
	C434.694672,43.004349 431.745239,41.610836 427.469849,41.823982 
z"/>
<path fill="#4E1176" opacity="1.000000" stroke="none" 
	d="
M333.287292,280.840088 
	C332.816376,275.878967 332.818237,271.015961 332.816406,265.705200 
	C344.942993,265.176941 357.074707,264.995239 369.201294,265.170319 
	C370.429962,265.188080 372.541901,267.246185 372.697632,268.543121 
	C374.186981,280.946960 374.057587,281.003662 361.691467,280.993988 
	C352.381012,280.986694 343.070526,280.957550 333.287292,280.840088 
z"/>
<path fill="#4E1176" opacity="1.000000" stroke="none" 
	d="
M333.288422,312.840759 
	C332.817841,307.879395 332.820007,303.015717 332.818024,297.704285 
	C344.943878,297.176239 357.075317,296.994873 369.201630,297.170288 
	C370.430237,297.188049 372.541931,299.246338 372.697632,300.543304 
	C374.186768,312.947388 374.057709,313.003571 361.691833,312.993988 
	C352.381622,312.986755 343.071381,312.957764 333.288422,312.840759 
z"/>
<path fill="#4E1176" opacity="1.000000" stroke="none" 
	d="
M333.287292,248.840103 
	C332.816376,243.879013 332.818237,239.015961 332.816406,233.705200 
	C344.942993,233.176926 357.074707,232.995285 369.201263,233.170349 
	C370.429932,233.188095 372.541840,235.246201 372.697571,236.543152 
	C374.187042,248.946869 374.057526,249.003586 361.691437,248.993958 
	C352.380981,248.986694 343.070526,248.957565 333.287292,248.840103 
z"/>
<path fill="#4E1176" opacity="1.000000" stroke="none" 
	d="
M333.287781,344.840454 
	C332.817047,339.879211 332.819092,335.015839 332.817200,329.704742 
	C344.943420,329.176575 357.075043,328.995087 369.201477,329.170319 
	C370.430115,329.188080 372.541931,331.246277 372.697662,332.543243 
	C374.186890,344.947205 374.057648,345.003601 361.691620,344.993988 
	C352.381287,344.986725 343.070923,344.957672 333.287781,344.840454 
z"/>
<path fill="#4E1176" opacity="1.000000" stroke="none" 
	d="
M333.287292,408.840088 
	C332.816376,403.878967 332.818237,399.015961 332.816406,393.705200 
	C344.942993,393.176941 357.074707,392.995270 369.201294,393.170319 
	C370.429993,393.188049 372.541931,395.246185 372.697662,396.543121 
	C374.187012,408.946960 374.057587,409.003662 361.691467,408.993988 
	C352.381012,408.986694 343.070526,408.957550 333.287292,408.840088 
z"/>
<path fill="#4E1176" opacity="1.000000" stroke="none" 
	d="
M333.287689,376.840332 
	C332.816925,371.879150 332.818878,367.015869 332.817017,361.704895 
	C344.943298,361.176697 357.074951,360.995148 369.201416,361.170319 
	C370.430054,361.188080 372.541962,363.246277 372.697662,364.543213 
	C374.186951,376.947144 374.057617,377.003632 361.691559,376.993958 
	C352.381195,376.986694 343.070801,376.957642 333.287689,376.840332 
z"/>
<path fill="#4E1177" opacity="1.000000" stroke="none" 
	d="
M332.377014,88.977783 
	C332.982361,79.678551 328.635406,72.548531 322.886169,65.609062 
	C334.412720,65.440063 346.176788,63.394341 358.960968,67.141457 
	C351.748138,74.844139 345.585876,81.722969 339.007721,88.177994 
	C337.808838,89.354431 334.912659,88.801216 332.377014,88.977783 
z"/>
<path fill="#4C1172" opacity="1.000000" stroke="none" 
	d="
M352.056458,185.001495 
	C348.318207,185.001038 345.068848,185.001038 341.819489,185.001038 
	C341.648102,184.598358 341.476685,184.195679 341.305298,183.792999 
	C346.541077,179.064056 351.223694,173.356201 357.217743,169.969177 
	C360.879822,167.899872 366.558960,169.325897 371.328766,169.400162 
	C371.833740,169.408020 372.581940,170.828949 372.768158,171.691315 
	C375.119690,182.580261 373.139252,185.008163 362.032715,185.007538 
	C358.870270,185.007370 355.707825,185.003891 352.056458,185.001495 
z"/>
<path fill="#C887F1" opacity="1.000000" stroke="none" 
	d="
M179.523956,297.063110 
	C171.078125,305.373688 162.215820,313.637360 153.293274,321.835419 
	C148.035889,326.665863 142.700867,331.412567 137.354340,336.144501 
	C136.518951,336.883850 135.435608,337.343018 134.099442,337.872681 
	C145.649567,324.595825 157.388962,311.207581 169.688538,298.355408 
	C171.412964,296.553497 175.883026,297.379181 179.523956,297.063110 
z"/>
<path fill="#4F1278" opacity="1.000000" stroke="none" 
	d="
M226.783142,297.215424 
	C222.284637,302.316376 217.334229,307.288757 212.251099,312.552490 
	C208.702026,312.843872 205.285675,312.843872 201.869339,312.843872 
	C209.153336,306.042786 213.494949,294.864624 226.783142,297.215424 
z"/>
<path fill="#4F1277" opacity="1.000000" stroke="none" 
	d="
M156.786591,361.240845 
	C152.271164,366.335876 147.301865,371.304199 142.213181,376.573486 
	C139.171616,376.874512 136.249420,376.874512 132.303329,376.874512 
	C135.238052,370.588470 140.456818,367.729797 144.129272,363.565063 
	C147.534195,359.703674 152.121323,361.232697 156.786591,361.240845 
z"/>
<path fill="#4E1277" opacity="1.000000" stroke="none" 
	d="
M191.805786,329.262726 
	C187.280594,334.362793 182.305145,339.321045 177.208160,344.579834 
	C173.624939,344.880341 170.163254,344.880341 167.356720,344.880341 
	C170.567261,341.154846 173.980881,337.276428 177.300827,333.319427 
	C181.085968,328.807983 186.065079,328.490204 191.805786,329.262726 
z"/>
<path fill="#9335D0" opacity="1.000000" stroke="none" 
	d="
M135.404755,296.965393 
	C139.684052,296.959351 143.507965,296.959351 148.981445,296.959351 
	C143.452011,303.013367 138.795181,308.112000 134.138336,313.210632 
	C133.702362,313.097595 133.266373,312.984589 132.830383,312.871582 
	C132.830383,307.894135 132.788818,302.915588 132.921478,297.941681 
	C132.930573,297.600494 134.243042,297.294067 135.404755,296.965393 
z"/>
<path fill="#9332D3" opacity="1.000000" stroke="none" 
	d="
M317.559204,216.907379 
	C321.796112,212.116318 326.490479,207.381729 331.184845,202.647141 
	C331.740234,202.894684 332.295624,203.142227 332.851013,203.389755 
	C332.851013,207.542862 332.851013,211.695953 332.843903,216.294250 
	C327.896759,216.814255 322.956696,216.889053 317.559204,216.907379 
z"/>
<path fill="#9E54CF" opacity="1.000000" stroke="none" 
	d="
M84.714371,391.128418 
	C85.828102,391.644104 86.626640,392.282959 87.738411,392.970886 
	C87.215370,393.919678 86.379097,394.819366 85.031982,395.579346 
	C83.824821,395.552032 83.128510,395.664398 82.432190,395.776794 
	C82.752541,396.273438 83.072891,396.770081 83.393234,397.266724 
	C79.055000,401.060516 74.716774,404.854309 70.378540,408.648102 
	C70.040817,408.315826 69.703094,407.983521 69.365372,407.651245 
	C74.376633,402.184692 79.387901,396.718140 84.714371,391.128418 
z"/>
<path fill="#AF52EB" opacity="1.000000" stroke="none" 
	d="
M83.648209,397.177521 
	C83.072891,396.770081 82.752541,396.273438 82.432190,395.776794 
	C83.128510,395.664398 83.824821,395.552032 84.735214,395.670959 
	C84.600594,396.297638 84.251892,396.692963 83.648209,397.177521 
z"/>
<path fill="#9E54CF" opacity="1.000000" stroke="none" 
	d="
M113.436752,359.795471 
	C112.956230,360.696320 112.176231,361.716125 111.070526,362.818542 
	C111.542297,361.905548 112.339783,360.909973 113.436752,359.795471 
z"/>
<path fill="#9E54CF" opacity="1.000000" stroke="none" 
	d="
M96.709053,378.057373 
	C96.706352,378.495056 96.437508,379.037903 95.842392,379.574707 
	C95.825050,379.099915 96.133980,378.631195 96.709053,378.057373 
z"/>
<path fill="#9E54CF" opacity="1.000000" stroke="none" 
	d="
M106.579300,376.296204 
	C106.635826,375.926636 106.960121,375.479004 107.587837,374.995331 
	C107.543198,375.378937 107.195137,375.798553 106.579300,376.296204 
z"/>
<path fill="#9E54CF" opacity="1.000000" stroke="none" 
	d="
M102.532890,371.765747 
	C102.512848,372.121613 102.248520,372.542847 101.719055,373.011932 
	C101.732140,372.650238 102.010368,372.240662 102.532890,371.765747 
z"/>
<path fill="#9E54CF" opacity="1.000000" stroke="none" 
	d="
M96.631866,385.331543 
	C96.691704,384.959503 97.025116,384.504852 97.672470,384.022430 
	C97.626083,384.412750 97.265762,384.830811 96.631866,385.331543 
z"/>
<path fill="#9E54CF" opacity="1.000000" stroke="none" 
	d="
M106.729187,367.094421 
	C106.727432,367.531281 106.456161,368.067108 105.862694,368.605255 
	C105.846886,368.136169 106.153282,367.664795 106.729187,367.094421 
z"/>
<path fill="#9E54CF" opacity="1.000000" stroke="none" 
	d="
M114.783989,358.226807 
	C114.784317,358.632782 114.522575,359.146240 113.960144,359.704681 
	C113.946938,359.277893 114.234428,358.806091 114.783989,358.226807 
z"/>
<path fill="#9E54CF" opacity="1.000000" stroke="none" 
	d="
M95.609749,386.305908 
	C95.509338,386.052338 95.656792,385.724609 96.094879,385.386200 
	C96.209549,385.660889 96.033577,385.946320 95.609749,386.305908 
z"/>
<path fill="#9E54CF" opacity="1.000000" stroke="none" 
	d="
M103.365883,379.142365 
	C103.301239,378.917542 103.503349,378.612762 103.984146,378.249725 
	C104.052773,378.481812 103.842697,378.772125 103.365883,379.142365 
z"/>
<path fill="#9E54CF" opacity="1.000000" stroke="none" 
	d="
M94.487411,387.239655 
	C94.414505,386.984863 94.601326,386.671631 95.079704,386.359497 
	C95.163223,386.634125 94.955185,386.907684 94.487411,387.239655 
z"/>
<path fill="#9E54CF" opacity="1.000000" stroke="none" 
	d="
M93.452736,388.187347 
	C93.368515,387.943939 93.549080,387.628845 94.012039,387.269836 
	C94.102135,387.522461 93.909821,387.819092 93.452736,388.187347 
z"/>
<path fill="#9E54CF" opacity="1.000000" stroke="none" 
	d="
M91.536453,383.828491 
	C91.629364,384.061218 91.457359,384.391876 91.008156,384.807861 
	C90.911148,384.570923 91.091347,384.248718 91.536453,383.828491 
z"/>
<path fill="#9E54CF" opacity="1.000000" stroke="none" 
	d="
M92.387573,389.184082 
	C92.310089,388.951752 92.502945,388.632233 92.978668,388.244751 
	C93.060326,388.483521 92.859116,388.790192 92.387573,389.184082 
z"/>
<path fill="#C887F1" opacity="1.000000" stroke="none" 
	d="
M131.672211,339.888062 
	C131.753113,340.116547 131.553848,340.432129 131.090912,340.859680 
	C131.015503,340.639496 131.203781,340.307312 131.672211,339.888062 
z"/>
<path fill="#C887F1" opacity="1.000000" stroke="none" 
	d="
M132.652588,338.872559 
	C132.740662,339.116943 132.541229,339.435455 132.067902,339.852478 
	C131.984375,339.616180 132.174728,339.281464 132.652588,338.872559 
z"/>
<path fill="#C887F1" opacity="1.000000" stroke="none" 
	d="
M133.620697,337.839050 
	C133.723190,338.090576 133.537369,338.420898 133.074295,338.847534 
	C132.975479,338.601868 133.153915,338.259857 133.620697,337.839050 
z"/>
<path fill="#CF8CFA" opacity="1.000000" stroke="none" 
	d="
M410.888062,78.906448 
	C410.877686,79.128632 410.493744,79.438492 409.760010,79.867798 
	C409.778290,79.656197 410.146393,79.325157 410.888062,78.906448 
z"/>
<path fill="#9E54CF" opacity="1.000000" stroke="none" 
	d="
M92.485161,382.779724 
	C92.590126,383.019989 92.436241,383.348663 92.003494,383.741669 
	C91.891853,383.493347 92.059074,383.180725 92.485161,382.779724 
z"/>
<path fill="#9E54CF" opacity="1.000000" stroke="none" 
	d="
M93.444534,381.752502 
	C93.549248,381.994354 93.401070,382.326355 92.967499,382.706573 
	C92.851944,382.450745 93.021797,382.146667 93.444534,381.752502 
z"/>
<path fill="#9E54CF" opacity="1.000000" stroke="none" 
	d="
M94.390900,380.722229 
	C94.500450,380.965027 94.363678,381.300110 93.938858,381.673645 
	C93.815399,381.412903 93.979980,381.113708 94.390900,380.722229 
z"/>
<path fill="#9E54CF" opacity="1.000000" stroke="none" 
	d="
M95.290108,379.691162 
	C95.408195,379.925079 95.303162,380.265839 94.906479,380.629822 
	C94.639214,380.301208 94.789932,380.016174 95.290108,379.691162 
z"/>
<path fill="#C887F1" opacity="1.000000" stroke="none" 
	d="
M129.736313,341.989227 
	C129.793213,342.182587 129.588531,342.464050 129.154572,342.876190 
	C129.108429,342.697052 129.291580,342.387207 129.736313,341.989227 
z"/>
<path fill="#9E54CF" opacity="1.000000" stroke="none" 
	d="
M104.461403,378.183960 
	C104.372459,377.945282 104.544090,377.629028 104.992844,377.258392 
	C105.087296,377.504791 104.904633,377.805634 104.461403,378.183960 
z"/>
<path fill="#9E54CF" opacity="1.000000" stroke="none" 
	d="
M105.464996,377.212280 
	C105.394432,376.965149 105.585541,376.659943 106.061661,376.340332 
	C106.140007,376.601990 105.933334,376.878082 105.464996,377.212280 
z"/>
<path fill="#9E54CF" opacity="1.000000" stroke="none" 
	d="
M100.605453,373.813263 
	C100.691788,374.041046 100.508446,374.372833 100.048744,374.801300 
	C99.960182,374.571075 100.147987,374.244171 100.605453,373.813263 
z"/>
<path fill="#9E54CF" opacity="1.000000" stroke="none" 
	d="
M103.420532,370.750427 
	C103.537407,370.989288 103.403725,371.327545 102.987289,371.728149 
	C102.859688,371.476929 103.014839,371.163361 103.420532,370.750427 
z"/>
<path fill="#9E54CF" opacity="1.000000" stroke="none" 
	d="
M104.377243,369.710510 
	C104.487495,369.956757 104.352249,370.292938 103.926056,370.658630 
	C103.800659,370.392242 103.966194,370.096313 104.377243,369.710510 
z"/>
<path fill="#9E54CF" opacity="1.000000" stroke="none" 
	d="
M105.331406,368.689972 
	C105.441223,368.932037 105.318565,369.270142 104.902435,369.622925 
	C104.772293,369.353729 104.935608,369.069885 105.331406,368.689972 
z"/>
<path fill="#9E54CF" opacity="1.000000" stroke="none" 
	d="
M107.705246,365.984009 
	C107.794998,366.194122 107.628525,366.486664 107.228683,366.889435 
	C107.146553,366.688599 107.297783,366.377533 107.705246,365.984009 
z"/>
<path fill="#C887F1" opacity="1.000000" stroke="none" 
	d="
M130.694733,340.922363 
	C130.774704,341.135803 130.582794,341.443665 130.142792,341.873474 
	C130.070724,341.669220 130.246780,341.343018 130.694733,340.922363 
z"/>
<path fill="#9E54CF" opacity="1.000000" stroke="none" 
	d="
M116.780487,356.120758 
	C116.958405,356.383118 116.790421,356.644897 116.295792,356.931183 
	C116.078323,356.660706 116.233467,356.382202 116.780487,356.120758 
z"/>
<path fill="#C887F1" opacity="1.000000" stroke="none" 
	d="
M128.721741,343.036316 
	C128.776428,343.230408 128.547333,343.534698 128.085938,344.023132 
	C128.048431,343.853699 128.243179,343.500092 128.721741,343.036316 
z"/>
</svg>
