<svg version="1.1" id="Layer_1" xmlns="http://www.w3.org/2000/svg" xmlns:xlink="http://www.w3.org/1999/xlink" x="0px" y="0px"
	 width="100%" viewBox="0 0 512 512" xml:space="preserve">
<path fill="#373439" opacity="1.000000" stroke="none" 
	d="
M287.000000,513.000000 
	C215.312439,513.000000 143.624878,513.000000 71.369675,512.650513 
	C54.327885,506.895111 43.867729,496.009521 41.333542,478.626373 
	C38.596138,459.849274 36.446606,440.986542 34.035931,422.161743 
	C29.172428,384.182922 24.305309,346.204559 19.440460,308.225922 
	C14.618064,270.578644 9.845421,232.924881 4.936131,195.288940 
	C3.875757,187.159805 2.324920,179.094635 1.000000,171.000000 
	C1.000000,169.611115 1.000000,168.222214 1.350138,166.330353 
	C2.046628,165.263077 2.491830,164.736771 2.725190,164.129089 
	C16.466551,128.345993 30.212118,92.564445 43.856728,56.744442 
	C44.598053,54.798317 44.709148,52.527317 44.727741,50.404163 
	C44.871994,33.936577 44.921310,17.468161 45.000000,1.000000 
	C118.687561,1.000000 192.375122,1.000000 266.442444,1.461308 
	C266.822174,70.063950 266.822174,138.205292 266.822174,207.715546 
	C276.666504,195.637100 285.550690,184.736710 294.505646,173.749451 
	C292.333313,172.062210 290.539307,170.668793 288.564911,169.135284 
	C289.412750,167.806442 290.084991,166.682587 290.824188,165.604599 
	C304.089050,146.260376 317.351349,126.914375 330.637390,107.584671 
	C338.016113,96.849442 347.691132,95.063744 358.506256,102.479805 
	C405.416016,134.646393 452.272400,166.891068 499.258392,198.945831 
	C505.407776,203.141022 510.840881,207.569397 513.000000,215.000000 
	C513.000000,216.714355 513.000000,218.428711 512.671936,220.716980 
	C510.916290,224.087372 509.767365,227.073196 508.016693,229.650192 
	C495.023132,248.776550 481.913483,267.824066 468.827179,286.887268 
	C467.904633,288.231171 466.877625,289.503326 465.847229,290.878143 
	C463.409332,289.352905 461.223755,287.985565 458.921631,286.545258 
	C457.988831,287.755524 457.259949,288.643250 456.592773,289.575104 
	C408.163208,357.219971 359.661133,424.813202 311.405579,492.582031 
	C304.935669,501.668152 298.228119,509.879791 287.000000,513.000000 
M251.273697,484.873627 
	C251.245819,482.591614 251.217957,480.309631 251.481201,477.666656 
	C251.383820,477.100525 251.286453,476.534424 251.244400,475.238770 
	C251.170868,474.514771 251.097321,473.790771 251.293182,472.152649 
	C251.331924,470.488617 251.404556,468.824585 251.404572,467.160553 
	C251.405594,376.898987 251.407043,286.637451 251.393112,196.375885 
	C251.386978,156.574799 251.348328,116.773720 251.677490,76.253387 
	C251.736038,74.267624 251.845963,72.281799 251.843735,70.296104 
	C251.836411,63.732594 251.820862,63.732609 245.192596,63.713219 
	C238.093292,63.692451 238.065613,63.692596 238.104492,71.352730 
	C238.114517,73.327805 238.358322,75.301697 238.430145,78.159843 
	C238.008972,88.051498 240.371338,87.492195 228.658279,87.426384 
	C227.016739,87.417160 225.376114,87.245430 223.756470,86.653519 
	C223.665970,86.317772 223.474426,86.055916 223.128510,84.982224 
	C223.010437,82.023605 222.892365,79.064995 222.979279,75.186539 
	C223.011673,74.355980 223.078140,73.525146 223.071274,72.694916 
	C222.993042,63.244976 224.222351,63.865047 214.207184,63.860855 
	C170.299896,63.842480 126.392616,63.845852 82.485329,63.841206 
	C75.500107,63.840466 68.509163,63.686958 61.533875,63.949543 
	C59.881634,64.011742 57.526199,65.057106 56.810654,66.368500 
	C55.169395,69.376495 54.339691,72.827301 52.738937,76.672562 
	C41.483185,105.864418 30.140659,135.023514 19.089680,164.292694 
	C17.815092,167.668518 17.493843,171.728180 17.878790,175.348709 
	C19.286564,188.589325 21.197990,201.776001 22.887560,214.987122 
	C27.807449,253.456726 32.709408,291.928619 37.623001,330.399048 
	C41.439873,360.282776 45.221088,390.171143 49.100468,420.046753 
	C51.393139,437.703003 53.845951,455.338470 56.130646,473.779541 
	C57.291988,477.891327 57.753757,482.386322 59.754364,486.038361 
	C64.521088,494.739929 72.532715,497.945770 82.286560,497.921906 
	C124.211586,497.819214 166.136993,497.872925 208.062271,497.867493 
	C211.555893,497.867065 215.053772,497.740356 218.541962,497.873688 
	C222.018326,498.006622 223.268738,496.457886 223.127472,493.073547 
	C222.947250,488.755585 222.864853,484.405884 223.218582,480.109253 
	C223.333298,478.715668 224.722870,476.571198 225.919250,476.257568 
	C235.707092,473.691589 238.527939,475.919006 238.693970,485.848267 
	C238.702316,486.347229 238.696182,486.846436 238.698074,487.345551 
	C238.740875,498.560486 238.735886,498.457977 250.119812,497.902374 
	C254.069244,497.709625 254.857544,496.259766 252.935272,492.418304 
	C252.718384,492.124725 252.501495,491.831146 252.329376,490.884277 
	C252.199432,490.244354 252.069473,489.604431 252.020111,488.285004 
	C251.747910,487.430420 251.475693,486.575806 251.273697,484.873627 
M279.997040,215.899200 
	C276.406708,220.266357 272.625549,224.495499 269.318634,229.067627 
	C267.968506,230.934280 266.957794,233.543121 266.954926,235.815781 
	C266.851227,317.723053 266.903168,399.630493 266.866974,481.537933 
	C266.863953,488.392578 269.378510,493.878357 275.752014,496.333435 
	C282.066742,498.765808 288.218475,497.721588 293.282196,491.486267 
	C336.462982,431.194092 379.660522,370.913910 422.803009,310.594360 
	C428.104980,303.181396 433.112335,295.557739 438.839355,287.735352 
	C439.957489,286.294342 441.147797,284.903046 442.180969,283.403473 
	C446.128571,277.673615 446.027435,277.275513 440.304321,273.356598 
	C399.386658,245.338318 358.476532,217.308960 317.554199,189.297424 
	C306.679504,181.853638 306.663818,181.876572 298.407928,193.193771 
	C292.469727,200.666779 286.531525,208.139801 279.997040,215.899200 
M429.667084,247.852905 
	C440.323700,255.139328 450.980316,262.425751 461.803772,269.826233 
	C462.857391,268.473328 463.717133,267.479675 464.456604,266.403351 
	C474.634491,251.589172 484.653168,236.662384 495.053101,222.005997 
	C497.959900,217.909500 497.146332,215.905258 493.297394,213.307541 
	C474.541260,200.648697 455.937286,187.764313 437.281342,174.957092 
	C408.474396,155.181259 379.630096,135.459290 350.908234,115.560654 
	C346.988098,112.844780 344.855377,113.223473 342.267212,117.277077 
	C336.717926,125.968391 330.674500,134.343994 324.842346,142.854950 
	C319.780823,150.241287 314.731506,157.635956 309.472198,165.326096 
	C349.570526,192.851440 389.325867,220.141357 429.667084,247.852905 
M81.500183,16.118992 
	C74.402412,16.118992 67.304642,16.118992 60.152481,16.118992 
	C60.152481,27.225971 60.152481,37.650608 60.152481,48.138435 
	C124.053711,48.138435 187.687073,48.138435 251.200928,48.138435 
	C251.200928,37.238400 251.200928,26.820389 251.200928,16.118654 
	C194.712708,16.118654 138.606400,16.118654 81.500183,16.118992 
z"/>
<path fill="#F7F7F7" opacity="1.000000" stroke="none" 
	d="
M513.000000,214.531342 
	C510.840881,207.569397 505.407776,203.141022 499.258392,198.945831 
	C452.272400,166.891068 405.416016,134.646393 358.506256,102.479805 
	C347.691132,95.063744 338.016113,96.849442 330.637390,107.584671 
	C317.351349,126.914375 304.089050,146.260376 290.824188,165.604599 
	C290.084991,166.682587 289.412750,167.806442 288.564911,169.135284 
	C290.539307,170.668793 292.333313,172.062210 294.505646,173.749451 
	C285.550690,184.736710 276.666504,195.637100 266.822174,207.715546 
	C266.822174,138.205292 266.822174,70.063950 266.911072,1.461308 
	C348.921967,1.000000 430.843903,1.000000 513.000000,1.000000 
	C513.000000,72.020721 513.000000,143.041702 513.000000,214.531342 
z"/>
<path fill="#F7F7F7" opacity="1.000000" stroke="none" 
	d="
M287.468658,513.000000 
	C298.228119,509.879791 304.935669,501.668152 311.405579,492.582031 
	C359.661133,424.813202 408.163208,357.219971 456.592773,289.575104 
	C457.259949,288.643250 457.988831,287.755524 458.921631,286.545258 
	C461.223755,287.985565 463.409332,289.352905 465.847229,290.878143 
	C466.877625,289.503326 467.904633,288.231171 468.827179,286.887268 
	C481.913483,267.824066 495.023132,248.776550 508.016693,229.650192 
	C509.767365,227.073196 510.916290,224.087372 512.671936,221.145447 
	C513.000000,318.251099 513.000000,415.502197 513.000000,513.000000 
	C437.979279,513.000000 362.958313,513.000000 287.468658,513.000000 
z"/>
<path fill="#F6F6F6" opacity="1.000000" stroke="none" 
	d="
M1.000000,171.468658 
	C2.324920,179.094635 3.875757,187.159805 4.936131,195.288940 
	C9.845421,232.924881 14.618064,270.578644 19.440460,308.225922 
	C24.305309,346.204559 29.172428,384.182922 34.035931,422.161743 
	C36.446606,440.986542 38.596138,459.849274 41.333542,478.626373 
	C43.867729,496.009521 54.327885,506.895111 70.901016,512.650513 
	C47.691460,513.000000 24.382919,513.000000 1.000000,513.000000 
	C1.000000,399.312439 1.000000,285.624878 1.000000,171.468658 
z"/>
<path fill="#F6F6F6" opacity="1.000000" stroke="none" 
	d="
M44.531342,1.000000 
	C44.921310,17.468161 44.871994,33.936577 44.727741,50.404163 
	C44.709148,52.527317 44.598053,54.798317 43.856728,56.744442 
	C30.212118,92.564445 16.466551,128.345993 2.725190,164.129089 
	C2.491830,164.736771 2.046628,165.263077 1.350138,165.913681 
	C1.000000,111.115349 1.000000,56.230705 1.000000,1.000000 
	C15.352374,1.000000 29.707529,1.000000 44.531342,1.000000 
z"/>
<path fill="#B450F5" opacity="1.000000" stroke="none" 
	d="
M251.324432,76.972641 
	C251.348328,116.773720 251.386978,156.574799 251.393112,196.375885 
	C251.407043,286.637451 251.405594,376.898987 251.404572,467.160553 
	C251.404556,468.824585 251.331924,470.488617 250.689453,472.583984 
	C185.466049,473.004639 120.846405,472.993958 56.226749,472.983276 
	C53.845951,455.338470 51.393139,437.703003 49.100468,420.046753 
	C45.221088,390.171143 41.439873,360.282776 37.623001,330.399048 
	C32.709408,291.928619 27.807449,253.456726 22.887560,214.987122 
	C21.197990,201.776001 19.286564,188.589325 17.878790,175.348709 
	C17.493843,171.728180 17.815092,167.668518 19.089680,164.292694 
	C30.140659,135.023514 41.483185,105.864418 53.415222,76.401672 
	C110.319099,76.122650 166.546692,76.114517 222.774292,76.106377 
	C222.892365,79.064995 223.010437,82.023605 223.119064,85.681915 
	C223.318100,86.637383 223.526581,86.893150 223.735062,87.148918 
	C225.376114,87.245430 227.016739,87.417160 228.658279,87.426384 
	C240.371338,87.492195 238.008972,88.051498 238.808762,77.551086 
	C243.233063,76.952438 247.278748,76.962540 251.324432,76.972641 
M200.983139,199.495300 
	C200.983231,177.510895 200.868576,155.525406 201.079239,133.543015 
	C201.121902,129.090393 199.729660,127.916252 195.385773,127.930565 
	C151.918854,128.073730 108.451080,128.073425 64.984154,127.929512 
	C60.510082,127.914703 58.862267,129.034637 58.974560,133.766861 
	C59.278698,146.583923 58.971809,159.414078 59.106949,172.236923 
	C59.257671,186.538666 58.604912,200.945938 60.098103,215.118011 
	C64.323647,255.223221 100.853546,282.908234 140.873932,276.855560 
	C157.170868,274.390839 171.074234,266.982391 182.255188,254.649628 
	C196.225662,239.240005 201.920807,221.027893 200.983139,199.495300 
M237.621521,243.710434 
	C233.986038,243.531921 230.348404,243.387955 226.715729,243.163925 
	C223.839752,242.986572 222.963974,244.412338 223.026230,247.100876 
	C223.149445,252.423218 223.078491,257.750153 223.079468,263.075195 
	C223.081665,274.872345 223.090500,274.970856 234.899124,273.661804 
	C236.221268,273.515198 238.354111,271.492828 238.379089,270.303955 
	C238.560608,261.668579 238.297638,253.023819 237.621521,243.710434 
M223.099472,449.463623 
	C223.292282,462.012268 221.070679,459.727631 234.020477,459.988678 
	C234.352997,459.995392 234.688293,459.960968 235.018112,459.991241 
	C237.644623,460.232635 238.536819,458.890961 238.515930,456.431061 
	C238.469315,450.942596 238.630157,445.451538 238.535431,439.964478 
	C238.322327,427.624329 240.457916,429.613831 227.506256,429.386719 
	C227.173935,429.380890 226.839111,429.429352 226.508911,429.405151 
	C223.901657,429.214325 222.999496,430.515259 223.046173,433.004425 
	C223.142822,438.159210 223.088028,443.316803 223.099472,449.463623 
M223.095840,160.542679 
	C223.090179,163.701126 223.013687,166.861298 223.091370,170.017700 
	C223.393677,182.302399 220.486755,180.579178 234.335953,180.819519 
	C237.770325,180.879105 238.607269,179.378967 238.561493,176.349380 
	C238.458557,169.535492 238.273560,162.705566 238.624069,155.908066 
	C238.863983,151.254837 237.230103,149.846710 232.668427,150.061447 
	C221.818787,150.572220 223.160812,148.434296 223.095840,160.542679 
M223.097504,358.418762 
	C223.129578,367.940796 221.927124,366.813751 231.547806,366.897583 
	C232.707535,366.907715 233.873352,366.797089 235.026382,366.880432 
	C237.652847,367.070282 238.506454,365.766724 238.482162,363.307007 
	C238.428116,357.839447 238.637985,352.367798 238.517899,346.902679 
	C238.257965,335.072510 241.063660,336.544922 227.529205,336.429871 
	C227.197983,336.427063 226.865677,336.463257 226.535400,336.448151 
	C224.015213,336.332733 223.014816,337.495789 223.062439,340.039032 
	C223.170990,345.836945 223.092346,351.638397 223.097504,358.418762 
M225.751984,320.248566 
	C228.584061,320.253540 231.427841,320.098541 234.245148,320.305023 
	C237.563705,320.548279 238.677353,319.126282 238.560165,315.942169 
	C238.394806,311.449921 238.512894,306.947083 238.518692,302.448761 
	C238.535995,289.034485 238.537369,289.030090 225.013168,290.020569 
	C224.558578,290.053864 224.124496,290.367218 223.254654,290.725677 
	C223.254654,299.921600 223.227524,309.207825 223.321472,318.492828 
	C223.327179,319.055359 224.295609,319.608124 225.751984,320.248566 
M230.482132,413.249817 
	C232.924881,413.249817 235.367630,413.249817 238.075012,413.249817 
	C238.075012,402.869202 238.075012,393.179596 238.075012,383.401978 
	C232.905624,383.401978 228.206177,383.401978 223.658737,383.401978 
	C223.406082,384.139679 223.210587,384.446808 223.208466,384.755249 
	C223.158081,392.063019 223.128952,399.370911 223.094971,406.678802 
	C223.064606,413.207733 223.064102,413.207733 230.482132,413.249817 
M223.086044,202.666351 
	C223.088547,207.149841 223.092773,211.633347 223.093216,216.116837 
	C223.094391,227.707031 223.089645,227.597092 234.487839,227.174789 
	C237.578400,227.060272 238.581665,225.843536 238.534103,222.996033 
	C238.448181,217.849777 238.490723,212.701431 238.473602,207.553970 
	C238.437531,196.721786 238.434082,196.905350 227.709351,196.797424 
	C223.821747,196.758301 222.595154,198.157745 223.086044,202.666351 
M238.544037,122.458229 
	C238.542526,119.803612 238.600662,117.147400 238.529343,114.494659 
	C238.190598,101.894562 240.237152,104.041283 227.100449,103.712776 
	C224.081116,103.637268 222.996780,104.851318 223.043320,107.811287 
	C223.160645,115.275536 223.178711,122.744591 223.040314,130.208069 
	C222.982468,133.326950 224.324188,134.166595 227.219086,134.110626 
	C240.962402,133.844894 238.147247,135.852341 238.544037,122.458229 
z"/>
<path fill="#B550F5" opacity="1.000000" stroke="none" 
	d="
M438.256256,288.031708 
	C433.112335,295.557739 428.104980,303.181396 422.803009,310.594360 
	C379.660522,370.913910 336.462982,431.194092 292.802734,491.531525 
	C291.062256,490.040527 290.082550,488.066101 288.491180,487.044403 
	C281.877258,482.798187 280.807312,476.643585 280.821381,469.340149 
	C280.979340,387.421143 280.926270,305.501740 280.910645,223.582428 
	C280.910126,220.925873 280.703735,218.269348 280.593323,215.612823 
	C286.531525,208.139801 292.469727,200.666779 299.025269,193.114929 
	C307.760040,198.541245 315.922577,203.981323 323.986908,209.563217 
	C353.123413,229.730576 382.199158,249.985825 411.359528,270.118500 
	C420.222778,276.237793 429.285126,282.068695 438.256256,288.031708 
z"/>
<path fill="#ECCFFD" opacity="1.000000" stroke="none" 
	d="
M429.374146,247.642090 
	C389.325867,220.141357 349.570526,192.851440 309.472198,165.326096 
	C314.731506,157.635956 319.780823,150.241287 324.842346,142.854950 
	C330.674500,134.343994 336.717926,125.968391 342.267212,117.277077 
	C344.855377,113.223473 346.988098,112.844780 350.908234,115.560654 
	C379.630096,135.459290 408.474396,155.181259 437.281342,174.957092 
	C455.937286,187.764313 474.541260,200.648697 493.297394,213.307541 
	C497.146332,215.905258 497.959900,217.909500 495.053101,222.005997 
	C484.653168,236.662384 474.634491,251.589172 464.456604,266.403351 
	C463.717133,267.479675 462.857391,268.473328 461.803772,269.826233 
	C450.980316,262.425751 440.323700,255.139328 429.374146,247.642090 
M346.996887,133.586929 
	C345.766998,135.557938 344.114563,137.399155 343.455231,139.545456 
	C343.013397,140.983795 343.398621,143.707291 344.409424,144.397400 
	C352.360321,149.825806 360.482056,155.018570 368.748688,159.953003 
	C369.893585,160.636398 372.846375,160.120392 373.707184,159.100403 
	C376.098450,156.267075 377.828064,152.875290 380.032806,149.363632 
	C370.483704,143.124023 361.393921,137.053406 352.093872,131.324097 
	C351.227814,130.790558 349.029785,132.419174 346.996887,133.586929 
M391.833923,161.294601 
	C384.433197,172.869522 383.321716,169.473297 394.968719,176.863785 
	C395.928986,177.473099 398.174500,177.815079 398.532928,177.329361 
	C400.852509,174.186218 403.554169,170.975327 404.514709,167.357605 
	C404.879700,165.982864 401.211884,163.110977 398.933868,161.595062 
	C397.091766,160.369202 394.918884,157.232773 391.833923,161.294601 
z"/>
<path fill="#E5CAF5" opacity="1.000000" stroke="none" 
	d="
M82.000137,16.118824 
	C138.606400,16.118654 194.712708,16.118654 251.200928,16.118654 
	C251.200928,26.820389 251.200928,37.238400 251.200928,48.138435 
	C187.687073,48.138435 124.053711,48.138435 60.152481,48.138435 
	C60.152481,37.650608 60.152481,27.225971 60.152481,16.118992 
	C67.304642,16.118992 74.402412,16.118992 82.000137,16.118824 
M202.507935,25.162460 
	C200.246887,25.162460 197.985840,25.162460 195.649567,25.162460 
	C195.649567,30.578466 195.649567,35.291237 195.649567,40.112457 
	C200.740616,40.112457 205.463043,40.112457 210.232758,40.112457 
	C210.232758,34.996559 210.232758,30.260267 210.232758,25.164238 
	C207.717133,25.164238 205.576233,25.164238 202.507935,25.162460 
M236.293427,25.188065 
	C232.887894,25.188065 229.482361,25.188065 226.178284,25.188065 
	C226.178284,30.673185 226.178284,35.400921 226.178284,40.008270 
	C231.253632,40.008270 235.947083,40.008270 240.929047,40.008270 
	C240.929047,35.796623 240.777588,31.996698 240.977051,28.215282 
	C241.136124,25.199272 239.410110,25.037081 236.293427,25.188065 
M165.007599,32.554371 
	C165.007599,35.003368 165.007599,37.452366 165.007599,40.141296 
	C170.192841,40.141296 174.891266,40.141296 179.846252,40.141296 
	C179.846252,35.140781 179.846252,30.426840 179.846252,25.475613 
	C174.873306,25.475613 170.168289,25.475613 165.009354,25.475613 
	C165.009354,27.699207 165.009354,29.648588 165.007599,32.554371 
M134.735138,37.471024 
	C135.499115,38.444256 136.207260,40.199230 137.036499,40.258438 
	C141.115112,40.549664 145.225876,40.390724 149.468750,40.390724 
	C149.468750,35.062202 149.468750,30.241627 149.468750,25.446808 
	C144.458374,25.446808 139.878723,25.446808 134.731079,25.446808 
	C134.731079,29.288784 134.731079,32.884312 134.735138,37.471024 
M82.488190,40.427799 
	C84.561882,40.427799 86.635574,40.427799 88.725800,40.427799 
	C88.725800,34.990860 88.725800,30.285048 88.725800,25.536240 
	C83.681313,25.536240 78.979080,25.536240 74.288040,25.536240 
	C74.288040,30.616875 74.288040,35.350193 74.288040,40.428169 
	C76.903717,40.428169 79.203438,40.428169 82.488190,40.427799 
M106.728111,40.416779 
	C110.808395,40.416779 114.888680,40.416779 119.128212,40.416779 
	C119.128212,35.089947 119.128212,30.396790 119.128212,25.507576 
	C114.101967,25.507576 109.413857,25.507576 103.502785,25.507576 
	C104.308289,30.759254 105.042709,35.547508 106.728111,40.416779 
z"/>
<path fill="#842ABD" opacity="1.000000" stroke="none" 
	d="
M56.178696,473.381409 
	C120.846405,472.993958 185.466049,473.004639 250.554749,473.041046 
	C251.097321,473.790771 251.170868,474.514771 251.012512,475.766724 
	C250.917114,476.872345 251.053604,477.449982 251.190079,478.027618 
	C251.217957,480.309631 251.245819,482.591614 251.177002,485.649750 
	C251.366714,487.272095 251.653122,488.118286 251.939514,488.964508 
	C252.069473,489.604431 252.199432,490.244354 252.345001,491.490356 
	C252.583588,492.385193 252.806564,492.673981 253.029556,492.962738 
	C254.857544,496.259766 254.069244,497.709625 250.119812,497.902374 
	C238.735886,498.457977 238.740875,498.560486 238.698074,487.345551 
	C238.696182,486.846436 238.702316,486.347229 238.693970,485.848267 
	C238.527939,475.919006 235.707092,473.691589 225.919250,476.257568 
	C224.722870,476.571198 223.333298,478.715668 223.218582,480.109253 
	C222.864853,484.405884 222.947250,488.755585 223.127472,493.073547 
	C223.268738,496.457886 222.018326,498.006622 218.541962,497.873688 
	C215.053772,497.740356 211.555893,497.867065 208.062271,497.867493 
	C166.136993,497.872925 124.211586,497.819214 82.286560,497.921906 
	C72.532715,497.945770 64.521088,494.739929 59.754364,486.038361 
	C57.753757,482.386322 57.291988,477.891327 56.178696,473.381409 
z"/>
<path fill="#862BC0" opacity="1.000000" stroke="none" 
	d="
M280.295166,215.756012 
	C280.703735,218.269348 280.910126,220.925873 280.910645,223.582428 
	C280.926270,305.501740 280.979340,387.421143 280.821381,469.340149 
	C280.807312,476.643585 281.877258,482.798187 288.491180,487.044403 
	C290.082550,488.066101 291.062256,490.040527 292.570618,491.786377 
	C288.218475,497.721588 282.066742,498.765808 275.752014,496.333435 
	C269.378510,493.878357 266.863953,488.392578 266.866974,481.537933 
	C266.903168,399.630493 266.851227,317.723053 266.954926,235.815781 
	C266.957794,233.543121 267.968506,230.934280 269.318634,229.067627 
	C272.625549,224.495499 276.406708,220.266357 280.295166,215.756012 
z"/>
<path fill="#842BBD" opacity="1.000000" stroke="none" 
	d="
M438.547791,287.883545 
	C429.285126,282.068695 420.222778,276.237793 411.359528,270.118500 
	C382.199158,249.985825 353.123413,229.730576 323.986908,209.563217 
	C315.922577,203.981323 307.760040,198.541245 299.307617,192.921814 
	C306.663818,181.876572 306.679504,181.853638 317.554199,189.297424 
	C358.476532,217.308960 399.386658,245.338318 440.304321,273.356598 
	C446.027435,277.275513 446.128571,277.673615 442.180969,283.403473 
	C441.147797,284.903046 439.957489,286.294342 438.547791,287.883545 
z"/>
<path fill="#852ABD" opacity="1.000000" stroke="none" 
	d="
M222.876785,75.646454 
	C166.546692,76.114517 110.319099,76.122650 53.636009,76.114563 
	C54.339691,72.827301 55.169395,69.376495 56.810654,66.368500 
	C57.526199,65.057106 59.881634,64.011742 61.533875,63.949543 
	C68.509163,63.686958 75.500107,63.840466 82.485329,63.841206 
	C126.392616,63.845852 170.299896,63.842480 214.207184,63.860855 
	C224.222351,63.865047 222.993042,63.244976 223.071274,72.694916 
	C223.078140,73.525146 223.011673,74.355980 222.876785,75.646454 
z"/>
<path fill="#77409C" opacity="1.000000" stroke="none" 
	d="
M251.500961,76.613014 
	C247.278748,76.962540 243.233063,76.952438 238.841064,77.109230 
	C238.358322,75.301697 238.114517,73.327805 238.104492,71.352730 
	C238.065613,63.692596 238.093292,63.692451 245.192596,63.713219 
	C251.820862,63.732609 251.836411,63.732594 251.843735,70.296104 
	C251.845963,72.281799 251.736038,74.267624 251.500961,76.613014 
z"/>
<path fill="#77409C" opacity="1.000000" stroke="none" 
	d="
M251.335632,477.847137 
	C251.053604,477.449982 250.917114,476.872345 250.984863,476.131500 
	C251.286453,476.534424 251.383820,477.100525 251.335632,477.847137 
z"/>
<path fill="#77409C" opacity="1.000000" stroke="none" 
	d="
M251.979813,488.624756 
	C251.653122,488.118286 251.366714,487.272095 251.141907,486.073547 
	C251.475693,486.575806 251.747910,487.430420 251.979813,488.624756 
z"/>
<path fill="#77409C" opacity="1.000000" stroke="none" 
	d="
M223.745758,86.901215 
	C223.526581,86.893150 223.318100,86.637383 223.145737,86.124786 
	C223.474426,86.055916 223.665970,86.317772 223.745758,86.901215 
z"/>
<path fill="#77409C" opacity="1.000000" stroke="none" 
	d="
M252.982422,492.690521 
	C252.806564,492.673981 252.583588,492.385193 252.322601,491.817017 
	C252.501495,491.831146 252.718384,492.124725 252.982422,492.690521 
z"/>
<path fill="#842ABC" opacity="1.000000" stroke="none" 
	d="
M200.982666,199.993973 
	C201.920807,221.027893 196.225662,239.240005 182.255188,254.649628 
	C171.074234,266.982391 157.170868,274.390839 140.873932,276.855560 
	C100.853546,282.908234 64.323647,255.223221 60.098103,215.118011 
	C58.604912,200.945938 59.257671,186.538666 59.106949,172.236923 
	C58.971809,159.414078 59.278698,146.583923 58.974560,133.766861 
	C58.862267,129.034637 60.510082,127.914703 64.984154,127.929512 
	C108.451080,128.073425 151.918854,128.073730 195.385773,127.930565 
	C199.729660,127.916252 201.121902,129.090393 201.079239,133.543015 
	C200.868576,155.525406 200.983231,177.510895 200.982666,199.993973 
M180.497360,235.897293 
	C185.896194,226.219803 188.297256,215.861450 188.222488,204.763718 
	C188.065353,181.434418 188.072861,158.102509 188.264404,134.773727 
	C188.301453,130.262589 187.051483,128.708420 182.375992,128.730270 
	C147.547928,128.893143 112.718208,128.901855 77.890442,128.704514 
	C72.869682,128.676071 71.826660,130.508789 71.866600,135.109528 
	C72.066254,158.104843 71.903290,181.103088 72.004654,204.099686 
	C72.024376,208.573441 72.367203,213.087982 73.044609,217.509628 
	C76.979286,243.192459 101.476997,264.534607 127.392403,265.005829 
	C150.316757,265.422699 167.819885,255.796936 180.497360,235.897293 
z"/>
<path fill="#3B3240" opacity="1.000000" stroke="none" 
	d="
M237.898376,244.046234 
	C238.297638,253.023819 238.560608,261.668579 238.379089,270.303955 
	C238.354111,271.492828 236.221268,273.515198 234.899124,273.661804 
	C223.090500,274.970856 223.081665,274.872345 223.079468,263.075195 
	C223.078491,257.750153 223.149445,252.423218 223.026230,247.100876 
	C222.963974,244.412338 223.839752,242.986572 226.715729,243.163925 
	C230.348404,243.387955 233.986038,243.531921 237.898376,244.046234 
z"/>
<path fill="#3A323F" opacity="1.000000" stroke="none" 
	d="
M223.097488,448.968445 
	C223.088028,443.316803 223.142822,438.159210 223.046173,433.004425 
	C222.999496,430.515259 223.901657,429.214325 226.508911,429.405151 
	C226.839111,429.429352 227.173935,429.380890 227.506256,429.386719 
	C240.457916,429.613831 238.322327,427.624329 238.535431,439.964478 
	C238.630157,445.451538 238.469315,450.942596 238.515930,456.431061 
	C238.536819,458.890961 237.644623,460.232635 235.018112,459.991241 
	C234.688293,459.960968 234.352997,459.995392 234.020477,459.988678 
	C221.070679,459.727631 223.292282,462.012268 223.097488,448.968445 
z"/>
<path fill="#3B3241" opacity="1.000000" stroke="none" 
	d="
M223.095734,160.052673 
	C223.160812,148.434296 221.818787,150.572220 232.668427,150.061447 
	C237.230103,149.846710 238.863983,151.254837 238.624069,155.908066 
	C238.273560,162.705566 238.458557,169.535492 238.561493,176.349380 
	C238.607269,179.378967 237.770325,180.879105 234.335953,180.819519 
	C220.486755,180.579178 223.393677,182.302399 223.091370,170.017700 
	C223.013687,166.861298 223.090179,163.701126 223.095734,160.052673 
z"/>
<path fill="#39323D" opacity="1.000000" stroke="none" 
	d="
M223.093628,357.928589 
	C223.092346,351.638397 223.170990,345.836945 223.062439,340.039032 
	C223.014816,337.495789 224.015213,336.332733 226.535400,336.448151 
	C226.865677,336.463257 227.197983,336.427063 227.529205,336.429871 
	C241.063660,336.544922 238.257965,335.072510 238.517899,346.902679 
	C238.637985,352.367798 238.428116,357.839447 238.482162,363.307007 
	C238.506454,365.766724 237.652847,367.070282 235.026382,366.880432 
	C233.873352,366.797089 232.707535,366.907715 231.547806,366.897583 
	C221.927124,366.813751 223.129578,367.940796 223.093628,357.928589 
z"/>
<path fill="#39313E" opacity="1.000000" stroke="none" 
	d="
M225.284027,320.207001 
	C224.295609,319.608124 223.327179,319.055359 223.321472,318.492828 
	C223.227524,309.207825 223.254654,299.921600 223.254654,290.725677 
	C224.124496,290.367218 224.558578,290.053864 225.013168,290.020569 
	C238.537369,289.030090 238.535995,289.034485 238.518692,302.448761 
	C238.512894,306.947083 238.394806,311.449921 238.560165,315.942169 
	C238.677353,319.126282 237.563705,320.548279 234.245148,320.305023 
	C231.427841,320.098541 228.584061,320.253540 225.284027,320.207001 
z"/>
<path fill="#38323C" opacity="1.000000" stroke="none" 
	d="
M230.009766,413.246948 
	C223.064102,413.207733 223.064606,413.207733 223.094971,406.678802 
	C223.128952,399.370911 223.158081,392.063019 223.208466,384.755249 
	C223.210587,384.446808 223.406082,384.139679 223.658737,383.401978 
	C228.206177,383.401978 232.905624,383.401978 238.075012,383.401978 
	C238.075012,393.179596 238.075012,402.869202 238.075012,413.249817 
	C235.367630,413.249817 232.924881,413.249817 230.009766,413.246948 
z"/>
<path fill="#38323D" opacity="1.000000" stroke="none" 
	d="
M223.081131,202.188599 
	C222.595154,198.157745 223.821747,196.758301 227.709351,196.797424 
	C238.434082,196.905350 238.437531,196.721786 238.473602,207.553970 
	C238.490723,212.701431 238.448181,217.849777 238.534103,222.996033 
	C238.581665,225.843536 237.578400,227.060272 234.487839,227.174789 
	C223.089645,227.597092 223.094391,227.707031 223.093216,216.116837 
	C223.092773,211.633347 223.088547,207.149841 223.081131,202.188599 
z"/>
<path fill="#39313E" opacity="1.000000" stroke="none" 
	d="
M238.543610,122.946640 
	C238.147247,135.852341 240.962402,133.844894 227.219086,134.110626 
	C224.324188,134.166595 222.982468,133.326950 223.040314,130.208069 
	C223.178711,122.744591 223.160645,115.275536 223.043320,107.811287 
	C222.996780,104.851318 224.081116,103.637268 227.100449,103.712776 
	C240.237152,104.041283 238.190598,101.894562 238.529343,114.494659 
	C238.600662,117.147400 238.542526,119.803612 238.543610,122.946640 
z"/>
<path fill="#FEFCFE" opacity="1.000000" stroke="none" 
	d="
M347.223541,133.315399 
	C349.029785,132.419174 351.227814,130.790558 352.093872,131.324097 
	C361.393921,137.053406 370.483704,143.124023 380.032806,149.363632 
	C377.828064,152.875290 376.098450,156.267075 373.707184,159.100403 
	C372.846375,160.120392 369.893585,160.636398 368.748688,159.953003 
	C360.482056,155.018570 352.360321,149.825806 344.409424,144.397400 
	C343.398621,143.707291 343.013397,140.983795 343.455231,139.545456 
	C344.114563,137.399155 345.766998,135.557938 347.223541,133.315399 
z"/>
<path fill="#FEFBFE" opacity="1.000000" stroke="none" 
	d="
M392.027527,160.990967 
	C394.918884,157.232773 397.091766,160.369202 398.933868,161.595062 
	C401.211884,163.110977 404.879700,165.982864 404.514709,167.357605 
	C403.554169,170.975327 400.852509,174.186218 398.532928,177.329361 
	C398.174500,177.815079 395.928986,177.473099 394.968719,176.863785 
	C383.321716,169.473297 384.433197,172.869522 392.027527,160.990967 
z"/>
<path fill="#413D44" opacity="1.000000" stroke="none" 
	d="
M202.971619,25.163349 
	C205.576233,25.164238 207.717133,25.164238 210.232758,25.164238 
	C210.232758,30.260267 210.232758,34.996559 210.232758,40.112457 
	C205.463043,40.112457 200.740616,40.112457 195.649567,40.112457 
	C195.649567,35.291237 195.649567,30.578466 195.649567,25.162460 
	C197.985840,25.162460 200.246887,25.162460 202.971619,25.163349 
z"/>
<path fill="#39373B" opacity="1.000000" stroke="none" 
	d="
M236.761063,25.188961 
	C239.410110,25.037081 241.136124,25.199272 240.977051,28.215282 
	C240.777588,31.996698 240.929047,35.796623 240.929047,40.008270 
	C235.947083,40.008270 231.253632,40.008270 226.178284,40.008270 
	C226.178284,35.400921 226.178284,30.673185 226.178284,25.188065 
	C229.482361,25.188065 232.887894,25.188065 236.761063,25.188961 
z"/>
<path fill="#39353A" opacity="1.000000" stroke="none" 
	d="
M165.008484,32.076172 
	C165.009354,29.648588 165.009354,27.699207 165.009354,25.475613 
	C170.168289,25.475613 174.873306,25.475613 179.846252,25.475613 
	C179.846252,30.426840 179.846252,35.140781 179.846252,40.141296 
	C174.891266,40.141296 170.192841,40.141296 165.007599,40.141296 
	C165.007599,37.452366 165.007599,35.003368 165.008484,32.076172 
z"/>
<path fill="#3B373D" opacity="1.000000" stroke="none" 
	d="
M134.733109,36.975433 
	C134.731079,32.884312 134.731079,29.288784 134.731079,25.446808 
	C139.878723,25.446808 144.458374,25.446808 149.468750,25.446808 
	C149.468750,30.241627 149.468750,35.062202 149.468750,40.390724 
	C145.225876,40.390724 141.115112,40.549664 137.036499,40.258438 
	C136.207260,40.199230 135.499115,38.444256 134.733109,36.975433 
z"/>
<path fill="#39363B" opacity="1.000000" stroke="none" 
	d="
M81.995667,40.427986 
	C79.203438,40.428169 76.903717,40.428169 74.288040,40.428169 
	C74.288040,35.350193 74.288040,30.616875 74.288040,25.536240 
	C78.979080,25.536240 83.681313,25.536240 88.725800,25.536240 
	C88.725800,30.285048 88.725800,34.990860 88.725800,40.427799 
	C86.635574,40.427799 84.561882,40.427799 81.995667,40.427986 
z"/>
<path fill="#3C383E" opacity="1.000000" stroke="none" 
	d="
M106.252625,40.376270 
	C105.042709,35.547508 104.308289,30.759254 103.502785,25.507576 
	C109.413857,25.507576 114.101967,25.507576 119.128212,25.507576 
	C119.128212,30.396790 119.128212,35.089947 119.128212,40.416779 
	C114.888680,40.416779 110.808395,40.416779 106.252625,40.376270 
z"/>
<path fill="#373339" opacity="1.000000" stroke="none" 
	d="
M180.301376,236.209076 
	C167.819885,255.796936 150.316757,265.422699 127.392403,265.005829 
	C101.476997,264.534607 76.979286,243.192459 73.044609,217.509628 
	C72.367203,213.087982 72.024376,208.573441 72.004654,204.099686 
	C71.903290,181.103088 72.066254,158.104843 71.866600,135.109528 
	C71.826660,130.508789 72.869682,128.676071 77.890442,128.704514 
	C112.718208,128.901855 147.547928,128.893143 182.375992,128.730270 
	C187.051483,128.708420 188.301453,130.262589 188.264404,134.773727 
	C188.072861,158.102509 188.065353,181.434418 188.222488,204.763718 
	C188.297256,215.861450 185.896194,226.219803 180.301376,236.209076 
M173.031036,181.065338 
	C173.031036,178.826035 173.031036,176.586716 173.031036,174.324173 
	C144.007538,174.324173 115.787231,174.324173 87.224350,174.324173 
	C87.224350,177.061340 87.224350,179.508347 87.080093,182.888382 
	C87.079422,191.051941 86.452248,199.279648 87.279549,207.358414 
	C87.922577,213.637772 90.379158,219.731384 92.017159,226.631729 
	C97.757339,237.696793 106.716141,244.833801 118.622726,248.307617 
	C138.186996,254.015594 161.281296,243.580505 168.662567,225.496109 
	C170.097855,220.261734 172.397858,215.089096 172.776947,209.779297 
	C173.436340,200.543671 172.909943,191.223373 173.031036,181.065338 
M146.500107,143.738953 
	C126.794586,143.738953 107.089066,143.738953 87.414810,143.738953 
	C87.414810,149.198288 87.414810,153.915253 87.414810,158.587021 
	C116.110504,158.587021 144.445480,158.587021 172.719894,158.587021 
	C172.719894,153.506744 172.719894,148.768860 172.719894,143.738876 
	C164.090958,143.738876 155.795532,143.738876 146.500107,143.738953 
z"/>
<path fill="#EDCFFE" opacity="1.000000" stroke="none" 
	d="
M92.029694,225.907562 
	C90.379158,219.731384 87.922577,213.637772 87.279549,207.358414 
	C86.452248,199.279648 87.079422,191.051941 87.606125,182.426056 
	C116.381676,181.955353 144.631195,181.946976 172.880707,181.938583 
	C172.909943,191.223373 173.436340,200.543671 172.776947,209.779297 
	C172.397858,215.089096 170.097855,220.261734 168.042953,225.762131 
	C165.143219,227.661102 162.825623,229.244476 160.588867,230.934799 
	C141.756317,245.166641 115.978027,244.557343 97.874268,229.518845 
	C96.129852,228.069778 93.987381,227.099884 92.029694,225.907562 
z"/>
<path fill="#EBCFFC" opacity="1.000000" stroke="none" 
	d="
M147.000122,143.738922 
	C155.795532,143.738876 164.090958,143.738876 172.719894,143.738876 
	C172.719894,148.768860 172.719894,153.506744 172.719894,158.587021 
	C144.445480,158.587021 116.110504,158.587021 87.414810,158.587021 
	C87.414810,153.915253 87.414810,149.198288 87.414810,143.738953 
	C107.089066,143.738953 126.794586,143.738953 147.000122,143.738922 
z"/>
<path fill="#D096F6" opacity="1.000000" stroke="none" 
	d="
M172.955872,181.501953 
	C144.631195,181.946976 116.381676,181.955353 87.678253,181.959549 
	C87.224350,179.508347 87.224350,177.061340 87.224350,174.324173 
	C115.787231,174.324173 144.007538,174.324173 173.031036,174.324173 
	C173.031036,176.586716 173.031036,178.826035 172.955872,181.501953 
z"/>
<path fill="#CD92F4" opacity="1.000000" stroke="none" 
	d="
M92.023422,226.269653 
	C93.987381,227.099884 96.129852,228.069778 97.874268,229.518845 
	C115.978027,244.557343 141.756317,245.166641 160.588867,230.934799 
	C162.825623,229.244476 165.143219,227.661102 167.784302,226.001190 
	C161.281296,243.580505 138.186996,254.015594 118.622726,248.307617 
	C106.716141,244.833801 97.757339,237.696793 92.023422,226.269653 
z"/>
</svg>
