<svg version="1.1" id="Layer_1" xmlns="http://www.w3.org/2000/svg" xmlns:xlink="http://www.w3.org/1999/xlink" x="0px" y="0px"
	 width="100%" viewBox="0 0 512 512" xml:space="preserve">
<path fill="#F7F7F7" opacity="1.000000" stroke="none" 
	d="
M188.000000,513.000000 
	C125.699455,513.000000 63.398911,513.000000 1.049182,513.000000 
	C1.049182,342.455902 1.049182,171.911789 1.049182,1.000000 
	C45.020210,1.000000 89.041451,1.000000 133.579315,1.361851 
	C132.396378,4.379596 129.480209,6.917430 129.209045,9.711934 
	C128.067673,21.473938 127.692322,33.311352 127.079758,45.123405 
	C124.620827,92.539032 122.218193,139.957596 119.718452,187.371063 
	C116.894264,240.938782 113.951607,294.500275 111.128609,348.068054 
	C108.612396,395.814331 106.211029,443.566711 103.707397,491.313660 
	C103.172249,501.519531 105.295418,503.984772 115.451385,504.933380 
	C133.688629,506.636841 151.921951,508.391724 170.138855,510.297791 
	C176.121323,510.923737 182.047882,512.084045 188.000000,513.000000 
z"/>
<path fill="#040206" opacity="1.000000" stroke="none" 
	d="
M188.460632,513.000000 
	C182.047882,512.084045 176.121323,510.923737 170.138855,510.297791 
	C151.921951,508.391724 133.688629,506.636841 115.451385,504.933380 
	C105.295418,503.984772 103.172249,501.519531 103.707397,491.313660 
	C106.211029,443.566711 108.612396,395.814331 111.128609,348.068054 
	C113.951607,294.500275 116.894264,240.938782 119.718452,187.371063 
	C122.218193,139.957596 124.620827,92.539032 127.079758,45.123405 
	C127.692322,33.311352 128.067673,21.473938 129.209045,9.711934 
	C129.480209,6.917430 132.396378,4.379596 134.047974,1.361851 
	C215.687561,1.000000 297.375122,1.000000 379.531342,1.000000 
	C384.080597,4.374428 385.001068,8.754735 385.265045,13.939707 
	C388.643860,80.309532 392.282928,146.666046 395.780853,213.029892 
	C398.612518,266.753387 401.324585,320.483185 404.123718,374.208435 
	C406.186249,413.795776 408.284882,453.381256 410.412476,492.965149 
	C410.835724,500.839722 408.444794,503.911682 400.385406,504.725342 
	C375.044891,507.283813 349.693207,509.731476 324.172913,512.611023 
	C320.969391,513.000000 317.938812,513.000000 314.295959,512.692322 
	C309.858521,510.804504 308.498169,507.723297 307.870148,503.813873 
	C300.534241,458.148102 293.105194,412.497284 285.689575,366.844330 
	C277.100189,313.965363 268.504272,261.087463 259.896027,208.211578 
	C259.127502,203.491028 258.247559,198.788635 257.291168,193.348755 
	C256.576599,194.365067 256.433105,194.479034 256.411285,194.612823 
	C249.267212,238.452042 242.130951,282.292542 234.995758,326.133209 
	C225.454636,384.756622 215.870804,443.373169 206.456406,502.016937 
	C205.698700,506.736786 204.357025,510.628540 200.000000,513.000000 
	C196.307098,513.000000 192.614182,513.000000 188.460632,513.000000 
M126.070076,390.909332 
	C126.037636,393.600677 126.005196,396.292053 125.666191,399.771606 
	C124.076523,429.164642 122.486855,458.557678 120.876457,488.333893 
	C144.183334,490.651215 166.965759,492.916382 189.796432,495.186340 
	C190.239685,493.527130 190.635513,492.431458 190.819183,491.301300 
	C195.169113,464.535339 199.514938,437.768738 203.821793,410.995819 
	C207.466171,388.341034 211.060608,365.678223 214.965027,342.213409 
	C225.563126,277.366974 236.143219,212.517563 246.804779,147.681549 
	C247.433304,143.859222 246.987991,141.123840 243.222977,139.023209 
	C240.367645,137.430115 237.890823,135.031494 235.527145,132.705246 
	C221.699432,119.096466 214.642548,102.492310 214.231796,83.140137 
	C214.017105,73.025490 214.193939,62.902538 214.193939,52.491280 
	C204.881256,52.491280 196.143387,52.491280 187.507172,52.491280 
	C187.263321,53.024067 187.085938,53.313881 186.994278,53.628666 
	C186.576050,55.064854 186.208939,56.516254 185.775055,57.947510 
	C178.999146,80.298882 165.634476,97.509468 145.270844,108.994637 
	C141.736664,110.987946 140.512894,113.243935 140.325073,117.066841 
	C138.633499,151.494446 136.799637,185.915085 134.993896,220.337051 
	C133.449814,249.771133 131.858475,279.202789 130.342453,308.638306 
	C128.998154,334.739746 127.728714,360.845032 126.196884,387.533447 
	C126.230942,388.367920 126.265007,389.202393 126.070076,390.909332 
M290.132507,287.743988 
	C301.385223,356.810394 312.637909,425.876770 323.922699,495.140137 
	C347.547180,492.775208 370.308350,490.496704 393.397705,488.185364 
	C392.492859,469.906616 391.688507,452.449188 390.754272,434.998749 
	C387.173523,368.117188 383.577789,301.236389 379.924072,234.358810 
	C379.079468,218.899200 377.983429,203.453323 377.186401,187.082611 
	C375.957031,163.302597 374.662964,139.525528 373.573761,115.739090 
	C373.424530,112.480247 372.219818,110.766197 369.403717,109.244995 
	C355.619080,101.798737 344.461090,91.394653 336.947449,77.637367 
	C332.612152,69.699455 329.488739,61.099655 325.711884,52.553425 
	C306.249664,52.553425 286.185211,52.553425 266.003082,52.553425 
	C265.892334,54.065998 265.734894,55.217434 265.734436,56.368931 
	C265.724121,82.518028 265.707489,108.667175 265.770599,134.816132 
	C265.776978,137.460480 266.155731,140.124222 266.577637,142.744186 
	C272.052246,176.738602 277.532990,210.732117 283.085541,244.713867 
	C285.388153,258.806000 287.865387,272.869629 290.132507,287.743988 
M327.500000,35.043213 
	C341.265411,35.043213 355.030853,35.043213 369.253418,35.043213 
	C368.755066,29.016380 368.310974,23.645866 367.874573,18.368103 
	C333.510620,18.368103 299.788483,18.368103 265.949371,18.368103 
	C265.949371,23.975878 265.949371,29.238045 265.949371,35.043221 
	C286.296631,35.043221 306.398315,35.043221 327.500000,35.043213 
M213.202927,18.187370 
	C190.967422,18.187370 168.731934,18.187370 146.098801,18.187370 
	C145.662231,23.871773 145.251190,29.223770 144.834320,34.651810 
	C168.291977,34.651810 191.118179,34.651810 213.916382,34.651810 
	C213.916382,29.103561 213.916382,23.962729 213.202927,18.187370 
M231.439270,55.998917 
	C231.438889,64.150002 231.463882,72.301193 231.432404,80.452156 
	C231.381210,93.711075 235.102173,105.664780 243.536682,116.042496 
	C244.728699,117.509140 245.672134,119.177811 246.730637,120.752975 
	C247.103104,120.320236 247.475586,119.887497 247.848053,119.454758 
	C247.848053,97.130508 247.848053,74.806252 247.848053,52.189671 
	C243.062088,52.189671 238.742859,52.001682 234.461731,52.322376 
	C233.396896,52.402142 232.455215,54.126156 231.439270,55.998917 
M143.500824,58.047729 
	C142.976517,68.566292 142.452194,79.084854 141.864426,90.876656 
	C155.989944,80.620827 164.726822,68.290337 169.250259,52.455364 
	C160.405762,52.455364 152.332306,52.455364 144.119308,52.455364 
	C143.918900,54.202362 143.749954,55.675106 143.500824,58.047729 
M371.345337,77.060333 
	C370.923492,68.945702 370.501648,60.831062 370.066071,52.451660 
	C361.502899,52.451660 353.428772,52.451660 345.337219,52.451660 
	C346.386902,64.772308 362.159088,86.698891 372.129578,89.530609 
	C371.889221,85.616951 371.654938,81.802406 371.345337,77.060333 
M235.783478,18.020876 
	C234.347885,18.842947 231.757034,19.560617 231.671707,20.504721 
	C231.245483,25.221237 231.476715,29.997169 231.476715,34.772232 
	C237.390686,34.772232 242.630981,34.772232 247.948029,34.772232 
	C247.948029,29.106989 247.948029,23.751652 247.948029,18.026350 
	C243.959518,18.026350 240.339294,18.026350 235.783478,18.020876 
z"/>
<path fill="#F6F6F6" opacity="1.000000" stroke="none" 
	d="
M200.468658,513.000000 
	C204.357025,510.628540 205.698700,506.736786 206.456406,502.016937 
	C215.870804,443.373169 225.454636,384.756622 234.995758,326.133209 
	C242.130951,282.292542 249.267212,238.452042 256.411285,194.612823 
	C256.433105,194.479034 256.576599,194.365067 257.291168,193.348755 
	C258.247559,198.788635 259.127502,203.491028 259.896027,208.211578 
	C268.504272,261.087463 277.100189,313.965363 285.689575,366.844330 
	C293.105194,412.497284 300.534241,458.148102 307.870148,503.813873 
	C308.498169,507.723297 309.858521,510.804504 313.841858,512.692322 
	C276.312439,513.000000 238.624878,513.000000 200.468658,513.000000 
z"/>
<path fill="#B869ED" opacity="1.000000" stroke="none" 
	d="
M126.426224,386.948639 
	C127.728714,360.845032 128.998154,334.739746 130.342453,308.638306 
	C131.858475,279.202789 133.449814,249.771133 134.993896,220.337051 
	C136.799637,185.915085 138.633499,151.494446 140.325073,117.066841 
	C140.512894,113.243935 141.736664,110.987946 145.270844,108.994637 
	C165.634476,97.509468 178.999146,80.298882 185.775055,57.947510 
	C186.208939,56.516254 186.576050,55.064854 186.994278,53.628666 
	C187.085938,53.313881 187.263321,53.024067 187.507172,52.491280 
	C196.143387,52.491280 204.881256,52.491280 214.193939,52.491280 
	C214.193939,62.902538 214.017105,73.025490 214.231796,83.140137 
	C214.642548,102.492310 221.699432,119.096466 235.527145,132.705246 
	C237.890823,135.031494 240.367645,137.430115 243.222977,139.023209 
	C246.987991,141.123840 247.433304,143.859222 246.804779,147.681549 
	C236.143219,212.517563 225.563126,277.366974 214.484848,342.664948 
	C206.451599,347.510773 198.997940,352.088043 191.322708,356.257477 
	C179.140579,362.875244 166.979065,369.572113 154.486588,375.563629 
	C145.402557,379.920410 135.798447,383.192780 126.426224,386.948639 
z"/>
<path fill="#B450F4" opacity="1.000000" stroke="none" 
	d="
M377.003052,188.001129 
	C377.983429,203.453323 379.079468,218.899200 379.924072,234.358810 
	C383.577789,301.236389 387.173523,368.117188 390.754272,434.998749 
	C391.688507,452.449188 392.492859,469.906616 393.397705,488.185364 
	C370.308350,490.496704 347.547180,492.775208 323.922699,495.140137 
	C312.637909,425.876770 301.385223,356.810394 290.417969,287.053680 
	C291.454224,284.088715 291.575623,281.235138 293.053131,279.628906 
	C308.015015,263.363251 323.502319,247.572525 338.211365,231.085739 
	C347.788147,220.351471 356.339996,208.701187 365.316040,197.433380 
	C368.546234,193.378464 371.674072,189.242004 374.981964,184.970551 
	C375.924927,186.384460 376.463989,187.192795 377.003052,188.001129 
z"/>
<path fill="#B869ED" opacity="1.000000" stroke="none" 
	d="
M377.094727,187.541870 
	C376.463989,187.192795 375.924927,186.384460 374.981964,184.970551 
	C371.674072,189.242004 368.546234,193.378464 365.316040,197.433380 
	C356.339996,208.701187 347.788147,220.351471 338.211365,231.085739 
	C323.502319,247.572525 308.015015,263.363251 293.053131,279.628906 
	C291.575623,281.235138 291.454224,284.088715 290.483307,286.654785 
	C287.865387,272.869629 285.388153,258.806000 283.085541,244.713867 
	C277.532990,210.732117 272.052246,176.738602 266.577637,142.744186 
	C266.155731,140.124222 265.776978,137.460480 265.770599,134.816132 
	C265.707489,108.667175 265.724121,82.518028 265.734436,56.368931 
	C265.734894,55.217434 265.892334,54.065998 266.003082,52.553425 
	C286.185211,52.553425 306.249664,52.553425 325.711884,52.553425 
	C329.488739,61.099655 332.612152,69.699455 336.947449,77.637367 
	C344.461090,91.394653 355.619080,101.798737 369.403717,109.244995 
	C372.219818,110.766197 373.424530,112.480247 373.573761,115.739090 
	C374.662964,139.525528 375.957031,163.302597 377.094727,187.541870 
z"/>
<path fill="#B450F4" opacity="1.000000" stroke="none" 
	d="
M126.311554,387.241028 
	C135.798447,383.192780 145.402557,379.920410 154.486588,375.563629 
	C166.979065,369.572113 179.140579,362.875244 191.322708,356.257477 
	C198.997940,352.088043 206.451599,347.510773 214.340912,343.067719 
	C211.060608,365.678223 207.466171,388.341034 203.821793,410.995819 
	C199.514938,437.768738 195.169113,464.535339 190.819183,491.301300 
	C190.635513,492.431458 190.239685,493.527130 189.796432,495.186340 
	C166.965759,492.916382 144.183334,490.651215 120.876457,488.333893 
	C122.486855,458.557678 124.076523,429.164642 126.105331,399.111572 
	C126.462669,395.646667 126.380867,392.841766 126.299072,390.036865 
	C126.265007,389.202393 126.230942,388.367920 126.311554,387.241028 
z"/>
<path fill="#B66AE9" opacity="1.000000" stroke="none" 
	d="
M327.000000,35.043217 
	C306.398315,35.043221 286.296631,35.043221 265.949371,35.043221 
	C265.949371,29.238045 265.949371,23.975878 265.949371,18.368103 
	C299.788483,18.368103 333.510620,18.368103 367.874573,18.368103 
	C368.310974,23.645866 368.755066,29.016380 369.253418,35.043213 
	C355.030853,35.043213 341.265411,35.043213 327.000000,35.043217 
z"/>
<path fill="#B66AE8" opacity="1.000000" stroke="none" 
	d="
M213.559662,18.504631 
	C213.916382,23.962729 213.916382,29.103561 213.916382,34.651810 
	C191.118179,34.651810 168.291977,34.651810 144.834320,34.651810 
	C145.251190,29.223770 145.662231,23.871773 146.098801,18.187370 
	C168.731934,18.187370 190.967422,18.187370 213.559662,18.504631 
z"/>
<path fill="#B368E5" opacity="1.000000" stroke="none" 
	d="
M231.448090,55.546658 
	C232.455215,54.126156 233.396896,52.402142 234.461731,52.322376 
	C238.742859,52.001682 243.062088,52.189671 247.848053,52.189671 
	C247.848053,74.806252 247.848053,97.130508 247.848053,119.454758 
	C247.475586,119.887497 247.103104,120.320236 246.730637,120.752975 
	C245.672134,119.177811 244.728699,117.509140 243.536682,116.042496 
	C235.102173,105.664780 231.381210,93.711075 231.432404,80.452156 
	C231.463882,72.301193 231.438889,64.150002 231.448090,55.546658 
z"/>
<path fill="#B168E3" opacity="1.000000" stroke="none" 
	d="
M143.540924,57.597786 
	C143.749954,55.675106 143.918900,54.202362 144.119308,52.455364 
	C152.332306,52.455364 160.405762,52.455364 169.250259,52.455364 
	C164.726822,68.290337 155.989944,80.620827 141.864426,90.876656 
	C142.452194,79.084854 142.976517,68.566292 143.540924,57.597786 
z"/>
<path fill="#B168E3" opacity="1.000000" stroke="none" 
	d="
M371.382996,77.524094 
	C371.654938,81.802406 371.889221,85.616951 372.129578,89.530609 
	C362.159088,86.698891 346.386902,64.772308 345.337219,52.451660 
	C353.428772,52.451660 361.502899,52.451660 370.066071,52.451660 
	C370.501648,60.831062 370.923492,68.945702 371.382996,77.524094 
z"/>
<path fill="#B168E2" opacity="1.000000" stroke="none" 
	d="
M236.251282,18.023613 
	C240.339294,18.026350 243.959518,18.026350 247.948029,18.026350 
	C247.948029,23.751652 247.948029,29.106989 247.948029,34.772232 
	C242.630981,34.772232 237.390686,34.772232 231.476715,34.772232 
	C231.476715,29.997169 231.245483,25.221237 231.671707,20.504721 
	C231.757034,19.560617 234.347885,18.842947 236.251282,18.023613 
z"/>
<path fill="#B869ED" opacity="1.000000" stroke="none" 
	d="
M126.184570,390.473083 
	C126.380867,392.841766 126.462669,395.646667 126.258621,398.717468 
	C126.005196,396.292053 126.037636,393.600677 126.184570,390.473083 
z"/>
</svg>
