<svg version="1.1" id="Layer_1" xmlns="http://www.w3.org/2000/svg" xmlns:xlink="http://www.w3.org/1999/xlink" x="0px" y="0px"
	 width="100%" viewBox="0 0 512 512" xml:space="preserve">

<path fill="#040206" opacity="1.000000" stroke="none" 
	d="
M112.468658,513.000000 
	C105.175560,509.767578 103.004135,504.340668 103.020386,496.906311 
	C103.185387,421.419495 103.084000,345.932098 103.199043,270.445099 
	C103.204826,266.648712 102.154732,264.648438 98.751709,262.742493 
	C75.836082,249.908310 53.080597,236.788071 30.277208,223.753555 
	C21.229677,218.581955 19.419744,212.792160 24.064949,203.408310 
	C46.393856,158.301315 68.677101,113.171188 91.246689,68.184799 
	C93.153122,64.384842 96.524902,60.762856 100.113647,58.452930 
	C126.961700,41.171986 153.991150,24.170603 181.089340,7.283122 
	C184.959274,4.871393 189.504745,3.543639 193.868774,1.357104 
	C197.361282,1.000000 200.722580,1.000000 204.714874,1.334410 
	C209.496201,3.302769 213.789642,4.647629 217.772537,6.619705 
	C237.073715,16.176413 257.185455,21.838789 278.469421,15.548473 
	C290.679657,11.939829 302.180054,5.929254 314.000000,0.999999 
	C314.750000,1.000000 315.500000,1.000000 316.625000,1.000000 
	C340.179474,6.696302 357.110809,23.520309 377.089630,34.908028 
	C389.501312,41.982552 401.443390,49.935051 413.218201,58.042477 
	C417.140869,60.743393 420.899414,64.641403 423.019165,68.854462 
	C445.415985,113.368668 467.475189,158.052811 489.605164,202.701172 
	C494.698730,212.977676 493.052002,218.404739 483.087189,224.111526 
	C460.298370,237.162552 437.510010,250.215027 414.642609,263.127258 
	C411.851044,264.703522 410.788239,266.369385 410.800140,269.675354 
	C410.941101,308.833740 410.896942,347.992798 410.889069,387.151703 
	C410.887726,393.799500 409.551178,395.704590 403.131348,397.418823 
	C398.285706,396.620026 395.959747,394.165833 395.774933,389.910553 
	C395.666565,387.415985 395.743134,384.913208 395.742493,382.414124 
	C395.724365,312.923126 395.721283,243.432098 395.656525,173.941132 
	C395.652344,169.455078 396.438080,165.636948 401.297211,163.776489 
	C401.518005,163.817398 401.884979,163.558609 402.237183,163.608643 
	C403.052246,163.579178 403.515076,163.499695 404.314117,163.602829 
	C409.866547,165.141235 410.943817,169.027252 410.933228,173.751480 
	C410.882446,196.381332 410.897888,219.011322 410.889954,241.641266 
	C410.889343,243.378616 410.889893,245.115982 410.889893,247.925140 
	C433.281433,235.121964 454.698883,222.875748 476.423065,210.454147 
	C475.465942,208.452469 474.709106,206.819855 473.910858,205.207748 
	C462.921204,183.013275 451.960083,160.804596 440.921692,138.634384 
	C431.151825,119.012016 421.294342,99.433266 411.379822,79.479774 
	C409.667847,73.869049 405.758789,70.834915 401.263550,68.056862 
	C388.944946,60.443947 376.792297,52.562428 364.575134,44.785408 
	C358.594330,40.978230 352.616058,37.167019 346.382294,33.195591 
	C345.482880,35.695709 344.799927,37.562656 344.138519,39.437210 
	C325.500153,92.260864 264.472717,116.533691 214.676941,90.927155 
	C207.475815,87.224113 206.433228,85.017288 208.850586,77.838852 
	C212.469986,74.324860 216.036545,74.448784 220.027786,76.602776 
	C235.629837,85.022873 252.163742,87.513359 269.753998,85.091965 
	C297.618927,81.256233 325.933746,55.626160 331.715546,28.227478 
	C332.022156,26.774740 331.992523,24.434645 331.118225,23.701372 
	C328.438934,21.454292 325.271454,19.789274 322.010498,17.717936 
	C314.073425,55.960068 285.908356,71.955353 262.235168,73.802254 
	C248.795410,74.850784 236.076767,72.125175 224.393021,65.222511 
	C206.622528,54.723831 196.390610,38.883347 192.228882,18.273075 
	C189.935516,19.616228 188.318054,20.738287 186.559708,21.558239 
	C182.447632,23.475782 180.673111,26.237148 182.915131,30.635445 
	C187.270615,39.179836 191.198730,47.988117 196.192184,56.143162 
	C198.980103,60.696217 200.136795,64.389427 196.538452,68.922592 
	C191.668900,71.612648 188.007416,70.438576 184.874420,66.516266 
	C177.867599,57.744148 172.654541,48.012253 169.060837,37.390793 
	C168.666962,36.226658 168.129059,35.111256 167.486771,33.559666 
	C160.717514,37.987534 154.356171,42.148579 147.673889,46.373863 
	C135.190994,54.096336 123.091820,61.857273 110.830139,69.352364 
	C106.979645,71.706017 104.087013,74.520912 102.558212,79.077179 
	C101.657906,80.620789 101.125221,82.020401 100.463371,83.356026 
	C83.107101,118.381180 65.732841,153.397415 48.373863,188.421219 
	C44.781261,195.669739 41.236870,202.942154 37.553101,210.442062 
	C59.455086,222.942902 80.892052,235.178299 103.115967,247.862869 
	C103.115967,245.026123 103.116325,243.243988 103.115913,241.461853 
	C103.110695,218.973297 103.169357,196.484390 103.052612,173.996414 
	C103.025322,168.739914 104.503006,164.857758 110.389381,163.533234 
	C117.058434,165.051285 118.289345,166.829163 118.288628,174.394913 
	C118.278671,280.160431 118.272064,385.925934 118.264648,491.691437 
	C118.264519,493.619995 118.264641,495.548584 118.264641,497.578217 
	C211.087067,497.578217 303.106750,497.578217 395.338226,497.578217 
	C395.338226,481.820557 395.338226,466.397461 395.493927,450.532532 
	C395.651825,439.690155 395.654022,429.289612 395.767944,418.702942 
	C395.879669,418.516846 395.771515,418.096466 395.934387,417.774475 
	C398.428772,415.768097 400.760315,414.083740 403.091858,412.399353 
	C409.388458,414.163940 410.885529,416.053741 410.890198,422.578888 
	C410.908356,447.976257 410.875153,473.373688 410.903839,498.771027 
	C410.911041,505.167419 408.734680,510.088440 402.158630,512.692261 
	C305.645782,513.000000 209.291550,513.000000 112.468658,513.000000 
M299.257965,35.694538 
	C301.361725,31.236479 303.465454,26.778419 305.569214,22.320362 
	C305.140594,22.049726 304.711975,21.779091 304.283356,21.508455 
	C289.320496,29.701305 273.422180,33.836510 256.346252,32.998699 
	C239.376678,32.166111 223.753723,26.564699 208.134109,18.714405 
	C208.554047,20.791361 208.728607,21.921261 209.019714,23.020285 
	C209.316956,24.142473 209.659958,25.262554 210.100449,26.335293 
	C217.867722,45.250797 231.926834,56.494934 252.190323,58.530464 
	C271.845337,60.504871 287.525696,52.554417 299.257965,35.694538 
z"/>
<path fill="#F4F4F4" opacity="1.000000" stroke="none" 
	d="
M313.531342,0.999999 
	C302.180054,5.929254 290.679657,11.939829 278.469421,15.548473 
	C257.185455,21.838789 237.073715,16.176413 217.772537,6.619705 
	C213.789642,4.647629 209.496201,3.302769 205.172943,1.334410 
	C241.020889,1.000000 277.041779,1.000000 313.531342,0.999999 
z"/>
<path fill="#C268FA" opacity="1.000000" stroke="none" 
	d="
M401.076416,163.735596 
	C396.438080,165.636948 395.652344,169.455078 395.656525,173.941132 
	C395.721283,243.432098 395.724365,312.923126 395.742493,382.414124 
	C395.743134,384.913208 395.666565,387.415985 395.774933,389.910553 
	C395.959747,394.165833 398.285706,396.620026 402.785645,397.593262 
	C403.137024,402.359863 403.127563,406.955627 403.105011,411.975403 
	C400.760315,414.083740 398.428772,415.768097 395.801239,417.830750 
	C395.505249,418.209045 395.380920,418.586792 395.380920,418.586792 
	C395.380920,418.586792 395.656219,418.889038 395.656219,418.889038 
	C395.654022,429.289612 395.651825,439.690155 395.070923,450.534790 
	C365.598724,450.239929 336.535309,453.441895 307.845764,448.763855 
	C293.575531,446.436951 279.401642,442.462585 265.760498,437.612518 
	C250.114960,432.049774 235.899353,423.376099 222.813339,412.960510 
	C211.609238,404.042847 201.243835,394.358887 192.389191,383.051941 
	C183.025040,371.094330 175.407333,358.129059 169.147385,344.329315 
	C159.925186,323.999390 154.634567,302.602417 154.119659,280.370453 
	C152.686951,218.511581 156.305023,156.591614 152.008209,94.758377 
	C151.273453,84.184975 150.729614,73.597549 149.911850,63.030975 
	C149.479263,57.441216 148.646790,51.882404 147.994827,46.309624 
	C154.356171,42.148579 160.717514,37.987534 167.486771,33.559666 
	C168.129059,35.111256 168.666962,36.226658 169.060837,37.390793 
	C172.654541,48.012253 177.867599,57.744148 184.874420,66.516266 
	C188.007416,70.438576 191.668900,71.612648 196.819748,69.124573 
	C201.148819,72.153877 204.861679,75.082054 208.574539,78.010231 
	C206.433228,85.017288 207.475815,87.224113 214.676941,90.927155 
	C264.472717,116.533691 325.500153,92.260864 344.138519,39.437210 
	C344.799927,37.562656 345.482880,35.695709 346.382294,33.195591 
	C352.616058,37.167019 358.594330,40.978230 364.575134,44.785408 
	C376.792297,52.562428 388.944946,60.443947 401.263550,68.056862 
	C405.758789,70.834915 409.667847,73.869049 411.009949,79.724640 
	C410.490967,82.101639 410.145325,83.871086 410.017853,85.656120 
	C409.286072,95.904366 408.693542,106.163185 407.888184,116.405396 
	C406.655457,132.082565 405.288116,147.749130 403.977936,163.420212 
	C403.515076,163.499695 403.052246,163.579178 402.144531,163.500626 
	C401.377594,163.272018 401.169861,163.403015 401.076416,163.735596 
z"/>
<path fill="#B450F4" opacity="1.000000" stroke="none" 
	d="
M147.673889,46.373863 
	C148.646790,51.882404 149.479263,57.441216 149.911850,63.030975 
	C150.729614,73.597549 151.273453,84.184975 152.008209,94.758377 
	C156.305023,156.591614 152.686951,218.511581 154.119659,280.370453 
	C154.634567,302.602417 159.925186,323.999390 169.147385,344.329315 
	C175.407333,358.129059 183.025040,371.094330 192.389191,383.051941 
	C201.243835,394.358887 211.609238,404.042847 222.813339,412.960510 
	C235.899353,423.376099 250.114960,432.049774 265.760498,437.612518 
	C279.401642,442.462585 293.575531,446.436951 307.845764,448.763855 
	C336.535309,453.441895 365.598724,450.239929 394.915222,450.976624 
	C395.338226,466.397461 395.338226,481.820557 395.338226,497.578217 
	C303.106750,497.578217 211.087067,497.578217 118.264641,497.578217 
	C118.264641,495.548584 118.264519,493.619995 118.264648,491.691437 
	C118.272064,385.925934 118.278671,280.160431 118.288628,174.394913 
	C118.289345,166.829163 117.058434,165.051285 110.380310,163.123291 
	C108.992561,150.423096 107.915436,138.248749 107.029167,126.060547 
	C106.225731,115.011490 105.746422,103.938286 104.888405,92.894051 
	C104.524223,88.206398 103.558167,83.565506 102.865646,78.903358 
	C104.087013,74.520912 106.979645,71.706017 110.830139,69.352364 
	C123.091820,61.857273 135.190994,54.096336 147.673889,46.373863 
z"/>
<path fill="#C36BFC" opacity="1.000000" stroke="none" 
	d="
M102.558212,79.077179 
	C103.558167,83.565506 104.524223,88.206398 104.888405,92.894051 
	C105.746422,103.938286 106.225731,115.011490 107.029167,126.060547 
	C107.915436,138.248749 108.992561,150.423096 109.995621,163.013397 
	C104.503006,164.857758 103.025322,168.739914 103.052612,173.996414 
	C103.169357,196.484390 103.110695,218.973297 103.115913,241.461853 
	C103.116325,243.243988 103.115967,245.026123 103.115967,247.862869 
	C80.892052,235.178299 59.455086,222.942902 37.553101,210.442062 
	C41.236870,202.942154 44.781261,195.669739 48.373863,188.421219 
	C65.732841,153.397415 83.107101,118.381180 100.463371,83.356026 
	C101.125221,82.020401 101.657906,80.620789 102.558212,79.077179 
z"/>
<path fill="#B350F3" opacity="1.000000" stroke="none" 
	d="
M404.314117,163.602829 
	C405.288116,147.749130 406.655457,132.082565 407.888184,116.405396 
	C408.693542,106.163185 409.286072,95.904366 410.017853,85.656120 
	C410.145325,83.871086 410.490967,82.101639 411.105713,80.080124 
	C421.294342,99.433266 431.151825,119.012016 440.921692,138.634384 
	C451.960083,160.804596 462.921204,183.013275 473.910858,205.207748 
	C474.709106,206.819855 475.465942,208.452469 476.423065,210.454147 
	C454.698883,222.875748 433.281433,235.121964 410.889893,247.925140 
	C410.889893,245.115982 410.889343,243.378616 410.889954,241.641266 
	C410.897888,219.011322 410.882446,196.381332 410.933228,173.751480 
	C410.943817,169.027252 409.866547,165.141235 404.314117,163.602829 
z"/>
<path fill="#7836A4" opacity="1.000000" stroke="none" 
	d="
M208.850586,77.838852 
	C204.861679,75.082054 201.148819,72.153877 197.154663,69.023720 
	C200.136795,64.389427 198.980103,60.696217 196.192184,56.143162 
	C191.198730,47.988117 187.270615,39.179836 182.915131,30.635445 
	C180.673111,26.237148 182.447632,23.475782 186.559708,21.558239 
	C188.318054,20.738287 189.935516,19.616228 192.228882,18.273075 
	C196.390610,38.883347 206.622528,54.723831 224.393021,65.222511 
	C236.076767,72.125175 248.795410,74.850784 262.235168,73.802254 
	C285.908356,71.955353 314.073425,55.960068 322.010498,17.717936 
	C325.271454,19.789274 328.438934,21.454292 331.118225,23.701372 
	C331.992523,24.434645 332.022156,26.774740 331.715546,28.227478 
	C325.933746,55.626160 297.618927,81.256233 269.753998,85.091965 
	C252.163742,87.513359 235.629837,85.022873 220.027786,76.602776 
	C216.036545,74.448784 212.469986,74.324860 208.850586,77.838852 
z"/>
<path fill="#C06BF7" opacity="1.000000" stroke="none" 
	d="
M299.079590,36.009308 
	C287.525696,52.554417 271.845337,60.504871 252.190323,58.530464 
	C231.926834,56.494934 217.867722,45.250797 210.100449,26.335293 
	C209.659958,25.262554 209.316956,24.142473 209.019714,23.020285 
	C208.728607,21.921261 208.554047,20.791361 208.134109,18.714405 
	C223.753723,26.564699 239.376678,32.166111 256.346252,32.998699 
	C273.422180,33.836510 289.320496,29.701305 304.283356,21.508455 
	C304.711975,21.779091 305.140594,22.049726 305.569214,22.320362 
	C303.465454,26.778419 301.361725,31.236479 299.079590,36.009308 
z"/>
<path fill="#B350F3" opacity="1.000000" stroke="none" 
	d="
M401.297211,163.776489 
	C401.169861,163.403015 401.377594,163.272018 401.792328,163.450592 
	C401.884979,163.558609 401.518005,163.817398 401.297211,163.776489 
z"/>
<path fill="#B450F4" opacity="1.000000" stroke="none" 
	d="
M395.767944,418.702942 
	C395.656219,418.889038 395.380920,418.586792 395.380920,418.586792 
	C395.380920,418.586792 395.505249,418.209045 395.638367,418.152771 
	C395.771515,418.096466 395.879669,418.516846 395.767944,418.702942 
z"/>
</svg>
