<svg version="1.1" id="Layer_1" xmlns="http://www.w3.org/2000/svg" xmlns:xlink="http://www.w3.org/1999/xlink" x="0px" y="0px"
	 width="100%" viewBox="0 0 512 512" xml:space="preserve">
<path fill="#050307" opacity="1.000000" stroke="none" 
	d="
M1.000001,228.468658 
	C1.379222,227.519119 1.901126,227.094589 2.116631,226.549042 
	C6.583571,215.240555 15.090281,210.252487 27.019466,210.296997 
	C47.010498,210.371613 67.002014,210.317383 87.419891,210.317383 
	C89.732391,194.000427 104.243073,186.772079 113.955765,174.443161 
	C110.615425,171.439148 107.067329,168.437469 103.739120,165.209106 
	C99.194237,160.800568 98.680069,156.527496 102.019196,153.079147 
	C105.377968,149.610519 109.744827,150.097763 114.165665,154.457870 
	C117.249420,157.499298 120.307571,160.566681 123.392563,163.606842 
	C123.617050,163.828064 123.967102,163.921875 123.854507,163.862793 
	C132.885544,154.890564 141.814835,146.019409 150.934647,136.958969 
	C147.994858,132.851212 144.742722,128.434494 141.630188,123.921494 
	C138.612518,119.546059 139.121063,115.017342 142.753418,112.450943 
	C146.481537,109.816887 150.544952,110.792213 153.886917,115.258865 
	C156.654739,118.958168 159.301346,122.748184 161.949112,126.425056 
	C168.483414,119.883781 174.705368,113.655205 181.984924,106.367889 
	C178.574814,103.306160 174.805450,100.139969 171.292404,96.711174 
	C167.127182,92.645851 166.821838,88.242630 170.163834,84.941521 
	C173.491776,81.654289 177.802521,82.027710 181.951050,86.227631 
	C185.331726,89.650177 188.492462,93.289963 191.696503,96.774475 
	C200.591034,87.835960 208.797836,79.588562 217.247894,71.096703 
	C213.595703,68.468750 209.803055,65.807449 206.084503,63.046391 
	C201.714859,59.801910 200.736252,55.558323 203.403503,51.889915 
	C206.044754,48.257267 210.374771,47.842064 214.864807,50.929924 
	C219.371826,54.029472 223.799973,57.243679 228.065399,60.267754 
	C235.270081,53.108395 242.221130,46.201073 250.064468,38.407085 
	C246.563171,35.267620 242.883774,32.169994 239.440186,28.829306 
	C235.206558,24.722166 234.803024,20.438379 238.040176,17.061989 
	C241.264038,13.699466 245.683273,14.047813 249.834686,18.058825 
	C253.187927,21.298687 256.483765,24.597973 259.813019,27.862762 
	C259.922119,27.969715 260.118500,27.987627 261.006897,28.326611 
	C265.985840,23.237593 271.127563,17.845798 276.416504,12.602522 
	C290.815338,-1.671986 309.358887,-1.669644 323.771088,12.560322 
	C328.984863,17.708174 334.143341,22.912008 340.514099,29.276066 
	C343.823242,25.487352 346.927429,21.640432 350.345612,18.096355 
	C354.312134,13.983710 358.924011,13.704170 362.121674,17.022837 
	C365.203888,20.221687 364.925262,24.643324 361.022156,28.453438 
	C357.469269,31.921648 353.616791,35.082890 349.916321,38.361767 
	C358.481842,46.852482 366.041016,54.345634 374.693604,62.922634 
	C377.778107,59.444103 380.923126,55.628120 384.358093,52.093929 
	C388.343201,47.993717 392.920990,47.721436 396.143921,51.056774 
	C399.227936,54.248379 398.893127,58.613411 395.029327,62.494850 
	C391.630920,65.908714 388.041504,69.132439 384.891235,72.105255 
	C393.660767,80.816025 401.963684,89.063309 410.366058,97.409378 
	C412.567932,94.339699 415.226532,90.528503 417.996094,86.799728 
	C421.159485,82.540741 425.622040,81.486259 429.180420,84.037788 
	C432.822418,86.649284 433.246002,91.017227 430.181335,95.480942 
	C427.081726,99.995590 423.892059,104.448380 420.967712,108.607086 
	C428.107422,115.697029 435.041534,122.582832 443.098846,130.583969 
	C445.828735,127.478668 448.950470,123.647491 452.373383,120.107529 
	C456.335846,116.009567 460.951996,115.738144 464.162781,119.068611 
	C467.256958,122.278122 466.921295,126.620064 463.057739,130.508301 
	C459.661530,133.926239 456.088348,137.168304 452.962891,140.137039 
	C462.284119,149.426514 471.183167,158.295273 480.454407,167.534943 
	C484.011719,164.996307 488.421814,161.787018 492.897675,158.672195 
	C497.487854,155.477768 501.657074,155.777954 504.388214,159.381943 
	C507.280945,163.199173 506.307007,167.337204 501.617340,170.897171 
	C499.762787,172.305038 497.825775,173.603973 495.934784,174.964355 
	C494.205658,176.208328 492.487976,177.468323 490.505402,178.910248 
	C498.447357,188.589066 510.137634,195.226608 512.651367,208.852051 
	C513.000000,213.024551 513.000000,217.049088 512.652466,221.659607 
	C508.521912,236.723648 495.333344,243.887085 486.367767,255.219604 
	C489.985291,258.619751 493.589905,261.833710 496.991394,265.249878 
	C501.015289,269.291199 501.264069,273.863342 497.868134,277.043274 
	C494.599121,280.104309 490.322906,279.776917 486.457581,275.812531 
	C482.996124,272.262421 479.816956,268.437103 476.732727,264.979309 
	C466.891266,274.752411 458.036804,283.545380 448.988129,292.531189 
	C451.524353,296.086578 454.110504,299.720673 456.705719,303.348206 
	C461.537689,310.102112 461.777130,314.095703 457.530396,317.251862 
	C453.253967,320.430145 449.411316,318.940338 444.614014,312.295898 
	C442.438446,309.282684 440.203217,306.312500 438.183685,303.578217 
	C431.450684,310.193359 425.160950,316.372925 418.092163,323.317963 
	C421.648956,326.549500 425.320740,329.679932 428.751678,333.055206 
	C432.961548,337.196777 433.335419,341.510468 430.067322,344.837402 
	C426.783752,348.180054 422.349823,347.890503 418.308167,343.704102 
	C414.893555,340.167175 411.790985,336.329010 408.911041,333.036560 
	C398.866425,342.987671 390.002319,351.769196 381.037445,360.650604 
	C384.141754,365.009186 387.386627,369.432037 390.486115,373.954559 
	C393.551331,378.427032 393.061768,382.779572 389.374359,385.390564 
	C385.631470,388.040833 381.607666,387.090240 378.243469,382.599762 
	C375.482361,378.914337 372.865448,375.120911 370.380798,371.649475 
	C363.750153,378.297333 357.448456,384.615356 350.502441,391.579376 
	C353.887451,394.716675 357.645416,398.002686 361.171600,401.521057 
	C364.980438,405.321533 365.175079,409.770660 361.959503,412.941803 
	C358.746399,416.110474 354.386749,415.873138 350.544830,411.983368 
	C347.051605,408.446564 343.828491,404.642975 340.204346,400.646057 
	C333.998596,406.911804 328.939850,412.709808 323.143616,417.641022 
	C318.930603,421.225220 314.044586,424.527924 308.890076,426.327789 
	C305.056519,427.666382 304.605072,429.311157 304.620728,432.583313 
	C304.709930,451.248260 304.641571,469.913849 304.667999,488.579193 
	C304.682739,498.986023 300.492645,506.879700 291.106354,511.779327 
	C290.649658,512.017761 290.364838,512.585571 290.000000,513.000000 
	C198.979111,513.000000 107.958206,513.000000 16.395544,512.656128 
	C8.285126,509.747223 4.904207,503.119812 1.000000,497.000000 
	C1.000000,407.645782 1.000000,318.291534 1.000001,228.468658 
M321.707001,397.982147 
	C324.310974,395.750854 326.914978,393.519562 329.791473,391.054749 
	C326.275482,387.805267 323.644135,385.373352 320.760132,382.320099 
	C313.090607,374.443573 313.148315,370.693848 321.775421,366.125244 
	C324.261597,367.247040 327.179871,367.876678 329.140045,369.597595 
	C332.727051,372.746887 335.747833,376.541077 338.939331,379.995514 
	C346.564209,372.253632 353.524109,365.186920 360.624573,357.977478 
	C357.527039,353.629761 354.142914,349.091400 350.992188,344.396393 
	C348.000336,339.938141 349.132751,335.008667 353.474548,332.978027 
	C357.659851,331.020630 360.870209,332.545441 363.425018,336.039368 
	C366.215424,339.855408 369.001526,343.674652 371.271545,346.783234 
	C379.931091,338.281128 388.178833,330.183350 396.703705,321.813446 
	C393.254608,318.474701 389.577301,315.086670 386.101501,311.503204 
	C382.469543,307.758698 382.305481,303.639801 385.391693,300.408264 
	C388.532227,297.119873 393.035339,297.300964 396.818268,301.144745 
	C400.303589,304.686157 403.558502,308.454285 406.773041,311.967468 
	C414.537811,304.224518 421.564575,297.217468 428.719299,290.082825 
	C425.774841,285.949463 422.650757,281.635193 419.603577,277.267273 
	C416.228790,272.429871 416.543854,268.134155 420.382507,265.431763 
	C424.243958,262.713409 428.363708,263.789520 431.879517,268.553436 
	C434.510254,272.118011 437.027924,275.766022 439.773285,279.626221 
	C441.201965,278.342621 442.201080,277.507812 443.129730,276.600830 
	C450.500763,269.401794 457.858337,262.188965 465.773651,254.438370 
	C461.824860,250.759949 458.330078,247.668518 455.025208,244.385895 
	C450.504425,239.895477 450.076385,235.633514 453.586243,232.247131 
	C456.978485,228.974228 461.077606,229.364105 465.359497,233.654266 
	C468.723450,237.024750 471.856049,240.626114 475.106934,244.141693 
	C482.009521,237.357773 488.310760,231.654556 494.021088,225.410904 
	C499.407349,219.521576 499.563446,210.713959 494.337036,204.813995 
	C489.171814,198.983139 483.315887,193.764221 477.621979,188.137573 
	C473.229340,191.223831 468.912720,194.304657 464.545654,197.312271 
	C459.576752,200.734390 455.528198,200.441162 452.742920,196.544693 
	C449.991730,192.695938 451.086945,188.544769 455.839264,185.078110 
	C459.394440,182.484787 463.000061,179.960648 466.171265,177.699448 
	C457.528992,168.996857 449.379639,160.790604 441.018921,152.371536 
	C437.693237,155.767487 434.266449,159.407715 430.683228,162.886765 
	C426.954315,166.507248 422.815338,166.694275 419.616577,163.600601 
	C416.359650,160.450668 416.339813,156.278198 419.955933,152.560211 
	C423.545532,148.869507 427.434540,145.470001 430.854919,142.259399 
	C423.893524,135.370102 417.460602,129.003784 410.968750,122.579185 
	C408.608337,125.841606 406.028259,129.518784 403.330719,133.107651 
	C400.041534,137.483612 395.813293,138.520966 392.170715,135.972656 
	C388.402283,133.336304 387.940674,129.138412 391.050537,124.576332 
	C393.582245,120.862381 396.380066,117.322311 398.762238,113.518723 
	C399.434509,112.445320 399.726349,110.074486 399.063141,109.384834 
	C390.795258,100.786964 382.319031,92.389458 373.507416,83.550430 
	C369.599518,87.644829 366.237457,91.346336 362.677948,94.847084 
	C359.019836,98.444778 354.688812,98.636833 351.576782,95.599297 
	C348.352875,92.452553 348.332886,88.252281 351.944305,84.549644 
	C355.537842,80.865395 359.452667,77.494576 362.846252,74.339905 
	C354.509918,66.109535 346.764557,58.462639 338.602570,50.404434 
	C335.880157,53.294502 332.860504,56.629429 329.699738,59.824772 
	C325.158539,64.415619 321.031250,64.944031 317.535706,61.545155 
	C314.017548,58.124294 314.479034,53.854355 318.993134,49.410320 
	C322.303284,46.151531 325.738953,43.020248 328.741302,40.188091 
	C322.122528,33.212063 316.324005,26.282894 309.652557,20.332424 
	C304.485077,15.723424 297.433197,15.182937 292.006226,19.404480 
	C284.505219,25.239401 278.010345,32.367786 270.504364,39.493023 
	C274.771606,43.471737 278.404694,46.664032 281.808624,50.084366 
	C285.709686,54.004227 285.917511,58.197605 282.660950,61.504082 
	C279.499146,64.714348 275.072968,64.479095 271.218719,60.586662 
	C267.723236,57.056553 264.479340,53.277393 261.194855,49.684944 
	C254.074783,56.723011 247.696747,63.027573 241.086060,69.562111 
	C245.072052,72.421501 249.025391,75.125137 252.830521,78.023338 
	C256.838409,81.075974 257.659698,85.442383 255.096115,88.906212 
	C252.461975,92.465439 248.217316,92.998810 244.038254,90.165100 
	C240.593338,87.829216 237.009338,85.619537 233.908951,82.876900 
	C230.860397,80.180145 228.996094,81.006012 226.535461,83.634903 
	C221.300812,89.227501 215.851303,94.627892 210.319763,99.929573 
	C207.857590,102.289444 204.983978,104.220009 201.968719,106.605209 
	C205.105606,109.547043 206.828369,111.116730 208.498016,112.741013 
	C210.289078,114.483406 212.066772,116.242447 213.785629,118.055542 
	C217.627060,122.107597 217.918884,126.190147 214.660995,129.501938 
	C211.475586,132.740005 207.097076,132.501465 203.200302,128.640533 
	C199.660736,125.133492 196.308868,121.436996 193.203201,118.170059 
	C185.631531,125.539162 178.491852,132.487839 171.268234,139.518204 
	C174.278030,143.746399 177.295929,147.927048 180.250732,152.151840 
	C183.914841,157.390808 183.665649,161.597656 179.596863,164.371674 
	C175.640961,167.068741 171.573669,165.785645 167.853714,160.656082 
	C165.422775,157.303970 163.003006,153.943756 160.893387,151.023468 
	C152.374573,159.301239 143.980484,167.457825 135.280167,175.911957 
	C138.536987,179.039062 142.123398,181.877380 144.903778,185.359344 
	C146.843216,187.788177 147.678192,191.098969 148.541809,194.516632 
	C144.665192,200.851166 140.167099,201.525055 134.894333,196.332153 
	C131.459946,192.949768 128.288605,189.300278 124.610870,185.353500 
	C117.332863,193.959610 108.284706,199.910690 102.466316,210.328552 
	C105.657211,210.328552 107.763748,210.328491 109.870277,210.328568 
	C164.854675,210.330475 219.839066,210.332123 274.823456,210.335464 
	C276.822632,210.335587 278.825348,210.278244 280.820435,210.373123 
	C294.950195,211.045074 304.328705,220.583664 304.689545,234.705276 
	C304.800171,239.034485 304.746552,243.369598 304.690125,247.700989 
	C304.608795,253.943634 303.108429,255.868088 296.385498,257.316284 
	C291.471710,256.709564 289.658875,253.400055 289.474274,248.989807 
	C289.279449,244.336029 289.471985,239.667343 289.357330,235.008560 
	C289.206635,228.886444 286.261261,225.766449 280.333344,225.319199 
	C278.842529,225.206726 277.338074,225.263199 275.839874,225.263260 
	C196.761765,225.266342 117.683655,225.269958 38.605549,225.287781 
	C36.781796,225.288193 34.958080,225.451401 32.248867,225.269150 
	C30.749613,225.253143 29.250288,225.218414 27.751118,225.224243 
	C18.994963,225.258194 16.110731,228.118301 16.007959,236.933105 
	C15.963285,240.764786 16.011065,244.597488 16.010670,248.429733 
	C16.002514,327.741302 15.990180,407.052887 15.988624,486.364471 
	C15.988423,496.563293 18.494019,499.001984 28.678141,499.000702 
	C110.155800,498.990387 191.633453,498.997040 273.111115,498.985687 
	C288.874756,498.983490 289.780029,498.006073 289.482758,481.359741 
	C289.530640,479.033295 289.620209,476.706848 289.620392,474.380402 
	C289.625458,411.336151 289.618805,348.291931 289.622223,285.247681 
	C289.622620,277.805023 290.686340,276.273438 297.763611,274.650940 
	C303.382660,276.372223 304.700806,278.272705 304.703644,284.998383 
	C304.720612,325.250549 304.716583,365.502686 304.719574,405.754852 
	C304.719696,407.657898 304.719543,409.560913 304.719543,411.696625 
	C310.326965,409.815948 314.638489,406.164520 321.707001,397.982147 
z"/>
<path fill="#F7F7F7" opacity="1.000000" stroke="none" 
	d="
M290.468658,513.000000 
	C290.364838,512.585571 290.649658,512.017761 291.106354,511.779327 
	C300.492645,506.879700 304.682739,498.986023 304.667999,488.579193 
	C304.641571,469.913849 304.709930,451.248260 304.620728,432.583313 
	C304.605072,429.311157 305.056519,427.666382 308.890076,426.327789 
	C314.044586,424.527924 318.930603,421.225220 323.143616,417.641022 
	C328.939850,412.709808 333.998596,406.911804 340.204346,400.646057 
	C343.828491,404.642975 347.051605,408.446564 350.544830,411.983368 
	C354.386749,415.873138 358.746399,416.110474 361.959503,412.941803 
	C365.175079,409.770660 364.980438,405.321533 361.171600,401.521057 
	C357.645416,398.002686 353.887451,394.716675 350.502441,391.579376 
	C357.448456,384.615356 363.750153,378.297333 370.380798,371.649475 
	C372.865448,375.120911 375.482361,378.914337 378.243469,382.599762 
	C381.607666,387.090240 385.631470,388.040833 389.374359,385.390564 
	C393.061768,382.779572 393.551331,378.427032 390.486115,373.954559 
	C387.386627,369.432037 384.141754,365.009186 381.037445,360.650604 
	C390.002319,351.769196 398.866425,342.987671 408.911041,333.036560 
	C411.790985,336.329010 414.893555,340.167175 418.308167,343.704102 
	C422.349823,347.890503 426.783752,348.180054 430.067322,344.837402 
	C433.335419,341.510468 432.961548,337.196777 428.751678,333.055206 
	C425.320740,329.679932 421.648956,326.549500 418.092163,323.317963 
	C425.160950,316.372925 431.450684,310.193359 438.183685,303.578217 
	C440.203217,306.312500 442.438446,309.282684 444.614014,312.295898 
	C449.411316,318.940338 453.253967,320.430145 457.530396,317.251862 
	C461.777130,314.095703 461.537689,310.102112 456.705719,303.348206 
	C454.110504,299.720673 451.524353,296.086578 448.988129,292.531189 
	C458.036804,283.545380 466.891266,274.752411 476.732727,264.979309 
	C479.816956,268.437103 482.996124,272.262421 486.457581,275.812531 
	C490.322906,279.776917 494.599121,280.104309 497.868134,277.043274 
	C501.264069,273.863342 501.015289,269.291199 496.991394,265.249878 
	C493.589905,261.833710 489.985291,258.619751 486.367767,255.219604 
	C495.333344,243.887085 508.521912,236.723648 512.652466,222.122772 
	C513.000000,318.917389 513.000000,415.834808 513.000000,513.000000 
	C438.979279,513.000000 364.958313,513.000000 290.468658,513.000000 
z"/>
<path fill="#F3F3F3" opacity="1.000000" stroke="none" 
	d="
M1.000000,497.471191 
	C4.904207,503.119812 8.285126,509.747223 15.926888,512.656128 
	C11.072527,513.000000 6.145053,513.000000 1.000000,513.000000 
	C1.000000,507.982178 1.000000,502.962311 1.000000,497.471191 
z"/>
<path fill="#931FE0" opacity="1.000000" stroke="none" 
	d="
M33.134346,225.538666 
	C34.958080,225.451401 36.781796,225.288193 38.605549,225.287781 
	C117.683655,225.269958 196.761765,225.266342 275.839874,225.263260 
	C277.338074,225.263199 278.842529,225.206726 280.333344,225.319199 
	C286.261261,225.766449 289.206635,228.886444 289.357330,235.008560 
	C289.471985,239.667343 289.279449,244.336029 289.474274,248.989807 
	C289.658875,253.400055 291.471710,256.709564 296.718140,257.900726 
	C297.059326,263.752289 297.067871,269.019440 297.076416,274.286560 
	C290.686340,276.273438 289.622620,277.805023 289.622223,285.247681 
	C289.618805,348.291931 289.625458,411.336151 289.620392,474.380402 
	C289.620209,476.706848 289.530640,479.033295 288.841095,481.710693 
	C217.914795,482.051453 147.630173,482.040009 77.345543,482.033112 
	C70.109047,482.032410 63.522564,479.996429 56.808838,475.790161 
	C59.703358,475.112946 61.846474,474.611511 64.359093,474.034729 
	C70.088448,472.473572 72.430809,469.768951 71.986732,465.578827 
	C71.543556,461.397247 68.354591,459.018066 63.055241,458.949066 
	C60.824692,458.920013 58.593449,458.944214 56.047714,458.944214 
	C56.047714,455.562744 56.152641,453.083374 56.025105,450.616058 
	C55.785473,445.980072 52.807236,442.984375 48.596138,442.969025 
	C44.396469,442.953735 41.360203,445.930054 41.065899,450.561554 
	C40.866638,453.697296 40.897919,456.847748 40.546852,459.805481 
	C35.202671,453.056854 33.021660,445.473541 33.006081,437.344513 
	C32.919910,392.384460 32.934364,347.424194 32.959240,302.463989 
	C32.973431,276.822174 33.073143,251.180435 33.134346,225.538666 
M41.018288,274.631775 
	C41.244843,275.224915 41.471394,275.818085 41.745556,276.752441 
	C41.745556,276.752441 41.970375,277.013519 42.002815,277.585022 
	C42.272293,277.836609 42.541767,278.088196 43.019581,278.855347 
	C43.594070,279.289032 44.168560,279.722687 44.996109,280.637329 
	C45.334419,280.711700 45.672729,280.786072 46.656998,281.104584 
	C53.111691,281.474701 55.765621,279.249634 56.051617,273.227997 
	C56.394577,266.006927 56.394596,266.007202 63.833172,265.461365 
	C64.164352,265.437103 64.495468,265.407440 64.825142,265.367981 
	C69.324982,264.829102 71.985992,262.104340 72.019775,258.003906 
	C72.052734,254.002823 69.285133,250.690948 64.866020,250.578674 
	C58.587360,250.419189 52.292316,250.904633 45.454163,251.067368 
	C45.197735,251.311401 44.941303,251.555435 44.303177,251.942978 
	C44.303177,251.942978 44.032291,252.247787 43.596096,252.282394 
	C43.298050,252.455841 43.197586,252.708054 42.987431,253.320282 
	C42.987431,253.320282 42.834469,253.707748 42.320213,253.951157 
	C42.212082,254.298752 42.103954,254.646362 41.784023,255.277451 
	C41.784023,255.277451 41.754890,255.630127 41.324394,255.966736 
	C41.295780,256.316132 41.267162,256.665527 41.072201,257.934692 
	C41.113125,263.286896 41.154053,268.639130 41.018288,274.631775 
M247.479218,265.658905 
	C248.095001,268.184814 248.966019,270.680267 249.272263,273.243164 
	C249.870422,278.249176 252.688049,281.477142 256.927856,281.518829 
	C261.166351,281.560486 264.402832,278.351654 264.623718,273.386780 
	C264.845001,268.411713 264.815826,263.413788 264.627930,258.436005 
	C264.484009,254.622406 262.724976,251.237259 258.696747,250.933655 
	C252.276306,250.449799 245.774704,250.492767 239.344299,250.898010 
	C235.527313,251.138580 233.486038,254.305054 233.492279,257.875214 
	C233.498856,261.627014 235.490952,264.598175 239.604980,265.207642 
	C241.890320,265.546173 244.237167,265.469482 247.479218,265.658905 
M249.484955,473.995239 
	C251.981201,473.978668 254.483444,474.066193 256.972382,473.922852 
	C261.481293,473.663208 264.185272,471.005463 264.498962,466.708405 
	C264.897705,461.246124 264.894073,455.715668 264.535187,450.249298 
	C264.255066,445.982941 261.772278,443.156952 257.146698,443.001282 
	C252.876312,442.857544 249.855835,445.699615 249.412445,450.459839 
	C249.170731,453.054871 249.369293,455.690948 249.369293,458.964325 
	C246.090820,458.964325 243.470825,458.832855 240.868927,458.993835 
	C236.511917,459.263397 233.549545,462.248993 233.433685,466.247101 
	C233.322037,470.099792 236.299606,473.443726 240.535049,473.863556 
	C243.174118,474.125214 245.854965,473.965759 249.484955,473.995239 
M252.345032,424.239288 
	C258.913055,427.327972 264.056030,424.968811 264.565155,418.227875 
	C264.975586,412.793488 264.950684,407.278564 264.532257,401.844513 
	C264.202881,397.566864 261.521973,394.876404 256.940613,394.914062 
	C252.356094,394.951752 249.755783,397.703857 249.451050,401.973511 
	C249.062958,407.411560 249.163864,412.909973 249.475922,418.358185 
	C249.580109,420.177032 250.981934,421.921539 252.345032,424.239288 
M264.596161,370.683258 
	C264.633240,365.522125 264.799896,360.357727 264.670929,355.200745 
	C264.541962,350.044495 261.685089,346.962585 257.309174,346.830780 
	C252.641296,346.690186 249.518570,349.786896 249.328278,355.095642 
	C249.161331,359.752991 249.181747,364.424255 249.322464,369.083282 
	C249.448471,373.255280 251.037125,376.725677 255.555298,377.563751 
	C260.312775,378.446228 263.087769,375.892700 264.596161,370.683258 
M264.708984,307.063324 
	C263.705444,300.988831 260.999115,298.287292 256.324066,298.693115 
	C251.923401,299.075134 249.391388,302.342255 249.297180,307.948822 
	C249.224564,312.269440 249.161621,316.596802 249.318741,320.912994 
	C249.510254,326.174042 252.683945,329.651123 256.997833,329.650818 
	C261.312927,329.650513 264.509186,326.153412 264.692047,320.914093 
	C264.842712,316.597534 264.718201,312.271423 264.708984,307.063324 
M89.152367,258.429169 
	C89.881470,263.127228 92.757172,265.394684 97.377769,265.473846 
	C102.208160,265.556610 107.048004,265.645111 111.871208,265.438782 
	C117.108604,265.214722 120.036690,262.347748 120.022575,257.927460 
	C120.008736,253.593369 116.889717,250.633667 111.753677,250.438416 
	C107.261086,250.267639 102.756630,250.434540 98.258049,250.388779 
	C93.212715,250.337479 90.017967,252.539139 89.152367,258.429169 
M137.199951,257.629547 
	C137.645996,262.827087 140.583908,265.403534 145.693924,265.483948 
	C150.520615,265.559845 155.358261,265.644196 160.175735,265.409607 
	C165.325851,265.158783 168.225540,262.151428 168.089844,257.710876 
	C167.962845,253.555130 165.010391,250.695770 160.124130,250.461349 
	C155.638290,250.246124 151.133484,250.462860 146.639389,250.372147 
	C141.897964,250.276443 138.606552,252.120850 137.199951,257.629547 
M195.889633,250.390427 
	C195.225113,250.397446 194.555756,250.354889 193.896851,250.419357 
	C188.516800,250.945786 185.139175,254.009933 185.290359,258.201721 
	C185.444901,262.486542 188.905136,265.384735 194.325745,265.491699 
	C199.139893,265.586639 203.970337,265.635620 208.772308,265.348785 
	C213.597321,265.060608 216.291748,262.105072 216.124634,257.714508 
	C215.946991,253.047501 213.056656,250.827560 208.757095,250.512115 
	C204.789856,250.221039 200.787292,250.411285 195.889633,250.390427 
M208.082718,458.942841 
	C203.269104,458.941986 198.453766,458.860291 193.642349,458.962616 
	C188.664078,459.068481 185.316284,462.107391 185.278839,466.332764 
	C185.241547,470.541870 188.525970,473.736267 193.479401,473.923767 
	C198.286270,474.105682 203.107056,474.065155 207.917892,473.954956 
	C212.821320,473.842651 215.830933,471.309937 216.304611,467.176361 
	C216.798996,462.861938 214.346634,460.115814 208.082718,458.942841 
M137.379944,464.981079 
	C137.452057,470.769073 139.719116,473.639954 145.015213,473.891693 
	C150.317932,474.143738 155.651428,474.143463 160.953766,473.887634 
	C165.493423,473.668610 168.373932,470.253265 168.173584,465.994965 
	C167.981140,461.904297 165.177628,459.147400 160.645706,458.998352 
	C155.668106,458.834686 150.681000,458.981842 145.698654,458.933044 
	C141.783417,458.894714 138.990128,460.466705 137.379944,464.981079 
M99.703461,458.933929 
	C99.206635,458.934326 98.709404,458.921753 98.213036,458.937073 
	C92.541161,459.112091 89.072090,462.015991 89.118233,466.545074 
	C89.161873,470.827515 92.631935,473.831543 97.976768,473.952972 
	C102.942093,474.065765 107.924507,474.169617 112.876968,473.885895 
	C117.379662,473.628021 120.284821,470.174561 120.084900,465.996277 
	C119.891426,461.952728 117.038353,459.167603 112.575447,458.988800 
	C108.606903,458.829834 104.627525,458.941589 99.703461,458.933929 
M41.084621,322.837555 
	C42.956062,328.235474 45.617554,330.237885 49.957291,329.383911 
	C54.835720,328.423950 56.098347,324.904236 56.081020,320.518707 
	C56.063332,316.041473 56.141930,311.562592 56.044205,307.087341 
	C55.923031,301.538025 53.249084,298.741547 48.330791,298.812317 
	C43.858036,298.876678 41.145103,301.833679 41.040596,307.033691 
	C40.940662,312.006134 41.033173,316.982483 41.084621,322.837555 
M41.007450,361.523285 
	C41.021397,364.504852 40.875191,367.497894 41.087509,370.465271 
	C41.392124,374.722626 44.474804,377.599518 48.503956,377.706482 
	C52.450829,377.811249 55.744434,374.955872 55.954086,370.590729 
	C56.223930,364.972351 56.215576,359.322144 55.955845,353.702789 
	C55.755775,349.374207 52.593510,346.754333 48.363262,346.867493 
	C43.998722,346.984192 41.721973,349.572205 41.119755,353.611206 
	C40.781151,355.882172 41.025658,358.240051 41.007450,361.523285 
M54.181427,397.449127 
	C48.396870,392.931396 41.750694,394.894135 41.184242,401.587891 
	C40.696575,407.350677 40.820705,413.203369 41.173405,418.985840 
	C41.410992,422.881073 44.020359,425.370056 47.979126,425.713989 
	C51.697041,426.037018 55.253563,424.233948 55.424473,420.624786 
	C55.779377,413.130341 55.029015,405.583527 54.181427,397.449127 
z"/>
<path fill="#BE72F1" opacity="1.000000" stroke="none" 
	d="
M149.006516,194.015793 
	C147.678192,191.098969 146.843216,187.788177 144.903778,185.359344 
	C142.123398,181.877380 138.536987,179.039062 135.280167,175.911957 
	C143.980484,167.457825 152.374573,159.301239 160.893387,151.023468 
	C163.003006,153.943756 165.422775,157.303970 167.853714,160.656082 
	C171.573669,165.785645 175.640961,167.068741 179.596863,164.371674 
	C183.665649,161.597656 183.914841,157.390808 180.250732,152.151840 
	C177.295929,147.927048 174.278030,143.746399 171.268234,139.518204 
	C178.491852,132.487839 185.631531,125.539162 193.203201,118.170059 
	C196.308868,121.436996 199.660736,125.133492 203.200302,128.640533 
	C207.097076,132.501465 211.475586,132.740005 214.660995,129.501938 
	C217.918884,126.190147 217.627060,122.107597 213.785629,118.055542 
	C212.066772,116.242447 210.289078,114.483406 208.498016,112.741013 
	C206.828369,111.116730 205.105606,109.547043 201.968719,106.605209 
	C204.983978,104.220009 207.857590,102.289444 210.319763,99.929573 
	C215.851303,94.627892 221.300812,89.227501 226.535461,83.634903 
	C228.996094,81.006012 230.860397,80.180145 233.908951,82.876900 
	C237.009338,85.619537 240.593338,87.829216 244.038254,90.165100 
	C248.217316,92.998810 252.461975,92.465439 255.096115,88.906212 
	C257.659698,85.442383 256.838409,81.075974 252.830521,78.023338 
	C249.025391,75.125137 245.072052,72.421501 241.086060,69.562111 
	C247.696747,63.027573 254.074783,56.723011 261.194855,49.684944 
	C264.479340,53.277393 267.723236,57.056553 271.218719,60.586662 
	C275.072968,64.479095 279.499146,64.714348 282.660950,61.504082 
	C285.917511,58.197605 285.709686,54.004227 281.808624,50.084366 
	C278.404694,46.664032 274.771606,43.471737 270.504364,39.493023 
	C278.010345,32.367786 284.505219,25.239401 292.006226,19.404480 
	C297.433197,15.182937 304.485077,15.723424 309.652557,20.332424 
	C316.324005,26.282894 322.122528,33.212063 328.741302,40.188091 
	C325.738953,43.020248 322.303284,46.151531 318.993134,49.410320 
	C314.479034,53.854355 314.017548,58.124294 317.535706,61.545155 
	C321.031250,64.944031 325.158539,64.415619 329.699738,59.824772 
	C332.860504,56.629429 335.880157,53.294502 338.602570,50.404434 
	C346.764557,58.462639 354.509918,66.109535 362.846252,74.339905 
	C359.452667,77.494576 355.537842,80.865395 351.944305,84.549644 
	C348.332886,88.252281 348.352875,92.452553 351.576782,95.599297 
	C354.688812,98.636833 359.019836,98.444778 362.677948,94.847084 
	C366.237457,91.346336 369.599518,87.644829 373.507416,83.550430 
	C382.319031,92.389458 390.795258,100.786964 399.063141,109.384834 
	C399.726349,110.074486 399.434509,112.445320 398.762238,113.518723 
	C396.380066,117.322311 393.582245,120.862381 391.050537,124.576332 
	C387.940674,129.138412 388.402283,133.336304 392.170715,135.972656 
	C395.813293,138.520966 400.041534,137.483612 403.330719,133.107651 
	C406.028259,129.518784 408.608337,125.841606 410.968750,122.579185 
	C417.460602,129.003784 423.893524,135.370102 430.854919,142.259399 
	C427.434540,145.470001 423.545532,148.869507 419.955933,152.560211 
	C416.339813,156.278198 416.359650,160.450668 419.616577,163.600601 
	C422.815338,166.694275 426.954315,166.507248 430.683228,162.886765 
	C434.266449,159.407715 437.693237,155.767487 441.018921,152.371536 
	C449.379639,160.790604 457.528992,168.996857 466.171265,177.699448 
	C463.000061,179.960648 459.394440,182.484787 455.839264,185.078110 
	C451.086945,188.544769 449.991730,192.695938 452.742920,196.544693 
	C455.528198,200.441162 459.576752,200.734390 464.545654,197.312271 
	C468.912720,194.304657 473.229340,191.223831 477.621979,188.137573 
	C483.315887,193.764221 489.171814,198.983139 494.337036,204.813995 
	C499.563446,210.713959 499.407349,219.521576 494.021088,225.410904 
	C488.310760,231.654556 482.009521,237.357773 475.106934,244.141693 
	C471.856049,240.626114 468.723450,237.024750 465.359497,233.654266 
	C461.077606,229.364105 456.978485,228.974228 453.586243,232.247131 
	C450.076385,235.633514 450.504425,239.895477 455.025208,244.385895 
	C458.330078,247.668518 461.824860,250.759949 465.773651,254.438370 
	C457.858337,262.188965 450.500763,269.401794 443.129730,276.600830 
	C442.201080,277.507812 441.201965,278.342621 439.773285,279.626221 
	C437.027924,275.766022 434.510254,272.118011 431.879517,268.553436 
	C428.363708,263.789520 424.243958,262.713409 420.382507,265.431763 
	C416.543854,268.134155 416.228790,272.429871 419.603577,277.267273 
	C422.650757,281.635193 425.774841,285.949463 428.719299,290.082825 
	C421.564575,297.217468 414.537811,304.224518 406.773041,311.967468 
	C403.558502,308.454285 400.303589,304.686157 396.818268,301.144745 
	C393.035339,297.300964 388.532227,297.119873 385.391693,300.408264 
	C382.305481,303.639801 382.469543,307.758698 386.101501,311.503204 
	C389.577301,315.086670 393.254608,318.474701 396.703705,321.813446 
	C388.178833,330.183350 379.931091,338.281128 371.271545,346.783234 
	C369.001526,343.674652 366.215424,339.855408 363.425018,336.039368 
	C360.870209,332.545441 357.659851,331.020630 353.474548,332.978027 
	C349.132751,335.008667 348.000336,339.938141 350.992188,344.396393 
	C354.142914,349.091400 357.527039,353.629761 360.624573,357.977478 
	C353.524109,365.186920 346.564209,372.253632 338.939331,379.995514 
	C335.747833,376.541077 332.727051,372.746887 329.140045,369.597595 
	C327.179871,367.876678 324.261597,367.247040 321.389526,365.596222 
	C321.002808,322.253693 321.066742,279.439972 320.915405,236.626968 
	C320.897461,231.550980 320.137451,226.376495 318.969849,221.424881 
	C315.660217,207.388977 298.441132,194.024887 283.943939,194.013779 
	C238.964813,193.979340 193.985657,194.010254 149.006516,194.015793 
z"/>
<path fill="#7009B2" opacity="1.000000" stroke="none" 
	d="
M32.691605,225.403900 
	C33.073143,251.180435 32.973431,276.822174 32.959240,302.463989 
	C32.934364,347.424194 32.919910,392.384460 33.006081,437.344513 
	C33.021660,445.473541 35.202671,453.056854 40.637192,460.241150 
	C41.011158,461.690491 41.017868,462.517975 41.019585,463.345490 
	C41.036713,471.607666 43.438393,474.000671 51.606930,473.990082 
	C55.734421,473.984741 59.862034,474.067291 63.989590,474.110107 
	C61.846474,474.611511 59.703358,475.112946 56.808838,475.790161 
	C63.522564,479.996429 70.109047,482.032410 77.345543,482.033112 
	C147.630173,482.040009 217.914795,482.051453 288.679199,482.091797 
	C289.780029,498.006073 288.874756,498.983490 273.111115,498.985687 
	C191.633453,498.997040 110.155800,498.990387 28.678141,499.000702 
	C18.494019,499.001984 15.988423,496.563293 15.988624,486.364471 
	C15.990180,407.052887 16.002514,327.741302 16.010670,248.429733 
	C16.011065,244.597488 15.963285,240.764786 16.007959,236.933105 
	C16.110731,228.118301 18.994963,225.258194 27.751118,225.224243 
	C29.250288,225.218414 30.749613,225.253143 32.691605,225.403900 
z"/>
<path fill="#B351F2" opacity="1.000000" stroke="none" 
	d="
M148.774170,194.266205 
	C193.985657,194.010254 238.964813,193.979340 283.943939,194.013779 
	C298.441132,194.024887 315.660217,207.388977 318.969849,221.424881 
	C320.137451,226.376495 320.897461,231.550980 320.915405,236.626968 
	C321.066742,279.439972 321.002808,322.253693 321.007446,365.536133 
	C313.148315,370.693848 313.090607,374.443573 320.880981,383.101868 
	C321.023621,388.665710 321.045471,393.447815 321.067322,398.229889 
	C314.638489,406.164520 310.326965,409.815948 304.719543,411.696625 
	C304.719543,409.560913 304.719696,407.657898 304.719574,405.754852 
	C304.716583,365.502686 304.720612,325.250549 304.703644,284.998383 
	C304.700806,278.272705 303.382660,276.372223 297.419983,274.468750 
	C297.067871,269.019440 297.059326,263.752289 297.079987,258.063354 
	C303.108429,255.868088 304.608795,253.943634 304.690125,247.700989 
	C304.746552,243.369598 304.800171,239.034485 304.689545,234.705276 
	C304.328705,220.583664 294.950195,211.045074 280.820435,210.373123 
	C278.825348,210.278244 276.822632,210.335587 274.823456,210.335464 
	C219.839066,210.332123 164.854675,210.330475 109.870277,210.328568 
	C107.763748,210.328491 105.657211,210.328552 102.466316,210.328552 
	C108.284706,199.910690 117.332863,193.959610 124.610870,185.353500 
	C128.288605,189.300278 131.459946,192.949768 134.894333,196.332153 
	C140.167099,201.525055 144.665192,200.851166 148.774170,194.266205 
z"/>
<path fill="#B673E7" opacity="1.000000" stroke="none" 
	d="
M321.387146,398.106018 
	C321.045471,393.447815 321.023621,388.665710 321.007263,383.412537 
	C323.644135,385.373352 326.275482,387.805267 329.791473,391.054749 
	C326.914978,393.519562 324.310974,395.750854 321.387146,398.106018 
z"/>
<path fill="#08020E" opacity="1.000000" stroke="none" 
	d="
M247.017761,265.619415 
	C244.237167,265.469482 241.890320,265.546173 239.604980,265.207642 
	C235.490952,264.598175 233.498856,261.627014 233.492279,257.875214 
	C233.486038,254.305054 235.527313,251.138580 239.344299,250.898010 
	C245.774704,250.492767 252.276306,250.449799 258.696747,250.933655 
	C262.724976,251.237259 264.484009,254.622406 264.627930,258.436005 
	C264.815826,263.413788 264.845001,268.411713 264.623718,273.386780 
	C264.402832,278.351654 261.166351,281.560486 256.927856,281.518829 
	C252.688049,281.477142 249.870422,278.249176 249.272263,273.243164 
	C248.966019,270.680267 248.095001,268.184814 247.017761,265.619415 
z"/>
<path fill="#08010F" opacity="1.000000" stroke="none" 
	d="
M249.001007,473.995239 
	C245.854965,473.965759 243.174118,474.125214 240.535049,473.863556 
	C236.299606,473.443726 233.322037,470.099792 233.433685,466.247101 
	C233.549545,462.248993 236.511917,459.263397 240.868927,458.993835 
	C243.470825,458.832855 246.090820,458.964325 249.369293,458.964325 
	C249.369293,455.690948 249.170731,453.054871 249.412445,450.459839 
	C249.855835,445.699615 252.876312,442.857544 257.146698,443.001282 
	C261.772278,443.156952 264.255066,445.982941 264.535187,450.249298 
	C264.894073,455.715668 264.897705,461.246124 264.498962,466.708405 
	C264.185272,471.005463 261.481293,473.663208 256.972382,473.922852 
	C254.483444,474.066193 251.981201,473.978668 249.001007,473.995239 
z"/>
<path fill="#050108" opacity="1.000000" stroke="none" 
	d="
M41.754890,255.630127 
	C41.754890,255.630127 41.784023,255.277451 42.132416,255.000153 
	C42.598698,254.384476 42.716583,254.046112 42.834473,253.707748 
	C42.834469,253.707748 42.987431,253.320282 43.319717,253.108597 
	C43.874290,252.736511 44.001057,252.520142 44.032291,252.247787 
	C44.032291,252.247787 44.303177,251.942978 44.762817,251.875259 
	C45.483063,251.576538 45.743668,251.345520 46.004276,251.114517 
	C52.292316,250.904633 58.587360,250.419189 64.866020,250.578674 
	C69.285133,250.690948 72.052734,254.002823 72.019775,258.003906 
	C71.985992,262.104340 69.324982,264.829102 64.825142,265.367981 
	C64.495468,265.407440 64.164352,265.437103 63.833172,265.461365 
	C56.394596,266.007202 56.394577,266.006927 56.051617,273.227997 
	C55.765621,279.249634 53.111691,281.474701 46.186691,280.767456 
	C45.391941,280.339020 45.067493,280.247681 44.743046,280.156372 
	C44.168560,279.722687 43.594070,279.289032 42.903080,278.310699 
	C42.514511,277.515198 42.242443,277.264374 41.970375,277.013519 
	C41.970375,277.013519 41.745556,276.752441 41.812069,276.257812 
	C41.650711,275.172577 41.422844,274.581970 41.194977,273.991333 
	C41.154053,268.639130 41.113125,263.286896 41.358162,257.299500 
	C41.681046,256.319611 41.717968,255.974869 41.754890,255.630127 
z"/>
<path fill="#06010B" opacity="1.000000" stroke="none" 
	d="
M64.359093,474.034729 
	C59.862034,474.067291 55.734421,473.984741 51.606930,473.990082 
	C43.438393,474.000671 41.036713,471.607666 41.019585,463.345490 
	C41.017868,462.517975 41.011158,461.690491 40.916428,460.427307 
	C40.897919,456.847748 40.866638,453.697296 41.065899,450.561554 
	C41.360203,445.930054 44.396469,442.953735 48.596138,442.969025 
	C52.807236,442.984375 55.785473,445.980072 56.025105,450.616058 
	C56.152641,453.083374 56.047714,455.562744 56.047714,458.944214 
	C58.593449,458.944214 60.824692,458.920013 63.055241,458.949066 
	C68.354591,459.018066 71.543556,461.397247 71.986732,465.578827 
	C72.430809,469.768951 70.088448,472.473572 64.359093,474.034729 
z"/>
<path fill="#0C0213" opacity="1.000000" stroke="none" 
	d="
M252.067795,423.969666 
	C250.981934,421.921539 249.580109,420.177032 249.475922,418.358185 
	C249.163864,412.909973 249.062958,407.411560 249.451050,401.973511 
	C249.755783,397.703857 252.356094,394.951752 256.940613,394.914062 
	C261.521973,394.876404 264.202881,397.566864 264.532257,401.844513 
	C264.950684,407.278564 264.975586,412.793488 264.565155,418.227875 
	C264.056030,424.968811 258.913055,427.327972 252.067795,423.969666 
z"/>
<path fill="#0C0213" opacity="1.000000" stroke="none" 
	d="
M264.510010,371.090302 
	C263.087769,375.892700 260.312775,378.446228 255.555298,377.563751 
	C251.037125,376.725677 249.448471,373.255280 249.322464,369.083282 
	C249.181747,364.424255 249.161331,359.752991 249.328278,355.095642 
	C249.518570,349.786896 252.641296,346.690186 257.309174,346.830780 
	C261.685089,346.962585 264.541962,350.044495 264.670929,355.200745 
	C264.799896,360.357727 264.633240,365.522125 264.510010,371.090302 
z"/>
<path fill="#0C0214" opacity="1.000000" stroke="none" 
	d="
M264.712311,307.506409 
	C264.718201,312.271423 264.842712,316.597534 264.692047,320.914093 
	C264.509186,326.153412 261.312927,329.650513 256.997833,329.650818 
	C252.683945,329.651123 249.510254,326.174042 249.318741,320.912994 
	C249.161621,316.596802 249.224564,312.269440 249.297180,307.948822 
	C249.391388,302.342255 251.923401,299.075134 256.324066,298.693115 
	C260.999115,298.287292 263.705444,300.988831 264.712311,307.506409 
z"/>
<path fill="#06010A" opacity="1.000000" stroke="none" 
	d="
M89.139297,258.047516 
	C90.017967,252.539139 93.212715,250.337479 98.258049,250.388779 
	C102.756630,250.434540 107.261086,250.267639 111.753677,250.438416 
	C116.889717,250.633667 120.008736,253.593369 120.022575,257.927460 
	C120.036690,262.347748 117.108604,265.214722 111.871208,265.438782 
	C107.048004,265.645111 102.208160,265.556610 97.377769,265.473846 
	C92.757172,265.394684 89.881470,263.127228 89.139297,258.047516 
z"/>
<path fill="#06010B" opacity="1.000000" stroke="none" 
	d="
M137.253021,257.258423 
	C138.606552,252.120850 141.897964,250.276443 146.639389,250.372147 
	C151.133484,250.462860 155.638290,250.246124 160.124130,250.461349 
	C165.010391,250.695770 167.962845,253.555130 168.089844,257.710876 
	C168.225540,262.151428 165.325851,265.158783 160.175735,265.409607 
	C155.358261,265.644196 150.520615,265.559845 145.693924,265.483948 
	C140.583908,265.403534 137.645996,262.827087 137.253021,257.258423 
z"/>
<path fill="#06010A" opacity="1.000000" stroke="none" 
	d="
M196.344971,250.389984 
	C200.787292,250.411285 204.789856,250.221039 208.757095,250.512115 
	C213.056656,250.827560 215.946991,253.047501 216.124634,257.714508 
	C216.291748,262.105072 213.597321,265.060608 208.772308,265.348785 
	C203.970337,265.635620 199.139893,265.586639 194.325745,265.491699 
	C188.905136,265.384735 185.444901,262.486542 185.290359,258.201721 
	C185.139175,254.009933 188.516800,250.945786 193.896851,250.419357 
	C194.555756,250.354889 195.225113,250.397446 196.344971,250.389984 
z"/>
<path fill="#07010D" opacity="1.000000" stroke="none" 
	d="
M208.526443,458.953064 
	C214.346634,460.115814 216.798996,462.861938 216.304611,467.176361 
	C215.830933,471.309937 212.821320,473.842651 207.917892,473.954956 
	C203.107056,474.065155 198.286270,474.105682 193.479401,473.923767 
	C188.525970,473.736267 185.241547,470.541870 185.278839,466.332764 
	C185.316284,462.107391 188.664078,459.068481 193.642349,458.962616 
	C198.453766,458.860291 203.269104,458.941986 208.526443,458.953064 
z"/>
<path fill="#07010D" opacity="1.000000" stroke="none" 
	d="
M137.505066,464.618896 
	C138.990128,460.466705 141.783417,458.894714 145.698654,458.933044 
	C150.681000,458.981842 155.668106,458.834686 160.645706,458.998352 
	C165.177628,459.147400 167.981140,461.904297 168.173584,465.994965 
	C168.373932,470.253265 165.493423,473.668610 160.953766,473.887634 
	C155.651428,474.143463 150.317932,474.143738 145.015213,473.891693 
	C139.719116,473.639954 137.452057,470.769073 137.505066,464.618896 
z"/>
<path fill="#07010D" opacity="1.000000" stroke="none" 
	d="
M100.178192,458.933899 
	C104.627525,458.941589 108.606903,458.829834 112.575447,458.988800 
	C117.038353,459.167603 119.891426,461.952728 120.084900,465.996277 
	C120.284821,470.174561 117.379662,473.628021 112.876968,473.885895 
	C107.924507,474.169617 102.942093,474.065765 97.976768,473.952972 
	C92.631935,473.831543 89.161873,470.827515 89.118233,466.545074 
	C89.072090,462.015991 92.541161,459.112091 98.213036,458.937073 
	C98.709404,458.921753 99.206635,458.934326 100.178192,458.933899 
z"/>
<path fill="#07010D" opacity="1.000000" stroke="none" 
	d="
M41.062859,322.397339 
	C41.033173,316.982483 40.940662,312.006134 41.040596,307.033691 
	C41.145103,301.833679 43.858036,298.876678 48.330791,298.812317 
	C53.249084,298.741547 55.923031,301.538025 56.044205,307.087341 
	C56.141930,311.562592 56.063332,316.041473 56.081020,320.518707 
	C56.098347,324.904236 54.835720,328.423950 49.957291,329.383911 
	C45.617554,330.237885 42.956062,328.235474 41.062859,322.397339 
z"/>
<path fill="#07010E" opacity="1.000000" stroke="none" 
	d="
M41.007454,361.041016 
	C41.025658,358.240051 40.781151,355.882172 41.119755,353.611206 
	C41.721973,349.572205 43.998722,346.984192 48.363262,346.867493 
	C52.593510,346.754333 55.755775,349.374207 55.955845,353.702789 
	C56.215576,359.322144 56.223930,364.972351 55.954086,370.590729 
	C55.744434,374.955872 52.450829,377.811249 48.503956,377.706482 
	C44.474804,377.599518 41.392124,374.722626 41.087509,370.465271 
	C40.875191,367.497894 41.021397,364.504852 41.007454,361.041016 
z"/>
<path fill="#07010D" opacity="1.000000" stroke="none" 
	d="
M54.457214,397.753693 
	C55.029015,405.583527 55.779377,413.130341 55.424473,420.624786 
	C55.253563,424.233948 51.697041,426.037018 47.979126,425.713989 
	C44.020359,425.370056 41.410992,422.881073 41.173405,418.985840 
	C40.820705,413.203369 40.696575,407.350677 41.184242,401.587891 
	C41.750694,394.894135 48.396870,392.931396 54.457214,397.753693 
z"/>
<path fill="#200239" opacity="1.000000" stroke="none" 
	d="
M41.106628,274.311554 
	C41.422844,274.581970 41.650711,275.172577 41.788261,276.087219 
	C41.471394,275.818085 41.244843,275.224915 41.106628,274.311554 
z"/>
<path fill="#200239" opacity="1.000000" stroke="none" 
	d="
M44.869576,280.396851 
	C45.067493,280.247681 45.391941,280.339020 45.863716,280.645386 
	C45.672729,280.786072 45.334419,280.711700 44.869576,280.396851 
z"/>
<path fill="#200239" opacity="1.000000" stroke="none" 
	d="
M41.986595,277.299255 
	C42.242443,277.264374 42.514511,277.515198 42.798912,278.052917 
	C42.541767,278.088196 42.272293,277.836609 41.986595,277.299255 
z"/>
<path fill="#200239" opacity="1.000000" stroke="none" 
	d="
M41.539642,255.798431 
	C41.717968,255.974869 41.681046,256.319611 41.441334,256.839630 
	C41.267162,256.665527 41.295780,256.316132 41.539642,255.798431 
z"/>
<path fill="#200239" opacity="1.000000" stroke="none" 
	d="
M42.577343,253.829453 
	C42.716583,254.046112 42.598698,254.384476 42.238319,254.858398 
	C42.103954,254.646362 42.212082,254.298752 42.577343,253.829453 
z"/>
<path fill="#200239" opacity="1.000000" stroke="none" 
	d="
M43.814194,252.265091 
	C44.001057,252.520142 43.874290,252.736511 43.473351,252.967972 
	C43.197586,252.708054 43.298050,252.455841 43.814194,252.265091 
z"/>
<path fill="#200239" opacity="1.000000" stroke="none" 
	d="
M45.729218,251.090942 
	C45.743668,251.345520 45.483063,251.576538 44.953667,251.803497 
	C44.941303,251.555435 45.197735,251.311401 45.729218,251.090942 
z"/>
</svg>
