<?xml version="1.0" encoding="UTF-8"?>
<svg version="1.1" xmlns="http://www.w3.org/2000/svg" width="512" height="512">
<path d="M0 0 C0.98820992 0.00424484 0.98820992 0.00424484 1.99638367 0.00857544 C4.08501937 0.01970326 6.17321431 0.04479302 8.26171875 0.0703125 C9.68423857 0.08035191 11.10676515 0.08947608 12.52929688 0.09765625 C16.00274556 0.11961803 19.47593908 0.15409604 22.94921875 0.1953125 C22.9525289 1.10898968 22.95583904 2.02266685 22.9592495 2.96403122 C23.04041675 25.180415 23.13248854 47.39673015 23.23674583 69.61301804 C23.28689971 80.35658083 23.3333423 91.10013588 23.37109375 101.84375 C23.4040015 111.20623925 23.44382596 120.56866894 23.49200881 129.9310925 C23.51728589 134.88989845 23.53906362 139.84866484 23.55256271 144.80751801 C23.56537207 149.47289036 23.58741432 154.13812708 23.61660194 158.80342484 C23.62568653 160.51749075 23.63137 162.23157852 23.63343239 163.94566727 C23.63674872 166.28284167 23.65220883 168.61963009 23.67074585 170.95672607 C23.67627661 172.26567211 23.68180737 173.57461815 23.68750572 174.92322922 C23.93230477 177.98384439 24.12541494 179.74692026 25.94921875 182.1953125 C29.41743116 183.09447868 31.87576132 183.53429906 35.32421875 182.4453125 C37.25891575 181.19812428 37.25891575 181.19812428 37.94921875 178.1953125 C38.05362669 175.8242468 38.09574583 173.45031514 38.10743713 171.07698059 C38.11237511 170.347545 38.11731309 169.6181094 38.1224007 168.8665697 C38.13779058 166.41601298 38.14614035 163.96548249 38.15454102 161.51489258 C38.16411837 159.76077544 38.17412837 158.00666061 38.18453979 156.25254822 C38.21161039 151.48429768 38.23260829 146.71603723 38.25254178 141.94775224 C38.27438804 136.96691464 38.30178338 131.98610769 38.32859802 127.0052948 C38.37854331 117.57059778 38.42347533 108.13588376 38.46662039 98.70115346 C38.51597707 87.96124381 38.57090101 77.22136492 38.62629998 66.48148501 C38.74014822 44.38612281 38.84698108 22.29073127 38.94921875 0.1953125 C80.0546634 0.10373667 121.16009473 0.03326346 162.26562103 -0.00894882 C167.11962643 -0.01395158 171.97363162 -0.01912888 176.82763672 -0.02441406 C178.27714084 -0.02598793 178.27714084 -0.02598793 179.75592788 -0.02759358 C195.3981975 -0.04499397 211.04040826 -0.07652966 226.68264298 -0.11329868 C242.73564376 -0.15071827 258.78861373 -0.17292551 274.84165633 -0.18104148 C284.7455024 -0.18652713 294.64918208 -0.20384678 304.55297692 -0.23635337 C311.34640884 -0.2575138 318.13975486 -0.26388408 324.93321733 -0.25869301 C328.85143584 -0.25613361 332.7693638 -0.26002878 336.68753052 -0.2815094 C340.27926171 -0.30105604 343.87050852 -0.30190556 347.46226259 -0.28828308 C349.36764351 -0.28580785 351.27301921 -0.30298706 353.17831647 -0.32101274 C361.61840314 -0.2624871 368.93504687 0.89542709 375.60546875 6.37890625 C376.21390625 7.12269531 376.82234375 7.86648437 377.44921875 8.6328125 C378.07828125 9.37402344 378.70734375 10.11523438 379.35546875 10.87890625 C383.35544951 16.69260378 383.22941819 21.89697243 383.18972778 28.74311829 C383.19229106 30.35436255 383.19229106 30.35436255 383.19490612 31.9981572 C383.19820468 35.60341255 383.18719109 39.20848246 383.17626953 42.8137207 C383.1757055 45.39570613 383.17602182 47.97769188 383.17715454 50.55967712 C383.17820291 56.12156919 383.17193131 61.68341431 383.16067886 67.24529457 C383.14442035 75.2868188 383.1392155 83.32832035 383.13670288 91.36985924 C383.13232633 104.41691447 383.11901831 117.46394468 383.10009766 130.51098633 C383.08173783 143.18448768 383.06760476 155.8579822 383.05908203 168.53149414 C383.05854604 169.32073995 383.05801004 170.10998575 383.0574578 170.9231481 C383.05329893 177.09562782 383.04938509 183.2681077 383.04554868 189.44058764 C383.02668351 219.69218556 382.98644639 249.94372084 382.94921875 280.1953125 C335.42921875 280.1953125 287.90921875 280.1953125 238.94921875 280.1953125 C238.9234375 269.46 238.89765625 258.7246875 238.87109375 247.6640625 C238.8459285 240.86456506 238.81976109 234.06509598 238.7890625 227.265625 C238.74051899 216.4723327 238.69607671 205.67913472 238.67822266 194.88574219 C238.66520038 187.02471609 238.63822106 179.1638818 238.59460568 171.30296373 C238.57200374 167.14209974 238.5563073 162.98147221 238.5573349 158.82054138 C238.55808227 154.90027185 238.54010111 150.98052478 238.50805092 147.06039047 C238.49956569 145.62537394 238.49779265 144.1902987 238.50341606 142.7552681 C238.53373503 133.82547066 238.21358113 127.25489398 232.2734375 120.20703125 C231.73332031 119.77003906 231.19320313 119.33304687 230.63671875 118.8828125 C230.10433594 118.43292969 229.57195312 117.98304688 229.0234375 117.51953125 C222.23279315 113.18426113 216.63705762 112.7569325 208.72485352 112.79125977 C207.61502106 112.78439651 206.5051886 112.77753326 205.36172485 112.77046204 C201.70456027 112.75220787 198.04782523 112.75602971 194.390625 112.76171875 C191.84146485 112.75715638 189.29230594 112.75185064 186.7431488 112.74583435 C181.40447409 112.73690597 176.06595498 112.73908861 170.72729492 112.74926758 C164.57132415 112.76074609 158.41578919 112.74667205 152.25987583 112.7198711 C146.31875637 112.69498156 140.37777149 112.69254645 134.43659782 112.69898796 C131.91726901 112.69914113 129.39793178 112.69310032 126.8786335 112.68069649 C123.35308743 112.66578331 119.82849518 112.67646734 116.30297852 112.69360352 C115.26740311 112.68393555 114.2318277 112.67426758 113.16487122 112.66430664 C105.74689722 112.73962796 100.34280783 114.22148792 94.70703125 119.16015625 C94.16820312 119.81113281 93.629375 120.46210938 93.07421875 121.1328125 C92.51992187 121.78121094 91.965625 122.42960937 91.39453125 123.09765625 C87.66577377 128.50939346 87.68119002 133.38163214 87.7109375 139.73828125 C87.69551131 141.63607481 87.67920721 143.53386139 87.66210938 145.43164062 C87.64570886 148.40258251 87.63669532 151.37301102 87.64379883 154.34399414 C87.66462875 177.08080168 87.66462875 177.08080168 80.1940918 185.07299805 C74.47866175 190.57652217 68.31657547 192.56884128 60.48852539 192.58349609 C59.42362129 192.59138153 59.42362129 192.59138153 58.33720398 192.59942627 C56.01103124 192.61253439 53.68555364 192.60392048 51.359375 192.59375 C49.72944509 192.59577361 48.09951606 192.59868744 46.46958923 192.60244751 C43.06109966 192.60685861 39.65284672 192.60048001 36.24438477 192.58642578 C31.8923279 192.56934813 27.54082675 192.57917358 23.18879032 192.59714317 C19.82486344 192.60802564 16.46106652 192.60451407 13.09713554 192.5967598 C11.4932899 192.59476939 9.88943217 192.59717598 8.28560066 192.60419846 C-9.05520158 192.66346673 -9.05520158 192.66346673 -16.22265625 187.6875 C-16.7434375 187.15382813 -17.26421875 186.62015625 -17.80078125 186.0703125 C-18.331875 185.55210937 -18.86296875 185.03390625 -19.41015625 184.5 C-25.37659016 176.11858093 -25.62909625 168.12727869 -25.56835938 158.07202148 C-25.57378795 156.55659312 -25.58091472 155.04117004 -25.58959961 153.52575684 C-25.60774718 149.43277489 -25.60080161 145.34019879 -25.58808327 141.24721026 C-25.57791279 136.95215482 -25.58735997 132.6571327 -25.59362793 128.36207581 C-25.60089181 121.15220947 -25.59134898 113.94250738 -25.57226562 106.73266602 C-25.55049098 98.41019012 -25.55755751 90.08810616 -25.57957125 81.76563972 C-25.59775137 74.60442431 -25.60027108 67.44332654 -25.58981657 60.28209549 C-25.58359703 56.01180956 -25.5827036 51.74170758 -25.59596252 47.47143364 C-25.60755889 43.45668912 -25.59942686 39.44244771 -25.5763855 35.42775726 C-25.57111887 33.95885362 -25.57257701 32.48990726 -25.58143616 31.02102089 C-25.63285806 21.62535517 -25.30516148 14.99005229 -18.8671875 7.734375 C-17.75150391 6.78691406 -17.75150391 6.78691406 -16.61328125 5.8203125 C-15.87207031 5.17320313 -15.13085938 4.52609375 -14.3671875 3.859375 C-9.65620524 0.47509432 -5.75049636 -0.04894039 0 0 Z " fill="#B450F4" transform="translate(81.05078125,75.8046875)"/>
<path d="M0 0 C168.96 0 337.92 0 512 0 C512 36.96 512 73.92 512 112 C511.34 111.01 510.68 110.02 510 109 C506.91060231 104.9086355 504.94347328 102.42076201 500 101 C496.56696357 100.62713993 493.13760944 100.49203551 489.6875 100.375 C488.75615234 100.33632812 487.82480469 100.29765625 486.86523438 100.2578125 C484.57701593 100.16393687 482.28879705 100.07825491 480 100 C479.78085937 98.96101563 479.56171875 97.92203125 479.3359375 96.8515625 C476.35150342 83.42966648 471.94589081 73.70266554 460.203125 65.7890625 C454.01016084 62.26912988 446.92583837 61.28400374 440 60 C440 57.36 440 54.72 440 52 C441.4540625 51.319375 441.4540625 51.319375 442.9375 50.625 C446.07079582 49.34213779 446.07079582 49.34213779 447 47 C447.25860135 42.94857881 447.30441554 41.45662331 445 38 C440.56092566 36.52030855 436.2132164 36.73441375 431.5625 36.6875 C430.60794922 36.65849609 429.65339844 36.62949219 428.66992188 36.59960938 C423.17536645 36.47384759 423.17536645 36.47384759 418.37109375 38.83203125 C416.49021371 41.80607235 416.42427061 43.54562367 417 47 C419.23206431 49.84780619 420.54992999 50.84997666 424 52 C424 54.64 424 57.28 424 60 C408.16 60 392.32 60 376 60 C375.75 46.75 375.75 46.75 375.70214844 42.58886719 C375.6715332 41.50250977 375.64091797 40.41615234 375.609375 39.296875 C375.58842773 38.18666992 375.56748047 37.07646484 375.54589844 35.93261719 C374.84424568 32.1632733 374.11880341 31.23912007 371 29 C367.75310094 28.39652087 364.54065141 28.45383384 361.24609375 28.48242188 C359.76255905 28.47190796 359.76255905 28.47190796 358.24905396 28.46118164 C354.97825077 28.4435696 351.70831206 28.4552362 348.4375 28.46875 C346.16593255 28.46605602 343.89436623 28.46217439 341.62280273 28.45715332 C336.86137923 28.4512539 332.10025582 28.45983581 327.33886719 28.47851562 C321.23190932 28.50130506 315.12565459 28.4881844 309.01872253 28.46422577 C304.32786754 28.44978 299.63717957 28.45436825 294.94631958 28.46473694 C292.69442665 28.46740758 290.44251861 28.46412265 288.19064331 28.45481873 C285.04465495 28.44467358 281.89980937 28.46012664 278.75390625 28.48242188 C277.35424118 28.47027649 277.35424118 28.47027649 275.92630005 28.45788574 C275.06833832 28.46916504 274.21037659 28.48044434 273.32641602 28.49206543 C272.21146507 28.49432758 272.21146507 28.49432758 271.07398987 28.49663544 C268.02450514 29.236756 266.86678257 30.5057866 265 33 C264.36085024 35.98687874 264.36085024 35.98687874 264.390625 39.296875 C264.35839844 40.50214844 264.32617188 41.70742188 264.29296875 42.94921875 C264.27878906 44.20347656 264.26460938 45.45773438 264.25 46.75 C264.22035156 48.01972656 264.19070313 49.28945313 264.16015625 50.59765625 C264.08946049 53.73183485 264.03675988 56.86526956 264 60 C263.04215984 60.00238835 262.08431969 60.00477671 261.09745407 60.00723743 C237.75999 60.06610748 214.42262855 60.14203663 191.08527756 60.23571491 C179.79937424 60.28062518 168.51350215 60.32005085 157.22753906 60.34643555 C147.3873859 60.36945424 137.54733194 60.40289549 127.70725751 60.44870156 C122.50002158 60.47258155 117.29288357 60.49134454 112.08559418 60.49761391 C107.17720286 60.50368841 102.26906193 60.52377336 97.36076355 60.55427551 C95.56620781 60.56301794 93.7716193 60.56678625 91.97704315 60.56500816 C78.02162398 60.55555271 63.60332475 60.97943165 52.80859375 71.04296875 C45.43482691 78.93276348 40.77555199 87.73391424 40.71911621 98.70153809 C40.71317397 99.35015509 40.70723172 99.9987721 40.70110941 100.66704416 C40.68385336 102.82691088 40.68072908 104.98655436 40.67773438 107.14648438 C40.66846928 108.70099352 40.65841879 110.25549815 40.64764404 111.80999756 C40.62146802 116.02532223 40.60851925 120.24058328 40.59962273 124.45597649 C40.59374705 127.09507465 40.5855346 129.73415572 40.57661438 132.37324524 C40.54927779 140.64605674 40.52994037 148.91882882 40.5222106 157.19168234 C40.51326473 166.71161803 40.4782359 176.23097717 40.42020941 185.75073767 C40.37682052 193.12767357 40.35679368 200.50444824 40.35412836 207.88151026 C40.35204246 212.27850716 40.34044945 216.67496165 40.30448914 221.07182312 C40.27125855 225.21550783 40.26734362 229.3582504 40.28476715 233.50202179 C40.28629398 235.01197606 40.27780843 236.52198381 40.25785065 238.03180695 C40.09362597 251.24437733 43.03346532 263.24078314 52.52734375 273.02734375 C61.6459338 280.30204829 71.28886862 282.94480221 82.80859375 283.31640625 C83.92806396 283.35451416 85.04753418 283.39262207 86.20092773 283.43188477 C88.29803101 283.49653931 88.29803101 283.49653931 90.4375 283.5625 C94.913125 283.706875 99.38875 283.85125 104 284 C104 297.2 104 310.4 104 324 C84.61342241 324.84816277 84.61342241 324.84816277 80.03515625 322.44140625 C78.0625 320.5 78.0625 320.5 76.42578125 318.57421875 C74.97465529 316.66289964 74.97465529 316.66289964 71.75 316.3125 C68.29362888 317.17659278 67.01331034 318.0574695 65 321 C64.08044397 323.82491198 64.08044397 323.82491198 65 327 C68.25122821 331.7042911 72.30201773 335.75194078 77 339 C80.07986897 339.63458244 80.07986897 339.63458244 83.39453125 339.609375 C85.19760742 339.65771484 85.19760742 339.65771484 87.03710938 339.70703125 C88.28298828 339.72121094 89.52886719 339.73539062 90.8125 339.75 C92.07771484 339.77964844 93.34292969 339.80929687 94.64648438 339.83984375 C97.76438676 339.91043777 100.88154575 339.9631891 104 340 C104.63615234 341.4540625 104.63615234 341.4540625 105.28515625 342.9375 C106.72981045 346.35720227 106.72981045 346.35720227 110.4375 347 C114.61797048 347.06095982 114.61797048 347.06095982 118 345 C118.70560191 343.34944005 119.37628554 341.68321196 120 340 C120.77601562 340.00636475 121.55203125 340.01272949 122.3515625 340.01928711 C125.90199757 340.0280255 129.4498651 339.98320205 133 339.9375 C134.22074219 339.94845703 135.44148437 339.95941406 136.69921875 339.97070312 C142.77623045 339.85573263 147.013585 339.69610497 151.71875 335.6015625 C152.84358502 334.43011659 153.94177943 333.23195314 155 332 C155.825 331.154375 156.65 330.30875 157.5 329.4375 C159.38633031 326.37221325 159.46185134 324.54086026 159 321 C157.22302279 317.65176476 157.22302279 317.65176476 153.375 316.875 C151.16361394 316.55691829 151.16361394 316.55691829 149 317 C147.3627547 318.51781858 147.3627547 318.51781858 145.8125 320.4375 C142.65526645 323.67832629 140.20244721 324.25890363 135.82421875 324.46875 C130.53899764 324.51579147 125.27585504 324.30106781 120 324 C120 318.72 120 313.44 120 308 C123.3203125 307.57682292 126.640625 307.15364583 129.9609375 306.73046875 C133.29532084 306.29300666 133.29532084 306.29300666 135 303 C135.33957563 298.92509248 135.31332486 297.46998729 133 294 C129.89188713 293.19458793 129.89188713 293.19458793 126.375 292.8125 C124.59222656 292.57466797 124.59222656 292.57466797 122.7734375 292.33203125 C121.40058594 292.16767578 121.40058594 292.16767578 120 292 C120 289.36 120 286.72 120 284 C121.17804199 283.97812622 121.17804199 283.97812622 122.37988281 283.95581055 C126.00370292 283.88046959 129.6266866 283.78409739 133.25 283.6875 C134.48492187 283.66494141 135.71984375 283.64238281 136.9921875 283.61914062 C150.99537927 283.21378507 163.74612618 280.81018493 173.8125 270.375 C181.29445399 261.17732606 183.12600935 250.53266495 183.140625 239.05859375 C183.1589396 237.32355444 183.17850864 235.588528 183.19921875 233.85351562 C183.2282473 231.13885423 183.25000223 228.42503219 183.25048828 225.71020508 C183.25382293 223.07559075 183.28834705 220.44287745 183.328125 217.80859375 C183.3210553 217.00014511 183.3139856 216.19169647 183.30670166 215.35874939 C183.32311707 214.59768387 183.33953247 213.83661835 183.35644531 213.05249023 C183.36009094 212.38885971 183.36373657 211.72522919 183.36749268 211.04148865 C184.45487882 207.53182735 186.04610251 206.16652616 189 204 C192.49862798 203.27341066 195.93153654 203.33719995 199.49414062 203.38476562 C200.54997849 203.37921661 201.60581635 203.3736676 202.69364929 203.36795044 C206.18164537 203.35614555 209.66834488 203.38043955 213.15625 203.40625 C215.58093201 203.40796092 218.00561588 203.40789561 220.43029785 203.40612793 C225.51116641 203.40778167 230.59159403 203.42649052 235.67236328 203.45800781 C242.18603487 203.497685 248.69912876 203.50205326 255.21289825 203.49454498 C260.21947525 203.49147586 265.2259223 203.50359388 270.23246765 203.52067566 C272.63424362 203.5277084 275.03603432 203.53082986 277.43782043 203.52998352 C280.79410432 203.53178063 284.14969525 203.55315621 287.50585938 203.58007812 C288.49925827 203.57714752 289.49265717 203.57421692 290.51615906 203.57119751 C295.45034781 203.63228238 299.04594148 203.68440332 303 207 C304.35114557 209.70229115 304.12283264 211.79448414 304.12025452 214.82119751 C304.12231651 216.68064247 304.12231651 216.68064247 304.12442017 218.57765198 C304.12088079 219.95883203 304.11724598 221.34001183 304.11352539 222.72119141 C304.11324344 224.16974384 304.1134014 225.61829641 304.1139679 227.06684875 C304.11425557 231.00669976 304.10836371 234.94652051 304.10139394 238.88636446 C304.09515538 243.00101348 304.0945562 247.11566314 304.09336853 251.23031616 C304.0902567 259.02531067 304.0820453 266.82029121 304.07201904 274.61527956 C304.06085331 283.48819026 304.05534629 292.36110163 304.05032361 301.23401761 C304.03986257 319.48935301 304.02226598 337.74467538 304 356 C303.39787044 356.00059709 302.79574088 356.00119418 302.17536497 356.00180936 C266.48498422 356.03770652 230.79469507 356.09435041 195.10439333 356.17792095 C190.81861934 356.18793836 186.53284496 356.1977825 182.24707031 356.20751953 C180.9672443 356.21043159 180.9672443 356.21043159 179.66156322 356.21340248 C165.84800459 356.24442008 152.03446257 356.26140246 138.22087568 356.27319422 C124.0459141 356.28560703 109.87103969 356.31311135 95.69613314 356.35461307 C86.95006466 356.37974478 78.20414074 356.39311752 69.45803565 356.39142957 C63.45977248 356.39139981 57.46165652 356.40603455 51.46345073 356.43216428 C48.0032123 356.44680606 44.54327574 356.45501698 41.08301163 356.44580269 C37.32825184 356.4391807 33.57437321 356.4570426 29.81970215 356.48101807 C28.73019367 356.47325765 27.64068519 356.46549723 26.5181613 356.45750165 C18.93451829 356.54327145 13.61617704 357.83112012 7.7578125 362.96484375 C3.55627406 367.9988241 3.55627406 367.9988241 1 374 C0.67 374 0.34 374 0 374 C0 250.58 0 127.16 0 0 Z " fill="#F6F6F6" transform="translate(0,0)"/>
<path d="M0 0 C0.75371876 -0.00576922 1.50743753 -0.01153844 2.28399625 -0.01748249 C4.81839402 -0.03075407 7.35121442 -0.00825989 9.88553143 0.01396656 C11.71713705 0.01178678 13.54874116 0.00740999 15.38033694 0.00102073 C20.42013634 -0.01018062 25.45940632 0.00986937 30.49913824 0.03491104 C35.93127563 0.0564666 41.36338222 0.04919908 46.79555035 0.04539967 C56.20934234 0.04277558 65.62296131 0.05848739 75.03670979 0.08658886 C88.64744655 0.12719257 102.25809948 0.14024289 115.86889025 0.14652882 C137.95046817 0.15747691 160.03195478 0.1907222 182.11348248 0.23804188 C203.56595156 0.28396047 225.01839597 0.31938027 246.47090435 0.34058094 C247.13211349 0.34123857 247.79332263 0.3418962 248.47456841 0.34257376 C255.77354877 0.34982049 263.07252939 0.35677971 270.37151015 0.36362112 C325.40315905 0.41547014 380.43470795 0.50354947 435.46626568 0.61523914 C435.55920165 10.49927463 435.63015 20.3832051 435.67351437 30.26758957 C435.69433373 34.8579957 435.72254724 39.44810151 435.76802349 44.03833485 C435.811684 48.47336281 435.83544524 52.90810303 435.84577465 57.34332943 C435.85312993 59.03012651 435.86749275 60.71690895 435.88918591 62.40358257 C436.01126189 72.2941143 436.09830872 80.87384125 429.60689068 88.91992664 C428.6710313 89.69723133 428.6710313 89.69723133 427.71626568 90.49023914 C427.10267193 91.02391102 426.48907818 91.55758289 425.85689068 92.10742664 C417.64265759 97.28829915 409.50648641 97.04349169 400.12747478 97.0029192 C398.55828254 97.00709497 396.98909331 97.01257382 395.41990966 97.01923901 C391.11902238 97.03368101 386.81832695 97.02945276 382.51742923 97.0220722 C377.87445111 97.01733961 373.23151443 97.02985134 368.58854961 97.04008961 C359.49595814 97.05728253 350.40343575 97.0581164 341.31083224 97.0528767 C333.91791567 97.04883385 326.52501951 97.05027995 319.13210392 97.05562496 C318.0795286 97.05637338 317.02695329 97.05712181 315.94248175 97.05789291 C313.80407153 97.05942441 311.6656613 97.06096276 309.52725109 97.06250788 C289.4739346 97.0762353 269.42065713 97.07079405 249.36734154 97.05932266 C231.03429134 97.04939525 212.70134213 97.06232204 194.36830751 97.08625685 C175.53406428 97.11066025 156.69986807 97.12025235 137.86560935 97.11360413 C127.29567001 97.110114 116.72580829 97.1123301 106.15588093 97.12985516 C97.1555382 97.14459284 88.15532773 97.14519233 79.15498755 97.12778424 C74.56600979 97.11928383 69.97726812 97.11710109 65.3883028 97.1324358 C61.18054266 97.14632205 56.97321998 97.14146949 52.76548489 97.12219656 C51.25002621 97.11844819 49.73453216 97.12132473 48.2191051 97.13180821 C30.11368628 97.24806927 15.82404578 91.83132864 2.46626568 79.61523914 C-10.87976411 65.37749244 -13.07956034 47.63839779 -13.03471088 29.04028797 C-13.03372782 26.15868882 -13.07569486 23.2796659 -13.11967182 20.39844227 C-13.1248724 18.55534881 -13.12756712 16.71224619 -13.12748432 14.86914539 C-13.14387959 14.01389774 -13.16027485 13.15865009 -13.17716694 12.27748585 C-13.16786152 11.47572422 -13.1585561 10.67396259 -13.1489687 9.84790516 C-13.15102314 9.14907719 -13.15307758 8.45024921 -13.15519428 7.73024464 C-11.23025846 1.17913902 -6.09845847 -0.11482916 0 0 Z " fill="#AFB6C1" transform="translate(28.53373432159424,371.3847608566284)"/>
<path d="M0 0 C0.33 0 0.66 0 1 0 C1 102.96 1 205.92 1 312 C-167.96 312 -336.92 312 -511 312 C-511 281.64 -511 251.28 -511 220 C-510.67 220 -510.34 220 -510 220 C-509.85304688 220.84820312 -509.70609375 221.69640625 -509.5546875 222.5703125 C-505.89946929 241.68668362 -497.07113595 258.60034047 -480.99609375 270.16015625 C-464.77367363 280.60419327 -449.21927303 283.31312786 -430.24938965 283.26069641 C-428.68428411 283.26372246 -427.11918006 283.2676142 -425.55407858 283.27228898 C-421.28313584 283.28251898 -417.01227751 283.28040001 -412.741328 283.27610838 C-408.12367025 283.27363209 -403.50603234 283.2826664 -398.88838196 283.29014587 C-389.85417087 283.30286901 -380.81998955 283.30468962 -371.78577101 283.30234561 C-364.44109557 283.30055993 -357.09642913 283.30231744 -349.75175476 283.30657005 C-348.7049834 283.30716524 -347.65821205 283.30776043 -346.57972035 283.30837366 C-344.45298453 283.30958545 -342.32624871 283.31079958 -340.1995129 283.31201603 C-320.27402434 283.32288199 -300.34855273 283.32073332 -280.42306322 283.31463119 C-262.20600674 283.3094606 -243.98900372 283.32072291 -225.77195781 283.33972941 C-207.04946946 283.359113 -188.32700638 283.36736303 -169.60450792 283.36360615 C-159.10006481 283.3616952 -148.59566721 283.36417161 -138.0912323 283.37832069 C-129.15063312 283.39024195 -120.21010749 283.39163085 -111.26950729 283.37953053 C-106.71103964 283.37364765 -102.15270646 283.37252616 -97.59424782 283.38453293 C-93.41575778 283.39541076 -89.2375142 283.3922659 -85.0590356 283.37827124 C-83.55313433 283.37562959 -82.04721363 283.37797404 -80.54133147 283.38600711 C-66.47355557 283.45580117 -53.93290376 281.79884371 -43 272.25390625 C-33.87869187 262.79841226 -31.85547146 250.92665492 -31.84178162 238.31900024 C-31.83437465 236.86573289 -31.83437465 236.86573289 -31.82681805 235.38310659 C-31.81147369 232.14033447 -31.8030907 228.89758211 -31.79467773 225.65478516 C-31.78509681 223.3288048 -31.7750866 221.00282617 -31.76467896 218.67684937 C-31.73764711 212.36336752 -31.71662819 206.04987822 -31.69667697 199.73637056 C-31.67702261 193.80649962 -31.65287866 187.87664839 -31.62875474 181.9467942 C-31.58112718 170.20363728 -31.53784994 158.46046854 -31.49731445 146.71728516 C-31.45793489 135.31167684 -31.41650279 123.90607902 -31.37231445 112.50048828 C-31.36822804 111.44545636 -31.36822804 111.44545636 -31.36405908 110.36911066 C-31.3503792 106.84049352 -31.33665901 103.31187654 -31.32291877 99.78325963 C-31.20902998 70.52219527 -31.10227646 41.26110721 -31 12 C-30.42556152 11.98541748 -29.85112305 11.97083496 -29.25927734 11.95581055 C-26.63054304 11.88086275 -24.00301448 11.78436006 -21.375 11.6875 C-20.47136719 11.66494141 -19.56773437 11.64238281 -18.63671875 11.61914062 C-12.07066505 11.35553993 -7.33854108 10.52815251 -2.6875 5.5 C-0.86410131 3.04006657 -0.86410131 3.04006657 0 0 Z " fill="#F6F6F6" transform="translate(511,200)"/>
<path d="M0 0 C0.98820992 0.00424484 0.98820992 0.00424484 1.99638367 0.00857544 C4.08501937 0.01970326 6.17321431 0.04479302 8.26171875 0.0703125 C9.68423857 0.08035191 11.10676515 0.08947608 12.52929688 0.09765625 C16.00274556 0.11961803 19.47593908 0.15409604 22.94921875 0.1953125 C22.9525289 1.10898968 22.95583904 2.02266685 22.9592495 2.96403122 C23.04041675 25.180415 23.13248854 47.39673015 23.23674583 69.61301804 C23.28689971 80.35658083 23.3333423 91.10013588 23.37109375 101.84375 C23.4040015 111.20623925 23.44382596 120.56866894 23.49200881 129.9310925 C23.51728589 134.88989845 23.53906362 139.84866484 23.55256271 144.80751801 C23.56537207 149.47289036 23.58741432 154.13812708 23.61660194 158.80342484 C23.62568653 160.51749075 23.63137 162.23157852 23.63343239 163.94566727 C23.63674872 166.28284167 23.65220883 168.61963009 23.67074585 170.95672607 C23.67627661 172.26567211 23.68180737 173.57461815 23.68750572 174.92322922 C23.93190313 177.97882283 24.22931722 179.69512759 25.94921875 182.1953125 C26.60921875 182.5253125 27.26921875 182.8553125 27.94921875 183.1953125 C27.94921875 183.8553125 27.94921875 184.5153125 27.94921875 185.1953125 C28.89796875 185.1540625 29.84671875 185.1128125 30.82421875 185.0703125 C33.94921875 185.1953125 33.94921875 185.1953125 35.94921875 187.1953125 C33.63921875 187.5253125 31.32921875 187.8553125 28.94921875 188.1953125 C28.94921875 189.1853125 28.94921875 190.1753125 28.94921875 191.1953125 C23.50493638 191.29447976 18.06118427 191.36692159 12.61621094 191.41503906 C10.76553179 191.43510589 8.91491566 191.46236595 7.06445312 191.49707031 C4.39827898 191.54580683 1.73294588 191.56833037 -0.93359375 191.5859375 C-1.75570343 191.60658264 -2.57781311 191.62722778 -3.42483521 191.64849854 C-9.70218406 191.65092888 -13.19924297 189.86047573 -17.84375 185.51953125 C-18.30394531 184.97941406 -18.76414062 184.43929687 -19.23828125 183.8828125 C-19.94017578 183.08423828 -19.94017578 183.08423828 -20.65625 182.26953125 C-25.82173922 174.58640863 -25.4855084 167.32419136 -25.45483398 158.29907227 C-25.46054183 156.78394061 -25.4675077 155.26881325 -25.47563171 153.75369263 C-25.49353241 149.65239879 -25.49240061 145.55131927 -25.48668933 141.44999814 C-25.48359303 138.02063241 -25.48969482 134.59130757 -25.49572808 131.16194767 C-25.50976151 123.06911196 -25.50822183 114.97638184 -25.49682617 106.88354492 C-25.48534555 98.54635423 -25.49942227 90.20948523 -25.52622265 81.87233692 C-25.5484035 74.70268035 -25.55501167 67.53312459 -25.54914623 60.36343616 C-25.54578121 56.08640043 -25.54816137 51.8095709 -25.56539726 47.53256416 C-25.58090253 43.50965948 -25.57687157 39.48723017 -25.55809212 35.46434402 C-25.55441612 33.99220938 -25.55748581 32.52003924 -25.56797791 31.04793739 C-25.62989793 21.63823974 -25.31499145 15.00113079 -18.8671875 7.734375 C-17.75150391 6.78691406 -17.75150391 6.78691406 -16.61328125 5.8203125 C-15.87207031 5.17320313 -15.13085938 4.52609375 -14.3671875 3.859375 C-9.65620524 0.47509432 -5.75049636 -0.04894039 0 0 Z " fill="#B44FF5" transform="translate(81.05078125,75.8046875)"/>
<path d="M0 0 C10.18248411 7.14135587 17.79925376 17.15898767 21.06640625 29.28125 C23.45928581 43.98804911 20.90311417 57.10383102 12.47265625 69.41015625 C4.71221728 79.65327802 -5.77808886 86.09049676 -18.37109375 88.84375 C-32.82657563 90.21231633 -45.92402006 87.09621154 -57.17578125 77.8046875 C-67.09380509 68.94552742 -73.64786428 58.0045312 -74.609375 44.49609375 C-74.90188449 29.85522423 -70.77948095 17.40751702 -60.62109375 6.59375 C-43.75657441 -9.27873879 -20.01529283 -11.88681146 0 0 Z " fill="#2C2B2E" transform="translate(418.37109375,243.15625)"/>
<path d="M0 0 C0.82175217 -0.00554901 1.64350433 -0.01109802 2.49015808 -0.01681519 C5.19911515 -0.02859978 7.90639499 -0.00434938 10.61523438 0.02148438 C12.50183028 0.02319588 14.38842856 0.02312939 16.27502441 0.0213623 C20.22606199 0.02301487 24.17653173 0.04170121 28.12744141 0.07324219 C33.1883391 0.11291954 38.24849319 0.11728702 43.30951691 0.10977936 C47.20435379 0.10670774 51.09902394 0.11883701 54.99382019 0.13591003 C56.85970514 0.14293428 58.72560898 0.14606527 60.59150696 0.1452179 C63.20067401 0.14701848 65.80895517 0.16842221 68.41796875 0.1953125 C69.18694992 0.1923819 69.95593109 0.18945129 70.74821472 0.18643188 C75.22812538 0.25756011 78.15074365 0.83251037 81.70898438 3.61523438 C82.87338296 5.94403155 82.84162094 7.31615747 82.85424805 9.90966797 C82.8606279 10.79753998 82.86700775 11.68541199 82.87358093 12.60018921 C82.87469376 13.56163849 82.87580658 14.52308777 82.87695312 15.51367188 C82.88194572 16.99343002 82.88194572 16.99343002 82.88703918 18.50308228 C82.89210823 20.59287041 82.89444752 22.68266666 82.89428711 24.77246094 C82.89647069 27.97018799 82.9146187 31.16756854 82.93359375 34.36523438 C82.93652824 36.39387903 82.93851266 38.42252532 82.93945312 40.45117188 C82.94663864 41.40857269 82.95382416 42.36597351 82.96122742 43.35238647 C82.95815079 44.24656281 82.95507416 45.14073914 82.9519043 46.06201172 C82.95332932 46.84651703 82.95475433 47.63102234 82.95622253 48.43930054 C82.66831708 50.97314569 82.13094687 52.49588209 80.70898438 54.61523438 C77.11834386 57.35974547 72.83475942 56.90371462 68.515625 56.88989258 C67.69241257 56.89500351 66.86920013 56.90011444 66.02104187 56.90538025 C63.30236524 56.91927018 60.58394224 56.91832015 57.86523438 56.91601562 C55.97481187 56.91990246 54.08439023 56.9242371 52.19396973 56.92900085 C48.23296272 56.93646146 44.27204486 56.93617262 40.31103516 56.9309082 C35.23325949 56.92510922 30.15584806 56.9420557 25.07813263 56.96525288 C21.17480331 56.97997749 17.27156201 56.98086373 13.36820984 56.97774315 C11.49589821 56.97825685 9.62358172 56.98350376 7.751297 56.99355507 C5.13473753 57.00587958 2.51889163 56.99915232 -0.09765625 56.98754883 C-1.25887749 56.99901443 -1.25887749 56.99901443 -2.44355774 57.01071167 C-5.62881735 56.9794601 -7.91785851 56.81871862 -10.74060059 55.27946472 C-13.31020113 52.5212309 -13.42437636 49.82177378 -13.48388672 46.22314453 C-13.49994965 45.33857574 -13.51601257 44.45400696 -13.53256226 43.54263306 C-13.57711413 39.50759765 -13.61805842 35.4727238 -13.64111328 31.4375 C-13.65768782 29.30945918 -13.68499738 27.18147437 -13.72314453 25.05371094 C-13.77789757 21.98277971 -13.7997829 18.91315037 -13.81445312 15.84179688 C-13.8371225 14.8926944 -13.85979187 13.94359192 -13.88314819 12.96572876 C-13.88029816 12.07485565 -13.87744812 11.18398254 -13.87451172 10.26611328 C-13.88259857 9.48684479 -13.89068542 8.70757629 -13.89901733 7.9046936 C-12.00323549 0.76603731 -6.47999582 -0.11176577 0 0 Z " fill="#2B2A2C" transform="translate(357.291015625,99.384765625)"/>
<path d="M0 0 C1.27594528 -0.00761353 2.55189056 -0.01522705 3.86650085 -0.02307129 C6.56065156 -0.03385592 9.25392258 -0.03810763 11.94799805 -0.03222656 C15.37428333 -0.02634331 18.79914525 -0.05688384 22.22515583 -0.09734344 C25.52507489 -0.12965244 28.82494746 -0.12510395 32.125 -0.125 C33.34198074 -0.14139526 34.55896149 -0.15779053 35.81282043 -0.17468262 C44.68393306 -0.10338873 51.35435006 1.73943803 58.19921875 7.53125 C58.97265625 8.4903125 58.97265625 8.4903125 59.76171875 9.46875 C60.29796875 10.108125 60.83421875 10.7475 61.38671875 11.40625 C65.20669716 17.13621761 65.625271 22.75822942 64.76171875 29.46875 C62.11350465 37.72077429 57.426853 42.88013215 49.96606445 47.02001953 C44.38090078 49.36421562 38.4102273 48.91656933 32.453125 48.90234375 C30.53209206 48.91020653 30.53209206 48.91020653 28.57225037 48.91822815 C25.86992489 48.92712777 23.16789543 48.92477264 20.46557617 48.91479492 C17.02133683 48.90331006 13.57812356 48.9235235 10.1340189 48.95271206 C6.82366865 48.97558667 3.51355215 48.96860254 0.203125 48.96484375 C-1.63782997 48.98169472 -1.63782997 48.98169472 -3.51597595 48.99888611 C-11.61885321 48.93324624 -17.13449616 47.99146817 -23.4453125 42.57421875 C-29.10953347 35.80747301 -31.87629247 30.1384875 -31.58203125 21.17578125 C-30.71371335 14.33777775 -27.0230317 9.81349562 -22.3125 5.01171875 C-15.30645153 -0.19993689 -8.45573005 0.00139251 0 0 Z " fill="#2C2A2D" transform="translate(231.23828125,107.53125)"/>
<path d="M0 0 C7.3086075 4.63995999 11.24291045 11.9463963 14 20 C15.36536726 30.70735378 12.86033106 40.18416628 6.4375 48.875 C0.97122089 54.69808584 -7.79051718 58.54011801 -15.69921875 59.23828125 C-22.80675477 59.41480829 -27.83223042 58.54554419 -34 55 C-35.5778125 54.13375 -35.5778125 54.13375 -37.1875 53.25 C-44.3038216 47.55694272 -48.48093545 39.94116065 -50 31 C-50.9660556 20.54759509 -48.22249244 13.04011067 -41.76953125 4.85546875 C-30.16885834 -7.30859225 -14.21777858 -7.89180661 0 0 Z " fill="#ADB5C0" transform="translate(410,257)"/>
<path d="M0 0 C21.12 0 42.24 0 64 0 C64 7.92 64 15.84 64 24 C42.88 24 21.76 24 0 24 C0 16.08 0 8.16 0 0 Z " fill="#843FB1" transform="translate(360,116)"/>
<path d="M0 0 C5.28 0 10.56 0 16 0 C16 26.4 16 52.8 16 80 C10.72 80 5.44 80 0 80 C0 74.72 0 69.44 0 64 C1.98 63.01 3.96 62.02 6 61 C7.30567844 58.37245701 7.36205482 55.8964386 7 53 C4.84109542 49.99295434 3.51231053 49.17077018 0 48 C0 42.72 0 37.44 0 32 C1.98 31.01 3.96 30.02 6 29 C7.30567844 26.37245701 7.36205482 23.8964386 7 21 C4.84109542 17.99295434 3.51231053 17.17077018 0 16 C0 10.72 0 5.44 0 0 Z " fill="#AFB6C0" transform="translate(480,116)"/>
<path d="M0 0 C4.39620224 -0.0809117 8.79091597 -0.14046573 13.1875 -0.1875 C14.43337891 -0.21263672 15.67925781 -0.23777344 16.96289062 -0.26367188 C18.16494141 -0.27333984 19.36699219 -0.28300781 20.60546875 -0.29296875 C21.71043701 -0.3086792 22.81540527 -0.32438965 23.95385742 -0.34057617 C27.41780833 0.04671336 29.26338486 0.86220251 32 3 C33.0625 6.375 33.0625 6.375 33 10 C31.23358828 12.80189446 29.96950178 14.51524911 27 16 C24.96767366 16.08527628 22.93252994 16.10716135 20.8984375 16.09765625 C19.68671875 16.09443359 18.475 16.09121094 17.2265625 16.08789062 C15.95554687 16.07951172 14.68453125 16.07113281 13.375 16.0625 C12.09625 16.05798828 10.8175 16.05347656 9.5 16.04882812 C6.33331355 16.03701213 3.16665104 16.01907621 0 16 C0 10.72 0 5.44 0 0 Z " fill="#823FAE" transform="translate(247,124)"/>
<path d="M0 0 C41.79348027 -0.09153526 83.58694898 -0.16202843 125.38050962 -0.20426132 C130.3134877 -0.20926421 135.24646558 -0.21444149 140.17944336 -0.21972656 C141.16151945 -0.2207758 142.14359553 -0.22182505 143.1554315 -0.22290608 C159.06162157 -0.24031611 174.96775387 -0.2718571 190.87390966 -0.30861118 C207.19244893 -0.34600396 223.51095793 -0.36823233 239.82953829 -0.37635398 C249.90075829 -0.3818452 259.97181502 -0.39919505 270.04298478 -0.43166587 C276.94712526 -0.45279321 283.8511812 -0.45920408 290.75535167 -0.45400551 C294.74003021 -0.45144095 298.72442323 -0.45540011 302.70905113 -0.4768219 C306.35798637 -0.49629576 310.00644425 -0.49726495 313.65540152 -0.48359558 C315.59878874 -0.48110684 317.54217039 -0.49835144 319.48547608 -0.51632524 C326.20897912 -0.47016277 330.53232153 -0.03898074 336 4 C335.67 4.99 335.34 5.98 335 7 C333.30729167 5.99088542 331.61458333 4.98177083 329.921875 3.97265625 C326.14043897 2.0588807 322.64747195 1.87269409 318.44778061 1.8613348 C317.31119625 1.85586036 316.17461189 1.85038591 315.00358558 1.84474558 C313.75456969 1.84376747 312.50555381 1.84278936 311.21868896 1.84178162 C309.87879992 1.83721554 308.5389123 1.83221544 307.19902635 1.82681805 C303.51395693 1.81323278 299.82889675 1.80581746 296.14380884 1.79939139 C292.17109755 1.79138916 288.19840548 1.77769077 284.22570801 1.76467896 C277.34167838 1.7429137 270.45764681 1.72476938 263.57360077 1.70907402 C253.62038654 1.68637585 243.66719358 1.65823294 233.71399739 1.62875474 C217.56617692 1.58107819 201.41834776 1.53781417 185.27050781 1.49731445 C169.58300093 1.45795985 153.89550177 1.41653371 138.20800781 1.37231445 C137.24127214 1.36959018 136.27453647 1.36686591 135.27850577 1.36405908 C130.42874913 1.35037961 125.5789926 1.33665934 120.72923613 1.32291877 C80.48617352 1.208953 40.24309424 1.10214386 0 1 C0 0.67 0 0.34 0 0 Z " fill="#391E49" transform="translate(120,75)"/>
<path d="M0 0 C0.82160614 -0.00525696 1.64321228 -0.01051392 2.48971558 -0.01593018 C5.20370537 -0.02912601 7.91710782 -0.02039285 10.63110352 -0.01025391 C12.51913058 -0.01227496 14.40715688 -0.01518666 16.29518127 -0.01895142 C20.25203891 -0.02337436 24.20869334 -0.01694535 28.16552734 -0.00292969 C33.23425978 0.01415044 38.30251525 0.00432825 43.37123013 -0.01364708 C47.27032555 -0.02449568 51.16930821 -0.02103342 55.06840706 -0.0132637 C56.93709431 -0.01126407 58.80579184 -0.01371266 60.67446709 -0.02070236 C63.28846155 -0.02833322 65.90168766 -0.0166894 68.515625 0 C69.67145332 -0.00910904 69.67145332 -0.00910904 70.85063171 -0.0184021 C75.340129 0.03461899 78.2584708 0.59611221 81.82250977 3.38818359 C82.98690835 5.71698077 82.95514633 7.08910669 82.96777344 9.68261719 C82.97415329 10.5704892 82.98053314 11.45836121 82.98710632 12.37313843 C82.98821915 13.33458771 82.98933197 14.29603699 82.99047852 15.28662109 C82.99547112 16.76637924 82.99547112 16.76637924 83.00056458 18.27603149 C83.00563362 20.36581963 83.00797291 22.45561588 83.0078125 24.54541016 C83.00999608 27.74313721 83.02814409 30.94051776 83.04711914 34.13818359 C83.05005363 36.16682824 83.05203805 38.19547454 83.05297852 40.22412109 C83.06016403 41.18152191 83.06734955 42.13892273 83.07475281 43.12533569 C83.07167618 44.01951202 83.06859955 44.91368835 83.06542969 45.83496094 C83.06685471 46.61946625 83.06827972 47.40397156 83.06974792 48.21224976 C82.78184247 50.74609491 82.24447226 52.26883131 80.82250977 54.38818359 C77.22557839 57.14310309 72.9250792 56.66951303 68.59741211 56.64697266 C67.77098709 56.65047729 66.94456207 56.65398193 66.09309387 56.65759277 C63.36479261 56.66638686 60.63675111 56.66057023 57.90844727 56.65380859 C56.01323395 56.65515565 54.11802097 56.65709653 52.22280884 56.65960693 C48.2534048 56.66255483 44.28409083 56.65827031 40.31469727 56.64892578 C35.21885727 56.63751589 30.12322758 56.64410255 25.02739525 56.65607071 C21.11557418 56.66328506 17.20380329 56.66100361 13.29198074 56.65581512 C11.412441 56.65447825 9.53289675 56.65612764 7.65336227 56.66077423 C5.0317241 56.66583419 2.41043074 56.65813753 -0.21118164 56.64697266 C-0.99251968 56.65102112 -1.77385773 56.65506958 -2.57887268 56.65924072 C-7.94895851 56.61671531 -7.94895851 56.61671531 -10.17749023 54.38818359 C18.86250977 54.38818359 47.90250977 54.38818359 77.82250977 54.38818359 C78.15250977 53.06818359 78.48250977 51.74818359 78.82250977 50.38818359 C79.81250977 49.39818359 79.81250977 49.39818359 80.82250977 48.38818359 C81.01039964 45.42160072 81.07799497 42.55002384 81.05297852 39.58349609 C81.05252029 38.70797089 81.05206207 37.83244568 81.05158997 36.9303894 C81.04856571 35.07597501 81.04067426 33.22156321 81.02832031 31.3671875 C81.01012822 28.5316464 81.0078102 25.69643306 81.00805664 22.86083984 C81.00313887 21.06005578 80.99730943 19.25927392 80.99047852 17.45849609 C80.98936569 16.61046417 80.98825287 15.76243225 80.98710632 14.88870239 C80.98072647 14.09462982 80.97434662 13.30055725 80.96777344 12.48242188 C80.96396164 11.78674103 80.96014984 11.09106018 80.95622253 10.3742981 C80.75906875 7.29967326 80.75906875 7.29967326 79.82250977 4.38818359 C75.72608629 1.93292262 71.39799687 2.10420861 66.75927734 2.12939453 C65.96196701 2.12588989 65.16465668 2.12238525 64.34318542 2.11877441 C61.71771445 2.10999833 59.09251455 2.11578995 56.46704102 2.12255859 C54.64051766 2.12121116 52.81399466 2.11926997 50.98747253 2.11676025 C47.16527888 2.11381492 43.34317885 2.11808914 39.52099609 2.12744141 C34.61463161 2.13885985 29.70848535 2.13225764 24.80212879 2.12029648 C21.03356774 2.11308259 17.26505879 2.11536321 13.4964962 2.12055206 C11.68673362 2.12188861 9.87696635 2.12024066 8.06720924 2.11559296 C5.54386403 2.1105328 3.02087701 2.11822948 0.49755859 2.12939453 C-0.63001358 2.12332184 -0.63001358 2.12332184 -1.78036499 2.11712646 C-5.93435901 2.0175945 -5.93435901 2.0175945 -9.17749023 4.38818359 C-10.16749023 4.05818359 -11.15749023 3.72818359 -12.17749023 3.38818359 C-8.54094061 -0.2162033 -4.83255922 -0.03798543 0 0 Z " fill="#3A1F4A" transform="translate(357.177490234375,99.61181640625)"/>
<path d="M0 0 C1.40882874 0.02009834 2.81768521 0.03834322 4.2265625 0.0546875 C7.65175664 0.10160797 11.07551524 0.16725223 14.5 0.25 C14.50423194 1.16367718 14.50846388 2.07735435 14.51282406 3.01871872 C14.61606112 25.23507697 14.72468845 47.45140314 14.83933926 69.66770554 C14.89465273 80.41127176 14.94813168 91.15484131 14.99731445 101.8984375 C15.04017923 111.26090559 15.08646306 120.62334941 15.13687855 129.98578 C15.16346096 134.94458073 15.18831362 139.9033767 15.20907402 144.86220551 C15.22865964 149.52753689 15.25280926 154.19282217 15.28049088 158.85811234 C15.28985109 160.57218463 15.29753007 162.28626703 15.30341911 164.00035477 C15.31169777 166.33742501 15.3259794 168.67438387 15.34178162 171.01141357 C15.34823417 172.32035961 15.35468672 173.62930565 15.3613348 174.97791672 C15.47307927 177.61475139 15.70908076 179.75257284 16.5 182.25 C15.84 182.25 15.18 182.25 14.5 182.25 C13.00499882 179.25999765 13.37741247 176.55016599 13.37974548 173.21395874 C13.37889106 172.48129402 13.37803663 171.7486293 13.37715632 170.99376261 C13.37550254 168.52625346 13.38102123 166.05881153 13.38647461 163.59130859 C13.38675653 161.82748923 13.38659865 160.06366976 13.3860321 158.29985046 C13.38574432 153.50052497 13.39163805 148.70122429 13.39860606 143.90190458 C13.40484269 138.89038435 13.40544364 133.8788636 13.40663147 128.86734009 C13.40974387 119.37238035 13.41795604 109.87743208 13.42798096 100.3824774 C13.43914492 89.57489939 13.44465326 78.76732084 13.44967639 67.95973849 C13.46013872 45.72315259 13.47773641 23.48657701 13.5 1.25 C8.93677759 1.33095102 4.37488408 1.4437929 -0.1875 1.5625 C-1.48107422 1.58505859 -2.77464844 1.60761719 -4.10742188 1.63085938 C-5.97817383 1.6840332 -5.97817383 1.6840332 -7.88671875 1.73828125 C-9.60701294 1.77755737 -9.60701294 1.77755737 -11.36206055 1.81762695 C-14.82672441 2.29501898 -16.71490283 3.1652507 -19.5 5.25 C-20.49 6.735 -20.49 6.735 -21.5 8.25 C-24.625 8.9375 -24.625 8.9375 -27.5 9.25 C-20.68924168 -0.96613749 -11.02076854 -0.2743545 0 0 Z " fill="#A65BD7" transform="translate(89.5,75.75)"/>
<path d="M0 0 C3.63 0 7.26 0 11 0 C11 5.28 11 10.56 11 16 C4.73 16 -1.54 16 -8 16 C-5.36 10.72 -2.72 5.44 0 0 Z " fill="#AFB6BF" transform="translate(349,44)"/>
<path d="M0 0 C6.27 0 12.54 0 19 0 C16.36 5.28 13.72 10.56 11 16 C7.37 16 3.74 16 0 16 C0 10.72 0 5.44 0 0 Z " fill="#AFB6BF" transform="translate(280,44)"/>
<path d="M0 0 C4.62 0 9.24 0 14 0 C11.36 5.28 8.72 10.56 6 16 C1.38 16 -3.24 16 -8 16 C-5.36 10.72 -2.72 5.44 0 0 Z " fill="#656B75" transform="translate(317,44)"/>
<path d="M0 0 C0.33 0 0.66 0 1 0 C1 2.31 1 4.62 1 7 C0.34 7 -0.32 7 -1 7 C-0.96278203 26.51536481 -0.90284589 46.03053494 -0.81609726 65.54574394 C-0.77634122 74.60764729 -0.74393131 83.66946424 -0.72900391 92.73144531 C-0.71596955 100.6327757 -0.68895949 108.53391568 -0.64538693 116.43513882 C-0.6228121 120.61618696 -0.60708692 124.7970006 -0.60811615 128.97811508 C-0.60886513 132.91972899 -0.59081982 136.86082532 -0.55883217 140.80230522 C-0.55036705 142.24293212 -0.54856007 143.6836173 -0.55419731 145.12425804 C-0.58343086 153.74903796 0.22557403 160.19972668 4 168 C7.3 168.33 10.6 168.66 14 169 C13.34 169.99 12.68 170.98 12 172 C11.34 172 10.68 172 10 172 C10.33 173.32 10.66 174.64 11 176 C8.00294829 174.67301166 6.07013695 173.29773293 3.9375 170.8125 C3.45152344 170.26207031 2.96554688 169.71164062 2.46484375 169.14453125 C-2.79833724 161.43923428 -2.42316039 154.14261388 -2.37231445 145.05615234 C-2.37474475 143.53615571 -2.37846638 142.01616068 -2.38337708 140.49617004 C-2.39275554 136.3826577 -2.38338722 132.26938455 -2.37004495 128.15589094 C-2.35870224 123.84608406 -2.36284003 119.53628847 -2.36479187 115.22647095 C-2.36567376 107.99208685 -2.35461476 100.75779666 -2.33618164 93.5234375 C-2.31499962 85.16241226 -2.31150817 76.80152437 -2.3177436 68.44047773 C-2.32343948 60.39030927 -2.31778998 52.34018911 -2.30657005 44.29002762 C-2.30192868 40.86669648 -2.3010482 37.44339492 -2.3031559 34.02006149 C-2.30504053 29.98988665 -2.29692146 25.95985148 -2.2810955 21.92970848 C-2.27685618 20.45148102 -2.27599974 18.97323938 -2.27878571 17.49500847 C-2.2820131 15.47618859 -2.27169049 13.45736064 -2.26069641 11.43856812 C-2.25864354 10.30924551 -2.25659067 9.1799229 -2.25447559 8.0163784 C-1.99696724 4.96405175 -1.29396869 2.75917176 0 0 Z " fill="#A75BD6" transform="translate(58,89)"/>
<path d="M0 0 C4.14822958 0.8642145 5.60540961 2.14195943 8 5.625 C8.32575603 8.5118724 7.96988093 10.89277446 7 13.625 C4.74926794 16.29253429 3.45554461 16.56805692 0 17 C-3.45554461 16.56805692 -4.74926794 16.29253429 -7 13.625 C-7.96988093 10.89277446 -8.32575603 8.5118724 -8 5.625 C-5.60540961 2.14195943 -4.14822958 0.8642145 0 0 Z " fill="#AAB1BA" transform="translate(224,123.375)"/>
<path d="M0 0 C3.80484394 0.71340824 5.4511805 1.6388541 8 4.5625 C8.80740332 9.00321826 8.50331836 10.83040056 5.9375 14.5625 C3 16.5625 3 16.5625 -0.625 16.5625 C-5.45945946 15.13006757 -5.45945946 15.13006757 -7 12.5625 C-8 9.1875 -8 9.1875 -8 5.5625 C-5.59321321 2.13465214 -4.14162899 0.77655544 0 0 Z " fill="#2F2F31" transform="translate(392,259.4375)"/>
<path d="M0 0 C2.875 1.5625 2.875 1.5625 5 4 C5.80740332 8.44071826 5.50331836 10.26790056 2.9375 14 C0 16 0 16 -3.5625 16.125 C-7.66488116 14.78240253 -9.00630003 13.82125828 -11 10 C-11 6.1862249 -10.84985071 3.97575452 -8.3125 1.0625 C-5.24716836 -0.34589562 -3.34404315 -0.47772045 0 0 Z " fill="#302835" transform="translate(395,212)"/>
<path d="M0 0 C2.5 1.5625 2.5 1.5625 4 4 C4.55802097 7.90614682 4.58392818 10.05111671 2.5 13.4375 C-0.53037069 15.33148168 -2.55830934 15.64334247 -6.08984375 15.4453125 C-8 15 -8 15 -10.5625 12.9375 C-12.43625505 9.10852228 -12.12962701 7.06665724 -11 3 C-8.71707037 -1.16298932 -4.22696498 -0.74843646 0 0 Z " fill="#2F2932" transform="translate(428,221)"/>
<path d="M0 0 C2.5 1.5625 2.5 1.5625 4 4 C4.55802097 7.90614682 4.58392818 10.05111671 2.5 13.4375 C-0.53037069 15.33148168 -2.55830934 15.64334247 -6.08984375 15.4453125 C-8 15 -8 15 -10.5625 12.9375 C-12.43625505 9.10852228 -12.12962701 7.06665724 -11 3 C-8.71707037 -1.16298932 -4.22696498 -0.74843646 0 0 Z " fill="#2B2A2A" transform="translate(364,221)"/>
<path d="M0 0 C3.7 1.4 3.7 1.4 5 4 C5.46622517 11.34304636 5.46622517 11.34304636 3.625 13.9375 C0.27854198 16.12556871 -1.99244728 16.40075527 -6 16 C-8.375 14.5 -8.375 14.5 -10 12 C-10.81753559 7.92900647 -10.65416433 5.00640667 -8.375 1.5 C-5.31754465 -0.43102443 -3.561827 -0.44522837 0 0 Z " fill="#2B2A2B" transform="translate(450,244)"/>
<path d="M0 0 C4.48922172 0.89784434 6.09366529 2.15005533 9.125 5.625 C9.35242657 9.94610477 8.80249895 11.82794241 6 15.125 C2.18967129 17.11299759 0.20535596 16.83399436 -3.875 15.625 C-6.437964 13.39274103 -6.81252331 12.04448631 -7.3125 8.6875 C-6.62108073 3.8475651 -4.90540228 1.0663918 0 0 Z " fill="#322837" transform="translate(335.875,243.375)"/>
<path d="M0 0 C0.66 0.66 1.32 1.32 2 2 C1.01 2.495 1.01 2.495 0 3 C-0.66 2.67 -1.32 2.34 -2 2 C-6.09185129 1.650896 -6.09185129 1.650896 -9.875 3 C-11.68523932 6.21820324 -11.53967465 9.40216898 -11 13 C-10.03882095 15.12870693 -10.03882095 15.12870693 -8 16 C-4.56797729 16.28600189 -2.27570125 16.09190042 1 15 C0.67 15.99 0.34 16.98 0 18 C-3.3 18 -6.6 18 -10 18 C-9.79375 18.70125 -9.5875 19.4025 -9.375 20.125 C-9 23 -9 23 -9.9765625 25.5078125 C-11.38297333 30.30678687 -11.13588984 34.7832262 -11 39.75 C-10.94911442 41.64039934 -10.90700248 43.53106172 -10.875 45.421875 C-10.85179687 46.25299805 -10.82859375 47.08412109 -10.8046875 47.94042969 C-11 50 -11 50 -13 52 C-12.94779297 50.24236328 -12.94779297 50.24236328 -12.89453125 48.44921875 C-12.64753581 36.55923829 -13.92608757 26.8726695 -19 16 C-18.01 15.67 -17.02 15.34 -16 15 C-13.59688402 12.59688402 -13.76661394 11.9039073 -13.625 8.625 C-13.32305993 5.60072927 -13.0619355 4.10580649 -11.5 1.4375 C-7.82366617 -0.67639195 -4.15277128 -0.68945624 0 0 Z " fill="#A754DF" transform="translate(452,243)"/>
<path d="M0 0 C1.6840242 -0.00065712 1.6840242 -0.00065712 3.40206909 -0.00132751 C7.09773395 0.00075564 10.79294018 0.02406519 14.48852539 0.04760742 C17.05684664 0.05320504 19.6251711 0.05747435 22.1934967 0.06047058 C28.25302187 0.0707386 34.31235892 0.09436149 40.37181336 0.12451905 C47.27387685 0.15812022 54.17594839 0.17456338 61.07807338 0.18960536 C75.26836373 0.22091293 89.45851687 0.27363759 103.64868164 0.34057617 C103.64868164 0.67057617 103.64868164 1.00057617 103.64868164 1.34057617 C103.06668692 1.34204273 102.48469219 1.34350929 101.88506126 1.34502029 C87.71266242 1.38209953 73.54049646 1.44112887 59.36829185 1.52447891 C52.51464835 1.56425949 45.6611195 1.59665686 38.80737305 1.61157227 C32.19365933 1.62598616 25.58026472 1.66110859 18.96669388 1.70888519 C16.44295972 1.72372733 13.91917484 1.7316188 11.39539719 1.73246002 C7.86143821 1.73482278 4.32846675 1.76184909 0.79467773 1.79467773 C-0.2497348 1.78964737 -1.29414734 1.784617 -2.37020874 1.7794342 C-8.37444149 1.8657795 -11.72729525 2.43494106 -16.35131836 6.34057617 C-17.00358398 6.78401367 -17.65584961 7.22745117 -18.32788086 7.68432617 C-21.63881737 10.00668922 -24.58878057 12.35703536 -27.35131836 15.34057617 C-25.93596122 10.15093334 -22.53501011 6.55645581 -18.35131836 3.34057617 C-12.2040251 0.01584517 -6.9040414 -0.07090846 0 0 Z " fill="#391E4B" transform="translate(197.351318359375,187.659423828125)"/>
<path d="M0 0 C30.03 0 60.06 0 91 0 C91 0.99 91 1.98 91 3 C90.26397301 2.75601219 90.26397301 2.75601219 89.51307678 2.50709534 C85.94593715 1.78730839 82.41361884 1.86968355 78.79077148 1.88647461 C77.96595276 1.88632858 77.14113403 1.88618256 76.2913208 1.8860321 C73.56788492 1.8867281 70.84451767 1.89450762 68.12109375 1.90234375 C66.22827695 1.90420954 64.33545967 1.90563269 62.44264221 1.90663147 C57.46089341 1.91044808 52.4791738 1.92026847 47.49743652 1.93133545 C42.42602939 1.94155231 37.35461758 1.94613383 32.28320312 1.95117188 C23.37571667 1.96074668 14.46824882 1.97523039 5.56077576 1.99327087 C3.37385326 1.9974037 1.1869264 2 -1 2 C-0.67 1.34 -0.34 0.68 0 0 Z " fill="#A55AD6" transform="translate(347,99)"/>
<path d="M0 0 C0.66 0.33 1.32 0.66 2 1 C1.27683594 1.77923828 1.27683594 1.77923828 0.5390625 2.57421875 C-0.09257812 3.27160156 -0.72421875 3.96898437 -1.375 4.6875 C-2.31472656 5.71423828 -2.31472656 5.71423828 -3.2734375 6.76171875 C-7.37965571 12.08493829 -7.2684918 17.08736827 -7.23828125 23.54296875 C-7.25370744 25.44076231 -7.27001154 27.33854889 -7.28710938 29.23632812 C-7.30350989 32.20727001 -7.31252343 35.17769852 -7.30541992 38.14868164 C-7.28594139 59.41038415 -7.28594139 59.41038415 -13 67 C-13.33 66.34 -13.66 65.68 -14 65 C-12.79149247 61.92379901 -11.47778215 58.9555643 -10 56 C-9.89260982 54.60734625 -9.8438474 53.2099118 -9.82641602 51.81323242 C-9.81292618 50.94860886 -9.79943634 50.08398529 -9.78553772 49.19316101 C-9.77509933 48.25672256 -9.76466095 47.32028412 -9.75390625 46.35546875 C-9.72096311 44.37955294 -9.68775155 42.40364159 -9.65429688 40.42773438 C-9.6069088 37.30724205 -9.56249077 34.18676721 -9.52319336 31.06616211 C-9.48342425 28.05823652 -9.43188528 25.05068663 -9.37890625 22.04296875 C-9.3704921 21.112603 -9.36207794 20.18223724 -9.35340881 19.22367859 C-9.26781694 14.72817596 -9.12739928 11.07977622 -7 7 C-6.34 7 -5.68 7 -5 7 C-5 5.35 -5 3.7 -5 2 C-2.625 0.9375 -2.625 0.9375 0 0 Z " fill="#A559D7" transform="translate(176,192)"/>
<path d="M0 0 C-0.33 1.32 -0.66 2.64 -1 4 C-4.90627303 4.92054961 -8.52548958 5.12130973 -12.53442383 5.11352539 C-13.83539505 5.11344986 -15.13636627 5.11337433 -16.47676086 5.11329651 C-17.88685139 5.10819062 -19.29694151 5.10297464 -20.70703125 5.09765625 C-22.15720063 5.09578979 -23.60737065 5.09436696 -25.05754089 5.09336853 C-28.86332966 5.0895613 -32.66907991 5.07974642 -36.47485352 5.06866455 C-40.36278767 5.05841177 -44.25072808 5.05386264 -48.13867188 5.04882812 C-55.75913209 5.03812246 -63.37956064 5.0210677 -71 5 C-71 4.34 -71 3.68 -71 3 C-69.85820534 3.00999275 -69.85820534 3.00999275 -68.69334412 3.02018738 C-61.49934951 3.08044387 -54.30547829 3.1260479 -47.11129665 3.15543652 C-43.41319906 3.17105375 -39.71531101 3.19221911 -36.01733398 3.22631836 C-32.44467691 3.25905369 -28.87222067 3.27688264 -25.29942513 3.28463173 C-23.94033716 3.29014995 -22.58125946 3.30092554 -21.22225761 3.31719017 C-13.72487349 3.40330346 -6.6801872 0 0 0 Z " fill="#A658D7" transform="translate(286,152)"/>
<path d="M0 0 C2.73332093 0.48235075 5.24862665 1.08647883 7.875 2 C18.85067768 5.51221686 29.9716301 4.94327223 40.63671875 0.875 C43 0 43 0 45 0 C45 0.66 45 1.32 45 2 C39.22899642 6.42890972 34.95220809 7.19492548 27.82421875 6.87890625 C26.08881836 6.80639648 26.08881836 6.80639648 24.31835938 6.73242188 C23.12017578 6.67634766 21.92199219 6.62027344 20.6875 6.5625 C19.46998047 6.51029297 18.25246094 6.45808594 16.99804688 6.40429688 C13.99842021 6.27490121 10.99914994 6.13994552 8 6 C8 5.34 8 4.68 8 4 C7.4225 3.87625 6.845 3.7525 6.25 3.625 C3.97664233 2.99351176 2.0746471 2.11141809 0 1 C0 0.67 0 0.34 0 0 Z " fill="#A156D3" transform="translate(369,327)"/>
<path d="M0 0 C2.31 0 4.62 0 7 0 C4.32872966 2.67127034 2.57269138 2.97827546 -1.17008972 3.12025452 C-2.47802994 3.11803391 -3.78597015 3.11581329 -5.13354492 3.11352539 C-5.85574722 3.11367142 -6.57794952 3.11381744 -7.32203674 3.1139679 C-9.70821134 3.11327145 -12.09430779 3.1054916 -14.48046875 3.09765625 C-16.1352789 3.09579112 -17.79008961 3.09436766 -19.44490051 3.09336853 C-23.79981003 3.08955085 -28.15468618 3.07972695 -32.50958252 3.06866455 C-36.95364938 3.05843433 -41.39772163 3.05386745 -45.84179688 3.04882812 C-54.56121323 3.03810402 -63.28060246 3.02103657 -72 3 C-72 2.67 -72 2.34 -72 2 C-48.24 2 -24.48 2 0 2 C0 1.34 0 0.68 0 0 Z " fill="#A45AD6" transform="translate(147,265)"/>
<path d="M0 0 C0.66 0.99 1.32 1.98 2 3 C1.34 3 0.68 3 0 3 C0.33 3.598125 0.66 4.19625 1 4.8125 C2 7 2 7 2 10 C2.66 10 3.32 10 4 10 C3.67515625 10.96873047 3.67515625 10.96873047 3.34375 11.95703125 C0.47670385 21.65985872 0.7173369 30.99163238 1 41 C-1 39 -1 39 -1.24291992 36.86108398 C-1.23881104 35.99813721 -1.23470215 35.13519043 -1.23046875 34.24609375 C-1.22853516 33.30958984 -1.22660156 32.37308594 -1.22460938 31.40820312 C-1.21236328 30.42787109 -1.20011719 29.44753906 -1.1875 28.4375 C-1.18685547 27.45330078 -1.18621094 26.46910156 -1.18554688 25.45507812 C-1.14017532 18.14017532 -1.14017532 18.14017532 0 17 C0.17423601 13.16680771 -0.12196632 9.73164314 -1 6 C-1.99 6 -2.98 6 -4 6 C-4 6.66 -4 7.32 -4 8 C-6.375 8.1875 -6.375 8.1875 -9 8 C-9.66 7.01 -10.32 6.02 -11 5 C-10.113125 5.103125 -9.22625 5.20625 -8.3125 5.3125 C-3.99315142 4.90501428 -2.74357025 3.2277297 0 0 Z " fill="#A354DA" transform="translate(344,254)"/>
<path d="M0 0 C1.92958305 0.00137466 1.92958305 0.00137466 3.89814758 0.0027771 C6.60720786 0.00588827 9.31573258 0.02232672 12.0246582 0.04931641 C15.48797973 0.08339658 18.95071779 0.09094106 22.41418743 0.08942604 C25.73453576 0.09010174 29.05469458 0.10777967 32.375 0.125 C33.61465012 0.12722565 34.85430023 0.12945129 36.1315155 0.13174438 C37.28654068 0.14450409 38.44156586 0.15726379 39.6315918 0.17041016 C40.64448776 0.17803375 41.65738373 0.18565735 42.70097351 0.19351196 C45.63028745 0.47456215 47.82644454 1.23621587 50.48828125 2.4609375 C47.19825841 3.55761178 46.66007832 3.30280143 43.48828125 2.4609375 C41.65176953 2.36070889 39.81209961 2.31273953 37.97290039 2.29980469 C36.86817886 2.29019714 35.76345734 2.2805896 34.6252594 2.27069092 C33.43665817 2.26644104 32.24805695 2.26219116 31.0234375 2.2578125 C29.79797714 2.25211243 28.57251678 2.24641235 27.30992126 2.24053955 C24.71842308 2.23109534 22.12691292 2.22455787 19.53540039 2.22070312 C15.56961204 2.21098365 11.60433891 2.17994817 7.63867188 2.1484375 C5.12109683 2.14190867 2.60351808 2.13665773 0.0859375 2.1328125 C-1.1006395 2.1204657 -2.28721649 2.1081189 -3.50975037 2.09539795 C-4.61762405 2.09839905 -5.72549774 2.10140015 -6.86694336 2.10449219 C-7.83860947 2.10084656 -8.81027557 2.09720093 -9.81138611 2.09344482 C-12.62701476 2.29321236 -12.62701476 2.29321236 -15.11451721 4.04571533 C-17.51171875 5.4609375 -17.51171875 5.4609375 -19.82421875 5.1484375 C-20.38109375 4.9215625 -20.93796875 4.6946875 -21.51171875 4.4609375 C-14.3572913 -0.00829633 -8.30707016 -0.0967764 0 0 Z " fill="#3A1F4C" transform="translate(231.51171875,107.5390625)"/>
<path d="M0 0 C0.66 0.33 1.32 0.66 2 1 C2.84391848 4.58665352 3.35410332 7.07680206 2.015625 10.56640625 C0.60450678 15.33707131 0.86481998 19.80917044 1 24.75 C1.05088558 26.64039934 1.09299752 28.53106172 1.125 30.421875 C1.14820313 31.25299805 1.17140625 32.08412109 1.1953125 32.94042969 C1 35 1 35 -1 37 C-0.96519531 35.31197266 -0.96519531 35.31197266 -0.9296875 33.58984375 C-0.80361804 24.52177695 -1.1824747 15.89441797 -2.66015625 6.94140625 C-3 4 -3 4 -2 1 C-1.34 0.67 -0.68 0.34 0 0 Z " fill="#AD53E7" transform="translate(440,258)"/>
<path d="M0 0 C0.6824176 0.00141495 1.36483521 0.0028299 2.06793213 0.00428772 C4.23804184 0.00986541 6.4080467 0.02241371 8.578125 0.03515625 C10.05338392 0.04017414 11.52864447 0.04473654 13.00390625 0.04882812 C16.61201298 0.0598275 20.22005875 0.07707672 23.828125 0.09765625 C23.828125 0.42765625 23.828125 0.75765625 23.828125 1.09765625 C22.5277832 1.1116748 22.5277832 1.1116748 21.20117188 1.12597656 C17.95036759 1.17028202 14.70046873 1.23202578 11.45019531 1.30517578 C10.04992539 1.33320696 8.64950249 1.35450941 7.24902344 1.36865234 C-2.89210232 1.47715226 -10.39141271 2.21556581 -18.171875 9.34765625 C-18.749375 9.8684375 -19.326875 10.38921875 -19.921875 10.92578125 C-20.334375 11.3125 -20.746875 11.69921875 -21.171875 12.09765625 C-21.501875 10.44765625 -21.831875 8.79765625 -22.171875 7.09765625 C-21.181875 6.43765625 -20.191875 5.77765625 -19.171875 5.09765625 C-18.181875 5.42765625 -17.191875 5.75765625 -16.171875 6.09765625 C-16.171875 5.43765625 -16.171875 4.77765625 -16.171875 4.09765625 C-10.72991142 0.31851487 -6.54497753 -0.02682368 0 0 Z " fill="#392348" transform="translate(80.171875,74.90234375)"/>
<path d="M0 0 C0.54140625 0.22558594 1.0828125 0.45117188 1.640625 0.68359375 C-0.1228125 1.42609375 -0.1228125 1.42609375 -1.921875 2.18359375 C-7.58294271 5.00910002 -11.75514588 9.41689616 -14.54296875 15.09375 C-15.4383586 17.93414939 -15.59278875 20.2117221 -15.546875 23.18359375 C-15.53720703 24.5603125 -15.53720703 24.5603125 -15.52734375 25.96484375 C-15.36316488 28.62225062 -14.94672499 31.08985621 -14.359375 33.68359375 C-16.359375 32.68359375 -16.359375 32.68359375 -17.359375 29.68359375 C-17.48030995 27.39426697 -17.53475826 25.10108051 -17.546875 22.80859375 C-17.56105469 21.59429687 -17.57523438 20.38 -17.58984375 19.12890625 C-17.36984755 15.84014954 -16.77653118 13.62993427 -15.359375 10.68359375 C-14.699375 10.68359375 -14.039375 10.68359375 -13.359375 10.68359375 C-13.359375 9.03359375 -13.359375 7.38359375 -13.359375 5.68359375 C-11.61814951 4.64786479 -9.86600905 3.63046855 -8.109375 2.62109375 C-6.64757812 1.76837891 -6.64757812 1.76837891 -5.15625 0.8984375 C-2.359375 -0.31640625 -2.359375 -0.31640625 0 0 Z " fill="#A555D8" transform="translate(216.359375,108.31640625)"/>
<path d="M0 0 C3.7 1.4 3.7 1.4 5 4 C5.46622517 11.34304636 5.46622517 11.34304636 3.625 13.9375 C0.27854198 16.12556871 -1.99244728 16.40075527 -6 16 C-8.375 14.5 -8.375 14.5 -10 12 C-10.81753559 7.92900647 -10.65416433 5.00640667 -8.375 1.5 C-5.31754465 -0.43102443 -3.561827 -0.44522837 0 0 Z M-6.6875 2.6875 C-9.2646337 4.78460048 -9.2646337 4.78460048 -9.3125 7.75 C-9.209375 8.4925 -9.10625 9.235 -9 10 C-8.34 10 -7.68 10 -7 10 C-6.896875 10.639375 -6.79375 11.27875 -6.6875 11.9375 C-6.460625 12.618125 -6.23375 13.29875 -6 14 C-2.86650268 15.04449911 -2.01031744 14.93423645 1 14 C1 13.34 1 12.68 1 12 C1.99 11.67 2.98 11.34 4 11 C4.41725678 7.62599422 4.41725678 7.62599422 4 4 C0.22880416 0.84034943 -2.38536788 -0.01383877 -6.6875 2.6875 Z " fill="#432355" transform="translate(450,244)"/>
<path d="M0 0 C0.58120605 0.0714624 1.16241211 0.1429248 1.76123047 0.21655273 C8.57080653 0.98381947 15.27738901 1.11912783 22.125 1.0625 C23.176875 1.05798828 24.22875 1.05347656 25.3125 1.04882812 C27.87506221 1.03718011 30.43749877 1.02082553 33 1 C23.88452628 5.7149002 12.69322539 5.03147203 3 2 C2.01 1.34 1.02 0.68 0 0 Z " fill="#3C264E" transform="translate(374,328)"/>
<path d="M0 0 C2.5 1.5625 2.5 1.5625 4 4 C4.25 7.75 4.25 7.75 4 11 C3.01 11.495 3.01 11.495 2 12 C2 9.03 2 6.06 2 3 C-3.42340706 2.36395024 -3.42340706 2.36395024 -7.9375 4.6875 C-9.06218055 7.13533414 -9.63007332 9.33652788 -10 12 C-10.66 11.34 -11.32 10.68 -12 10 C-11.81898828 6.68145183 -11.54976448 4.00251169 -9.9375 1.0625 C-6.73507415 -0.69366901 -3.50309274 -0.62026592 0 0 Z " fill="#402652" transform="translate(364,221)"/>
<path d="M0 0 C0.66 0 1.32 0 2 0 C2 3.96 2 7.92 2 12 C1.34 12 0.68 12 0 12 C0 12.66 0 13.32 0 14 C-4.00137699 15.52052325 -6.13244049 16.30030906 -10.25 14.875 C-14.57720588 11.92463235 -14.57720588 11.92463235 -16 9 C-16.23492829 6.28005251 -16.13702151 3.74043023 -16 1 C-15.34 1 -14.68 1 -14 1 C-14.061875 2.0725 -14.12375 3.145 -14.1875 4.25 C-13.98860002 8.22799968 -13.76367501 9.28397456 -11 12 C-8.49119384 12.48261667 -8.49119384 12.48261667 -5.8125 12.25 C-4.91144531 12.21390625 -4.01039063 12.1778125 -3.08203125 12.140625 C-2.39496094 12.09421875 -1.70789063 12.0478125 -1 12 C-0.03929566 9.11788698 0.10581883 7.30149956 0.0625 4.3125 C0.05347656 3.50425781 0.04445313 2.69601563 0.03515625 1.86328125 C0.02355469 1.24839844 0.01195312 0.63351563 0 0 Z " fill="#A254D5" transform="translate(367,223)"/>
<path d="M0 0 C2.64 0.33 5.28 0.66 8 1 C8.33 1.99 8.66 2.98 9 4 C7.741875 3.9175 6.48375 3.835 5.1875 3.75 C1.79097837 3.7351016 1.79097837 3.7351016 -1 5.625 C-2.2706326 8.64275242 -2.33854923 10.74992741 -2 14 C-1.10168984 16.30230766 -1.10168984 16.30230766 0 18 C-1.32 17.67 -2.64 17.34 -4 17 C-5.19354869 13.27016034 -5.40965996 9.89176961 -5 6 C-2.5 3.125 -2.5 3.125 0 1 C0 0.67 0 0.34 0 0 Z " fill="#A456DC" transform="translate(332,241)"/>
<path d="M0 0 C0.33 0.99 0.66 1.98 1 3 C0.01 3.5259375 0.01 3.5259375 -1 4.0625 C-3.41103961 5.96557142 -3.41103961 5.96557142 -3.25 9.6875 C-3.1675 10.780625 -3.085 11.87375 -3 13 C-4.65 13.66 -6.3 14.32 -8 15 C-8 17.97 -8 20.94 -8 24 C-8.33 24 -8.66 24 -9 24 C-9.53863186 15.8606741 -9.080992 9.73996238 -3.62109375 3.3984375 C-2.46219648 2.21642832 -1.23722514 1.09975568 0 0 Z " fill="#3D274D" transform="translate(209,113)"/>
<path d="M0 0 C0.66 0.33 1.32 0.66 2 1 C2 2.32 2 3.64 2 5 C1.34 5 0.68 5 0 5 C0.33 5.66 0.66 6.32 1 7 C1.99 7 2.98 7 4 7 C3 9 2 11 1 13 C-0.32 12.34 -1.64 11.68 -3 11 C-3.36923077 4.6 -3.36923077 4.6 -1.5 1.5625 C-1.005 1.046875 -0.51 0.53125 0 0 Z " fill="#2B2A2E" transform="translate(334,245)"/>
<path d="M0 0 C0.33 0 0.66 0 1 0 C0.91231752 1.5843317 0.80412671 3.16753567 0.6875 4.75 C0.62949219 5.63171875 0.57148438 6.5134375 0.51171875 7.421875 C-0.07228019 10.36415975 -1.08030896 11.73476458 -3 14 C-4.01656081 15.65661761 -5.02065076 17.32111559 -6 19 C-6.99 18.67 -7.98 18.34 -9 18 C-8.60167969 17.3709375 -8.20335937 16.741875 -7.79296875 16.09375 C-4.5403507 10.83891208 -1.95448384 5.86345152 0 0 Z " fill="#9F53D1" transform="translate(438,296)"/>
<path d="M0 0 C0.66 0 1.32 0 2 0 C2.10824843 1.6026782 2.18570645 3.20745748 2.25 4.8125 C2.29640625 5.70582031 2.3428125 6.59914062 2.390625 7.51953125 C2 10 2 10 0.296875 11.79296875 C-3.69238005 13.88936299 -7.62151955 13.76368845 -12 13 C-14.625 10.9375 -14.625 10.9375 -16 8 C-16.25 4.1875 -16.25 4.1875 -16 1 C-15.01 1.495 -15.01 1.495 -14 2 C-13.66073053 4.33247761 -13.32759934 6.66585471 -13 9 C-11.18806994 11.24324836 -11.18806994 11.24324836 -8.6171875 11.1953125 C-7.25980469 11.16050781 -7.25980469 11.16050781 -5.875 11.125 C-4.96492188 11.10695312 -4.05484375 11.08890625 -3.1171875 11.0703125 C-2.41851562 11.04710937 -1.71984375 11.02390625 -1 11 C-0.08307039 8.24921116 0.10886083 6.64051087 0.0625 3.8125 C0.041875 2.554375 0.02125 1.29625 0 0 Z " fill="#9B54CB" transform="translate(431,224)"/>
<path d="M0 0 C0.99 1.485 0.99 1.485 2 3 C4.41607417 3.79798218 4.41607417 3.79798218 7.125 4.1875 C8.03507812 4.34605469 8.94515625 4.50460938 9.8828125 4.66796875 C10.58148438 4.77753906 11.28015625 4.88710937 12 5 C12 5.66 12 6.32 12 7 C9.77109005 8.11445498 8.46944894 8.16480286 6 8.1875 C4.948125 8.20876953 4.948125 8.20876953 3.875 8.23046875 C2 8 2 8 0 6 C-0.125 2.875 -0.125 2.875 0 0 Z " fill="#2D2931" transform="translate(354,228)"/>
<path d="M0 0 C1.7492214 -0.08142927 3.49954542 -0.13938541 5.25 -0.1875 C6.22453125 -0.22230469 7.1990625 -0.25710937 8.203125 -0.29296875 C11.49771319 0.05213476 12.80428474 0.51428461 15 3 C15.390625 5.91796875 15.390625 5.91796875 15.25 9.1875 C15.21390625 10.27417969 15.1778125 11.36085937 15.140625 12.48046875 C15.07101562 13.72763672 15.07101562 13.72763672 15 15 C13.68 15.33 12.36 15.66 11 16 C11.33 15.484375 11.66 14.96875 12 14.4375 C13.37020241 11.09763163 13.3898913 8.57400356 13 5 C11.48105194 2.90235835 11.48105194 2.90235835 9 2 C5.55072966 1.71842691 3.29047207 1.90317598 0 3 C0 2.01 0 1.02 0 0 Z " fill="#A655DA" transform="translate(386,211)"/>
<path d="M0 0 C-0.54269531 0.25394531 -1.08539063 0.50789062 -1.64453125 0.76953125 C-2.35996094 1.11371094 -3.07539063 1.45789063 -3.8125 1.8125 C-4.52019531 2.14894531 -5.22789062 2.48539063 -5.95703125 2.83203125 C-8.02393472 4.01368352 -9.36403452 5.29050799 -11 7 C-11.804375 7.474375 -12.60875 7.94875 -13.4375 8.4375 C-16.04626794 10.02821216 -17.9256965 11.77204439 -20 14 C-18.42122876 8.21117211 -14.15927699 3.93505716 -9.125 0.8515625 C-5.65886581 -0.77692296 -3.59865307 -1.1289892 0 0 Z " fill="#422555" transform="translate(190,189)"/>
<path d="M0 0 C3.96 0 7.92 0 12 0 C8.51396961 3.48603039 6.44084555 5.20476456 2 7 C1.01 6.67 0.02 6.34 -1 6 C-0.34 6 0.32 6 1 6 C0.67 4.02 0.34 2.04 0 0 Z " fill="#392541" transform="translate(408,322)"/>
<path d="M0 0 C0.66 0.66 1.32 1.32 2 2 C1.01 2 0.02 2 -1 2 C-1 2.66 -1 3.32 -1 4 C-1.7425 4.144375 -2.485 4.28875 -3.25 4.4375 C-5.52027739 4.90187492 -7.75759479 5.41863569 -10 6 C-10.33 7.32 -10.66 8.64 -11 10 C-10.51644989 3.59296098 -10.51644989 3.59296098 -8.3125 1.0625 C-5.34831544 -0.29942264 -3.22654537 -0.35071145 0 0 Z " fill="#3E2A4C" transform="translate(395,212)"/>
<path d="M0 0 C6.1249389 6.40334522 5.19201593 16.03892453 5.0703125 24.25390625 C5.04710937 25.16011719 5.02390625 26.06632812 5 27 C4.67 27 4.34 27 4 27 C4 23.04 4 19.08 4 15 C3.34 15 2.68 15 2 15 C1.93941406 14.36191406 1.87882812 13.72382813 1.81640625 13.06640625 C1.73261719 12.24011719 1.64882813 11.41382813 1.5625 10.5625 C1.48128906 9.73878906 1.40007812 8.91507812 1.31640625 8.06640625 C1.21069185 6.01337975 1.21069185 6.01337975 0 5 C-0.04063832 3.33382885 -0.042721 1.66611905 0 0 Z " fill="#452757" transform="translate(435,264)"/>
<path d="M0 0 C1 2 1 2 0.14453125 4.609375 C-2.18294977 10.09704285 -4.41541861 15.22055815 -8 20 C-8.66 18.68 -9.32 17.36 -10 16 C-9.34 15.67 -8.68 15.34 -8 15 C-7.67 14.01 -7.34 13.02 -7 12 C-6.34 12 -5.68 12 -5 12 C-5 11.01 -5 10.02 -5 9 C-4.34 9 -3.68 9 -3 9 C-2.87625 8.071875 -2.7525 7.14375 -2.625 6.1875 C-2 3 -2 3 0 0 Z " fill="#3A2449" transform="translate(438,294)"/>
<path d="M0 0 C2.87255066 2.42195448 3.70838919 4.59742703 4.6875 8.1875 C4.93886719 9.08855469 5.19023437 9.98960937 5.44921875 10.91796875 C5.63097656 11.60503906 5.81273437 12.29210937 6 13 C7.32 12.67 8.64 12.34 10 12 C10 14.31 10 16.62 10 19 C4.78799331 14.68148017 2.29576045 9.31089894 0 3 C0 2.01 0 1.02 0 0 Z " fill="#3E2351" transform="translate(346,296)"/>
<path d="M0 0 C1.65 0 3.3 0 5 0 C2.18733412 2.14481827 -0.68055066 4.16531633 -3.625 6.125 C-4.40101563 6.64320313 -5.17703125 7.16140625 -5.9765625 7.6953125 C-8 9 -8 9 -10 10 C-9.67 7.69 -9.34 5.38 -9 3 C-4.545 2.505 -4.545 2.505 0 2 C0 1.34 0 0.68 0 0 Z " fill="#A254D8" transform="translate(369,239)"/>
<path d="M0 0 C2.30344248 0.46134756 4.58108736 0.95993787 6.85546875 1.546875 C6.85546875 1.876875 6.85546875 2.206875 6.85546875 2.546875 C5.2531992 2.76932893 3.64850108 2.97434169 2.04296875 3.171875 C0.70298828 3.34589844 0.70298828 3.34589844 -0.6640625 3.5234375 C-3.14453125 3.546875 -3.14453125 3.546875 -6.14453125 1.546875 C-9.5776029 1.30416675 -9.5776029 1.30416675 -13.33203125 1.421875 C-14.60433594 1.43992188 -15.87664062 1.45796875 -17.1875 1.4765625 C-18.16332031 1.49976563 -19.13914062 1.52296875 -20.14453125 1.546875 C-14.50811087 -2.21073858 -6.52329186 -0.94000231 0 0 Z " fill="#422851" transform="translate(400.14453125,236.453125)"/>
<path d="M0 0 C3.11861649 0.53082834 4.07508747 1.0167833 5.9375 3.5 C3.2975 3.17 0.6575 2.84 -2.0625 2.5 C-4.4919516 6.1441774 -4.22429575 8.21241272 -4.0625 12.5 C-5.0525 12.995 -5.0525 12.995 -6.0625 13.5 C-7.48912219 10.64675563 -7.37283868 8.66545451 -7.0625 5.5 C-5.03824263 1.91862157 -4.11198807 0.67134499 0 0 Z " fill="#41224F" transform="translate(336.0625,243.5)"/>
<path d="M0 0 C3.3 0 6.6 0 10 0 C9.01 1.485 9.01 1.485 8 3 C7.34 3 6.68 3 6 3 C6.33 4.32 6.66 5.64 7 7 C4.13302508 5.71480435 2.02392288 4.42870746 0 2 C0 1.34 0 0.68 0 0 Z " fill="#AA54E5" transform="translate(62,258)"/>
<path d="M0 0 C0.33 0 0.66 0 1 0 C1.99 5.28 2.98 10.56 4 16 C2.68 16.33 1.36 16.66 0 17 C0 11.39 0 5.78 0 0 Z " fill="#E5E5E5" transform="translate(0,420)"/>
<path d="M0 0 C0.33 0 0.66 0 1 0 C1.47863248 6.22222222 1.47863248 6.22222222 -0.5 9.4375 C-4.23584354 11.77240221 -6.63400029 11.49293545 -11 11 C-11.66 10.01 -12.32 9.02 -13 8 C-11.9275 8.165 -10.855 8.33 -9.75 8.5 C-5.96971248 9.08810915 -5.96971248 9.08810915 -2 9 C-2 7.68 -2 6.36 -2 5 C-1.34 5 -0.68 5 0 5 C0 3.35 0 1.7 0 0 Z " fill="#3D234D" transform="translate(431,225)"/>
<path d="M0 0 C0.99 0 1.98 0 3 0 C2 3 2 3 0.375 4.25 C-3.0402198 5.32849046 -5.55424873 4.82953271 -9 4 C-9.66 3.01 -10.32 2.02 -11 1 C-7.7 1.33 -4.4 1.66 -1 2 C-0.67 1.34 -0.34 0.68 0 0 Z " fill="#43244E" transform="translate(116,255)"/>
<path d="M0 0 C0.66 0.66 1.32 1.32 2 2 C1.01 2.495 1.01 2.495 0 3 C-0.66 2.67 -1.32 2.34 -2 2 C-6.10705471 1.61061662 -6.10705471 1.61061662 -9.8125 3.125 C-11.42228269 5.66676215 -11.67109009 8.0398108 -12 11 C-12.33 11 -12.66 11 -13 11 C-13.47633136 4.80769231 -13.47633136 4.80769231 -11.5625 1.5625 C-7.86621203 -0.69133413 -4.23670507 -0.70339119 0 0 Z " fill="#9F56D4" transform="translate(452,243)"/>
<path d="M0 0 C3.53372712 1.96318174 6.24479785 4.04070881 9 7 C8.67 7.66 8.34 8.32 8 9 C7.4225 8.505 6.845 8.01 6.25 7.5 C3.89599371 5.63019987 3.89599371 5.63019987 0 6 C0 4.02 0 2.04 0 0 Z " fill="#37243F" transform="translate(283,111)"/>
<path d="M0 0 C0.8971875 0.309375 0.8971875 0.309375 1.8125 0.625 C-1.67837093 4.6292343 -3.83701939 6.25171065 -9.1875 6.625 C-3.65359043 -0.62632979 -3.65359043 -0.62632979 0 0 Z " fill="#A856DA" transform="translate(71.1875,78.375)"/>
<path d="M0 0 C0 0.66 0 1.32 0 2 C-3.58045212 4.74778884 -6.4923533 6.46968862 -11 7 C-11.33 6.34 -11.66 5.68 -12 5 C-10.35 4.67 -8.7 4.34 -7 4 C-7 3.34 -7 2.68 -7 2 C-2.25 0 -2.25 0 0 0 Z " fill="#AC52E1" transform="translate(414,327)"/>
<path d="M0 0 C0.93423645 3.01031744 1.04449911 3.86650268 0 7 C-0.66 7 -1.32 7 -2 7 C-2 7.66 -2 8.32 -2 9 C-3.65 9.33 -5.3 9.66 -7 10 C-6.57847656 9.44570313 -6.15695313 8.89140625 -5.72265625 8.3203125 C-5.17480469 7.59585937 -4.62695312 6.87140625 -4.0625 6.125 C-3.51722656 5.40570313 -2.97195312 4.68640625 -2.41015625 3.9453125 C-0.96035376 2.05642921 -0.96035376 2.05642921 0 0 Z " fill="#462653" transform="translate(165,254)"/>
<path d="M0 0 C4.75481646 0.57634139 7.97048212 2.55068521 12 5 C8.37673261 6.2077558 7.35853631 5.54311128 4 4 C4 3.34 4 2.68 4 2 C2.68 1.67 1.36 1.34 0 1 C0 0.67 0 0.34 0 0 Z " fill="#3F234B" transform="translate(407,239)"/>
<path d="M0 0 C0.66 0.33 1.32 0.66 2 1 C1.02433888 2.16959987 0.044375 3.33561177 -0.9375 4.5 C-1.48277344 5.1496875 -2.02804688 5.799375 -2.58984375 6.46875 C-3.05519531 6.9740625 -3.52054688 7.479375 -4 8 C-4.33 8 -4.66 8 -5 8 C-5 6.02 -5 4.04 -5 2 C-2.625 0.9375 -2.625 0.9375 0 0 Z " fill="#A052D0" transform="translate(176,192)"/>
<path d="M0 0 C0.66 0 1.32 0 2 0 C2.33 3.3 2.66 6.6 3 10 C1.02 10.66 -0.96 11.32 -3 12 C-2.2575 10.9790625 -2.2575 10.9790625 -1.5 9.9375 C0.30365111 6.40534991 0.23021353 3.91363009 0 0 Z " fill="#3C2844" transform="translate(279,127)"/>
<path d="M0 0 C2 1 2 1 2 1 Z M-3 0 C-2.01 0.33 -1.02 0.66 0 1 C0 1.66 0 2.32 0 3 C0.66 3.33 1.32 3.66 2 4 C1.01 4.33 0.02 4.66 -1 5 C-1 4.34 -1 3.68 -1 3 C-1.94875 3.04125 -2.8975 3.0825 -3.875 3.125 C-7 3 -7 3 -9 1 C-6.03 1.495 -6.03 1.495 -3 2 C-3 1.34 -3 0.68 -3 0 Z " fill="#AB51E7" transform="translate(421,239)"/>
<path d="M0 0 C0.33 0 0.66 0 1 0 C1.14285714 8.57142857 1.14285714 8.57142857 0 12 C-0.99 12 -1.98 12 -3 12 C-2.25749403 7.91621717 -1.17076699 3.98060777 0 0 Z " fill="#36283F" transform="translate(247,128)"/>
<path d="M0 0 C1.99097846 2.98646769 2.94124926 5.59687262 4 9 C2.02 9.99 2.02 9.99 0 11 C0 7.37 0 3.74 0 0 Z " fill="#A051D4" transform="translate(345,296)"/>
<path d="M0 0 C-1.11328125 1.48828125 -1.11328125 1.48828125 -3 3 C-5.91796875 3.29296875 -5.91796875 3.29296875 -9.1875 3.1875 C-10.27417969 3.16042969 -11.36085938 3.13335937 -12.48046875 3.10546875 C-13.72763672 3.05326172 -13.72763672 3.05326172 -15 3 C-10.38649226 -0.07567183 -5.44961357 -0.16513981 0 0 Z " fill="#35243F" transform="translate(389,237)"/>
<path d="M0 0 C2.64 0.66 5.28 1.32 8 2 C8 1.34 8 0.68 8 0 C9.32 0 10.64 0 12 0 C12 0.66 12 1.32 12 2 C9.78704384 3.10647808 8.45327301 3.19588368 6 3.25 C5.29875 3.27578125 4.5975 3.3015625 3.875 3.328125 C3.25625 3.21984375 2.6375 3.1115625 2 3 C1.34 2.01 0.68 1.02 0 0 Z " fill="#3B2349" transform="translate(354,233)"/>
<path d="M0 0 C2.475 0.495 2.475 0.495 5 1 C5.33 1.99 5.66 2.98 6 4 C6.99 4 7.98 4 9 4 C9 4.66 9 5.32 9 6 C4.64464931 4.83857315 2.35380297 3.92300495 0 0 Z " fill="#432750" transform="translate(208,149)"/>
<path d="M0 0 C0.66 0 1.32 0 2 0 C5.00617269 3.00617269 4.59585316 5.82381598 5 10 C2.66063182 7.87330165 1.19346152 5.93775144 0 3 C0 2.01 0 1.02 0 0 Z " fill="#382345" transform="translate(201,137)"/>
<path d="M0 0 C0.33 0 0.66 0 1 0 C1 2.31 1 4.62 1 7 C0.34 7 -0.32 7 -1 7 C-1 9.31 -1 11.62 -1 14 C-1.33 14 -1.66 14 -2 14 C-2.3690205 4.58997722 -2.3690205 4.58997722 0 0 Z " fill="#9A53C5" transform="translate(58,89)"/>
<path d="M0 0 C2.0625 0.4375 2.0625 0.4375 4 1 C3.67 2.32 3.34 3.64 3 5 C2.01 5 1.02 5 0 5 C-0.5625 3.0625 -0.5625 3.0625 -1 1 C-0.67 0.67 -0.34 0.34 0 0 Z " fill="#333331" transform="translate(167,270)"/>
<path d="M0 0 C1.66666667 0 3.33333333 0 5 0 C4.6875 1.875 4.6875 1.875 4 4 C3.01 4.66 2.02 5.32 1 6 C0.34 4.35 -0.32 2.7 -1 1 C-0.67 0.67 -0.34 0.34 0 0 Z " fill="#353534" transform="translate(171,266)"/>
<path d="M0 0 C1 3 1 3 0.22265625 4.82421875 C-0.8515625 6.54947917 -1.92578125 8.27473958 -3 10 C-4 8 -4 8 -3.1875 5 C-2 2 -2 2 0 0 Z " fill="#392347" transform="translate(294,137)"/>
<path d="M0 0 C-1.24176695 0.70226141 -2.49385599 1.38629109 -3.75 2.0625 C-4.79414063 2.63677734 -4.79414063 2.63677734 -5.859375 3.22265625 C-8.36140628 4.1312406 -9.5332355 3.88336837 -12 3 C-10.75823305 2.29773859 -9.50614401 1.61370891 -8.25 0.9375 C-7.20585937 0.36322266 -7.20585937 0.36322266 -6.140625 -0.22265625 C-3.63859372 -1.1312406 -2.4667645 -0.88336837 0 0 Z " fill="#4B2962" transform="translate(222,109)"/>
<path d="M0 0 C-0.54269531 0.26554687 -1.08539063 0.53109375 -1.64453125 0.8046875 C-2.71767578 1.33449219 -2.71767578 1.33449219 -3.8125 1.875 C-4.52019531 2.22304687 -5.22789062 2.57109375 -5.95703125 2.9296875 C-8.21246418 4.0656486 -8.21246418 4.0656486 -11 6 C-10.875 4.1875 -10.875 4.1875 -10 2 C-6.24352856 -0.42083715 -4.248227 -1.35464071 0 0 Z " fill="#A257D2" transform="translate(218,109)"/>
<path d="M0 0 C0 2.31 0 4.62 0 7 C-1.37562854 5.71034824 -2.70766393 4.37310707 -4 3 C-4 2.34 -4 1.68 -4 1 C-2 0 -2 0 0 0 Z " fill="#372643" transform="translate(356,308)"/>
<path d="M0 0 C1.231394 2.46278801 1.07159196 4.2795055 1 7 C-0.65 6.67 -2.3 6.34 -4 6 C-2.84826645 3.53199953 -1.95216435 1.95216435 0 0 Z " fill="#392643" transform="translate(357,251)"/>
<path d="M0 0 C0.91058531 3.07322544 1.08886184 5.80097361 1 9 C0.01 9.495 0.01 9.495 -1 10 C-2.25 3.375 -2.25 3.375 0 0 Z " fill="#422859" transform="translate(418,223)"/>
<path d="M0 0 C2.12038635 2.61514317 4.13091744 5.19637616 6 8 C4.35 7.67 2.7 7.34 1 7 C0 4 0 4 0 0 Z " fill="#9852CC" transform="translate(202,142)"/>
<path d="M0 0 C2.64 0 5.28 0 8 0 C8.33 1.32 8.66 2.64 9 4 C6.03 3.01 3.06 2.02 0 1 C0 0.67 0 0.34 0 0 Z " fill="#9F51CE" transform="translate(277,108)"/>
<path d="M0 0 C4.455 2.97 4.455 2.97 9 6 C6 7 6 7 3 6 C3 5.34 3 4.68 3 4 C2.01 3.67 1.02 3.34 0 3 C0 2.01 0 1.02 0 0 Z " fill="#40254E" transform="translate(62,260)"/>
<path d="M0 0 C0.66 0 1.32 0 2 0 C2 3.3 2 6.6 2 10 C0.02 10.99 0.02 10.99 -2 12 C-1.505 11.2575 -1.505 11.2575 -1 10.5 C0.43636358 6.90909106 0.12851462 3.85543873 0 0 Z " fill="#A355D6" transform="translate(431,224)"/>
<path d="M0 0 C0.33 0 0.66 0 1 0 C1 2.64 1 5.28 1 8 C-0.65 8 -2.3 8 -4 8 C-2.68 5.36 -1.36 2.72 0 0 Z " fill="#E7E7E7" transform="translate(511,200)"/>
<path d="M0 0 C0.99 0.33 1.98 0.66 3 1 C3 2.65 3 4.3 3 6 C1.68 6.33 0.36 6.66 -1 7 C-0.34 6.67 0.32 6.34 1 6 C0.67 4.02 0.34 2.04 0 0 Z " fill="#332938" transform="translate(408,322)"/>
</svg>
