<?xml version="1.0" encoding="UTF-8"?>
<svg version="1.1" xmlns="http://www.w3.org/2000/svg" width="512" height="512">
<path d="M0 0 C55.11 0 110.22 0 167 0 C165.68 2.31 164.36 4.62 163 7 C162.37238494 8.24423989 161.75924543 9.49617416 161.17578125 10.76171875 C156.95007649 19.69832268 152.30121131 27.32795845 146 35 C145.44957031 35.71414062 144.89914063 36.42828125 144.33203125 37.1640625 C136.45590046 46.92657523 125.83185294 53.48842417 114.703125 58.91796875 C111.6911549 60.82540687 111.6911549 60.82540687 110.921875 64.45703125 C111.00882306 68.4001256 111.46514851 69.57180948 114 72.5 C114.98613281 73.6446875 114.98613281 73.6446875 115.9921875 74.8125 C116.65476562 75.534375 117.31734375 76.25625 118 77 C118.51820312 77.598125 119.03640625 78.19625 119.5703125 78.8125 C131.57357959 91.84117182 150.26382823 101.60238334 167.80078125 103.38671875 C168.85652344 103.58910156 169.91226563 103.79148437 171 104 C172.875 107.5 172.875 107.5 174 111 C175.00836062 112.23267348 175.00836062 112.23267348 177.06640625 112.09765625 C177.89011719 112.08605469 178.71382812 112.07445313 179.5625 112.0625 C180.38878906 112.05347656 181.21507812 112.04445313 182.06640625 112.03515625 C182.70449219 112.02355469 183.34257812 112.01195313 184 112 C186.09894235 105.70317294 184.71505811 99.84990835 183.125 93.625 C182.77283068 92.20067074 182.4212702 90.7761908 182.0703125 89.3515625 C181.89387207 88.63758301 181.71743164 87.92360352 181.53564453 87.18798828 C175.73872391 63.50886221 176.76219601 39.20844583 177 15 C179.64 15 182.28 15 185 15 C185.03440186 15.5669458 185.06880371 16.1338916 185.10424805 16.71801758 C186.67440934 40.91310759 190.54729052 62.66130859 209 80 C215.73676013 85.7691164 223.63085772 88.36969814 232 91 C232.7321875 91.2371875 233.464375 91.474375 234.21875 91.71875 C240.32489663 93.47814818 246.68552906 93.68427645 253 94 C254.34578125 94.08121094 254.34578125 94.08121094 255.71875 94.1640625 C273.76163778 94.76186902 292.78853301 88.84421492 306.40234375 76.890625 C322.88249485 60.10059072 325.47943402 37.35108371 327 15 C329.64 15 332.28 15 335 15 C339.25596689 33.72326917 335.71779089 55.2436453 333 74 C332.89316895 74.78874512 332.78633789 75.57749023 332.67626953 76.39013672 C330.16170401 94.72705867 324.65831269 113.16994616 317 130 C316.68869141 130.72364746 316.37738281 131.44729492 316.05664062 132.19287109 C309.52633147 147.18921451 309.52633147 147.18921451 302.5 150.25 C300.34960434 150.89071891 298.17998484 151.4685978 296 152 C294.59875528 152.42709401 293.20043427 152.86386123 291.8046875 153.30859375 C269.4866582 160.30628719 245.58349416 162.58255526 223.12451172 154.73095703 C220.94411973 153.9807739 218.74854729 153.32918629 216.53515625 152.68359375 C208.57262745 150.21772656 203.37832264 147.6059996 199.06640625 140.07421875 C198.71449219 139.38972656 198.36257812 138.70523438 198 138 C196.83622098 136.61857444 196.83622098 136.61857444 193.625 136.75 C190.15119737 136.72159691 190.15119737 136.72159691 188.0625 138.125 C186.48186721 140.91435199 186.62097962 142.84149685 187 146 C187.515625 146.825 188.03125 147.65 188.5625 148.5 C190.49029709 151.85269059 189.89947957 153.27721609 189 157 C188.0327777 159.22258624 186.97683633 161.40761984 185.859375 163.55859375 C185.54119812 164.17538498 185.22302124 164.79217621 184.89520264 165.42765808 C183.85562963 167.43567293 182.80345281 169.43673646 181.75 171.4375 C181.01736776 172.84217546 180.28494812 174.24696182 179.55273438 175.65185547 C174.35136491 185.593985 168.9280489 195.39661341 163.34375 205.12890625 C159.82590492 211.26927947 156.42978583 217.47473015 153.03103638 223.68136597 C140.69351077 246.19127912 127.35974614 268.08780055 114 290 C110.92320897 287.13774439 109.61299533 284.24020918 107.9375 280.375 C106.34687895 275.8970092 106.34687895 275.8970092 103 273 C98.98770956 272.54146189 98.98770956 272.54146189 95.47119141 274.14135742 C93.53191693 276.59135685 92.55618628 279.08609547 91.3984375 281.98828125 C90.90730469 283.16970703 90.41617188 284.35113281 89.91015625 285.56835938 C88.88826434 288.04523071 87.89455979 290.5289746 86.91015625 293.02148438 C83.59372941 300.90121171 80.71087076 305.21807228 73 309 C72.30970703 309.37729248 71.61941406 309.75458496 70.90820312 310.14331055 C68.32360122 311.54961948 65.69941594 312.86873012 63.06835938 314.18554688 C59.78416515 315.87638587 58.09135753 316.8629637 56 320 C55.49985047 322.45741537 55.49985047 322.45741537 56 325 C58.60030064 327.99785967 61.22598343 329.87211127 64.73046875 331.69140625 C65.61541016 332.16126953 66.50035156 332.63113281 67.41210938 333.11523438 C69.27318548 334.08571812 71.13517668 335.05444891 72.99804688 336.02148438 C74.3196582 336.7243457 74.3196582 336.7243457 75.66796875 337.44140625 C76.47516357 337.86107666 77.2823584 338.28074707 78.11401367 338.71313477 C80 340 80 340 81 343 C80.03466797 345.05859375 80.03466797 345.05859375 78.4921875 347.4375 C77.92411377 348.3229248 77.35604004 349.20834961 76.77075195 350.12060547 C76.14515381 351.07080566 75.51955566 352.02100586 74.875 353 C74.23844482 353.98242676 73.60188965 354.96485352 72.94604492 355.97705078 C67.28721356 364.66797402 61.45961894 373.2413787 55.54931641 381.76269531 C53.99900207 384.00144107 52.45706916 386.24572028 50.91796875 388.4921875 C50.42578857 389.21035645 49.9336084 389.92852539 49.42651367 390.66845703 C48.51388817 392.00014368 47.60128806 393.33184773 46.6887207 394.66357422 C46.27581787 395.26443848 45.86291504 395.86530273 45.4375 396.484375 C45.04046875 397.07025391 44.6434375 397.65613281 44.234375 398.25976562 C43 400 43 400 41.578125 401.72460938 C39.12792839 404.7701487 37.63973842 407.10099463 37.3828125 411.06640625 C38.09811214 415.62530964 39.66841697 417.83659932 42.875 420.9375 C43.37821777 421.44982178 43.88143555 421.96214355 44.39990234 422.48999023 C45.91359118 424.01486162 47.45394217 425.50806441 49 427 C50.16789062 428.17949219 50.16789062 428.17949219 51.359375 429.3828125 C77.09937381 454.14646653 113.71655104 465.69676499 148 472 C147.94199219 472.67546875 147.88398438 473.3509375 147.82421875 474.046875 C147.77910156 474.93890625 147.73398438 475.8309375 147.6875 476.75 C147.62949219 477.63171875 147.57148438 478.5134375 147.51171875 479.421875 C147.78553031 482.14081759 147.78553031 482.14081759 149.92578125 484.02734375 C176.36751193 500.99440092 210.00818733 508.97119059 241 511 C241 511.33 241 511.66 241 512 C161.47 512 81.94 512 0 512 C0 343.04 0 174.08 0 0 Z " fill="#F6F6F6" transform="translate(0,0)"/>
<path d="M0 0 C55.11 0 110.22 0 167 0 C167 168.96 167 337.92 167 512 C89.78 512 12.56 512 -67 512 C-67 511.67 -67 511.34 -67 511 C-66.39865234 510.91548584 -65.79730469 510.83097168 -65.17773438 510.74389648 C-39.83738964 507.08793405 -15.88784244 500.13335132 7.3125 489.3125 C8.13210205 488.93174316 8.9517041 488.55098633 9.79614258 488.15869141 C10.94312622 487.61027588 10.94312622 487.61027588 12.11328125 487.05078125 C12.79173096 486.72762939 13.47018066 486.40447754 14.16918945 486.0715332 C16.14921729 484.9126664 17.52992085 483.75993013 19 482 C19.36213568 479.48710325 19.36213568 479.48710325 19.1875 476.8125 C19.16042969 475.91144531 19.13335937 475.01039063 19.10546875 474.08203125 C19.07066406 473.39496094 19.03585937 472.70789063 19 472 C20.28261719 471.71511719 21.56523437 471.43023437 22.88671875 471.13671875 C23.71220215 470.95286621 24.53768555 470.76901367 25.38818359 470.57958984 C27.05453088 470.20980966 28.72146825 469.84267185 30.38916016 469.47900391 C64.88036951 461.91570077 108.8814192 446.45294879 129.30078125 414.99609375 C130.22762955 412.35017486 130.43394508 410.80017393 130 408 C128.54535319 405.6062774 127.06219218 403.47114904 125.375 401.25 C119.06049444 392.62171498 113.10278409 383.77883962 107.1875 374.875 C106.71006348 374.1570929 106.23262695 373.43918579 105.74072266 372.69952393 C88.97592394 347.48376829 72.60582334 322.06557191 56.91992188 296.16308594 C54.90685362 292.84654063 52.88402212 289.53604309 50.859375 286.2265625 C41.32308054 270.62454913 32.04807542 254.89177514 23 239 C22.45424316 238.04351562 21.90848633 237.08703125 21.34619141 236.1015625 C8.23485081 213.10396054 -4.67987789 189.98940301 -16.71630859 166.40820312 C-17.58875017 164.77150406 -18.51088004 163.16054005 -19.47509766 161.57617188 C-22.99126859 155.77515509 -22.99126859 155.77515509 -23.03515625 151.87890625 C-21.78259128 148.39535764 -20.19614131 145.18371229 -18.4375 141.9375 C-14.19496421 133.80702264 -10.93754256 125.40576022 -7.76171875 116.8125 C-7.45951416 116.00466064 -7.15730957 115.19682129 -6.84594727 114.36450195 C-6.28987402 112.81022507 -5.77570896 111.24019729 -5.30834961 109.65698242 C-4.6328125 107.48046875 -4.6328125 107.48046875 -3 104 C-0.35546875 102.73828125 -0.35546875 102.73828125 2.8125 102.3125 C24.22229886 98.49101705 41.6000882 87.08796092 55 70 C56.50275341 66.99449319 56.58765005 65.33001693 56 62 C53.62490522 59.86374156 50.80238039 58.50555777 48 57 C28.7167889 45.84223358 14.95779844 29.7322653 5.359375 9.7265625 C4.02964541 7.05946121 2.55434648 4.54109453 1 2 C0.505 1.01 0.505 1.01 0 0 Z " fill="#F6F6F6" transform="translate(345,0)"/>
<path d="M0 0 C2.98883333 1.49684782 3.70222356 3.64411701 5.16577148 6.60986328 C5.45759811 7.18947311 5.74942474 7.76908295 6.0500946 8.36625671 C6.67898807 9.61793163 7.301827 10.87266302 7.91925049 12.1300354 C9.56332702 15.47528956 11.25348394 18.79717532 12.93920898 22.12158203 C13.27829285 22.79293686 13.61737671 23.46429169 13.96673584 24.1559906 C16.99809319 30.13331944 20.2382135 35.97778407 23.57592773 41.78955078 C28.04509246 49.58524277 32.38784428 57.4349573 36.63842773 65.35205078 C41.42276729 74.24089103 46.39322806 82.98106334 51.56860352 91.64648438 C53.74392749 95.31402988 55.88196934 99.00312271 58.02441406 102.68994141 C67.60276861 119.17005922 77.34382958 135.53655612 87.50073242 151.66699219 C89.18074775 154.34313782 90.85134528 157.02504741 92.52124023 159.70751953 C93.15956787 160.73200195 93.79789551 161.75648438 94.45556641 162.81201172 C95.69104742 164.79514835 96.92567021 166.77882007 98.15917969 168.76318359 C107.3020568 183.42075252 116.80437349 197.84058449 126.39477539 212.20800781 C128.08319685 214.73794284 129.76912127 217.26952907 131.45483398 219.80126953 C137.53381601 228.92140805 143.66757983 237.99621407 149.95092773 246.97705078 C138.16547166 261.48222748 122.85673044 271.17767598 106.06396484 278.98999023 C104.53293669 279.70517762 103.01139566 280.44078999 101.49609375 281.1887207 C94.31726802 284.6373018 87.10817833 286.76596786 79.38842773 288.66455078 C77.65689453 289.10637695 77.65689453 289.10637695 75.89038086 289.55712891 C57.77602077 294.12938656 57.77602077 294.12938656 50.95092773 293.97705078 C49.12450603 288.68042785 47.47171325 283.36999019 45.95092773 277.97705078 C43.79772437 268.2484645 43.79772437 268.2484645 38.95092773 259.97705078 C34.31782273 259.43091292 34.31782273 259.43091292 30.22436523 261.23486328 C28.11973255 264.11420738 28.91818264 266.45789366 29.37670898 269.85986328 C30.85535088 277.88677645 32.96442771 285.76625547 35.32592773 293.57470703 C35.66865723 294.70960571 35.66865723 294.70960571 36.01831055 295.86743164 C36.46207837 297.32015226 36.91411487 298.77038165 37.37573242 300.2175293 C38.62223507 304.25985714 39.18797092 307.7497806 38.95092773 311.97705078 C-1.91357161 336.41987466 -55.49888855 339.78589054 -101.04907227 328.97705078 C-113.56776465 325.80488559 -125.76090668 321.80631891 -137.61157227 316.66455078 C-138.36212891 316.3393042 -139.11268555 316.01405762 -139.88598633 315.67895508 C-141.6503915 314.86657771 -143.35750233 313.93186685 -145.04907227 312.97705078 C-146.14428944 309.69139926 -145.99293017 309.02990061 -145.01000977 305.86376953 C-144.7617041 305.03901123 -144.51339844 304.21425293 -144.25756836 303.36450195 C-143.98251465 302.47351807 -143.70746094 301.58253418 -143.42407227 300.66455078 C-141.15489588 293.04660147 -139.13951561 285.42618429 -137.42407227 277.66455078 C-137.21814453 276.73416992 -137.0122168 275.80378906 -136.80004883 274.84521484 C-136.40056885 273.03956536 -136.0011523 271.23390185 -135.60180664 269.42822266 C-134.84574689 266.07537819 -134.01779151 262.74652677 -133.17407227 259.41455078 C-128.15312229 239.51296276 -123.46853127 219.61203875 -119.52954102 199.46533203 C-118.03266409 191.8265475 -116.43230929 184.21262441 -114.79907227 176.60205078 C-114.55278076 175.44954834 -114.30648926 174.2970459 -114.05273438 173.10961914 C-112.15980618 164.32237835 -112.15980618 164.32237835 -111.00219727 160.00048828 C-109.88381824 155.62454129 -109.28059326 151.1860092 -108.62084961 146.72167969 C-107.62413274 140.19407794 -106.4545045 133.69641468 -105.30737305 127.19384766 C-104.84694354 124.58155318 -104.38914556 121.96880793 -103.93188477 119.35595703 C-102.542014 111.42120918 -101.14512478 103.48792124 -99.71398926 95.5605011 C-95.82372839 74.00106123 -92.3967947 52.41042785 -89.35766602 30.71337891 C-89.21778763 29.72422485 -89.07790924 28.7350708 -88.93379211 27.71594238 C-88.67341945 25.87134856 -88.41661774 24.02624536 -88.16423035 22.18054199 C-87.43247113 17.00177452 -86.40450522 12.02974892 -85.04907227 6.97705078 C-83.83864258 7.30189453 -83.83864258 7.30189453 -82.60375977 7.63330078 C-73.00202712 9.83497196 -63.70745278 10.27985638 -53.86157227 10.28955078 C-52.60393066 10.29470703 -51.34628906 10.29986328 -50.05053711 10.30517578 C-41.87785483 10.24529482 -34.08608167 9.42526389 -26.04907227 7.97705078 C-24.04938227 7.64186272 -22.04946761 7.30800332 -20.04907227 6.97705078 C-19.90992149 7.94683113 -19.90992149 7.94683113 -19.76795959 8.936203 C-10.05800036 76.51326122 1.28809483 143.7548451 15.44561768 210.55603027 C15.96652132 213.05176212 16.46419261 215.55145902 16.96020508 218.05224609 C17.29385551 219.67572065 17.62798354 221.29909714 17.96264648 222.92236328 C18.10378372 223.66163055 18.24492096 224.40089783 18.39033508 225.16256714 C19.34586717 229.69236758 20.62763002 232.71694557 23.95092773 235.97705078 C26.99372145 236.64385446 26.99372145 236.64385446 29.95092773 235.97705078 C31.9007933 234.47326295 32.81727935 233.54656148 33.38452148 231.12939453 C33.39870594 223.08680602 31.45431286 215.49590952 29.60131836 207.72509766 C25.01278308 188.33750263 21.03585013 168.83563444 17.37670898 149.25378418 C16.9316214 146.87381612 16.48426879 144.49427978 16.03686523 142.11474609 C10.4778726 112.48503012 5.56056519 82.7683064 0.95092773 52.97705078 C0.72249176 51.50174896 0.72249176 51.50174896 0.48944092 49.99664307 C-0.51309099 43.51252758 -1.5037526 37.02668102 -2.48657227 30.53955078 C-2.67524872 29.30186951 -2.67524872 29.30186951 -2.86773682 28.03918457 C-4.18541325 19.37128611 -5.41963333 10.72828247 -6.04907227 1.97705078 C-3.92338751 0.68645646 -2.51120099 -0.02812497 0 0 Z " fill="#B450F5" transform="translate(309.049072265625,163.02294921875)"/>
<path d="M0 0 C2.98883333 1.49684782 3.70222356 3.64411701 5.16577148 6.60986328 C5.45759811 7.18947311 5.74942474 7.76908295 6.0500946 8.36625671 C6.67898807 9.61793163 7.301827 10.87266302 7.91925049 12.1300354 C9.56332702 15.47528956 11.25348394 18.79717532 12.93920898 22.12158203 C13.27829285 22.79293686 13.61737671 23.46429169 13.96673584 24.1559906 C16.99809319 30.13331944 20.2382135 35.97778407 23.57592773 41.78955078 C28.04509246 49.58524277 32.38784428 57.4349573 36.63842773 65.35205078 C41.42276729 74.24089103 46.39322806 82.98106334 51.56860352 91.64648438 C53.74392749 95.31402988 55.88196934 99.00312271 58.02441406 102.68994141 C67.60276861 119.17005922 77.34382958 135.53655612 87.50073242 151.66699219 C89.18074775 154.34313782 90.85134528 157.02504741 92.52124023 159.70751953 C93.15956787 160.73200195 93.79789551 161.75648438 94.45556641 162.81201172 C95.69104742 164.79514835 96.92567021 166.77882007 98.15917969 168.76318359 C107.3020568 183.42075252 116.80437349 197.84058449 126.39477539 212.20800781 C128.08319685 214.73794284 129.76912127 217.26952907 131.45483398 219.80126953 C137.53381601 228.92140805 143.66757983 237.99621407 149.95092773 246.97705078 C138.16547166 261.48222748 122.85673044 271.17767598 106.06396484 278.98999023 C104.53293669 279.70517762 103.01139566 280.44078999 101.49609375 281.1887207 C94.31726802 284.6373018 87.10817833 286.76596786 79.38842773 288.66455078 C77.65689453 289.10637695 77.65689453 289.10637695 75.89038086 289.55712891 C57.77602077 294.12938656 57.77602077 294.12938656 50.95092773 293.97705078 C49.12450603 288.68042785 47.47171325 283.36999019 45.95092773 277.97705078 C43.79772437 268.2484645 43.79772437 268.2484645 38.95092773 259.97705078 C37.96995117 259.80044922 36.98897461 259.62384766 35.97827148 259.44189453 C32.95092773 257.97705078 32.95092773 257.97705078 32.07250977 256.08691406 C31.41538671 253.58049609 30.93664422 251.09577837 30.51342773 248.53955078 C30.34133789 247.6675 30.16924805 246.79544922 29.99194336 245.89697266 C28.78975547 239.46056756 28.78975547 239.46056756 29.95092773 235.97705078 C30.71083008 235.26742187 30.71083008 235.26742187 31.48608398 234.54345703 C33.90090489 231.96120855 33.4107663 229.59247764 33.29858398 226.18798828 C32.62059654 219.92612674 31.05988962 213.84183618 29.60131836 207.72509766 C25.01278308 188.33750263 21.03585013 168.83563444 17.37670898 149.25378418 C16.9316214 146.87381612 16.48426879 144.49427978 16.03686523 142.11474609 C10.4778726 112.48503012 5.56056519 82.7683064 0.95092773 52.97705078 C0.79863708 51.99351624 0.64634644 51.00998169 0.48944092 49.99664307 C-0.51309099 43.51252758 -1.5037526 37.02668102 -2.48657227 30.53955078 C-2.61235657 29.71442993 -2.73814087 28.88930908 -2.86773682 28.03918457 C-4.18541325 19.37128611 -5.41963333 10.72828247 -6.04907227 1.97705078 C-3.92338751 0.68645646 -2.51120099 -0.02812497 0 0 Z " fill="#CD89FA" transform="translate(309.049072265625,163.02294921875)"/>
<path d="M0 0 C4.75 0.875 4.75 0.875 7 2 C6.40638977 9.03540764 5.67397818 16.02962617 4.70703125 23.0234375 C4.51401176 24.42690933 4.51401176 24.42690933 4.3170929 25.85873413 C2.64314608 37.81293715 0.66180053 49.71747415 -1.3125 61.625 C-1.71693934 64.07338142 -2.12123441 66.52178667 -2.52539062 68.97021484 C-3.12869395 72.62371807 -3.73242412 76.27714757 -4.337677 79.93032837 C-5.44506781 86.6174146 -6.53619264 93.30672306 -7.60546875 100 C-11.01723714 121.24618366 -15.16746337 142.31677339 -19.46484375 163.40032959 C-20.91791879 170.54684954 -22.28519491 177.70635803 -23.625 184.875 C-25.96512813 197.2489794 -28.74441155 209.51851456 -31.57200623 221.78883362 C-32.73251367 226.82514972 -33.8768883 231.86497055 -35.015625 236.90625 C-38.02407261 250.20879162 -41.05614439 263.5055495 -44.3125 276.75 C-44.54267822 277.70124756 -44.77285645 278.65249512 -45.01000977 279.63256836 C-46.27015468 284.6754585 -47.80399644 289.28599821 -50 294 C-83.86222467 291.42593836 -116.41568276 277.17033278 -142 255 C-142.67804688 254.41863281 -143.35609375 253.83726562 -144.0546875 253.23828125 C-145.75 251.6875 -145.75 251.6875 -148 249 C-147.79369247 244.87672273 -144.9224792 241.62705677 -142.65234375 238.33984375 C-141.73734912 236.99254692 -140.82315539 235.64470591 -139.90966797 234.29638672 C-139.43148621 233.59310242 -138.95330444 232.88981812 -138.46063232 232.16522217 C-136.52554369 229.29667221 -134.63251426 226.40175995 -132.74258423 223.50332642 C-130.84039167 220.5864792 -128.92567818 217.67793934 -127.01098633 214.76928711 C-126.02923273 213.27357317 -125.05115233 211.77544294 -124.07641602 210.27514648 C-122.6451604 208.07410425 -121.20099775 205.88205867 -119.75390625 203.69140625 C-119.31953751 203.01662735 -118.88516876 202.34184845 -118.43763733 201.6466217 C-117.36932509 200.04326327 -116.19311072 198.51279083 -115 197 C-114.01 197 -113.02 197 -112 197 C-111.66226563 197.69867188 -111.32453125 198.39734375 -110.9765625 199.1171875 C-110.53054687 200.02726563 -110.08453125 200.93734375 -109.625 201.875 C-109.18414062 202.77992188 -108.74328125 203.68484375 -108.2890625 204.6171875 C-107.09497301 207.09534472 -107.09497301 207.09534472 -105 209 C-101.60402937 209.21676408 -99.24221555 209.08073852 -96 208 C-95.12685044 206.25079226 -95.12685044 206.25079226 -94.5859375 204.08203125 C-92.96784882 198.76800918 -90.87518153 193.76181139 -88.625 188.6875 C-88.25117187 187.80771484 -87.87734375 186.92792969 -87.4921875 186.02148438 C-84.20460828 178.60754287 -80.52614716 175.53465154 -73.1875 172.0625 C-71.12408016 171.04352724 -69.06153646 170.02277778 -67 169 C-65.75089844 168.38125 -65.75089844 168.38125 -64.4765625 167.75 C-60.59312028 165.61901366 -59.26572158 164.75730651 -57.75 160.4375 C-57.6805458 157.06263721 -57.6805458 157.06263721 -59.4375 155.11328125 C-63.08418821 152.10587527 -67.09662896 149.98243693 -71.25 147.75 C-72.09046875 147.29109375 -72.9309375 146.8321875 -73.796875 146.359375 C-75.86128945 145.23333075 -77.92896314 144.11380286 -80 143 C-78.64978398 139.38091858 -77.02344565 136.18383922 -75.015625 132.88671875 C-74.41758057 131.89889404 -73.81953613 130.91106934 -73.20336914 129.89331055 C-72.55875732 128.83539307 -71.91414551 127.77747559 -71.25 126.6875 C-69.87775958 124.41734743 -68.50643803 122.14667146 -67.13671875 119.875 C-66.78858627 119.29815964 -66.4404538 118.72131927 -66.08177185 118.1269989 C-60.27060644 108.48685946 -54.62996382 98.74670614 -49 89 C-48.35385742 87.88189941 -47.70771484 86.76379883 -47.04199219 85.61181641 C-38.80549941 71.34459849 -30.75452845 56.99376468 -22.95703125 42.48046875 C-20.29087703 37.52164617 -17.56380325 32.59945576 -14.8125 27.6875 C-9.70035963 18.55001934 -4.83801168 9.28486497 0 0 Z " fill="#CC89F8" transform="translate(202,163)"/>
<path d="M0 0 C2.64 0 5.28 0 8 0 C8.03440186 0.5669458 8.06880371 1.1338916 8.10424805 1.71801758 C9.67440934 25.91310759 13.54729052 47.66130859 32 65 C38.73676013 70.7691164 46.63085772 73.36969814 55 76 C55.7321875 76.2371875 56.464375 76.474375 57.21875 76.71875 C63.32489663 78.47814818 69.68552906 78.68427645 76 79 C77.34578125 79.08121094 77.34578125 79.08121094 78.71875 79.1640625 C96.76163778 79.76186902 115.78853301 73.84421492 129.40234375 61.890625 C145.88249485 45.10059072 148.47943402 22.35108371 150 0 C152.64 0 155.28 0 158 0 C162.25596689 18.72326917 158.71779089 40.2436453 156 59 C155.89316895 59.78874512 155.78633789 60.57749023 155.67626953 61.39013672 C153.16170401 79.72705867 147.65831269 98.16994616 140 115 C139.68869141 115.72364746 139.37738281 116.44729492 139.05664062 117.19287109 C132.52633147 132.18921451 132.52633147 132.18921451 125.5 135.25 C123.34960434 135.89071891 121.17998484 136.4685978 119 137 C117.59875528 137.42709401 116.20043427 137.86386123 114.8046875 138.30859375 C92.4866582 145.30628719 68.58349416 147.58255526 46.12451172 139.73095703 C43.94411973 138.9807739 41.74854729 138.32918629 39.53515625 137.68359375 C31.57262745 135.21772656 26.37832264 132.6059996 22.06640625 125.07421875 C21.71449219 124.38972656 21.36257812 123.70523438 21 123 C19.83931297 121.61683987 19.83931297 121.61683987 16.64453125 121.81640625 C13 121 13 121 11.07421875 118.33984375 C10.61660156 117.21707031 10.15898437 116.09429687 9.6875 114.9375 C9.20410156 113.76703125 8.72070312 112.5965625 8.22265625 111.390625 C6.85531285 107.59875894 5.77503013 103.95265365 5 100 C3.35 99.67 1.7 99.34 0 99 C0 98.67 0 98.34 0 98 C3.465 97.505 3.465 97.505 7 97 C9.09894235 90.70317294 7.71505811 84.84990835 6.125 78.625 C5.77283068 77.20067074 5.4212702 75.7761908 5.0703125 74.3515625 C4.89387207 73.63758301 4.71743164 72.92360352 4.53564453 72.18798828 C-1.26127609 48.50886221 -0.23780399 24.20844583 0 0 Z " fill="#CF96F4" transform="translate(177,15)"/>
<path d="M0 0 C2.98883333 1.49684782 3.70222356 3.64411701 5.16577148 6.60986328 C5.45759811 7.18947311 5.74942474 7.76908295 6.0500946 8.36625671 C6.67898807 9.61793163 7.301827 10.87266302 7.91925049 12.1300354 C9.56332702 15.47528956 11.25348394 18.79717532 12.93920898 22.12158203 C13.27829285 22.79293686 13.61737671 23.46429169 13.96673584 24.1559906 C16.99809319 30.13331944 20.2382135 35.97778407 23.57592773 41.78955078 C28.04509246 49.58524277 32.38784428 57.4349573 36.63842773 65.35205078 C41.42276729 74.24089103 46.39322806 82.98106334 51.56860352 91.64648438 C53.74392749 95.31402988 55.88196934 99.00312271 58.02441406 102.68994141 C67.60276861 119.17005922 77.34382958 135.53655612 87.50073242 151.66699219 C89.18074775 154.34313782 90.85134528 157.02504741 92.52124023 159.70751953 C93.15956787 160.73200195 93.79789551 161.75648438 94.45556641 162.81201172 C95.69104742 164.79514835 96.92567021 166.77882007 98.15917969 168.76318359 C107.3020568 183.42075252 116.80437349 197.84058449 126.39477539 212.20800781 C128.08319685 214.73794284 129.76912127 217.26952907 131.45483398 219.80126953 C137.53381601 228.92140805 143.66757983 237.99621407 149.95092773 246.97705078 C138.16547166 261.48222748 122.85673044 271.17767598 106.06396484 278.98999023 C104.53293669 279.70517762 103.01139566 280.44078999 101.49609375 281.1887207 C94.31726802 284.6373018 87.10817833 286.76596786 79.38842773 288.66455078 C77.65689453 289.10637695 77.65689453 289.10637695 75.89038086 289.55712891 C57.77602077 294.12938656 57.77602077 294.12938656 50.95092773 293.97705078 C49.0000455 288.35850996 47.31920426 282.76591302 45.95092773 276.97705078 C49.66255983 279.67641958 50.24939898 283.67709218 50.95092773 287.97705078 C50.95092773 289.29705078 50.95092773 290.61705078 50.95092773 291.97705078 C73.45838186 284.4321192 102.25537954 271.52037307 115.95092773 250.97705078 C116.61092773 250.97705078 117.27092773 250.97705078 117.95092773 250.97705078 C117.47480255 245.88326708 115.96904424 243.14439565 112.88842773 239.10205078 C108.01937775 232.55812766 103.45733298 225.83770653 98.95092773 219.03955078 C97.90799561 217.46826416 97.90799561 217.46826416 96.84399414 215.86523438 C95.48751971 213.82043802 94.13170207 211.77520578 92.77661133 209.72949219 C90.83613276 206.80398331 88.88489508 203.88589057 86.93041992 200.96972656 C82.64130298 194.5647649 78.41179971 188.12118142 74.20092773 181.66455078 C73.66959229 180.85211914 73.13825684 180.0396875 72.59082031 179.20263672 C69.41019271 174.31211724 66.35481512 169.36262303 63.37084961 164.34985352 C61.32084128 160.92412604 59.20164732 157.54362235 57.07592773 154.16455078 C52.66237203 147.12530347 48.29756333 140.05786038 43.95092773 132.97705078 C43.27030273 131.87361328 42.58967773 130.77017578 41.88842773 129.63330078 C31.42677809 112.67274757 31.42677809 112.67274757 27.77905273 106.02783203 C23.96022176 99.12787452 19.86770946 92.38543597 15.81396484 85.62182617 C11.95652213 79.18099897 8.17968611 72.76163657 4.95092773 65.97705078 C3.96092773 66.47205078 3.96092773 66.47205078 2.95092773 66.97705078 C1.82548589 59.48869622 0.7050176 51.99960923 -0.41210938 44.51000977 C-0.79216778 41.96589591 -1.17333532 39.42194748 -1.55566406 36.87817383 C-2.10721759 33.20714288 -2.65468764 29.53552182 -3.20141602 25.86376953 C-3.37124496 24.73935959 -3.54107391 23.61494965 -3.71604919 22.45646667 C-4.72586297 15.64224852 -5.50832409 8.84464377 -6.04907227 1.97705078 C-2.3052063 -0.02581787 -2.3052063 -0.02581787 0 0 Z " fill="#B350F3" transform="translate(309.049072265625,163.02294921875)"/>
<path d="M0 0 C38.94 0 77.88 0 118 0 C117.01 1.32 116.02 2.64 115 4 C114.35739546 6.79990377 114.35739546 6.79990377 114.0625 9.8125 C112.71023712 18.79850493 108.72802936 24.04462842 102 30 C98.99265611 32.16736742 95.86271426 34.0896776 92.6875 36 C91.00022404 37.03991956 89.31401523 38.08157267 87.62890625 39.125 C86.82855957 39.61871094 86.02821289 40.11242188 85.20361328 40.62109375 C81.01562265 43.24171984 76.95729786 46.04357514 73 49 C72.17628906 49.60328125 71.35257812 50.2065625 70.50390625 50.828125 C67.73355049 53.23111689 65.87945499 55.7275281 63.8125 58.75 C62.5908073 60.53465243 61.33126027 62.29551666 60 64 C59.34 64 58.68 64 58 64 C56.65931978 62.22344841 55.37858207 60.40154623 54.125 58.5625 C47.1595554 48.88415301 37.49579949 43.18518839 27.37451172 37.23583984 C18.47219029 31.97464393 9.13864167 25.70527993 4.625 16.0625 C3.94977413 12.75389326 3.62466578 9.51804824 3.44140625 6.1484375 C3.05162225 3.47615866 3.05162225 3.47615866 0 0 Z " fill="#F5F5F5" transform="translate(197,0)"/>
<path d="M0 0 C2.64 0 5.28 0 8 0 C12.25596689 18.72326917 8.71779089 40.2436453 6 59 C5.89316895 59.78874512 5.78633789 60.57749023 5.67626953 61.39013672 C3.16170401 79.72705867 -2.34168731 98.16994616 -10 115 C-10.31130859 115.72364746 -10.62261719 116.44729492 -10.94335938 117.19287109 C-17.47366853 132.18921451 -17.47366853 132.18921451 -24.5 135.25 C-26.65039566 135.89071891 -28.82001516 136.4685978 -31 137 C-32.40124472 137.42709401 -33.79956573 137.86386123 -35.1953125 138.30859375 C-46.13172732 141.7520554 -56.45035616 144.44232679 -68 144 C-65.24299166 142.16199444 -63.28675106 141.42297614 -60.1875 140.4375 C-52.72543097 137.50480912 -50.10889166 131.6070757 -46.9375 124.625 C-46.62296875 123.86832031 -46.3084375 123.11164063 -45.984375 122.33203125 C-45.33272331 120.78823736 -44.63477296 119.26311587 -43.890625 117.76171875 C-37.78217397 105.32665772 -29.36502342 86.0016594 -30.1796875 71.88671875 C-30 69 -30 69 -28.34765625 67.26953125 C-27.59355469 66.78871094 -26.83945312 66.30789062 -26.0625 65.8125 C-12.24702007 55.88533911 -5.57436664 40.73056259 -2.390625 24.40283203 C-1.07954819 16.33807082 -0.55417283 8.14589 0 0 Z " fill="#B873E6" transform="translate(327,15)"/>
<path d="M0 0 C3.25957696 0.95097063 4.2123157 2.77364398 6.03515625 5.59375 C6.90449611 7.6993264 7.65867345 9.83123219 8.41943359 11.97827148 C11.82399133 21.28079824 15.56711581 25.83042323 24.57519531 30.04394531 C25.2503418 30.3478418 25.92548828 30.65173828 26.62109375 30.96484375 C30.03515625 32.59375 30.03515625 32.59375 32.03515625 35.59375 C32.47265625 38.46875 32.47265625 38.46875 32.03515625 41.59375 C28.63752245 45.62494623 25.63862609 47.28637454 20.78515625 49.15625 C11.724298 53.72777145 9.26754258 62.39566068 5.99560547 71.52832031 C4.96036207 73.75459361 3.91926614 75.03412909 2.03515625 76.59375 C0.09765625 76.9921875 0.09765625 76.9921875 -1.96484375 76.96875 C-2.98578125 76.98035156 -2.98578125 76.98035156 -4.02734375 76.9921875 C-6.56092818 76.47116812 -7.29932033 75.55306047 -8.96484375 73.59375 C-9.87768555 71.56005859 -9.87768555 71.56005859 -10.6640625 69.2421875 C-14.62895748 58.55434224 -17.9275586 51.92317424 -28.55541992 47.04248047 C-29.22549072 46.74873535 -29.89556152 46.45499023 -30.5859375 46.15234375 C-33.96484375 44.59375 -33.96484375 44.59375 -35.96484375 41.59375 C-36.40234375 38.71875 -36.40234375 38.71875 -35.96484375 35.59375 C-32.56720995 31.56255377 -29.56831359 29.90112546 -24.71484375 28.03125 C-15.6539855 23.45972855 -13.19723008 14.79183932 -9.92529297 5.65917969 C-7.66185384 0.79169238 -5.29848154 0.24501649 0 0 Z " fill="#040404" transform="translate(406.96484375,145.40625)"/>
<path d="M0 0 C2.81842078 2.79702859 5.60127379 5.62042568 8.34765625 8.48828125 C15.71213187 16.10591999 22.79069482 22.6321927 32 28 C27.51736977 37.89561767 14.1457704 44.10561777 4.4375 48 C1.39543225 48.88496516 -0.86443062 49.29395963 -4 49 C-3.87625 47.865625 -3.7525 46.73125 -3.625 45.5625 C-3.53476562 44.73105469 -3.44453125 43.89960937 -3.3515625 43.04296875 C-3.09643777 40.83472249 -2.81722886 38.62921648 -2.5234375 36.42578125 C-0.93611571 24.31122157 -0.39807371 12.20597547 0 0 Z " fill="#C989F4" transform="translate(350,39)"/>
<path d="M0 0 C0.33 0 0.66 0 1 0 C1.0501123 0.84071045 1.10022461 1.6814209 1.15185547 2.54760742 C1.34465339 5.73314489 1.54291946 8.91828682 1.74462891 12.10327148 C1.83007893 13.46935167 1.91348626 14.8355615 1.99462891 16.2019043 C2.47508627 24.26587691 3.19741731 32.16727596 4.60205078 40.1262207 C5.01658335 43.11975621 5.06662868 45.98183262 5 49 C-0.99899456 48.5195466 -5.48505744 47.26011134 -10.8125 44.5 C-11.50029541 44.14977783 -12.18809082 43.79955566 -12.89672852 43.4387207 C-28.62215261 35.13354216 -28.62215261 35.13354216 -31 28 C-29.78376953 27.19949219 -29.78376953 27.19949219 -28.54296875 26.3828125 C-18.10213095 19.40321871 -8.66644979 11.88327267 -1.2421875 1.6171875 C-0.83226562 1.08351562 -0.42234375 0.54984375 0 0 Z " fill="#CA88F5" transform="translate(161,39)"/>
<path d="M0 0 C0.66 0 1.32 0 2 0 C2.65742187 1.61068359 2.65742187 1.61068359 3.328125 3.25390625 C7.749987 13.39090602 11.45399016 18.6409826 22 23 C19.65277906 25.63103524 17.24988966 26.97156073 14.125 28.5625 C8.36676211 31.92007311 6.31558263 35.91194734 4 42 C3.62875 42.92683594 3.2575 43.85367188 2.875 44.80859375 C2.58625 45.53175781 2.2975 46.25492187 2 47 C1.34 47 0.68 47 0 47 C-0.37511719 46.03578125 -0.75023438 45.0715625 -1.13671875 44.078125 C-1.65288891 42.80177696 -2.16985855 41.52575204 -2.6875 40.25 C-2.93177734 39.61578125 -3.17605469 38.9815625 -3.42773438 38.328125 C-6.0240284 32.01814458 -9.98436197 29.38153685 -15.8125 26.25 C-16.60269531 25.82203125 -17.39289063 25.3940625 -18.20703125 24.953125 C-18.79871094 24.63859375 -19.39039062 24.3240625 -20 24 C-17.67213296 21.36981257 -15.40874684 20.22146592 -12.25 18.75 C-5.04642148 14.63065158 -2.84482592 7.40408336 0 0 Z " fill="#D7C8E1" transform="translate(99,299)"/>
<path d="M0 0 C36.05157448 19.48439563 36.05157448 19.48439563 43 36 C43 36.66 43 37.32 43 38 C31.07618926 37.70981877 20.61912631 33.25928207 12 25 C5.34767784 17.58868806 1.79121258 9.71912978 0 0 Z " fill="#C788F1" transform="translate(203,41)"/>
<path d="M0 0 C1.76750594 5.30251781 -1.66276347 10.16931062 -4 15 C-10.95233351 27.57134279 -21.14786133 33.47233537 -34.67578125 37.51953125 C-37.17509442 38.03619599 -39.45480389 38.08559067 -42 38 C-39.09440604 26.37762415 -29.03494447 17.93118797 -19.21289062 11.95898438 C-18.29701172 11.41564453 -17.38113281 10.87230469 -16.4375 10.3125 C-14.60236876 9.20524843 -12.76772041 8.09719608 -10.93359375 6.98828125 C-9.65524658 6.21991943 -9.65524658 6.21991943 -8.35107422 5.43603516 C-5.51000383 3.70071055 -2.74764223 1.87900325 0 0 Z " fill="#CA88F4" transform="translate(308,41)"/>
<path d="M0 0 C0.66 0 1.32 0 2 0 C2.8353125 1.6396875 2.8353125 1.6396875 3.6875 3.3125 C5.58959869 6.68037367 7.44629125 8.32185976 11 10 C10 13 10 13 7.625 14.3125 C4.37199038 16.40372047 3.48184769 18.49036073 2 22 C1.34 22 0.68 22 0 22 C-0.556875 20.906875 -1.11375 19.81375 -1.6875 18.6875 C-3.60259832 15.28288077 -5.51993847 13.83669914 -9 12 C-9 11.34 -9 10.68 -9 10 C-8.071875 9.4225 -7.14375 8.845 -6.1875 8.25 C-2.69157513 5.78228833 -1.5966213 3.90285207 0 0 Z " fill="#D3C5DC" transform="translate(404,173)"/>
<path d="M0 0 C1.38308781 2.76617563 1.11210196 5.01018 1.09765625 8.1015625 C1.09443359 9.31328125 1.09121094 10.525 1.08789062 11.7734375 C1.07951172 13.04445313 1.07113281 14.31546875 1.0625 15.625 C1.05798828 16.90375 1.05347656 18.1825 1.04882812 19.5 C1.03701203 22.66671292 1.02053815 25.83333356 1 29 C0.67 29 0.34 29 0 29 C-1.68944836 19.91921505 -2.24908976 11.23015944 -2 2 C-4.64 2 -7.28 2 -10 2 C-9.87958481 7.22470301 -9.75526356 12.44929511 -9.62768555 17.67382812 C-9.5850068 19.44235868 -9.54330252 21.21091308 -9.50268555 22.97949219 C-9.22568218 35.00349002 -8.74354667 46.9955986 -8 59 C-10.7456007 56.2543993 -10.36189557 54.39105698 -10.5625 50.5625 C-10.82618357 45.69675268 -10.82618357 45.69675268 -12 41 C-12.09685272 38.39959592 -12.13997953 35.82684039 -12.1328125 33.2265625 C-12.13424759 32.08542496 -12.13424759 32.08542496 -12.13571167 30.92123413 C-12.13639182 29.31239743 -12.13454904 27.70355798 -12.13037109 26.09472656 C-12.12503526 23.64121268 -12.13031401 21.18788308 -12.13671875 18.734375 C-12.13605765 17.16927043 -12.13477583 15.60416598 -12.1328125 14.0390625 C-12.13483673 13.30869781 -12.13686096 12.57833313 -12.13894653 11.82583618 C-12.1219053 8.09195493 -11.89366983 4.63058915 -11 1 C-7.27569643 0.30710631 -3.78916254 -0.11144596 0 0 Z " fill="#20122C" transform="translate(187,13)"/>
<path d="M0 0 C2.64 0 5.28 0 8 0 C8.66 8.58 9.32 17.16 10 26 C6.50804679 22.50804679 7.01927385 17.78251828 6.90234375 13.03515625 C6.91394531 11.72417969 6.92554688 10.41320312 6.9375 9.0625 C6.94201172 8.37865234 6.94652344 7.69480469 6.95117188 6.99023438 C6.9628044 5.32678396 6.98073306 3.6633795 7 2 C5.35 2 3.7 2 2 2 C2 18.83 2 35.66 2 53 C1.67 53 1.34 53 1 53 C-0.05919929 41.52434589 -0.11858428 30.13814991 -0.0625 18.625 C-0.05747067 16.80989708 -0.05291032 14.9947928 -0.04882812 13.1796875 C-0.03794598 8.78642392 -0.02076194 4.39322754 0 0 Z " fill="#C197DC" transform="translate(177,15)"/>
<path d="M0 0 C0.33 0 0.66 0 1 0 C1.02687279 1.81242052 1.04633715 3.62495233 1.0625 5.4375 C1.07410156 6.44683594 1.08570313 7.45617187 1.09765625 8.49609375 C1 11 1 11 0 12 C-1.63231407 18.19769249 -2.31553117 24.46885152 -2.75390625 30.84765625 C-3 33 -3 33 -4 34 C-4.20604085 35.32781878 -4.3662959 36.66295895 -4.5 38 C-4.88888889 41.88888889 -4.88888889 41.88888889 -6 43 C-6.20604085 44.32781878 -6.3662959 45.66295895 -6.5 47 C-6.88888889 50.88888889 -6.88888889 50.88888889 -8 52 C-8.53176398 54.57391641 -8.96430799 57.15859517 -9.40234375 59.75 C-9.59957031 60.4925 -9.79679688 61.235 -10 62 C-10.99 62.495 -10.99 62.495 -12 63 C-11.31499372 55.1604837 -9.74895831 47.61755835 -8.0625 39.9375 C-7.79759766 38.70966797 -7.53269531 37.48183594 -7.25976562 36.21679688 C-6.19483136 31.30964321 -5.1290089 26.40958453 -3.875 21.546875 C-3.03419302 18.13860386 -2.43606249 14.78567906 -1.9375 11.3125 C-1.38718702 7.51488563 -0.78745219 3.75607725 0 0 Z " fill="#A554D7" transform="translate(202,301)"/>
<path d="M0 0 C3.71163209 2.6993688 4.29847125 6.7000414 5 11 C5 12.32 5 13.64 5 15 C5.53367187 14.7834375 6.06734375 14.566875 6.6171875 14.34375 C10.73369934 12.80539955 14.0914053 11.83715361 18.5 12.125 C24.33854346 12.36368259 29.45399224 10.5890964 34.93554688 8.77783203 C39.10589921 7.42661473 42.55155465 6.72022356 47 7 C44.03401149 8.60388819 41.19006784 9.59117579 37.9296875 10.4375 C36.95 10.69273437 35.9703125 10.94796875 34.9609375 11.2109375 C33.94257813 11.47132813 32.92421875 11.73171875 31.875 12 C30.87984375 12.26039063 29.8846875 12.52078125 28.859375 12.7890625 C11.95181414 17.15942418 11.95181414 17.15942418 5 17 C3.04911777 11.38145918 1.36827653 5.78886224 0 0 Z " fill="#A760D4" transform="translate(355,440)"/>
<path d="M0 0 C0.33 0 0.66 0 1 0 C2.15921571 10.65803178 3.27018606 21.30246413 4 32 C-0.71403788 31.52060632 -4.66579301 31.03165952 -9 29 C-9 28.67 -9 28.34 -9 28 C-8.071875 28.04125 -7.14375 28.0825 -6.1875 28.125 C-2.84190281 28.27136339 -2.84190281 28.27136339 0 26 C0.41737872 23.28516406 0.41737872 23.28516406 0.29296875 20.1171875 C0.2784668 18.36728516 0.2784668 18.36728516 0.26367188 16.58203125 C0.23853516 15.35871094 0.21339844 14.13539062 0.1875 12.875 C0.17396484 11.64394531 0.16042969 10.41289063 0.14648438 9.14453125 C0.11103543 6.09592157 0.06162079 3.048175 0 0 Z " fill="#B480D6" transform="translate(162,56)"/>
<path d="M0 0 C3.70605319 3.49835844 6.52199492 7.00850064 9.3125 11.3125 C10.00988281 12.38113281 10.70726562 13.44976562 11.42578125 14.55078125 C11.94527344 15.35902344 12.46476562 16.16726563 13 17 C12.04578192 18.14926266 11.08647955 19.29430541 10.125 20.4375 C9.59132813 21.07558594 9.05765625 21.71367187 8.5078125 22.37109375 C7 24 7 24 5 25 C4.67 23.68 4.34 22.36 4 21 C4.66 20.67 5.32 20.34 6 20 C6 19.34 6 18.68 6 18 C7.32 17.67 8.64 17.34 10 17 C8.36526484 13.87525373 8.36526484 13.87525373 5.875 13.3125 C4.946875 13.1578125 4.946875 13.1578125 4 13 C3.54427083 10.98177083 3.08854167 8.96354167 2.6328125 6.9453125 C2.09525572 4.79280036 2.09525572 4.79280036 0 3 C0 2.01 0 1.02 0 0 Z " fill="#A553DC" transform="translate(446,393)"/>
<path d="M0 0 C0.33 0 0.66 0 1 0 C1.02895976 3.12498063 1.04678483 6.2499269 1.0625 9.375 C1.07087891 10.26445312 1.07925781 11.15390625 1.08789062 12.0703125 C1.09111328 12.92109375 1.09433594 13.771875 1.09765625 14.6484375 C1.10289307 15.43395996 1.10812988 16.21948242 1.11352539 17.02880859 C1 19 1 19 0 21 C-0.15176207 22.45579167 -0.27313037 23.91486861 -0.375 25.375 C-0.73777486 29.06816701 -1.29139146 31.29139146 -4 34 C-4.29020927 26.67221591 -3.17444506 19.72125004 -2 12.5 C-1.80921875 11.29601562 -1.6184375 10.09203125 -1.421875 8.8515625 C-0.95339237 5.90012192 -0.47929449 2.94970069 0 0 Z " fill="#974CC7" transform="translate(222,178)"/>
<path d="M0 0 C4.75 0.875 4.75 0.875 7 2 C6.31145453 10.71553604 5.20329037 19.34331879 4 28 C3.67 28 3.34 28 3 28 C2.67 22.39 2.34 16.78 2 11 C2.66 10.67 3.32 10.34 4 10 C4 8.02 4 6.04 4 4 C2.35 3.67 0.7 3.34 -1 3 C-0.67 2.01 -0.34 1.02 0 0 Z " fill="#BF85E2" transform="translate(202,163)"/>
<path d="M0 0 C0.33 0 0.66 0 1 0 C1.265625 16.46875 1.265625 16.46875 -1 21 C-1.2315321 24.13854629 -1.39409881 27.26985751 -1.51757812 30.4140625 C-1.78163748 35.4760305 -2.41490756 38.41490756 -6 42 C-4.38602187 27.94140107 -2.19834237 13.9772336 0 0 Z " fill="#9851C7" transform="translate(217,212)"/>
<path d="M0 0 C2.72675159 2.40689803 4.11966596 4.92471023 5.6875 8.1875 C6.12449219 9.08855469 6.56148438 9.98960937 7.01171875 10.91796875 C7.33785156 11.60503906 7.66398437 12.29210937 8 13 C7.34 13.66 6.68 14.32 6 15 C5.34 14.67 4.68 14.34 4 14 C3.67 15.98 3.34 17.96 3 20 C2.67 20 2.34 20 2 20 C0.74158054 13.25846717 -0.26404456 6.86515862 0 0 Z " fill="#C583EE" transform="translate(313,228)"/>
<path d="M0 0 C0.33 0 0.66 0 1 0 C1.02945039 4.41665225 1.04694816 8.83327867 1.0625 13.25 C1.07087891 14.48492187 1.07925781 15.71984375 1.08789062 16.9921875 C1.13179235 33.67484392 1.13179235 33.67484392 0 40 C-0.66 40.66 -1.32 41.32 -2 42 C-2.02712351 39.60408962 -2.0468982 37.20849043 -2.0625 34.8125 C-2.07087891 34.13896484 -2.07925781 33.46542969 -2.08789062 32.77148438 C-2.10150429 29.98068214 -2.06814676 27.33690227 -1.51367188 24.59570312 C-0.98610969 21.92980906 -0.79468062 19.41291222 -0.68359375 16.69921875 C-0.64169922 15.72275391 -0.59980469 14.74628906 -0.55664062 13.74023438 C-0.51732422 12.73283203 -0.47800781 11.72542969 -0.4375 10.6875 C-0.37272461 9.14739258 -0.37272461 9.14739258 -0.30664062 7.57617188 C-0.20093175 5.05090431 -0.09883532 2.52554438 0 0 Z " fill="#8859A8" transform="translate(335,20)"/>
<path d="M0 0 C0 0.33 0 0.66 0 1 C-13.50337605 5.32449891 -29.0075797 2.76017195 -43 2 C-43 1.67 -43 1.34 -43 1 C-38.16198967 0.8560845 -33.32393686 0.71372522 -28.48583984 0.57275391 C-26.84292389 0.52467014 -25.20001991 0.47617489 -23.55712891 0.42724609 C-21.18395029 0.35664151 -18.81073127 0.28755922 -16.4375 0.21875 C-15.71320801 0.19687622 -14.98891602 0.17500244 -14.24267578 0.15246582 C-9.49309465 0.01664638 -4.75155127 -0.01870689 0 0 Z " fill="#130125" transform="translate(282,496)"/>
<path d="M0 0 C0.66 0 1.32 0 2 0 C2.66 1.65 3.32 3.3 4 5 C3.030625 5.350625 2.06125 5.70125 1.0625 6.0625 C-2.39434602 7.75003667 -2.39434602 7.75003667 -2.875 11.6875 C-2.91625 12.780625 -2.9575 13.87375 -3 15 C-4.98 14.01 -6.96 13.02 -9 12 C-9 11.34 -9 10.68 -9 10 C-8.071875 9.4225 -7.14375 8.845 -6.1875 8.25 C-2.69157513 5.78228833 -1.5966213 3.90285207 0 0 Z " fill="#CAC0D3" transform="translate(404,173)"/>
<path d="M0 0 C0.66 0 1.32 0 2 0 C2.04241723 2.33294775 2.04092937 4.66702567 2 7 C1.67 7.33 1.34 7.66 1 8 C0.79395915 9.32781878 0.6337041 10.66295895 0.5 12 C0.11111111 15.88888889 0.11111111 15.88888889 -1 17 C-1.53176398 19.57391641 -1.96430799 22.15859517 -2.40234375 24.75 C-2.59957031 25.4925 -2.79679688 26.235 -3 27 C-3.66 27.33 -4.32 27.66 -5 28 C-4.37922374 21.52432348 -3.33183542 15.28837757 -1.9375 8.9375 C-1.75123047 8.07189453 -1.56496094 7.20628906 -1.37304688 6.31445312 C-0.91933733 4.20877549 -0.46023996 2.10425993 0 0 Z " fill="#984FC9" transform="translate(195,336)"/>
<path d="M0 0 C-0.5775 0.2475 -1.155 0.495 -1.75 0.75 C-4.44802385 2.24890214 -6.08748093 3.55988946 -8 6 C-8.80765878 9.64721696 -8.80765878 9.64721696 -9 13 C-8.34 13 -7.68 13 -7 13 C-7 15.64 -7 18.28 -7 21 C-10.26352711 16.10470934 -11.80095772 9.87368993 -11 4 C-8.02080717 -0.52837311 -5.15974216 -0.39690324 0 0 Z " fill="#200830" transform="translate(348,422)"/>
<path d="M0 0 C0.66 5.94 1.32 11.88 2 18 C-0.09681072 14.85478393 -0.40396582 12.74166815 -0.75390625 9.03515625 C-0.99962871 6.64924761 -0.99962871 6.64924761 -2 3 C-10.415 3.495 -10.415 3.495 -19 4 C-19 3.67 -19 3.34 -19 3 C-18.08476562 2.86722656 -17.16953125 2.73445312 -16.2265625 2.59765625 C-15.03804688 2.42105469 -13.84953125 2.24445313 -12.625 2.0625 C-11.44164062 1.88847656 -10.25828125 1.71445313 -9.0390625 1.53515625 C-0.32116788 0 -0.32116788 0 0 0 Z " fill="#8F4BBA" transform="translate(289,170)"/>
<path d="M0 0 C2.52259061 1.97420135 2.9929808 2.96745642 3.6875 6.1875 C3.790625 7.115625 3.89375 8.04375 4 9 C3.34 9 2.68 9 2 9 C1.67 9.66 1.34 10.32 1 11 C0.01 11.495 0.01 11.495 -1 12 C-1 10.68 -1 9.36 -1 8 C-1.66 8 -2.32 8 -3 8 C-2.45276317 4.62537285 -1.9451 2.91765 0 0 Z " fill="#CE8BF7" transform="translate(88,359)"/>
<path d="M0 0 C0.33 0 0.66 0 1 0 C1.59791663 3.91294327 2.18558587 7.82727665 2.76391602 11.74316406 C3.05923009 13.72802233 3.36257874 15.71167977 3.66601562 17.6953125 C3.84970703 18.94570312 4.03339844 20.19609375 4.22265625 21.484375 C4.48187866 23.21252441 4.48187866 23.21252441 4.74633789 24.97558594 C4.97461153 27.69729315 4.87895308 29.44802409 4 32 C3.30657174 29.67206227 2.64641811 27.34108179 2 25 C1.80921875 24.3709375 1.6184375 23.741875 1.421875 23.09375 C-0.61965258 15.51093327 -0.17191699 7.78401905 0 0 Z " fill="#944CC0" transform="translate(291,190)"/>
<path d="M0 0 C2 3.75 2 3.75 2 6 C-3.36095333 7.12862175 -8.55306686 7.09688221 -14 7 C-11.26845992 5.17897328 -8.91736704 4.10388853 -5.875 2.9375 C-2.68623321 1.87284184 -2.68623321 1.87284184 0 0 Z " fill="#B377DC" transform="translate(273,152)"/>
<path d="M0 0 C-2.91506455 1.94337637 -3.82971692 2.27674667 -7.125 2.5625 C-10.77463966 2.56686899 -10.77463966 2.56686899 -12 4 C-13.64107242 4.20839015 -15.28856293 4.36751725 -16.9375 4.5 C-20.60557465 4.75214943 -20.60557465 4.75214943 -24 6 C-25.67654729 5.72057545 -27.34608154 5.39171753 -29 5 C-28.67 4.34 -28.34 3.68 -28 3 C-25.953125 2.69140625 -25.953125 2.69140625 -23.25 2.5625 C-17.58016485 2.16968789 -12.33280687 0.97636926 -6.84765625 -0.4765625 C-4.08352626 -0.98464675 -2.60610053 -0.94196405 0 0 Z " fill="#1B072D" transform="translate(388,453)"/>
<path d="M0 0 C0.33 0.99 0.66 1.98 1 3 C0.06027344 3.63615234 0.06027344 3.63615234 -0.8984375 4.28515625 C-6.51623298 8.1131655 -6.51623298 8.1131655 -9.5625 13.9375 C-9.706875 14.948125 -9.85125 15.95875 -10 17 C-12.11758748 13.5798677 -12.11758748 13.5798677 -11.6015625 11.03515625 C-8.83187417 5.44038582 -5.53863275 2.79620294 0 0 Z " fill="#BA86E0" transform="translate(127,336)"/>
<path d="M0 0 C0.66 0 1.32 0 2 0 C0.3003494 4.73474097 -2.13659027 8.96167111 -4.625 13.3125 C-5.04523438 14.05306641 -5.46546875 14.79363281 -5.8984375 15.55664062 C-6.92948495 17.37269011 -7.96436046 19.18656533 -9 21 C-9.33 21 -9.66 21 -10 21 C-10.61528766 15.92387682 -8.61658349 13.17017994 -6 9 C-5.34 9 -4.68 9 -4 9 C-3.34 7.02 -2.68 5.04 -2 3 C-1.34 3 -0.68 3 0 3 C0 2.01 0 1.02 0 0 Z " fill="#13071E" transform="translate(147,259)"/>
<path d="M0 0 C0.33 0 0.66 0 1 0 C1.02469081 4.3782512 1.04285557 8.75646567 1.05493164 13.13476562 C1.05996514 14.62468166 1.06679242 16.11459274 1.07543945 17.60449219 C1.08754805 19.74415304 1.09323807 21.88374868 1.09765625 24.0234375 C1.10289307 25.31169434 1.10812988 26.59995117 1.11352539 27.92724609 C1 31 1 31 0 33 C-0.66 33 -1.32 33 -2 33 C-1.90150757 32.12819092 -1.90150757 32.12819092 -1.80102539 31.23876953 C-1.07410683 24.45553135 -0.70196576 17.69041264 -0.4375 10.875 C-0.39431641 9.823125 -0.35113281 8.77125 -0.30664062 7.6875 C-0.20181491 5.12509373 -0.09964645 2.56261201 0 0 Z " fill="#A173BF" transform="translate(350,39)"/>
<path d="M0 0 C0.99 0.495 0.99 0.495 2 1 C2.5625 3.40625 2.5625 3.40625 3 6.5 C3.56786818 10.30381545 4.19843412 14.01763603 5.125 17.75 C6.09972367 21.91542067 6.15522224 25.73138827 6 30 C5.67 30 5.34 30 5 30 C4.16059383 25.75117602 3.32952653 21.50076295 2.5 17.25 C2.26152344 16.0434375 2.02304687 14.836875 1.77734375 13.59375 C1.55175781 12.43359375 1.32617188 11.2734375 1.09375 10.078125 C0.88427734 9.00981445 0.67480469 7.94150391 0.45898438 6.84082031 C0 4 0 4 0 0 Z " fill="#B482D4" transform="translate(331,330)"/>
<path d="M0 0 C0.66 0.33 1.32 0.66 2 1 C0.02 3.31 -1.96 5.62 -4 8 C-4.33 7.34 -4.66 6.68 -5 6 C-5.55429687 6.16757813 -6.10859375 6.33515625 -6.6796875 6.5078125 C-7.40414063 6.71148437 -8.12859375 6.91515625 -8.875 7.125 C-9.95394531 7.43824219 -9.95394531 7.43824219 -11.0546875 7.7578125 C-11.69664062 7.83773437 -12.33859375 7.91765625 -13 8 C-13.66 7.34 -14.32 6.68 -15 6 C-14.08476562 5.65066406 -13.16953125 5.30132812 -12.2265625 4.94140625 C-11.03804688 4.48636719 -9.84953125 4.03132813 -8.625 3.5625 C-7.44164062 3.11003906 -6.25828125 2.65757813 -5.0390625 2.19140625 C-2.13963807 1.10728088 -2.13963807 1.10728088 0 0 Z " fill="#B98EDA" transform="translate(295,85)"/>
<path d="M0 0 C0.64686768 0.06566162 1.29373535 0.13132324 1.96020508 0.19897461 C9.19896509 0.8996243 16.42113586 1.29106815 23.6875 1.5625 C25.33008789 1.62727539 25.33008789 1.62727539 27.00585938 1.69335938 C29.67048597 1.79808269 32.33518311 1.90025779 35 2 C35 2.33 35 2.66 35 3 C30.81910808 3.04961351 26.63837434 3.08582016 22.45727539 3.10986328 C21.03634657 3.11989146 19.61543822 3.13351741 18.19458008 3.15087891 C16.14659556 3.17526821 14.09888502 3.1865149 12.05078125 3.1953125 C10.82012939 3.20578613 9.58947754 3.21625977 8.3215332 3.22705078 C5.09714697 3.0066407 2.89365119 2.38799202 0 1 C0 0.67 0 0.34 0 0 Z " fill="#8C45B9" transform="translate(229,172)"/>
<path d="M0 0 C0.68620031 1.32338632 1.34786461 2.65949948 2 4 C2.350625 4.70125 2.70125 5.4025 3.0625 6.125 C4.2063563 9.63282599 4.47762013 12.97537875 4.78125 16.640625 C4.96404949 19.07892052 4.96404949 19.07892052 5.5625 21.75 C6.10267627 24.52804938 6.0656399 27.17748449 6 30 C4.39827969 27.0827904 3.54981481 24.45582 2.9296875 21.19140625 C2.75566406 20.27939453 2.58164062 19.36738281 2.40234375 18.42773438 C2.22832031 17.48220703 2.05429687 16.53667969 1.875 15.5625 C1.69324219 14.62083984 1.51148438 13.67917969 1.32421875 12.70898438 C0.51448855 8.39549681 -0.10104727 4.40242346 0 0 Z " fill="#B381D2" transform="translate(325,300)"/>
<path d="M0 0 C0.66 0 1.32 0 2 0 C0.7979058 3.42134502 -0.18897679 5.69244364 -3 8 C-6.03125 9.421875 -6.03125 9.421875 -9.5 10.75 C-10.6446875 11.19859375 -11.789375 11.6471875 -12.96875 12.109375 C-16 13 -16 13 -19 12 C-12.375 9 -12.375 9 -9 9 C-9 8.34 -9 7.68 -9 7 C-5.535 6.505 -5.535 6.505 -2 6 C-2 5.01 -2 4.02 -2 3 C-1.34 3 -0.68 3 0 3 C0 2.01 0 1.02 0 0 Z " fill="#AA74CE" transform="translate(309,140)"/>
<path d="M0 0 C1.29670975 4.31078094 0.54882945 8.02996506 -0.25 12.375 C-0.37246094 13.1175 -0.49492187 13.86 -0.62109375 14.625 C-1.43781508 19.20187396 -2.68643225 22.90576494 -5 27 C-6.35154518 24.29690963 -5.72161356 23.02027337 -5.0390625 20.09765625 C-4.81476563 19.12505859 -4.59046875 18.15246094 -4.359375 17.15039062 C-4.11703125 16.13138672 -3.8746875 15.11238281 -3.625 14.0625 C-3.39039063 13.04736328 -3.15578125 12.03222656 -2.9140625 10.98632812 C-1.17793613 3.53380838 -1.17793613 3.53380838 0 0 Z " fill="#964FC3" transform="translate(175,427)"/>
<path d="M0 0 C0.99928333 2.698065 1.03624754 3.88010429 0.1875 6.6875 C-1 9 -1 9 -3 10 C-3.28875 10.99 -3.5775 11.98 -3.875 13 C-4.24625 13.99 -4.6175 14.98 -5 16 C-7.0703125 16.6875 -7.0703125 16.6875 -9 17 C-8.06506561 15.10290012 -7.12693704 13.20737422 -6.1875 11.3125 C-5.66542969 10.25675781 -5.14335937 9.20101562 -4.60546875 8.11328125 C-3.1713272 5.33223304 -1.64396622 2.66095433 0 0 Z " fill="#B683D9" transform="translate(165,231)"/>
<path d="M0 0 C0.33 0 0.66 0 1 0 C1 2.64 1 5.28 1 8 C0.34 8 -0.32 8 -1 8 C-0.95875 9.051875 -0.9175 10.10375 -0.875 11.1875 C-0.99147875 14.74010173 -1.47208068 16.84866641 -3 20 C-3.66 19.67 -4.32 19.34 -5 19 C-4.35720991 16.20760027 -3.71091335 13.41609416 -3.0625 10.625 C-2.88009766 9.8309375 -2.69769531 9.036875 -2.50976562 8.21875 C-2.33251953 7.45820313 -2.15527344 6.69765625 -1.97265625 5.9140625 C-1.81031494 5.2123291 -1.64797363 4.5105957 -1.48071289 3.78759766 C-1 2 -1 2 0 0 Z " fill="#964FC4" transform="translate(168,456)"/>
<path d="M0 0 C0.33 0 0.66 0 1 0 C1.6986179 2.91440599 2.3842031 5.83086087 3.0625 8.75 C3.26166016 9.575 3.46082031 10.4 3.66601562 11.25 C3.84970703 12.04921875 4.03339844 12.8484375 4.22265625 13.671875 C4.39547119 14.4050293 4.56828613 15.13818359 4.74633789 15.89355469 C5.02424428 18.20132783 4.69809241 19.79916037 4 22 C3.34 21.67 2.68 21.34 2 21 C2 17.04 2 13.08 2 9 C1.34 9 0.68 9 0 9 C0 6.03 0 3.06 0 0 Z " fill="#9B4FCA" transform="translate(319,352)"/>
<path d="M0 0 C0.928125 0.20625 1.85625 0.4125 2.8125 0.625 C0.23465154 3.27252004 -2.10398098 5.56932065 -5.1875 7.625 C-5.5175 5.645 -5.8475 3.665 -6.1875 1.625 C-3.1875 -0.375 -3.1875 -0.375 0 0 Z " fill="#AA51E3" transform="translate(444.1875,420.375)"/>
<path d="M0 0 C2.19571396 3.79530648 3.14245586 7.90709622 4.1875 12.125 C4.37763672 12.85332031 4.56777344 13.58164062 4.76367188 14.33203125 C6.12211361 19.75577278 6.12211361 19.75577278 5 22 C2.54334798 17.62075075 1.58450878 13.96832466 1 9 C0.67 8.67 0.34 8.34 0 8 C-0.14115161 5.32941149 -0.04247107 2.67567762 0 0 Z " fill="#9F52CF" transform="translate(337,432)"/>
<path d="M0 0 C3.1459639 6.29192779 4.37082092 12.95440246 4 20 C3.34 20 2.68 20 2 20 C2 17.03 2 14.06 2 11 C1.34 11 0.68 11 0 11 C0 7.37 0 3.74 0 0 Z " fill="#994FC9" transform="translate(315,332)"/>
<path d="M0 0 C0.73828125 1.58203125 0.73828125 1.58203125 1 4 C-0.18085827 6.38795784 -1.36483564 8.47558643 -2.8125 10.6875 C-3.18181641 11.28111328 -3.55113281 11.87472656 -3.93164062 12.48632812 C-6.70453477 16.85226739 -6.70453477 16.85226739 -9 18 C-7.45614871 13.85967154 -5.48971062 10.06446947 -3.375 6.1875 C-3.05015625 5.59001953 -2.7253125 4.99253906 -2.390625 4.37695312 C-1.59620849 2.91662865 -0.79844624 1.45812509 0 0 Z " fill="#B485D7" transform="translate(196,175)"/>
<path d="M0 0 C0.33 0.66 0.66 1.32 1 2 C-0.07507629 3.29854721 -1.16043736 4.58858361 -2.25 5.875 C-2.85328125 6.59429687 -3.4565625 7.31359375 -4.078125 8.0546875 C-5.97087634 9.97052118 -7.53657727 10.96449045 -10 12 C-10.33 11.01 -10.66 10.02 -11 9 C-10.45730469 8.60167969 -9.91460937 8.20335938 -9.35546875 7.79296875 C-8.64003906 7.26316406 -7.92460937 6.73335938 -7.1875 6.1875 C-6.47980469 5.66542969 -5.77210938 5.14335938 -5.04296875 4.60546875 C-3.21468607 3.16871123 -1.60103312 1.68184237 0 0 Z " fill="#AD74D5" transform="translate(309,74)"/>
<path d="M0 0 C0.33 0.99 0.66 1.98 1 3 C6.94 2.505 6.94 2.505 13 2 C8.34714182 5.10190545 3.58467324 6.33846504 -2 6 C-1.34 4.02 -0.68 2.04 0 0 Z " fill="#B385D4" transform="translate(268,73)"/>
<path d="M0 0 C3.98103298 4.77723958 7.46719209 9.88933687 11 15 C10.67 15.66 10.34 16.32 10 17 C8.84237881 15.78192862 7.6993417 14.54998765 6.5625 13.3125 C5.92441406 12.62800781 5.28632813 11.94351562 4.62890625 11.23828125 C2.83778902 8.77710578 2.37201442 6.99183426 2 4 C1.34 4 0.68 4 0 4 C0 2.68 0 1.36 0 0 Z " fill="#9E53CD" transform="translate(425,361)"/>
<path d="M0 0 C3.0165567 5.60217672 4.25513618 10.49832726 4.125 16.875 C4.10695313 18.02742188 4.08890625 19.17984375 4.0703125 20.3671875 C4.03550781 21.67042969 4.03550781 21.67042969 4 23 C3.67 23 3.34 23 3 23 C2.49494737 20.10496617 1.9957978 17.20912047 1.5 14.3125 C1.35691406 13.49587891 1.21382813 12.67925781 1.06640625 11.83789062 C0.38834038 7.85021752 -0.19858392 4.06269596 0 0 Z " fill="#9E52CD" transform="translate(307,193)"/>
<path d="M0 0 C0.66 0 1.32 0 2 0 C0.68 5.94 -0.64 11.88 -2 18 C-2.33 18 -2.66 18 -3 18 C-4.46205962 9.75609756 -4.46205962 9.75609756 -2.625 6.75 C-1.820625 5.88375 -1.820625 5.88375 -1 5 C-0.28566879 2.35065178 -0.28566879 2.35065178 0 0 Z " fill="#B07ECF" transform="translate(160,420)"/>
<path d="M0 0 C1.81273037 5.96003772 0.86771668 11.98689729 -1.5625 17.625 C-2.036875 18.40875 -2.51125 19.1925 -3 20 C-4.37344385 15.60155678 -3.24307502 12.07495445 -2.0625 7.75 C-1.86720703 7.00492187 -1.67191406 6.25984375 -1.47070312 5.4921875 C-0.98895802 3.65920614 -0.49560775 1.82928182 0 0 Z " fill="#9950CA" transform="translate(185,385)"/>
<path d="M0 0 C0.66 0.33 1.32 0.66 2 1 C0.1875 3 0.1875 3 -2 5 C-2.99 5 -3.98 5 -5 5 C-5.33 5.99 -5.66 6.98 -6 8 C-9.5625 9.1875 -9.5625 9.1875 -13 10 C-9.23156953 5.87827917 -5.11095695 2.36931779 0 0 Z " fill="#B886DA" transform="translate(292,51)"/>
<path d="M0 0 C0.33 0 0.66 0 1 0 C0.88608368 2.60508636 0.75934452 5.20845546 0.625 7.8125 C0.5940625 8.55048828 0.563125 9.28847656 0.53125 10.04882812 C0.32653852 13.81893115 0.13566173 15.79650741 -2 19 C-3.29384979 14.51865271 -2.61333104 11.18505684 -1.5625 6.6875 C-1.13130859 4.80611328 -1.13130859 4.80611328 -0.69140625 2.88671875 C-0.46324219 1.93410156 -0.23507813 0.98148437 0 0 Z " fill="#9B4FC9" transform="translate(189,365)"/>
<path d="M0 0 C0.57105469 0.13277344 1.14210937 0.26554687 1.73046875 0.40234375 C8.79328805 1.94066846 15.79139345 2.57064726 23 3 C23 3.33 23 3.66 23 4 C20.10359882 4.08120751 17.20949088 4.14059421 14.3125 4.1875 C13.49587891 4.21263672 12.67925781 4.23777344 11.83789062 4.26367188 C7.06018259 4.32170072 3.88017566 4.13733144 0 1 C0 0.67 0 0.34 0 0 Z " fill="#9E79B8" transform="translate(230,91)"/>
<path d="M0 0 C0.33 0 0.66 0 1 0 C0.41509121 6.14154225 -0.54066252 12.00679849 -2 18 C-2.33 18 -2.66 18 -3 18 C-2.88521587 15.93690624 -2.75773802 13.87451646 -2.625 11.8125 C-2.55539063 10.66394531 -2.48578125 9.51539063 -2.4140625 8.33203125 C-2.02490426 5.20040883 -1.3190149 2.84714191 0 0 Z " fill="#17052C" transform="translate(185,379)"/>
<path d="M0 0 C0.5775 0.20625 1.155 0.4125 1.75 0.625 C1.42 1.285 1.09 1.945 0.75 2.625 C-0.57 2.955 -1.89 3.285 -3.25 3.625 C-3.58 6.595 -3.91 9.565 -4.25 12.625 C-4.58 12.625 -4.91 12.625 -5.25 12.625 C-5.58 8.995 -5.91 5.365 -6.25 1.625 C-2.25 -0.375 -2.25 -0.375 0 0 Z " fill="#9651C2" transform="translate(309.25,163.375)"/>
<path d="M0 0 C4.75 0.875 4.75 0.875 7 2 C6.67 5.63 6.34 9.26 6 13 C5.67 13 5.34 13 5 13 C4.67 10.03 4.34 7.06 4 4 C2.35 3.67 0.7 3.34 -1 3 C-0.67 2.01 -0.34 1.02 0 0 Z " fill="#B887D7" transform="translate(202,163)"/>
<path d="M0 0 C2.18284504 2.65737657 3.27633685 4.65569263 4 8 C2.39504433 7.88557539 0.79101881 7.75805306 -0.8125 7.625 C-1.70582031 7.55539063 -2.59914062 7.48578125 -3.51953125 7.4140625 C-6 7 -6 7 -9 5 C-5.7 5.33 -2.4 5.66 1 6 C0.67 4.02 0.34 2.04 0 0 Z " fill="#A57CC3" transform="translate(242,71)"/>
<path d="M0 0 C2.35171131 0.59861742 4.6859378 1.26924352 7 2 C8.31625194 4.63250388 7.74813658 5.80179056 7.0625 8.625 C6.86785156 9.44226563 6.67320312 10.25953125 6.47265625 11.1015625 C6.23869141 12.04128906 6.23869141 12.04128906 6 13 C5.02408417 9.61682513 5.14143345 7.4342662 6 4 C3.69 3.34 1.38 2.68 -1 2 C-0.67 1.34 -0.34 0.68 0 0 Z " fill="#190A25" transform="translate(203,161)"/>
<path d="M0 0 C3.04516202 2.83332467 5.16868601 5.65500311 7.25 9.25 C8.03117187 10.58804687 8.03117187 10.58804687 8.828125 11.953125 C9.21484375 12.62859375 9.6015625 13.3040625 10 14 C6.19188768 12.31534126 5.04322273 10.62207666 3 7 C2.34 6.67 1.68 6.34 1 6 C0.375 2.9375 0.375 2.9375 0 0 Z " fill="#9E53D2" transform="translate(436,378)"/>
<path d="M0 0 C1.13643966 3.40931897 0.86747764 4.00335456 -0.4375 7.1875 C-0.72496094 7.90292969 -1.01242187 8.61835937 -1.30859375 9.35546875 C-1.53675781 9.89816406 -1.76492188 10.44085938 -2 11 C-3 8 -3 8 -2 5 C-3.32 4.67 -4.64 4.34 -6 4 C-4.02 2.68 -2.04 1.36 0 0 Z " fill="#B88ADA" transform="translate(308,41)"/>
<path d="M0 0 C1.13757948 4.55031791 0.4283779 6.63084406 -1 11 C-2.65 11 -4.3 11 -6 11 C-5.67 10.34 -5.34 9.68 -5 9 C-4.34 9 -3.68 9 -3 9 C-2.01 6.03 -1.02 3.06 0 0 Z " fill="#B584DB" transform="translate(109,362)"/>
<path d="M0 0 C0.33 0 0.66 0 1 0 C1.05447047 1.41623216 1.09300508 2.83308191 1.125 4.25 C1.14820313 5.03890625 1.17140625 5.8278125 1.1953125 6.640625 C0.8883424 10.34882384 -0.39728586 12.39728586 -3 15 C-2.22095672 4.44191344 -2.22095672 4.44191344 0 0 Z " fill="#A353D4" transform="translate(214,239)"/>
<path d="M0 0 C7 8.75 7 8.75 7 13 C4 12 4 12 2 9 C2 7.68 2 6.36 2 5 C1.34 5 0.68 5 0 5 C0 3.35 0 1.7 0 0 Z " fill="#9F52D1" transform="translate(313,170)"/>
<path d="M0 0 C3.71421404 4.59855071 6.53603697 8.92491435 6 15 C2.35219334 10.8310781 0 5.55196264 0 0 Z " fill="#CAA2E8" transform="translate(183,117)"/>
<path d="M0 0 C0.33 0.66 0.66 1.32 1 2 C0.09515208 3.15518918 -0.8244206 4.29885406 -1.75 5.4375 C-2.26046875 6.07558594 -2.7709375 6.71367187 -3.296875 7.37109375 C-5.19667629 9.18810554 -6.43586908 9.60423197 -9 10 C-8.06409496 8.8944811 -7.12620142 7.79064547 -6.1875 6.6875 C-5.66542969 6.07261719 -5.14335937 5.45773437 -4.60546875 4.82421875 C-3.12827531 3.14575321 -1.59960869 1.56117966 0 0 Z " fill="#170222" transform="translate(458,411)"/>
<path d="M0 0 C0.33 0.99 0.66 1.98 1 3 C-0.3125 4.5 -0.3125 4.5 -2 6 C-2.99 6 -3.98 6 -5 6 C-5 6.66 -5 7.32 -5 8 C-6.65 8.33 -8.3 8.66 -10 9 C-6.83047153 5.73991357 -3.60062011 2.77762123 0 0 Z " fill="#BA88DC" transform="translate(150,52)"/>
<path d="M0 0 C-3.52679099 2.35119399 -5.02879485 2.21443452 -9.1875 2.125 C-10.27417969 2.10695313 -11.36085938 2.08890625 -12.48046875 2.0703125 C-13.72763672 2.03550781 -13.72763672 2.03550781 -15 2 C-15 1.67 -15 1.34 -15 1 C-13.25215171 0.63536268 -11.50159498 0.2836922 -9.75 -0.0625 C-8.28820312 -0.35833984 -8.28820312 -0.35833984 -6.796875 -0.66015625 C-4.131881 -0.98397535 -2.51128277 -0.85503199 0 0 Z " fill="#D4D3D4" transform="translate(293,510)"/>
<path d="M0 0 C0.33 0 0.66 0 1 0 C1.33 1.98 1.66 3.96 2 6 C0.02 6.99 0.02 6.99 -2 8 C-2 8.99 -2 9.98 -2 11 C-2.66 11 -3.32 11 -4 11 C-3.52269162 9.5410574 -3.04308958 8.08286504 -2.5625 6.625 C-2.29566406 5.81289063 -2.02882813 5.00078125 -1.75390625 4.1640625 C-1 2 -1 2 0 0 Z " fill="#B484D8" transform="translate(114,351)"/>
<path d="M0 0 C1.57554035 2.88628401 2.46276373 5.53342384 3.125 8.75 C3.29257813 9.54921875 3.46015625 10.3484375 3.6328125 11.171875 C3.81457031 12.07679687 3.81457031 12.07679687 4 13 C1.4375 11 1.4375 11 -1 8 C-1.14963532 5.10883176 -0.63149193 2.86600184 0 0 Z " fill="#B58BD0" transform="translate(187,42)"/>
<path d="M0 0 C1.32 0.33 2.64 0.66 4 1 C3.46930939 4.82097239 2.50298434 7.06171403 0 10 C-0.66 9.67 -1.32 9.34 -2 9 C-1.34 8.01 -0.68 7.02 0 6 C0.16699232 2.87478167 0.16699232 2.87478167 0 0 Z " fill="#C48CE8" transform="translate(144,319)"/>
<path d="M0 0 C0.66 0 1.32 0 2 0 C0.72278474 4.99275057 -1.17330957 7.57611908 -5 11 C-5 10.01 -5 9.02 -5 8 C-4.34 8 -3.68 8 -3 8 C-3.33 7.01 -3.66 6.02 -4 5 C-3.01 5 -2.02 5 -1 5 C-0.67 3.35 -0.34 1.7 0 0 Z " fill="#160622" transform="translate(316,60)"/>
<path d="M0 0 C1.67110042 2.96178773 2.32682752 5.37071192 2.625 8.75 C2.69976562 9.54921875 2.77453125 10.3484375 2.8515625 11.171875 C2.90054687 11.77515625 2.94953125 12.3784375 3 13 C-0.97674419 9.14376321 -0.97674419 9.14376321 -1.04296875 5.88671875 C-0.7798228 3.91136985 -0.39718314 1.95281709 0 0 Z " fill="#9A4ECB" transform="translate(345,462)"/>
<path d="M0 0 C6.40818182 -0.36272727 6.40818182 -0.36272727 8.9375 1.1875 C10.32851983 3.56041618 10.21917317 5.29686424 10 8 C9.46375 7.21625 8.9275 6.4325 8.375 5.625 C5.69757158 2.66573701 3.81566975 1.95391744 0 1 C0 0.67 0 0.34 0 0 Z " fill="#B783DA" transform="translate(343,421)"/>
<path d="M0 0 C0.33 0 0.66 0 1 0 C1.08086147 1.79093191 1.13912702 3.58289628 1.1875 5.375 C1.22230469 6.37273437 1.25710937 7.37046875 1.29296875 8.3984375 C1.19628906 9.25695312 1.09960938 10.11546875 1 11 C0.01 11.66 -0.98 12.32 -2 13 C-1.48041715 8.62065881 -0.94324258 4.31196609 0 0 Z " fill="#984DC7" transform="translate(202,301)"/>
<path d="M0 0 C0.33 0 0.66 0 1 0 C1.36923077 7.38461538 1.36923077 7.38461538 -0.5 10.5 C-0.995 10.995 -1.49 11.49 -2 12 C-2.28571429 3.42857143 -2.28571429 3.42857143 0 0 Z " fill="#9E4ECF" transform="translate(220,200)"/>
<path d="M0 0 C-1.9626228 2.04795423 -3.4277307 2.94976638 -6.26953125 3.19921875 C-8.51954383 3.18858877 -10.75385562 3.12958525 -13 3 C-3.70474138 -1.85237069 -3.70474138 -1.85237069 0 0 Z " fill="#200834" transform="translate(320,488)"/>
<path d="M0 0 C2 3 2 3 1.8125 5.5625 C1 8 1 8 -2 10 C-2.66 9.34 -3.32 8.68 -4 8 C-3.01 7.34 -2.02 6.68 -1 6 C-0.26656572 2.93443402 -0.26656572 2.93443402 0 0 Z " fill="#1D0B2E" transform="translate(348,469)"/>
<path d="M0 0 C3.08089673 2.77280706 4.68775452 5.06326356 6 9 C5.01 9.495 5.01 9.495 4 10 C1.2027092 7.93243723 0.97307727 6.85559629 0.3125 3.3125 C0.209375 2.219375 0.10625 1.12625 0 0 Z " fill="#A151D2" transform="translate(387,301)"/>
<path d="M0 0 C0.33 0 0.66 0 1 0 C1.39169887 2.66355234 1.40564529 4.39224373 -0.11328125 6.66796875 C-1.36389317 8.1510888 -2.67864514 9.57954352 -4 11 C-4.66 10.67 -5.32 10.34 -6 10 C-5.02526874 8.33073546 -4.04510211 6.66464358 -3.0625 5 C-2.24458984 3.6078125 -2.24458984 3.6078125 -1.41015625 2.1875 C-0.71212891 1.1046875 -0.71212891 1.1046875 0 0 Z " fill="#B182D3" transform="translate(136,281)"/>
<path d="M0 0 C2.01136276 2.55991624 3.62845496 5.04590299 5 8 C3.35 7.67 1.7 7.34 0 7 C-1.04449911 3.86650268 -0.93423645 3.01031744 0 0 Z " fill="#A24FDB" transform="translate(339,218)"/>
<path d="M0 0 C-3.77222089 1.75163456 -6.666639 2.22490027 -10.8125 2.125 C-12.27623047 2.09792969 -12.27623047 2.09792969 -13.76953125 2.0703125 C-14.50558594 2.04710938 -15.24164063 2.02390625 -16 2 C-16 1.67 -16 1.34 -16 1 C-14.0852312 0.63571223 -12.16807707 0.28394694 -10.25 -0.0625 C-9.18265625 -0.25972656 -8.1153125 -0.45695312 -7.015625 -0.66015625 C-4.25228095 -0.97156937 -2.59053383 -0.8991416 0 0 Z " fill="#AD86C8" transform="translate(280,93)"/>
<path d="M0 0 C5.95703125 -0.390625 5.95703125 -0.390625 8 0 C8.99 1.32 9.98 2.64 11 4 C7.37 3.01 3.74 2.02 0 1 C0 0.67 0 0.34 0 0 Z " fill="#984EC6" transform="translate(182,483)"/>
<path d="M0 0 C-3.31371 2.20914 -4.3446021 2.22481553 -8.1875 2.125 C-9.08855469 2.10695313 -9.98960937 2.08890625 -10.91796875 2.0703125 C-11.60503906 2.04710937 -12.29210937 2.02390625 -13 2 C-13 1.67 -13 1.34 -13 1 C-11.58622218 0.63447197 -10.16879424 0.28304505 -8.75 -0.0625 C-7.96109375 -0.25972656 -7.1721875 -0.45695312 -6.359375 -0.66015625 C-3.89605178 -1.01497267 -2.34395868 -0.76877544 0 0 Z " fill="#240B39" transform="translate(388,453)"/>
<path d="M0 0 C0.33 0 0.66 0 1 0 C1.08121924 1.60332791 1.13929134 3.20784026 1.1875 4.8125 C1.23970703 6.15248047 1.23970703 6.15248047 1.29296875 7.51953125 C0.95081002 10.41647515 0.24606427 11.22555028 -2 13 C-1.48041715 8.62065881 -0.94324258 4.31196609 0 0 Z " fill="#934BC1" transform="translate(180,405)"/>
<path d="M0 0 C3.80881639 1.44472346 5.29742886 3.32603071 7 7 C6.67 7.99 6.34 8.98 6 10 C4.99723227 8.52270825 3.99785546 7.04311423 3 5.5625 C2.443125 4.73878906 1.88625 3.91507812 1.3125 3.06640625 C0 1 0 1 0 0 Z " fill="#170325" transform="translate(416,346)"/>
<path d="M0 0 C0.66 1.32 1.32 2.64 2 4 C0.02 6.97 0.02 6.97 -2 10 C-2.66 9.67 -3.32 9.34 -4 9 C-2.80100302 5.9168649 -1.52299523 2.93720508 0 0 Z " fill="#B881DA" transform="translate(170,222)"/>
<path d="M0 0 C0.33 1.32 0.66 2.64 1 4 C-1.25 6.0625 -1.25 6.0625 -4 8 C-6.3125 7.75 -6.3125 7.75 -8 7 C-7.05125 6.773125 -6.1025 6.54625 -5.125 6.3125 C-1.80676612 5.30916286 -1.80676612 5.30916286 -0.625 2.375 C-0.41875 1.59125 -0.2125 0.8075 0 0 Z " fill="#1E0C2E" transform="translate(310,142)"/>
<path d="M0 0 C0.33 0 0.66 0 1 0 C1.08121924 1.60332791 1.13929134 3.20784026 1.1875 4.8125 C1.23970703 6.15248047 1.23970703 6.15248047 1.29296875 7.51953125 C0.95081002 10.41647515 0.24606427 11.22555028 -2 13 C-1.48041715 8.62065881 -0.94324258 4.31196609 0 0 Z " fill="#1E0E2D" transform="translate(330,86)"/>
<path d="M0 0 C-2.64 1.65 -5.28 3.3 -8 5 C-8.33 4.34 -8.66 3.68 -9 3 C-7 0 -7 0 -4.5 -0.75 C-2 -1 -2 -1 0 0 Z " fill="#150721" transform="translate(292,52)"/>
<path d="M0 0 C1.32 0 2.64 0 4 0 C3.6875 1.9375 3.6875 1.9375 3 4 C2.01 4.33 1.02 4.66 0 5 C-0.66 4.34 -1.32 3.68 -2 3 C-1.34 2.01 -0.68 1.02 0 0 Z " fill="#CE8AFC" transform="translate(302,46)"/>
<path d="M0 0 C2.64 0 5.28 0 8 0 C8 0.66 8 1.32 8 2 C5.36 2.99 2.72 3.98 0 5 C0 3.35 0 1.7 0 0 Z " fill="#A150D7" transform="translate(336,476)"/>
<path d="M0 0 C2.50037734 2.17424117 3.43628586 3.73045798 4 7 C3.34 7 2.68 7 2 7 C1.67 6.34 1.34 5.68 1 5 C-1.02463255 4.34786708 -1.02463255 4.34786708 -3 4 C-2.01 2.68 -1.02 1.36 0 0 Z " fill="#B786D4" transform="translate(88,359)"/>
<path d="M0 0 C1.37562854 1.28965176 2.70766393 2.62689293 4 4 C4 4.66 4 5.32 4 6 C2.35 6 0.7 6 -1 6 C-0.67 4.02 -0.34 2.04 0 0 Z " fill="#A151D8" transform="translate(419,352)"/>
<path d="M0 0 C0.66 1.32 1.32 2.64 2 4 C0.02 4.99 0.02 4.99 -2 6 C-2 6.66 -2 7.32 -2 8 C-2.66 7.67 -3.32 7.34 -4 7 C-2.68 4.69 -1.36 2.38 0 0 Z " fill="#B884DD" transform="translate(141,273)"/>
<path d="M0 0 C2.95409701 1.37154504 5.44008376 2.98863724 8 5 C5.16032769 5 2.76264289 4.59732819 0 4 C0 2.68 0 1.36 0 0 Z " fill="#C194E3" transform="translate(209,81)"/>
<path d="M0 0 C0.33 1.32 0.66 2.64 1 4 C-0.98 4.99 -0.98 4.99 -3 6 C-3 6.66 -3 7.32 -3 8 C-3.66 8 -4.32 8 -5 8 C-3.8141763 4.62496331 -2.72426311 2.35277269 0 0 Z " fill="#B683D6" transform="translate(274,65)"/>
<path d="M0 0 C3.465 1.98 3.465 1.98 7 4 C6.38125 4.144375 5.7625 4.28875 5.125 4.4375 C2.96741678 4.93152225 2.96741678 4.93152225 1 6 C0.67 4.02 0.34 2.04 0 0 Z " fill="#B58AD6" transform="translate(203,41)"/>
<path d="M0 0 C0.33 0 0.66 0 1 0 C1 2.64 1 5.28 1 8 C0.34 8 -0.32 8 -1 8 C-1.33 8.66 -1.66 9.32 -2 10 C-1.125 2.25 -1.125 2.25 0 0 Z " fill="#9D50CE" transform="translate(168,456)"/>
<path d="M0 0 C0.66 0.33 1.32 0.66 2 1 C1.01 2.485 1.01 2.485 0 4 C-0.66 4 -1.32 4 -2 4 C-2.33 5.32 -2.66 6.64 -3 8 C-3.99 7.67 -4.98 7.34 -6 7 C-4.625 5 -4.625 5 -3 3 C-2.34 3 -1.68 3 -1 3 C-0.67 2.01 -0.34 1.02 0 0 Z " fill="#C18AE8" transform="translate(133,289)"/>
<path d="M0 0 C0.99 0.33 1.98 0.66 3 1 C1.625 2.5 1.625 2.5 0 4 C-0.66 4 -1.32 4 -2 4 C-2.33 4.66 -2.66 5.32 -3 6 C-3 4.68 -3 3.36 -3 2 C-2.01 1.34 -1.02 0.68 0 0 Z " fill="#DDCDE7" transform="translate(405,178)"/>
<path d="M0 0 C2.31 0.66 4.62 1.32 7 2 C4.64561267 3.42944945 3.51967567 4.08661261 0.75 3.625 C0.1725 3.41875 -0.405 3.2125 -1 3 C-0.67 2.01 -0.34 1.02 0 0 Z " fill="#C396E2" transform="translate(223,89)"/>
<path d="M0 0 C3.465 1.98 3.465 1.98 7 4 C6.34 5.32 5.68 6.64 5 8 C4.87625 7.071875 4.87625 7.071875 4.75 6.125 C4.18741541 3.81562433 4.18741541 3.81562433 1.9375 2.75 C1.298125 2.5025 0.65875 2.255 0 2 C0 1.34 0 0.68 0 0 Z " fill="#BB89DB" transform="translate(375,63)"/>
<path d="M0 0 C0 3.64478912 -0.85802506 5.09303401 -3 8 C-5.109375 8.6484375 -5.109375 8.6484375 -7 9 C-6.02180976 7.68677212 -5.0424189 6.37443848 -4.0625 5.0625 C-3.51722656 4.33160156 -2.97195312 3.60070313 -2.41015625 2.84765625 C-1 1 -1 1 0 0 Z " fill="#B485D5" transform="translate(158,43)"/>
<path d="M0 0 C0.33 0.99 0.66 1.98 1 3 C0.01 4.485 0.01 4.485 -1 6 C-1.66 6 -2.32 6 -3 6 C-3 6.66 -3 7.32 -3 8 C-3.66 7.67 -4.32 7.34 -5 7 C-3.35 4.69 -1.7 2.38 0 0 Z " fill="#B181D4" transform="translate(66,392)"/>
<path d="M0 0 C2.72426311 2.35277269 3.8141763 4.62496331 5 8 C3.68 7.67 2.36 7.34 1 7 C0.67 4.69 0.34 2.38 0 0 Z " fill="#9752CC" transform="translate(378,286)"/>
</svg>
